%TF.GenerationSoftware,KiCad,Pcbnew,8.0.4*%
%TF.CreationDate,2024-10-06T13:03:41-05:00*%
%TF.ProjectId,BinauralMic,42696e61-7572-4616-9c4d-69632e6b6963,rev?*%
%TF.SameCoordinates,Original*%
%TF.FileFunction,Paste,Top*%
%TF.FilePolarity,Positive*%
%FSLAX46Y46*%
G04 Gerber Fmt 4.6, Leading zero omitted, Abs format (unit mm)*
G04 Created by KiCad (PCBNEW 8.0.4) date 2024-10-06 13:03:41*
%MOMM*%
%LPD*%
G01*
G04 APERTURE LIST*
G04 Aperture macros list*
%AMRoundRect*
0 Rectangle with rounded corners*
0 $1 Rounding radius*
0 $2 $3 $4 $5 $6 $7 $8 $9 X,Y pos of 4 corners*
0 Add a 4 corners polygon primitive as box body*
4,1,4,$2,$3,$4,$5,$6,$7,$8,$9,$2,$3,0*
0 Add four circle primitives for the rounded corners*
1,1,$1+$1,$2,$3*
1,1,$1+$1,$4,$5*
1,1,$1+$1,$6,$7*
1,1,$1+$1,$8,$9*
0 Add four rect primitives between the rounded corners*
20,1,$1+$1,$2,$3,$4,$5,0*
20,1,$1+$1,$4,$5,$6,$7,0*
20,1,$1+$1,$6,$7,$8,$9,0*
20,1,$1+$1,$8,$9,$2,$3,0*%
G04 Aperture macros list end*
%ADD10R,2.100000X5.600000*%
%ADD11RoundRect,0.250000X-0.412500X-0.650000X0.412500X-0.650000X0.412500X0.650000X-0.412500X0.650000X0*%
%ADD12RoundRect,0.250000X0.337500X0.475000X-0.337500X0.475000X-0.337500X-0.475000X0.337500X-0.475000X0*%
%ADD13RoundRect,0.237500X-0.300000X-0.237500X0.300000X-0.237500X0.300000X0.237500X-0.300000X0.237500X0*%
%ADD14RoundRect,0.237500X-0.237500X0.250000X-0.237500X-0.250000X0.237500X-0.250000X0.237500X0.250000X0*%
%ADD15RoundRect,0.237500X-0.250000X-0.237500X0.250000X-0.237500X0.250000X0.237500X-0.250000X0.237500X0*%
%ADD16RoundRect,0.237500X0.237500X-0.250000X0.237500X0.250000X-0.237500X0.250000X-0.237500X-0.250000X0*%
%ADD17RoundRect,0.250000X1.100000X-0.412500X1.100000X0.412500X-1.100000X0.412500X-1.100000X-0.412500X0*%
%ADD18RoundRect,0.162500X0.617500X0.162500X-0.617500X0.162500X-0.617500X-0.162500X0.617500X-0.162500X0*%
%ADD19RoundRect,0.237500X0.250000X0.237500X-0.250000X0.237500X-0.250000X-0.237500X0.250000X-0.237500X0*%
%ADD20RoundRect,0.150000X-0.150000X0.825000X-0.150000X-0.825000X0.150000X-0.825000X0.150000X0.825000X0*%
%ADD21RoundRect,0.237500X-0.237500X0.300000X-0.237500X-0.300000X0.237500X-0.300000X0.237500X0.300000X0*%
%ADD22RoundRect,0.150000X0.150000X0.750000X-0.150000X0.750000X-0.150000X-0.750000X0.150000X-0.750000X0*%
%ADD23RoundRect,0.250000X0.650000X-0.412500X0.650000X0.412500X-0.650000X0.412500X-0.650000X-0.412500X0*%
%ADD24RoundRect,0.250000X-0.475000X0.337500X-0.475000X-0.337500X0.475000X-0.337500X0.475000X0.337500X0*%
%ADD25RoundRect,0.237500X-0.237500X0.287500X-0.237500X-0.287500X0.237500X-0.287500X0.237500X0.287500X0*%
%ADD26RoundRect,0.250000X-0.650000X0.412500X-0.650000X-0.412500X0.650000X-0.412500X0.650000X0.412500X0*%
%ADD27RoundRect,0.237500X0.237500X-0.300000X0.237500X0.300000X-0.237500X0.300000X-0.237500X-0.300000X0*%
%ADD28RoundRect,0.162500X0.162500X-0.617500X0.162500X0.617500X-0.162500X0.617500X-0.162500X-0.617500X0*%
%ADD29RoundRect,0.150000X-0.150000X-0.750000X0.150000X-0.750000X0.150000X0.750000X-0.150000X0.750000X0*%
%ADD30RoundRect,0.050000X-0.100000X-0.250000X0.100000X-0.250000X0.100000X0.250000X-0.100000X0.250000X0*%
%ADD31RoundRect,0.250000X-0.337500X-0.475000X0.337500X-0.475000X0.337500X0.475000X-0.337500X0.475000X0*%
%ADD32RoundRect,0.050000X0.100000X0.250000X-0.100000X0.250000X-0.100000X-0.250000X0.100000X-0.250000X0*%
%ADD33RoundRect,0.150000X0.150000X0.425000X-0.150000X0.425000X-0.150000X-0.425000X0.150000X-0.425000X0*%
%ADD34RoundRect,0.075000X0.075000X0.500000X-0.075000X0.500000X-0.075000X-0.500000X0.075000X-0.500000X0*%
%ADD35O,1.000000X2.100000*%
%ADD36O,1.000000X1.800000*%
%ADD37R,1.800000X0.450000*%
%ADD38RoundRect,0.150000X-0.150000X0.512500X-0.150000X-0.512500X0.150000X-0.512500X0.150000X0.512500X0*%
G04 APERTURE END LIST*
D10*
%TO.C,Y1*%
X161815981Y-70059545D03*
X161815981Y-79559545D03*
%TD*%
D11*
%TO.C,C4*%
X156253481Y-52959545D03*
X159378481Y-52959545D03*
%TD*%
D12*
%TO.C,C19*%
X144637500Y-81400000D03*
X142562500Y-81400000D03*
%TD*%
D13*
%TO.C,C7*%
X128574999Y-65400000D03*
X130300001Y-65400000D03*
%TD*%
D14*
%TO.C,R18*%
X154600000Y-65287500D03*
X154600000Y-67112500D03*
%TD*%
D15*
%TO.C,R17*%
X148887500Y-62800000D03*
X150712500Y-62800000D03*
%TD*%
D16*
%TO.C,R14*%
X132437500Y-80912500D03*
X132437500Y-79087500D03*
%TD*%
D14*
%TO.C,R20*%
X139600000Y-65887500D03*
X139600000Y-67712500D03*
%TD*%
D17*
%TO.C,C6*%
X128100000Y-55762502D03*
X128100000Y-52637502D03*
%TD*%
D14*
%TO.C,R7*%
X132637500Y-63687500D03*
X132637500Y-65512500D03*
%TD*%
D15*
%TO.C,R11*%
X128325000Y-81000000D03*
X130150000Y-81000000D03*
%TD*%
D18*
%TO.C,U3*%
X148750000Y-67150000D03*
X148750000Y-66200000D03*
X148750000Y-65250000D03*
X146050000Y-65250000D03*
X146050000Y-67150000D03*
%TD*%
D11*
%TO.C,C15*%
X132712500Y-76400000D03*
X135837500Y-76400000D03*
%TD*%
D14*
%TO.C,R19*%
X141600000Y-65887500D03*
X141600000Y-67712500D03*
%TD*%
D17*
%TO.C,C1*%
X148200000Y-57162500D03*
X148200000Y-54037500D03*
%TD*%
D19*
%TO.C,R5*%
X130350000Y-61400000D03*
X128525000Y-61400000D03*
%TD*%
D20*
%TO.C,U2*%
X129342500Y-69687498D03*
X128072500Y-69687498D03*
X126802500Y-69687498D03*
X125532500Y-69687498D03*
X125532500Y-74637498D03*
X126802500Y-74637498D03*
X128072500Y-74637498D03*
X129342500Y-74637498D03*
%TD*%
D21*
%TO.C,C22*%
X156815981Y-78197043D03*
X156815981Y-79922045D03*
%TD*%
D15*
%TO.C,R4*%
X128525000Y-63400000D03*
X130350000Y-63400000D03*
%TD*%
D22*
%TO.C,L2*%
X131075000Y-58450003D03*
X129725000Y-58450003D03*
%TD*%
D23*
%TO.C,C11*%
X131637500Y-73762500D03*
X131637500Y-70637500D03*
%TD*%
D19*
%TO.C,R12*%
X130150000Y-83000000D03*
X128325000Y-83000000D03*
%TD*%
D16*
%TO.C,R16*%
X143600000Y-67712500D03*
X143600000Y-65887500D03*
%TD*%
D24*
%TO.C,C16*%
X151800000Y-65162500D03*
X151800000Y-67237500D03*
%TD*%
D25*
%TO.C,D4*%
X156800000Y-65325001D03*
X156800000Y-67074999D03*
%TD*%
D17*
%TO.C,C5*%
X132600000Y-55762500D03*
X132600000Y-52637500D03*
%TD*%
D26*
%TO.C,C8*%
X126237500Y-64037500D03*
X126237500Y-67162500D03*
%TD*%
D11*
%TO.C,C9*%
X132875000Y-68000000D03*
X136000000Y-68000000D03*
%TD*%
D23*
%TO.C,C14*%
X126037500Y-80362500D03*
X126037500Y-77237500D03*
%TD*%
D27*
%TO.C,C21*%
X156815982Y-71422047D03*
X156815982Y-69697045D03*
%TD*%
D28*
%TO.C,U1*%
X156865981Y-59059545D03*
X157815981Y-59059545D03*
X158765981Y-59059545D03*
X158765981Y-56359545D03*
X156865981Y-56359545D03*
%TD*%
D15*
%TO.C,R13*%
X128325000Y-77000000D03*
X130150000Y-77000000D03*
%TD*%
D19*
%TO.C,R8*%
X136150000Y-70400000D03*
X134325000Y-70400000D03*
%TD*%
D17*
%TO.C,C2*%
X153200000Y-57162500D03*
X153200000Y-54037500D03*
%TD*%
D29*
%TO.C,L1*%
X149925000Y-59800000D03*
X151275000Y-59800000D03*
%TD*%
D30*
%TO.C,D5*%
X136715983Y-61309546D03*
X137415981Y-61309546D03*
%TD*%
D13*
%TO.C,C13*%
X128374999Y-79000000D03*
X130100001Y-79000000D03*
%TD*%
D31*
%TO.C,C24*%
X152455982Y-72809545D03*
X154530982Y-72809545D03*
%TD*%
%TO.C,C23*%
X152455983Y-79059546D03*
X154530983Y-79059546D03*
%TD*%
D11*
%TO.C,C3*%
X156253481Y-62209545D03*
X159378481Y-62209545D03*
%TD*%
D31*
%TO.C,C17*%
X152455982Y-70059546D03*
X154530982Y-70059546D03*
%TD*%
D19*
%TO.C,R15*%
X136187500Y-74000000D03*
X134362500Y-74000000D03*
%TD*%
D14*
%TO.C,R10*%
X123250000Y-76087500D03*
X123250000Y-77912500D03*
%TD*%
D32*
%TO.C,D2*%
X144415980Y-61309546D03*
X143715982Y-61309546D03*
%TD*%
D33*
%TO.C,J2*%
X143765981Y-58489546D03*
X142965981Y-58489546D03*
D34*
X141815981Y-58489545D03*
X140815981Y-58489546D03*
X140315981Y-58489546D03*
X139315981Y-58489545D03*
D33*
X138165981Y-58489546D03*
X137365981Y-58489546D03*
X137365981Y-58489546D03*
X138165981Y-58489546D03*
D34*
X138815981Y-58489546D03*
X139815981Y-58489546D03*
X141315981Y-58489546D03*
X142315981Y-58489546D03*
D33*
X142965981Y-58489546D03*
X143765981Y-58489546D03*
D35*
X144885981Y-57914546D03*
D36*
X144885981Y-53734546D03*
D35*
X136245981Y-57914546D03*
D36*
X136245981Y-53734546D03*
%TD*%
D31*
%TO.C,C18*%
X152455980Y-76559546D03*
X154530980Y-76559546D03*
%TD*%
D15*
%TO.C,R6*%
X128525000Y-67400000D03*
X130350000Y-67400000D03*
%TD*%
D37*
%TO.C,IC1*%
X142765982Y-70084546D03*
X142765982Y-70734546D03*
X142765982Y-71384546D03*
X142765982Y-72034546D03*
X142765981Y-72684546D03*
X142765982Y-73334546D03*
X142765982Y-73984546D03*
X142765982Y-74634546D03*
X142765982Y-75284546D03*
X142765981Y-75934546D03*
X142765982Y-76584546D03*
X142765982Y-77234546D03*
X142765982Y-77884546D03*
X142765982Y-78534546D03*
X149865982Y-78534546D03*
X149865982Y-77884546D03*
X149865982Y-77234546D03*
X149865982Y-76584546D03*
X149865983Y-75934546D03*
X149865982Y-75284546D03*
X149865982Y-74634546D03*
X149865982Y-73984546D03*
X149865982Y-73334546D03*
X149865983Y-72684546D03*
X149865982Y-72034546D03*
X149865982Y-71384546D03*
X149865982Y-70734546D03*
X149865982Y-70084546D03*
%TD*%
D24*
%TO.C,C20*%
X139500000Y-71662500D03*
X139500000Y-73737500D03*
%TD*%
D38*
%TO.C,D3*%
X141515980Y-61462500D03*
X139615982Y-61462500D03*
X140565981Y-63737500D03*
%TD*%
D14*
%TO.C,R21*%
X156815981Y-73897045D03*
X156815981Y-75722045D03*
%TD*%
%TO.C,R9*%
X123250000Y-71587500D03*
X123250000Y-73412500D03*
%TD*%
M02*
