%TF.GenerationSoftware,KiCad,Pcbnew,8.0.4*%
%TF.CreationDate,2024-10-06T13:03:41-05:00*%
%TF.ProjectId,BinauralMic,42696e61-7572-4616-9c4d-69632e6b6963,rev?*%
%TF.SameCoordinates,Original*%
%TF.FileFunction,Copper,L4,Bot*%
%TF.FilePolarity,Positive*%
%FSLAX46Y46*%
G04 Gerber Fmt 4.6, Leading zero omitted, Abs format (unit mm)*
G04 Created by KiCad (PCBNEW 8.0.4) date 2024-10-06 13:03:41*
%MOMM*%
%LPD*%
G01*
G04 APERTURE LIST*
G04 Aperture macros list*
%AMRoundRect*
0 Rectangle with rounded corners*
0 $1 Rounding radius*
0 $2 $3 $4 $5 $6 $7 $8 $9 X,Y pos of 4 corners*
0 Add a 4 corners polygon primitive as box body*
4,1,4,$2,$3,$4,$5,$6,$7,$8,$9,$2,$3,0*
0 Add four circle primitives for the rounded corners*
1,1,$1+$1,$2,$3*
1,1,$1+$1,$4,$5*
1,1,$1+$1,$6,$7*
1,1,$1+$1,$8,$9*
0 Add four rect primitives between the rounded corners*
20,1,$1+$1,$2,$3,$4,$5,0*
20,1,$1+$1,$4,$5,$6,$7,0*
20,1,$1+$1,$6,$7,$8,$9,0*
20,1,$1+$1,$8,$9,$2,$3,0*%
G04 Aperture macros list end*
%TA.AperFunction,ComponentPad*%
%ADD10R,1.350000X1.350000*%
%TD*%
%TA.AperFunction,ComponentPad*%
%ADD11O,1.350000X1.350000*%
%TD*%
%TA.AperFunction,ComponentPad*%
%ADD12O,1.000000X2.100000*%
%TD*%
%TA.AperFunction,ComponentPad*%
%ADD13O,1.000000X1.800000*%
%TD*%
%TA.AperFunction,SMDPad,CuDef*%
%ADD14RoundRect,0.237500X0.237500X-0.250000X0.237500X0.250000X-0.237500X0.250000X-0.237500X-0.250000X0*%
%TD*%
%TA.AperFunction,SMDPad,CuDef*%
%ADD15RoundRect,0.250000X0.412500X0.650000X-0.412500X0.650000X-0.412500X-0.650000X0.412500X-0.650000X0*%
%TD*%
%TA.AperFunction,SMDPad,CuDef*%
%ADD16RoundRect,0.250000X0.337500X0.475000X-0.337500X0.475000X-0.337500X-0.475000X0.337500X-0.475000X0*%
%TD*%
%TA.AperFunction,ViaPad*%
%ADD17C,0.600000*%
%TD*%
%TA.AperFunction,ViaPad*%
%ADD18C,0.800000*%
%TD*%
%TA.AperFunction,Conductor*%
%ADD19C,0.200000*%
%TD*%
%TA.AperFunction,Conductor*%
%ADD20C,0.400000*%
%TD*%
G04 APERTURE END LIST*
D10*
%TO.P,J4,1,Pin_1*%
%TO.N,/VRAW_{L}*%
X126037500Y-61600000D03*
D11*
%TO.P,J4,2,Pin_2*%
%TO.N,/VCOM*%
X124037499Y-61600000D03*
%TD*%
D10*
%TO.P,J3,1,Pin_1*%
%TO.N,/VRAW_{R}*%
X126037500Y-82800000D03*
D11*
%TO.P,J3,2,Pin_2*%
%TO.N,/VCOM*%
X124037499Y-82800000D03*
%TD*%
D12*
%TO.P,J2,S1,SHIELD*%
%TO.N,unconnected-(J2-SHIELD-PadS1)_1*%
X144885981Y-57914546D03*
D13*
%TO.N,unconnected-(J2-SHIELD-PadS1)_2*%
X144885981Y-53734546D03*
D12*
%TO.N,unconnected-(J2-SHIELD-PadS1)*%
X136245981Y-57914546D03*
D13*
%TO.N,unconnected-(J2-SHIELD-PadS1)_3*%
X136245981Y-53734546D03*
%TD*%
D14*
%TO.P,R2,1*%
%TO.N,/Connectors/CC1*%
X141815980Y-55722046D03*
%TO.P,R2,2*%
%TO.N,GND*%
X141815980Y-53897046D03*
%TD*%
%TO.P,R3,1*%
%TO.N,/Connectors/CC2*%
X138815982Y-55722046D03*
%TO.P,R3,2*%
%TO.N,GND*%
X138815982Y-53897046D03*
%TD*%
D15*
%TO.P,C12,1*%
%TO.N,GND*%
X128200000Y-75250000D03*
%TO.P,C12,2*%
%TO.N,/VCOM*%
X125075000Y-75250000D03*
%TD*%
D16*
%TO.P,C10,1*%
%TO.N,+3.3VA*%
X128475000Y-72162498D03*
%TO.P,C10,2*%
%TO.N,GND*%
X126400000Y-72162498D03*
%TD*%
D17*
%TO.N,GND*%
X143250000Y-54750000D03*
X140500000Y-54000000D03*
X141000000Y-53000000D03*
X137500000Y-54750000D03*
X143250000Y-53000000D03*
X142250000Y-53000000D03*
X140000000Y-53000000D03*
X138750000Y-53000000D03*
X137500000Y-53000000D03*
%TO.N,+3.3VA*%
X128500000Y-57100000D03*
X127200000Y-57100000D03*
X128500000Y-58400000D03*
X131400000Y-60000000D03*
X130400000Y-60000000D03*
X127800000Y-57700000D03*
X128400000Y-60000000D03*
X129900000Y-73300000D03*
X123500000Y-70500000D03*
X129400000Y-60000000D03*
X130400000Y-74000000D03*
%TO.N,GND*%
X161800000Y-59400000D03*
X154200000Y-71600000D03*
X149200000Y-64000000D03*
X139600000Y-78400000D03*
X124400000Y-58600000D03*
X149200000Y-82400000D03*
D18*
X145400000Y-61200000D03*
D17*
X161800000Y-62400000D03*
X151200000Y-81400000D03*
X158200000Y-54400000D03*
X137600000Y-78400000D03*
X160800000Y-62400000D03*
X133600000Y-72900000D03*
X152200000Y-81400000D03*
X150200000Y-81400000D03*
X150400000Y-64600000D03*
X124400000Y-59600000D03*
X151200000Y-82400000D03*
X141370013Y-72396168D03*
X160800000Y-60400000D03*
X164800000Y-63400000D03*
X125400000Y-57600000D03*
X157800000Y-53800000D03*
X158200000Y-51600000D03*
X126400000Y-59600000D03*
X162800000Y-63400000D03*
X123400000Y-57600000D03*
X157815981Y-60400000D03*
D18*
X136800000Y-63400000D03*
D17*
X122400000Y-59600000D03*
X154200000Y-80400000D03*
X148200000Y-82400000D03*
X122400000Y-57600000D03*
X150200000Y-80400000D03*
X157800000Y-53000000D03*
X163800000Y-59400000D03*
X124400000Y-57600000D03*
X147200000Y-81400000D03*
X136600000Y-78400000D03*
X134700000Y-71600000D03*
X152200000Y-82400000D03*
X155200000Y-81400000D03*
X160800000Y-59400000D03*
X157800000Y-62400000D03*
X138600000Y-78400000D03*
X146200000Y-81400000D03*
X162800000Y-58400000D03*
X164800000Y-60400000D03*
X127400000Y-59600000D03*
X155200000Y-80400000D03*
X133600000Y-71600000D03*
X132400000Y-59800000D03*
X159800000Y-63400000D03*
X135400000Y-59800000D03*
X134600000Y-83400000D03*
D18*
X145600000Y-60200000D03*
D17*
X121400000Y-58600000D03*
X162800000Y-61400000D03*
X125300000Y-71200000D03*
X148200000Y-80400000D03*
X150000000Y-63800000D03*
X157800000Y-52200000D03*
X157800000Y-61400000D03*
X121400000Y-56600000D03*
X135600000Y-83400000D03*
X153200000Y-81400000D03*
X159800000Y-58400000D03*
X134600000Y-82400000D03*
X162800000Y-62400000D03*
X150200000Y-82400000D03*
X164800000Y-59400000D03*
X155400000Y-69697045D03*
X146200000Y-82400000D03*
X121400000Y-59600000D03*
X154800000Y-71200000D03*
X135600000Y-78400000D03*
X148200000Y-81400000D03*
X160800000Y-58400000D03*
X126400000Y-58600000D03*
X123400000Y-59600000D03*
X161800000Y-60400000D03*
X160800000Y-61400000D03*
X125400000Y-56600000D03*
X151200000Y-64000000D03*
X133400000Y-59800000D03*
X147200000Y-80400000D03*
X149200000Y-81400000D03*
X134200000Y-72200000D03*
X153200000Y-82400000D03*
X134400000Y-59800000D03*
X164800000Y-62400000D03*
X125400000Y-58600000D03*
X125300000Y-72100000D03*
X163800000Y-58400000D03*
X161800000Y-61400000D03*
X135600000Y-82400000D03*
X121400000Y-57600000D03*
X122400000Y-58600000D03*
D18*
X136200000Y-62600000D03*
D17*
X123500000Y-79000000D03*
X122400000Y-56600000D03*
X164800000Y-61400000D03*
X151200000Y-80400000D03*
X164800000Y-58400000D03*
X135600000Y-81400000D03*
X152200000Y-80400000D03*
X134600000Y-84400000D03*
X155200000Y-82400000D03*
X135600000Y-84400000D03*
X161800000Y-63400000D03*
X123400000Y-58600000D03*
X158800000Y-63400000D03*
X163800000Y-60400000D03*
X146200000Y-80400000D03*
X154200000Y-81400000D03*
X125400000Y-59600000D03*
X134700000Y-72900000D03*
X160800000Y-63400000D03*
X162800000Y-59400000D03*
X140565981Y-62359545D03*
X147200000Y-82400000D03*
X154200000Y-82400000D03*
X149200000Y-80400000D03*
X163800000Y-61400000D03*
X163800000Y-62400000D03*
X162800000Y-60400000D03*
X159800000Y-59400000D03*
X161800000Y-58400000D03*
X163800000Y-63400000D03*
X153200000Y-80400000D03*
D18*
%TO.N,VCC*%
X153600000Y-52400000D03*
D17*
X132600000Y-57600000D03*
X133200000Y-57000000D03*
X150200000Y-68200000D03*
D18*
X151200000Y-52400000D03*
D17*
X145400000Y-68200000D03*
D18*
X150000000Y-52400000D03*
D17*
X132000000Y-58200000D03*
X149000000Y-68200000D03*
X147200000Y-68800000D03*
X146000000Y-68800000D03*
D18*
X152400000Y-52400000D03*
D17*
X148400000Y-68800000D03*
X147800000Y-68200000D03*
X132000000Y-57000000D03*
D18*
X154800000Y-52400000D03*
D17*
X146600000Y-68200000D03*
X149600000Y-68800000D03*
%TO.N,/VCOM*%
X142562500Y-79812500D03*
D18*
X123250000Y-74750000D03*
%TO.N,/VBUS*%
X144065981Y-63059545D03*
D17*
X141200000Y-74800000D03*
D18*
X145200000Y-63059546D03*
X137415982Y-62215982D03*
X138017025Y-62817025D03*
%TO.N,+5V*%
X154200000Y-63200000D03*
X132000000Y-83000000D03*
X154200000Y-62200000D03*
X133400000Y-61600000D03*
D17*
%TO.N,/D-*%
X140116128Y-57216128D03*
X141350000Y-57250000D03*
%TO.N,/Connectors/CC1*%
X141849757Y-56625303D03*
%TO.N,/Connectors/CC2*%
X138815982Y-57059547D03*
%TD*%
D19*
%TO.N,/Connectors/CC1*%
X141849757Y-56625303D02*
X141849757Y-55755821D01*
X141849757Y-55755821D02*
X141815981Y-55722045D01*
%TO.N,+3.3VA*%
X130400000Y-73800000D02*
X129900000Y-73300000D01*
X128762498Y-72162498D02*
X129900000Y-73300000D01*
X128475000Y-72162498D02*
X128762498Y-72162498D01*
X130400000Y-74000000D02*
X130400000Y-73800000D01*
%TO.N,/VCOM*%
X125075000Y-75575000D02*
X125075000Y-75250000D01*
X124575000Y-74750000D02*
X125075000Y-75250000D01*
X123250000Y-74750000D02*
X124575000Y-74750000D01*
X129312500Y-79812500D02*
X125075000Y-75575000D01*
X142562500Y-79812500D02*
X129312500Y-79812500D01*
%TO.N,/VBUS*%
X138000000Y-71600000D02*
X138000000Y-62834050D01*
D20*
X137472418Y-62215982D02*
X137415982Y-62215982D01*
X138017025Y-62817025D02*
X138259545Y-63059545D01*
X145199999Y-63059545D02*
X145200000Y-63059546D01*
X144065981Y-63059545D02*
X145199999Y-63059545D01*
D19*
X141200000Y-74800000D02*
X138000000Y-71600000D01*
X138000000Y-62834050D02*
X138017025Y-62817025D01*
D20*
X138017025Y-62760589D02*
X137472418Y-62215982D01*
X138017025Y-62817025D02*
X138017025Y-62760589D01*
X138259545Y-63059545D02*
X144065981Y-63059545D01*
D19*
%TO.N,/Connectors/CC2*%
X138815982Y-57059547D02*
X138815982Y-55722046D01*
%TD*%
%TA.AperFunction,Conductor*%
%TO.N,GND*%
G36*
X149919156Y-51279731D02*
G01*
X149964911Y-51332535D01*
X149974855Y-51401693D01*
X149945830Y-51465249D01*
X149887052Y-51503023D01*
X149877898Y-51505336D01*
X149720197Y-51538855D01*
X149720192Y-51538857D01*
X149547270Y-51615848D01*
X149547265Y-51615851D01*
X149394129Y-51727111D01*
X149267466Y-51867785D01*
X149172821Y-52031715D01*
X149172818Y-52031722D01*
X149155448Y-52085183D01*
X149114326Y-52211744D01*
X149094540Y-52400000D01*
X149114326Y-52588256D01*
X149114327Y-52588259D01*
X149172818Y-52768277D01*
X149172821Y-52768284D01*
X149267467Y-52932216D01*
X149366962Y-53042716D01*
X149394129Y-53072888D01*
X149547265Y-53184148D01*
X149547270Y-53184151D01*
X149720192Y-53261142D01*
X149720197Y-53261144D01*
X149905354Y-53300500D01*
X149905355Y-53300500D01*
X150094644Y-53300500D01*
X150094646Y-53300500D01*
X150279803Y-53261144D01*
X150452730Y-53184151D01*
X150527116Y-53130106D01*
X150592920Y-53106627D01*
X150660974Y-53122452D01*
X150672876Y-53130100D01*
X150747266Y-53184148D01*
X150747270Y-53184151D01*
X150920192Y-53261142D01*
X150920197Y-53261144D01*
X151105354Y-53300500D01*
X151105355Y-53300500D01*
X151294644Y-53300500D01*
X151294646Y-53300500D01*
X151479803Y-53261144D01*
X151652730Y-53184151D01*
X151727116Y-53130106D01*
X151792920Y-53106627D01*
X151860974Y-53122452D01*
X151872876Y-53130100D01*
X151947266Y-53184148D01*
X151947270Y-53184151D01*
X152120192Y-53261142D01*
X152120197Y-53261144D01*
X152305354Y-53300500D01*
X152305355Y-53300500D01*
X152494644Y-53300500D01*
X152494646Y-53300500D01*
X152679803Y-53261144D01*
X152852730Y-53184151D01*
X152927116Y-53130106D01*
X152992920Y-53106627D01*
X153060974Y-53122452D01*
X153072876Y-53130100D01*
X153147266Y-53184148D01*
X153147270Y-53184151D01*
X153320192Y-53261142D01*
X153320197Y-53261144D01*
X153505354Y-53300500D01*
X153505355Y-53300500D01*
X153694644Y-53300500D01*
X153694646Y-53300500D01*
X153879803Y-53261144D01*
X154052730Y-53184151D01*
X154127116Y-53130106D01*
X154192920Y-53106627D01*
X154260974Y-53122452D01*
X154272876Y-53130100D01*
X154347266Y-53184148D01*
X154347270Y-53184151D01*
X154520192Y-53261142D01*
X154520197Y-53261144D01*
X154705354Y-53300500D01*
X154705355Y-53300500D01*
X154894644Y-53300500D01*
X154894646Y-53300500D01*
X155079803Y-53261144D01*
X155252730Y-53184151D01*
X155405871Y-53072888D01*
X155532533Y-52932216D01*
X155627179Y-52768284D01*
X155685674Y-52588256D01*
X155705460Y-52400000D01*
X155685674Y-52211744D01*
X155627179Y-52031716D01*
X155532533Y-51867784D01*
X155405871Y-51727112D01*
X155405870Y-51727111D01*
X155252734Y-51615851D01*
X155252729Y-51615848D01*
X155079807Y-51538857D01*
X155079802Y-51538855D01*
X154922102Y-51505336D01*
X154860620Y-51472144D01*
X154826844Y-51410981D01*
X154831496Y-51341266D01*
X154873101Y-51285134D01*
X154938448Y-51260405D01*
X154947883Y-51260046D01*
X162776100Y-51260046D01*
X162812503Y-51260046D01*
X162819454Y-51260240D01*
X163122484Y-51277257D01*
X163136282Y-51278811D01*
X163432061Y-51329065D01*
X163445616Y-51332158D01*
X163733717Y-51415158D01*
X163733905Y-51415212D01*
X163747030Y-51419804D01*
X164024209Y-51534616D01*
X164036723Y-51540642D01*
X164270582Y-51669892D01*
X164299309Y-51685769D01*
X164311083Y-51693168D01*
X164555760Y-51866776D01*
X164566626Y-51875441D01*
X164723612Y-52015733D01*
X164790324Y-52075351D01*
X164800157Y-52085183D01*
X165000075Y-52308893D01*
X165008744Y-52319765D01*
X165099671Y-52447917D01*
X165182347Y-52564439D01*
X165189745Y-52576213D01*
X165334859Y-52838783D01*
X165340893Y-52851311D01*
X165455705Y-53128499D01*
X165460297Y-53141625D01*
X165543345Y-53429905D01*
X165546439Y-53443462D01*
X165596689Y-53739231D01*
X165598246Y-53753049D01*
X165615285Y-54056544D01*
X165615480Y-54063495D01*
X165615480Y-54113855D01*
X165615481Y-54113864D01*
X165615481Y-82206061D01*
X165615286Y-82213016D01*
X165598264Y-82516036D01*
X165596707Y-82529853D01*
X165546449Y-82825631D01*
X165543354Y-82839188D01*
X165460300Y-83127465D01*
X165455708Y-83140589D01*
X165340896Y-83417765D01*
X165334863Y-83430293D01*
X165189740Y-83692872D01*
X165182342Y-83704646D01*
X165008735Y-83949324D01*
X165000065Y-83960196D01*
X164800153Y-84183899D01*
X164790320Y-84193731D01*
X164566618Y-84393645D01*
X164555748Y-84402315D01*
X164311076Y-84575924D01*
X164299302Y-84583322D01*
X164036721Y-84728450D01*
X164024192Y-84734483D01*
X163747023Y-84849295D01*
X163733899Y-84853888D01*
X163445617Y-84936948D01*
X163432060Y-84940043D01*
X163136283Y-84990303D01*
X163122465Y-84991860D01*
X162820050Y-85008850D01*
X162813095Y-85009045D01*
X123819463Y-85009045D01*
X123812510Y-85008850D01*
X123509489Y-84991831D01*
X123495671Y-84990274D01*
X123233763Y-84945773D01*
X123199901Y-84940019D01*
X123186345Y-84936926D01*
X123049139Y-84897397D01*
X122898048Y-84853867D01*
X122884931Y-84849277D01*
X122607756Y-84734468D01*
X122595227Y-84728434D01*
X122332649Y-84583311D01*
X122320876Y-84575914D01*
X122179697Y-84475743D01*
X122076190Y-84402301D01*
X122065332Y-84393642D01*
X121914900Y-84259209D01*
X121841618Y-84193721D01*
X121831791Y-84183894D01*
X121631867Y-83960181D01*
X121623215Y-83949331D01*
X121449595Y-83704640D01*
X121442198Y-83692868D01*
X121428717Y-83668477D01*
X121297076Y-83430293D01*
X121291045Y-83417771D01*
X121211799Y-83226459D01*
X121176226Y-83140582D01*
X121171636Y-83127461D01*
X121088582Y-82839186D01*
X121085487Y-82825631D01*
X121081132Y-82799999D01*
X122856963Y-82799999D01*
X122856963Y-82800000D01*
X122877063Y-83016918D01*
X122877063Y-83016920D01*
X122877064Y-83016923D01*
X122925813Y-83188259D01*
X122936683Y-83226462D01*
X123019095Y-83391966D01*
X123033787Y-83421472D01*
X123165072Y-83595322D01*
X123326067Y-83742088D01*
X123326074Y-83742092D01*
X123326075Y-83742093D01*
X123511285Y-83856770D01*
X123511291Y-83856773D01*
X123522569Y-83861142D01*
X123714430Y-83935470D01*
X123928573Y-83975500D01*
X123928575Y-83975500D01*
X124146423Y-83975500D01*
X124146425Y-83975500D01*
X124360568Y-83935470D01*
X124563709Y-83856772D01*
X124748931Y-83742088D01*
X124759909Y-83732079D01*
X124822711Y-83701462D01*
X124892098Y-83709658D01*
X124942714Y-83749405D01*
X125004952Y-83832544D01*
X125004955Y-83832547D01*
X125120164Y-83918793D01*
X125120171Y-83918797D01*
X125255017Y-83969091D01*
X125255016Y-83969091D01*
X125261944Y-83969835D01*
X125314627Y-83975500D01*
X126760372Y-83975499D01*
X126819983Y-83969091D01*
X126954831Y-83918796D01*
X127070046Y-83832546D01*
X127156296Y-83717331D01*
X127206591Y-83582483D01*
X127213000Y-83522873D01*
X127213000Y-83000000D01*
X131094540Y-83000000D01*
X131114326Y-83188256D01*
X131114327Y-83188259D01*
X131172818Y-83368277D01*
X131172821Y-83368284D01*
X131267467Y-83532216D01*
X131346786Y-83620308D01*
X131394129Y-83672888D01*
X131547265Y-83784148D01*
X131547270Y-83784151D01*
X131720192Y-83861142D01*
X131720197Y-83861144D01*
X131905354Y-83900500D01*
X131905355Y-83900500D01*
X132094644Y-83900500D01*
X132094646Y-83900500D01*
X132279803Y-83861144D01*
X132452730Y-83784151D01*
X132605871Y-83672888D01*
X132732533Y-83532216D01*
X132827179Y-83368284D01*
X132885674Y-83188256D01*
X132905460Y-83000000D01*
X132885674Y-82811744D01*
X132827179Y-82631716D01*
X132732533Y-82467784D01*
X132605871Y-82327112D01*
X132605870Y-82327111D01*
X132565318Y-82297648D01*
X137099500Y-82297648D01*
X137099500Y-82502351D01*
X137131522Y-82704534D01*
X137194781Y-82899223D01*
X137254751Y-83016918D01*
X137266019Y-83039034D01*
X137287715Y-83081613D01*
X137408028Y-83247213D01*
X137552786Y-83391971D01*
X137707749Y-83504556D01*
X137718390Y-83512287D01*
X137834607Y-83571503D01*
X137900776Y-83605218D01*
X137900778Y-83605218D01*
X137900781Y-83605220D01*
X138005137Y-83639127D01*
X138095465Y-83668477D01*
X138196557Y-83684488D01*
X138297648Y-83700500D01*
X138297649Y-83700500D01*
X138502351Y-83700500D01*
X138502352Y-83700500D01*
X138704534Y-83668477D01*
X138899219Y-83605220D01*
X139081610Y-83512287D01*
X139202851Y-83424201D01*
X139247213Y-83391971D01*
X139247215Y-83391968D01*
X139247219Y-83391966D01*
X139391966Y-83247219D01*
X139391968Y-83247215D01*
X139391971Y-83247213D01*
X139444732Y-83174590D01*
X139512287Y-83081610D01*
X139605220Y-82899219D01*
X139668477Y-82704534D01*
X139700500Y-82502352D01*
X139700500Y-82297648D01*
X139686546Y-82209548D01*
X139668477Y-82095465D01*
X139605218Y-81900776D01*
X139571503Y-81834607D01*
X139512287Y-81718390D01*
X139504556Y-81707749D01*
X139391971Y-81552786D01*
X139247213Y-81408028D01*
X139081613Y-81287715D01*
X139081612Y-81287714D01*
X139081610Y-81287713D01*
X139024653Y-81258691D01*
X138899223Y-81194781D01*
X138704534Y-81131522D01*
X138529995Y-81103878D01*
X138502352Y-81099500D01*
X138297648Y-81099500D01*
X138273329Y-81103351D01*
X138095465Y-81131522D01*
X137900776Y-81194781D01*
X137718386Y-81287715D01*
X137552786Y-81408028D01*
X137408028Y-81552786D01*
X137287715Y-81718386D01*
X137194781Y-81900776D01*
X137131522Y-82095465D01*
X137099500Y-82297648D01*
X132565318Y-82297648D01*
X132452734Y-82215851D01*
X132452729Y-82215848D01*
X132279807Y-82138857D01*
X132279802Y-82138855D01*
X132134001Y-82107865D01*
X132094646Y-82099500D01*
X131905354Y-82099500D01*
X131872897Y-82106398D01*
X131720197Y-82138855D01*
X131720192Y-82138857D01*
X131547270Y-82215848D01*
X131547265Y-82215851D01*
X131394129Y-82327111D01*
X131267466Y-82467785D01*
X131172821Y-82631715D01*
X131172818Y-82631722D01*
X131118142Y-82799999D01*
X131114326Y-82811744D01*
X131094540Y-83000000D01*
X127213000Y-83000000D01*
X127212999Y-82077128D01*
X127206591Y-82017517D01*
X127201802Y-82004678D01*
X127156297Y-81882671D01*
X127156293Y-81882664D01*
X127070047Y-81767455D01*
X127070044Y-81767452D01*
X126954835Y-81681206D01*
X126954828Y-81681202D01*
X126819982Y-81630908D01*
X126819983Y-81630908D01*
X126760383Y-81624501D01*
X126760381Y-81624500D01*
X126760373Y-81624500D01*
X126760364Y-81624500D01*
X125314629Y-81624500D01*
X125314623Y-81624501D01*
X125255016Y-81630908D01*
X125120171Y-81681202D01*
X125120164Y-81681206D01*
X125004955Y-81767452D01*
X124942714Y-81850595D01*
X124886780Y-81892465D01*
X124817088Y-81897449D01*
X124759910Y-81867921D01*
X124748931Y-81857912D01*
X124748928Y-81857910D01*
X124748927Y-81857909D01*
X124563712Y-81743229D01*
X124563706Y-81743226D01*
X124478612Y-81710260D01*
X124360568Y-81664530D01*
X124146425Y-81624500D01*
X123928573Y-81624500D01*
X123714430Y-81664530D01*
X123671395Y-81681202D01*
X123511291Y-81743226D01*
X123511285Y-81743229D01*
X123326075Y-81857906D01*
X123326065Y-81857913D01*
X123165073Y-82004676D01*
X123033787Y-82178527D01*
X122936683Y-82373537D01*
X122936682Y-82373541D01*
X122894161Y-82522989D01*
X122877063Y-82583081D01*
X122856963Y-82799999D01*
X121081132Y-82799999D01*
X121035227Y-82529845D01*
X121033671Y-82516041D01*
X121016675Y-82213475D01*
X121016480Y-82206520D01*
X121016480Y-74750000D01*
X122344540Y-74750000D01*
X122364326Y-74938256D01*
X122364327Y-74938259D01*
X122422818Y-75118277D01*
X122422821Y-75118284D01*
X122517467Y-75282216D01*
X122535517Y-75302262D01*
X122644129Y-75422888D01*
X122797265Y-75534148D01*
X122797270Y-75534151D01*
X122970192Y-75611142D01*
X122970197Y-75611144D01*
X123155354Y-75650500D01*
X123155355Y-75650500D01*
X123344644Y-75650500D01*
X123344646Y-75650500D01*
X123529803Y-75611144D01*
X123702730Y-75534151D01*
X123715113Y-75525153D01*
X123780919Y-75501673D01*
X123848974Y-75517498D01*
X123897669Y-75567603D01*
X123912000Y-75625471D01*
X123912000Y-75950000D01*
X123912001Y-75950019D01*
X123922500Y-76052796D01*
X123922501Y-76052799D01*
X123977615Y-76219119D01*
X123977686Y-76219334D01*
X124069788Y-76368656D01*
X124193844Y-76492712D01*
X124343166Y-76584814D01*
X124509703Y-76639999D01*
X124612491Y-76650500D01*
X125249902Y-76650499D01*
X125316941Y-76670183D01*
X125337583Y-76686818D01*
X128827639Y-80176874D01*
X128827649Y-80176885D01*
X128831979Y-80181215D01*
X128831980Y-80181216D01*
X128943784Y-80293020D01*
X129030595Y-80343139D01*
X129030597Y-80343141D01*
X129068651Y-80365111D01*
X129080715Y-80372077D01*
X129233443Y-80413001D01*
X129233446Y-80413001D01*
X129399153Y-80413001D01*
X129399169Y-80413000D01*
X141980088Y-80413000D01*
X142047127Y-80432685D01*
X142057403Y-80440055D01*
X142060236Y-80442314D01*
X142060238Y-80442316D01*
X142212978Y-80538289D01*
X142383245Y-80597868D01*
X142383250Y-80597869D01*
X142562496Y-80618065D01*
X142562500Y-80618065D01*
X142562504Y-80618065D01*
X142741749Y-80597869D01*
X142741752Y-80597868D01*
X142741755Y-80597868D01*
X142912022Y-80538289D01*
X143064762Y-80442316D01*
X143192316Y-80314762D01*
X143288289Y-80162022D01*
X143347868Y-79991755D01*
X143368065Y-79812500D01*
X143347868Y-79633245D01*
X143288289Y-79462978D01*
X143192316Y-79310238D01*
X143064762Y-79182684D01*
X143053617Y-79175681D01*
X142912023Y-79086711D01*
X142741754Y-79027131D01*
X142741749Y-79027130D01*
X142562504Y-79006935D01*
X142562496Y-79006935D01*
X142383250Y-79027130D01*
X142383245Y-79027131D01*
X142212976Y-79086711D01*
X142060236Y-79182685D01*
X142057403Y-79184945D01*
X142055224Y-79185834D01*
X142054342Y-79186389D01*
X142054244Y-79186234D01*
X141992717Y-79211355D01*
X141980088Y-79212000D01*
X129612597Y-79212000D01*
X129545558Y-79192315D01*
X129524916Y-79175681D01*
X126299221Y-75949986D01*
X127037501Y-75949986D01*
X127047994Y-76052697D01*
X127103141Y-76219119D01*
X127103143Y-76219124D01*
X127195184Y-76368345D01*
X127319154Y-76492315D01*
X127468375Y-76584356D01*
X127468380Y-76584358D01*
X127634802Y-76639505D01*
X127634809Y-76639506D01*
X127737519Y-76649999D01*
X127949999Y-76649999D01*
X128450000Y-76649999D01*
X128662472Y-76649999D01*
X128662486Y-76649998D01*
X128765197Y-76639505D01*
X128931619Y-76584358D01*
X128931624Y-76584356D01*
X129080845Y-76492315D01*
X129204815Y-76368345D01*
X129296856Y-76219124D01*
X129296858Y-76219119D01*
X129352005Y-76052697D01*
X129352006Y-76052690D01*
X129362499Y-75949986D01*
X129362500Y-75949973D01*
X129362500Y-75500000D01*
X128450000Y-75500000D01*
X128450000Y-76649999D01*
X127949999Y-76649999D01*
X127950000Y-76649998D01*
X127950000Y-75500000D01*
X127037501Y-75500000D01*
X127037501Y-75949986D01*
X126299221Y-75949986D01*
X126274318Y-75925083D01*
X126240833Y-75863760D01*
X126237999Y-75837402D01*
X126237999Y-74550013D01*
X127037500Y-74550013D01*
X127037500Y-75000000D01*
X127950000Y-75000000D01*
X128450000Y-75000000D01*
X129362499Y-75000000D01*
X129362499Y-74550028D01*
X129362498Y-74550013D01*
X129352005Y-74447302D01*
X129296858Y-74280880D01*
X129296856Y-74280875D01*
X129204815Y-74131654D01*
X129080845Y-74007684D01*
X128931624Y-73915643D01*
X128931619Y-73915641D01*
X128765197Y-73860494D01*
X128765190Y-73860493D01*
X128662486Y-73850000D01*
X128450000Y-73850000D01*
X128450000Y-75000000D01*
X127950000Y-75000000D01*
X127950000Y-73850000D01*
X127737529Y-73850000D01*
X127737512Y-73850001D01*
X127634802Y-73860494D01*
X127468380Y-73915641D01*
X127468375Y-73915643D01*
X127319154Y-74007684D01*
X127195184Y-74131654D01*
X127103143Y-74280875D01*
X127103141Y-74280880D01*
X127047994Y-74447302D01*
X127047993Y-74447309D01*
X127037500Y-74550013D01*
X126237999Y-74550013D01*
X126237999Y-74549998D01*
X126237998Y-74549981D01*
X126227499Y-74447203D01*
X126227498Y-74447200D01*
X126172314Y-74280666D01*
X126080212Y-74131344D01*
X125956156Y-74007288D01*
X125806834Y-73915186D01*
X125640297Y-73860001D01*
X125640295Y-73860000D01*
X125537510Y-73849500D01*
X124612498Y-73849500D01*
X124612480Y-73849501D01*
X124509703Y-73860000D01*
X124509700Y-73860001D01*
X124343168Y-73915185D01*
X124343163Y-73915187D01*
X124193845Y-74007287D01*
X124087950Y-74113182D01*
X124026627Y-74146666D01*
X124000269Y-74149500D01*
X123976258Y-74149500D01*
X123909219Y-74129815D01*
X123884109Y-74108473D01*
X123855871Y-74077112D01*
X123855864Y-74077106D01*
X123702734Y-73965851D01*
X123702729Y-73965848D01*
X123529807Y-73888857D01*
X123529802Y-73888855D01*
X123384001Y-73857865D01*
X123344646Y-73849500D01*
X123155354Y-73849500D01*
X123122897Y-73856398D01*
X122970197Y-73888855D01*
X122970192Y-73888857D01*
X122797270Y-73965848D01*
X122797265Y-73965851D01*
X122644129Y-74077111D01*
X122517466Y-74217785D01*
X122422821Y-74381715D01*
X122422818Y-74381722D01*
X122364327Y-74561740D01*
X122364326Y-74561744D01*
X122344540Y-74750000D01*
X121016480Y-74750000D01*
X121016480Y-72687484D01*
X125312501Y-72687484D01*
X125322994Y-72790195D01*
X125378141Y-72956617D01*
X125378143Y-72956622D01*
X125470184Y-73105843D01*
X125594154Y-73229813D01*
X125743375Y-73321854D01*
X125743380Y-73321856D01*
X125909802Y-73377003D01*
X125909809Y-73377004D01*
X126012519Y-73387497D01*
X126149999Y-73387497D01*
X126150000Y-73387496D01*
X126150000Y-72412498D01*
X125312501Y-72412498D01*
X125312501Y-72687484D01*
X121016480Y-72687484D01*
X121016480Y-71637511D01*
X125312500Y-71637511D01*
X125312500Y-71912498D01*
X126150000Y-71912498D01*
X126150000Y-70937498D01*
X126650000Y-70937498D01*
X126650000Y-73387497D01*
X126787472Y-73387497D01*
X126787486Y-73387496D01*
X126890197Y-73377003D01*
X127056619Y-73321856D01*
X127056624Y-73321854D01*
X127205845Y-73229813D01*
X127329818Y-73105840D01*
X127331665Y-73102846D01*
X127333469Y-73101222D01*
X127334298Y-73100175D01*
X127334476Y-73100316D01*
X127383610Y-73056119D01*
X127452573Y-73044894D01*
X127516656Y-73072734D01*
X127542743Y-73102839D01*
X127544788Y-73106154D01*
X127668844Y-73230210D01*
X127818166Y-73322312D01*
X127984703Y-73377497D01*
X128087491Y-73387998D01*
X128862508Y-73387997D01*
X128862516Y-73387996D01*
X128862519Y-73387996D01*
X128879773Y-73386233D01*
X128965297Y-73377497D01*
X128965307Y-73377493D01*
X128966051Y-73377335D01*
X128966532Y-73377370D01*
X128972033Y-73376809D01*
X128972133Y-73377789D01*
X129035727Y-73382541D01*
X129091527Y-73424590D01*
X129110648Y-73473014D01*
X129113080Y-73472459D01*
X129114629Y-73479246D01*
X129114631Y-73479254D01*
X129114632Y-73479255D01*
X129125752Y-73511036D01*
X129174210Y-73649521D01*
X129270184Y-73802262D01*
X129397737Y-73929815D01*
X129397743Y-73929820D01*
X129550348Y-74025709D01*
X129596639Y-74078043D01*
X129607596Y-74116818D01*
X129614630Y-74179247D01*
X129614631Y-74179252D01*
X129674210Y-74349521D01*
X129735586Y-74447200D01*
X129770184Y-74502262D01*
X129897738Y-74629816D01*
X130050478Y-74725789D01*
X130220745Y-74785368D01*
X130220750Y-74785369D01*
X130399996Y-74805565D01*
X130400000Y-74805565D01*
X130400004Y-74805565D01*
X130579249Y-74785369D01*
X130579252Y-74785368D01*
X130579255Y-74785368D01*
X130749522Y-74725789D01*
X130902262Y-74629816D01*
X131029816Y-74502262D01*
X131125789Y-74349522D01*
X131185368Y-74179255D01*
X131189040Y-74146666D01*
X131205565Y-74000003D01*
X131205565Y-73999996D01*
X131185369Y-73820750D01*
X131185368Y-73820745D01*
X131125789Y-73650478D01*
X131125188Y-73649522D01*
X131029815Y-73497737D01*
X130902262Y-73370184D01*
X130826071Y-73322310D01*
X130749648Y-73274290D01*
X130703359Y-73221957D01*
X130692402Y-73183186D01*
X130685368Y-73120745D01*
X130625789Y-72950478D01*
X130529816Y-72797738D01*
X130402262Y-72670184D01*
X130249521Y-72574210D01*
X130079249Y-72514630D01*
X129992330Y-72504837D01*
X129927916Y-72477770D01*
X129918533Y-72469298D01*
X129599318Y-72150083D01*
X129565833Y-72088760D01*
X129562999Y-72062402D01*
X129562999Y-71637496D01*
X129562998Y-71637479D01*
X129552499Y-71534701D01*
X129552498Y-71534698D01*
X129503749Y-71387584D01*
X129497314Y-71368164D01*
X129405212Y-71218842D01*
X129281156Y-71094786D01*
X129131834Y-71002684D01*
X128965297Y-70947499D01*
X128965295Y-70947498D01*
X128862510Y-70936998D01*
X128087498Y-70936998D01*
X128087480Y-70936999D01*
X127984703Y-70947498D01*
X127984700Y-70947499D01*
X127818168Y-71002683D01*
X127818163Y-71002685D01*
X127668842Y-71094787D01*
X127544788Y-71218841D01*
X127544783Y-71218847D01*
X127542741Y-71222159D01*
X127540747Y-71223951D01*
X127540307Y-71224509D01*
X127540211Y-71224433D01*
X127490791Y-71268881D01*
X127421828Y-71280100D01*
X127357747Y-71252253D01*
X127331668Y-71222154D01*
X127329819Y-71219157D01*
X127329816Y-71219153D01*
X127205845Y-71095182D01*
X127056624Y-71003141D01*
X127056619Y-71003139D01*
X126890197Y-70947992D01*
X126890190Y-70947991D01*
X126787486Y-70937498D01*
X126650000Y-70937498D01*
X126150000Y-70937498D01*
X126012527Y-70937498D01*
X126012512Y-70937499D01*
X125909802Y-70947992D01*
X125743380Y-71003139D01*
X125743375Y-71003141D01*
X125594154Y-71095182D01*
X125470184Y-71219152D01*
X125378143Y-71368373D01*
X125378141Y-71368378D01*
X125322994Y-71534800D01*
X125322993Y-71534807D01*
X125312500Y-71637511D01*
X121016480Y-71637511D01*
X121016480Y-70499996D01*
X122694435Y-70499996D01*
X122694435Y-70500003D01*
X122714630Y-70679249D01*
X122714631Y-70679254D01*
X122774211Y-70849523D01*
X122835773Y-70947498D01*
X122870184Y-71002262D01*
X122997738Y-71129816D01*
X123088080Y-71186582D01*
X123148440Y-71224509D01*
X123150478Y-71225789D01*
X123226108Y-71252253D01*
X123320745Y-71285368D01*
X123320750Y-71285369D01*
X123499996Y-71305565D01*
X123500000Y-71305565D01*
X123500004Y-71305565D01*
X123679249Y-71285369D01*
X123679252Y-71285368D01*
X123679255Y-71285368D01*
X123849522Y-71225789D01*
X124002262Y-71129816D01*
X124129816Y-71002262D01*
X124225789Y-70849522D01*
X124285368Y-70679255D01*
X124305565Y-70500000D01*
X124285368Y-70320745D01*
X124225789Y-70150478D01*
X124129816Y-69997738D01*
X124002262Y-69870184D01*
X123849523Y-69774211D01*
X123679254Y-69714631D01*
X123679249Y-69714630D01*
X123500004Y-69694435D01*
X123499996Y-69694435D01*
X123320750Y-69714630D01*
X123320745Y-69714631D01*
X123150476Y-69774211D01*
X122997737Y-69870184D01*
X122870184Y-69997737D01*
X122774211Y-70150476D01*
X122714631Y-70320745D01*
X122714630Y-70320750D01*
X122694435Y-70499996D01*
X121016480Y-70499996D01*
X121016480Y-61599999D01*
X122856963Y-61599999D01*
X122856963Y-61600000D01*
X122877063Y-61816918D01*
X122877063Y-61816920D01*
X122877064Y-61816923D01*
X122932494Y-62011740D01*
X122936683Y-62026462D01*
X123022299Y-62198401D01*
X123033787Y-62221472D01*
X123165072Y-62395322D01*
X123326067Y-62542088D01*
X123326074Y-62542092D01*
X123326075Y-62542093D01*
X123511285Y-62656770D01*
X123511291Y-62656773D01*
X123534163Y-62665633D01*
X123714430Y-62735470D01*
X123928573Y-62775500D01*
X123928575Y-62775500D01*
X124146423Y-62775500D01*
X124146425Y-62775500D01*
X124360568Y-62735470D01*
X124563709Y-62656772D01*
X124748931Y-62542088D01*
X124759909Y-62532079D01*
X124822711Y-62501462D01*
X124892098Y-62509658D01*
X124942714Y-62549405D01*
X125004952Y-62632544D01*
X125004955Y-62632547D01*
X125120164Y-62718793D01*
X125120171Y-62718797D01*
X125255017Y-62769091D01*
X125255016Y-62769091D01*
X125261944Y-62769835D01*
X125314627Y-62775500D01*
X126760372Y-62775499D01*
X126819983Y-62769091D01*
X126954831Y-62718796D01*
X127070046Y-62632546D01*
X127156296Y-62517331D01*
X127206591Y-62382483D01*
X127213000Y-62322873D01*
X127212999Y-61600000D01*
X132494540Y-61600000D01*
X132514326Y-61788256D01*
X132514327Y-61788259D01*
X132572818Y-61968277D01*
X132572821Y-61968284D01*
X132667467Y-62132216D01*
X132747834Y-62221472D01*
X132794129Y-62272888D01*
X132947265Y-62384148D01*
X132947270Y-62384151D01*
X133120192Y-62461142D01*
X133120197Y-62461144D01*
X133305354Y-62500500D01*
X133305355Y-62500500D01*
X133494644Y-62500500D01*
X133494646Y-62500500D01*
X133679803Y-62461144D01*
X133852730Y-62384151D01*
X134005871Y-62272888D01*
X134057110Y-62215982D01*
X136510522Y-62215982D01*
X136530308Y-62404238D01*
X136530309Y-62404241D01*
X136588800Y-62584259D01*
X136588803Y-62584266D01*
X136683449Y-62748198D01*
X136810111Y-62888870D01*
X136963252Y-63000133D01*
X137107394Y-63064310D01*
X137160628Y-63109558D01*
X137174886Y-63139268D01*
X137189844Y-63185305D01*
X137189846Y-63185309D01*
X137284492Y-63349241D01*
X137332790Y-63402881D01*
X137367650Y-63441597D01*
X137397880Y-63504588D01*
X137399500Y-63524569D01*
X137399500Y-71513330D01*
X137399499Y-71513348D01*
X137399499Y-71679054D01*
X137399498Y-71679054D01*
X137440423Y-71831785D01*
X137469358Y-71881900D01*
X137469359Y-71881904D01*
X137469360Y-71881904D01*
X137519479Y-71968714D01*
X137519481Y-71968717D01*
X137638349Y-72087585D01*
X137638355Y-72087590D01*
X140369298Y-74818533D01*
X140402783Y-74879856D01*
X140404837Y-74892330D01*
X140414630Y-74979249D01*
X140474210Y-75149521D01*
X140557587Y-75282214D01*
X140570184Y-75302262D01*
X140697738Y-75429816D01*
X140788080Y-75486582D01*
X140812097Y-75501673D01*
X140850478Y-75525789D01*
X140969976Y-75567603D01*
X141020745Y-75585368D01*
X141020750Y-75585369D01*
X141199996Y-75605565D01*
X141200000Y-75605565D01*
X141200004Y-75605565D01*
X141379249Y-75585369D01*
X141379252Y-75585368D01*
X141379255Y-75585368D01*
X141549522Y-75525789D01*
X141702262Y-75429816D01*
X141829816Y-75302262D01*
X141925789Y-75149522D01*
X141985368Y-74979255D01*
X141989987Y-74938259D01*
X142005565Y-74800003D01*
X142005565Y-74799996D01*
X141985369Y-74620750D01*
X141985368Y-74620745D01*
X141960618Y-74550013D01*
X141925789Y-74450478D01*
X141923793Y-74447302D01*
X141829815Y-74297737D01*
X141702262Y-74170184D01*
X141549521Y-74074210D01*
X141379249Y-74014630D01*
X141292330Y-74004837D01*
X141227916Y-73977770D01*
X141218533Y-73969298D01*
X138636819Y-71387584D01*
X138603334Y-71326261D01*
X138600500Y-71299903D01*
X138600500Y-68199996D01*
X144594435Y-68199996D01*
X144594435Y-68200003D01*
X144614630Y-68379249D01*
X144614631Y-68379254D01*
X144674211Y-68549523D01*
X144770184Y-68702262D01*
X144897738Y-68829816D01*
X145050478Y-68925789D01*
X145159851Y-68964060D01*
X145216627Y-69004782D01*
X145235938Y-69040146D01*
X145274211Y-69149523D01*
X145274212Y-69149524D01*
X145370184Y-69302262D01*
X145497738Y-69429816D01*
X145650478Y-69525789D01*
X145820745Y-69585368D01*
X145820750Y-69585369D01*
X145999996Y-69605565D01*
X146000000Y-69605565D01*
X146000004Y-69605565D01*
X146179249Y-69585369D01*
X146179252Y-69585368D01*
X146179255Y-69585368D01*
X146349522Y-69525789D01*
X146502262Y-69429816D01*
X146512319Y-69419759D01*
X146573642Y-69386274D01*
X146643334Y-69391258D01*
X146687681Y-69419759D01*
X146697738Y-69429816D01*
X146850478Y-69525789D01*
X147020745Y-69585368D01*
X147020750Y-69585369D01*
X147199996Y-69605565D01*
X147200000Y-69605565D01*
X147200004Y-69605565D01*
X147379249Y-69585369D01*
X147379252Y-69585368D01*
X147379255Y-69585368D01*
X147549522Y-69525789D01*
X147702262Y-69429816D01*
X147712319Y-69419759D01*
X147773642Y-69386274D01*
X147843334Y-69391258D01*
X147887681Y-69419759D01*
X147897738Y-69429816D01*
X148050478Y-69525789D01*
X148220745Y-69585368D01*
X148220750Y-69585369D01*
X148399996Y-69605565D01*
X148400000Y-69605565D01*
X148400004Y-69605565D01*
X148579249Y-69585369D01*
X148579252Y-69585368D01*
X148579255Y-69585368D01*
X148749522Y-69525789D01*
X148902262Y-69429816D01*
X148912319Y-69419759D01*
X148973642Y-69386274D01*
X149043334Y-69391258D01*
X149087681Y-69419759D01*
X149097738Y-69429816D01*
X149250478Y-69525789D01*
X149420745Y-69585368D01*
X149420750Y-69585369D01*
X149599996Y-69605565D01*
X149600000Y-69605565D01*
X149600004Y-69605565D01*
X149779249Y-69585369D01*
X149779252Y-69585368D01*
X149779255Y-69585368D01*
X149949522Y-69525789D01*
X150102262Y-69429816D01*
X150229816Y-69302262D01*
X150325789Y-69149522D01*
X150364061Y-69040146D01*
X150404782Y-68983372D01*
X150440146Y-68964060D01*
X150549522Y-68925789D01*
X150702262Y-68829816D01*
X150829816Y-68702262D01*
X150925789Y-68549522D01*
X150985368Y-68379255D01*
X151005565Y-68200000D01*
X150985368Y-68020745D01*
X150925789Y-67850478D01*
X150829816Y-67697738D01*
X150702262Y-67570184D01*
X150549523Y-67474211D01*
X150379254Y-67414631D01*
X150379249Y-67414630D01*
X150200004Y-67394435D01*
X150199996Y-67394435D01*
X150020750Y-67414630D01*
X150020745Y-67414631D01*
X149850476Y-67474211D01*
X149697737Y-67570184D01*
X149687681Y-67580241D01*
X149626358Y-67613726D01*
X149556666Y-67608742D01*
X149512319Y-67580241D01*
X149502262Y-67570184D01*
X149349523Y-67474211D01*
X149179254Y-67414631D01*
X149179249Y-67414630D01*
X149000004Y-67394435D01*
X148999996Y-67394435D01*
X148820750Y-67414630D01*
X148820745Y-67414631D01*
X148650476Y-67474211D01*
X148497737Y-67570184D01*
X148487681Y-67580241D01*
X148426358Y-67613726D01*
X148356666Y-67608742D01*
X148312319Y-67580241D01*
X148302262Y-67570184D01*
X148149523Y-67474211D01*
X147979254Y-67414631D01*
X147979249Y-67414630D01*
X147800004Y-67394435D01*
X147799996Y-67394435D01*
X147620750Y-67414630D01*
X147620745Y-67414631D01*
X147450476Y-67474211D01*
X147297737Y-67570184D01*
X147287681Y-67580241D01*
X147226358Y-67613726D01*
X147156666Y-67608742D01*
X147112319Y-67580241D01*
X147102262Y-67570184D01*
X146949523Y-67474211D01*
X146779254Y-67414631D01*
X146779249Y-67414630D01*
X146600004Y-67394435D01*
X146599996Y-67394435D01*
X146420750Y-67414630D01*
X146420745Y-67414631D01*
X146250476Y-67474211D01*
X146097737Y-67570184D01*
X146087681Y-67580241D01*
X146026358Y-67613726D01*
X145956666Y-67608742D01*
X145912319Y-67580241D01*
X145902262Y-67570184D01*
X145749523Y-67474211D01*
X145579254Y-67414631D01*
X145579249Y-67414630D01*
X145400004Y-67394435D01*
X145399996Y-67394435D01*
X145220750Y-67414630D01*
X145220745Y-67414631D01*
X145050476Y-67474211D01*
X144897737Y-67570184D01*
X144770184Y-67697737D01*
X144674211Y-67850476D01*
X144614631Y-68020745D01*
X144614630Y-68020750D01*
X144594435Y-68199996D01*
X138600500Y-68199996D01*
X138600500Y-63884045D01*
X138620185Y-63817006D01*
X138672989Y-63771251D01*
X138724500Y-63760045D01*
X143457825Y-63760045D01*
X143524864Y-63779730D01*
X143530710Y-63783727D01*
X143613246Y-63843693D01*
X143613251Y-63843696D01*
X143786173Y-63920687D01*
X143786176Y-63920688D01*
X143786178Y-63920689D01*
X143971335Y-63960045D01*
X143971336Y-63960045D01*
X144160625Y-63960045D01*
X144160627Y-63960045D01*
X144345784Y-63920689D01*
X144518711Y-63843696D01*
X144560106Y-63813620D01*
X144625907Y-63790141D01*
X144693962Y-63805965D01*
X144705875Y-63813622D01*
X144747264Y-63843693D01*
X144747270Y-63843697D01*
X144920192Y-63920688D01*
X144920195Y-63920689D01*
X144920197Y-63920690D01*
X145105354Y-63960046D01*
X145105355Y-63960046D01*
X145294644Y-63960046D01*
X145294646Y-63960046D01*
X145479803Y-63920690D01*
X145652730Y-63843697D01*
X145805871Y-63732434D01*
X145932533Y-63591762D01*
X146027179Y-63427830D01*
X146085674Y-63247802D01*
X146105460Y-63059546D01*
X146085674Y-62871290D01*
X146027179Y-62691262D01*
X145932533Y-62527330D01*
X145805871Y-62386658D01*
X145805870Y-62386657D01*
X145652734Y-62275397D01*
X145652729Y-62275394D01*
X145483394Y-62200000D01*
X153294540Y-62200000D01*
X153314326Y-62388256D01*
X153314327Y-62388259D01*
X153372818Y-62568277D01*
X153372820Y-62568281D01*
X153372821Y-62568284D01*
X153409921Y-62632544D01*
X153413072Y-62638001D01*
X153429543Y-62705901D01*
X153413072Y-62761999D01*
X153372820Y-62831718D01*
X153372818Y-62831722D01*
X153314327Y-63011740D01*
X153314326Y-63011744D01*
X153294540Y-63200000D01*
X153314326Y-63388256D01*
X153314327Y-63388259D01*
X153372818Y-63568277D01*
X153372821Y-63568284D01*
X153467467Y-63732216D01*
X153567842Y-63843693D01*
X153594129Y-63872888D01*
X153747265Y-63984148D01*
X153747270Y-63984151D01*
X153920192Y-64061142D01*
X153920197Y-64061144D01*
X154105354Y-64100500D01*
X154105355Y-64100500D01*
X154294644Y-64100500D01*
X154294646Y-64100500D01*
X154479803Y-64061144D01*
X154652730Y-63984151D01*
X154805871Y-63872888D01*
X154932533Y-63732216D01*
X155027179Y-63568284D01*
X155085674Y-63388256D01*
X155105460Y-63200000D01*
X155085674Y-63011744D01*
X155027179Y-62831716D01*
X154986927Y-62761999D01*
X154970454Y-62694101D01*
X154986927Y-62638001D01*
X155027179Y-62568284D01*
X155085674Y-62388256D01*
X155105460Y-62200000D01*
X155085674Y-62011744D01*
X155027179Y-61831716D01*
X154932533Y-61667784D01*
X154805871Y-61527112D01*
X154805870Y-61527111D01*
X154652734Y-61415851D01*
X154652729Y-61415848D01*
X154479807Y-61338857D01*
X154479802Y-61338855D01*
X154334001Y-61307865D01*
X154294646Y-61299500D01*
X154105354Y-61299500D01*
X154072897Y-61306398D01*
X153920197Y-61338855D01*
X153920192Y-61338857D01*
X153747270Y-61415848D01*
X153747265Y-61415851D01*
X153594129Y-61527111D01*
X153467466Y-61667785D01*
X153372821Y-61831715D01*
X153372818Y-61831722D01*
X153314327Y-62011740D01*
X153314326Y-62011744D01*
X153294540Y-62200000D01*
X145483394Y-62200000D01*
X145479807Y-62198403D01*
X145479802Y-62198401D01*
X145334001Y-62167411D01*
X145294646Y-62159046D01*
X145105354Y-62159046D01*
X145072897Y-62165944D01*
X144920197Y-62198401D01*
X144920192Y-62198403D01*
X144747270Y-62275394D01*
X144747266Y-62275397D01*
X144705875Y-62305469D01*
X144640068Y-62328948D01*
X144572015Y-62313122D01*
X144560107Y-62305469D01*
X144518714Y-62275395D01*
X144518710Y-62275393D01*
X144345788Y-62198402D01*
X144345783Y-62198400D01*
X144199982Y-62167410D01*
X144160627Y-62159045D01*
X143971335Y-62159045D01*
X143938878Y-62165943D01*
X143786178Y-62198400D01*
X143786173Y-62198402D01*
X143613251Y-62275393D01*
X143613246Y-62275396D01*
X143530710Y-62335363D01*
X143464904Y-62358843D01*
X143457825Y-62359045D01*
X138864010Y-62359045D01*
X138796971Y-62339360D01*
X138756623Y-62297046D01*
X138749557Y-62284808D01*
X138741082Y-62275395D01*
X138622896Y-62144137D01*
X138622895Y-62144136D01*
X138469759Y-62032876D01*
X138469754Y-62032873D01*
X138325614Y-61968697D01*
X138272377Y-61923447D01*
X138258121Y-61893740D01*
X138243161Y-61847698D01*
X138148515Y-61683766D01*
X138021853Y-61543094D01*
X137999856Y-61527112D01*
X137868716Y-61431833D01*
X137868711Y-61431830D01*
X137695789Y-61354839D01*
X137695784Y-61354837D01*
X137549983Y-61323847D01*
X137510628Y-61315482D01*
X137321336Y-61315482D01*
X137288879Y-61322380D01*
X137136179Y-61354837D01*
X137136174Y-61354839D01*
X136963252Y-61431830D01*
X136963247Y-61431833D01*
X136810111Y-61543093D01*
X136683448Y-61683767D01*
X136588803Y-61847697D01*
X136588800Y-61847704D01*
X136530309Y-62027722D01*
X136530308Y-62027726D01*
X136510522Y-62215982D01*
X134057110Y-62215982D01*
X134132533Y-62132216D01*
X134227179Y-61968284D01*
X134285674Y-61788256D01*
X134305460Y-61600000D01*
X134285674Y-61411744D01*
X134227179Y-61231716D01*
X134132533Y-61067784D01*
X134005871Y-60927112D01*
X134005870Y-60927111D01*
X133852734Y-60815851D01*
X133852729Y-60815848D01*
X133679807Y-60738857D01*
X133679802Y-60738855D01*
X133534001Y-60707865D01*
X133494646Y-60699500D01*
X133305354Y-60699500D01*
X133272897Y-60706398D01*
X133120197Y-60738855D01*
X133120192Y-60738857D01*
X132947270Y-60815848D01*
X132947265Y-60815851D01*
X132794129Y-60927111D01*
X132667466Y-61067785D01*
X132572821Y-61231715D01*
X132572818Y-61231722D01*
X132523639Y-61383081D01*
X132514326Y-61411744D01*
X132494540Y-61600000D01*
X127212999Y-61600000D01*
X127212999Y-60877128D01*
X127206591Y-60817517D01*
X127202133Y-60805565D01*
X127156297Y-60682671D01*
X127156293Y-60682664D01*
X127070047Y-60567455D01*
X127070044Y-60567452D01*
X126954835Y-60481206D01*
X126954828Y-60481202D01*
X126819982Y-60430908D01*
X126819983Y-60430908D01*
X126760383Y-60424501D01*
X126760381Y-60424500D01*
X126760373Y-60424500D01*
X126760364Y-60424500D01*
X125314629Y-60424500D01*
X125314623Y-60424501D01*
X125255016Y-60430908D01*
X125120171Y-60481202D01*
X125120164Y-60481206D01*
X125004955Y-60567452D01*
X124942714Y-60650595D01*
X124886780Y-60692465D01*
X124817088Y-60697449D01*
X124759910Y-60667921D01*
X124748931Y-60657912D01*
X124748928Y-60657910D01*
X124748927Y-60657909D01*
X124563712Y-60543229D01*
X124563706Y-60543226D01*
X124478612Y-60510260D01*
X124360568Y-60464530D01*
X124146425Y-60424500D01*
X123928573Y-60424500D01*
X123714430Y-60464530D01*
X123671395Y-60481202D01*
X123511291Y-60543226D01*
X123511285Y-60543229D01*
X123326075Y-60657906D01*
X123326065Y-60657913D01*
X123165073Y-60804676D01*
X123033787Y-60978527D01*
X122936683Y-61173537D01*
X122877063Y-61383081D01*
X122856963Y-61599999D01*
X121016480Y-61599999D01*
X121016480Y-57099996D01*
X126394435Y-57099996D01*
X126394435Y-57100003D01*
X126414630Y-57279249D01*
X126414631Y-57279254D01*
X126474211Y-57449523D01*
X126513669Y-57512319D01*
X126570184Y-57602262D01*
X126697738Y-57729816D01*
X126850478Y-57825789D01*
X126959851Y-57864060D01*
X127016627Y-57904782D01*
X127035938Y-57940146D01*
X127074211Y-58049523D01*
X127074212Y-58049524D01*
X127078008Y-58055565D01*
X127170184Y-58202262D01*
X127297738Y-58329816D01*
X127450478Y-58425789D01*
X127620745Y-58485368D01*
X127620754Y-58485369D01*
X127621207Y-58485473D01*
X127621477Y-58485624D01*
X127627318Y-58487668D01*
X127626960Y-58488690D01*
X127682191Y-58519573D01*
X127711377Y-58573017D01*
X127712333Y-58572683D01*
X127714362Y-58578483D01*
X127714523Y-58578777D01*
X127714631Y-58579249D01*
X127714632Y-58579255D01*
X127746538Y-58670437D01*
X127774210Y-58749521D01*
X127870184Y-58902262D01*
X127997740Y-59029818D01*
X128051486Y-59063588D01*
X128097778Y-59115922D01*
X128108427Y-59184976D01*
X128080052Y-59248824D01*
X128051488Y-59273575D01*
X127897739Y-59370182D01*
X127770184Y-59497737D01*
X127674211Y-59650476D01*
X127614631Y-59820745D01*
X127614630Y-59820750D01*
X127594435Y-59999996D01*
X127594435Y-60000003D01*
X127614630Y-60179249D01*
X127614631Y-60179254D01*
X127674211Y-60349523D01*
X127721323Y-60424500D01*
X127770184Y-60502262D01*
X127897738Y-60629816D01*
X128050478Y-60725789D01*
X128204521Y-60779691D01*
X128220745Y-60785368D01*
X128220750Y-60785369D01*
X128399996Y-60805565D01*
X128400000Y-60805565D01*
X128400004Y-60805565D01*
X128579249Y-60785369D01*
X128579252Y-60785368D01*
X128579255Y-60785368D01*
X128749522Y-60725789D01*
X128834027Y-60672691D01*
X128901264Y-60653690D01*
X128965973Y-60672691D01*
X129050475Y-60725788D01*
X129220745Y-60785368D01*
X129220750Y-60785369D01*
X129399996Y-60805565D01*
X129400000Y-60805565D01*
X129400004Y-60805565D01*
X129579249Y-60785369D01*
X129579252Y-60785368D01*
X129579255Y-60785368D01*
X129749522Y-60725789D01*
X129834027Y-60672691D01*
X129901264Y-60653690D01*
X129965973Y-60672691D01*
X130050475Y-60725788D01*
X130220745Y-60785368D01*
X130220750Y-60785369D01*
X130399996Y-60805565D01*
X130400000Y-60805565D01*
X130400004Y-60805565D01*
X130579249Y-60785369D01*
X130579252Y-60785368D01*
X130579255Y-60785368D01*
X130749522Y-60725789D01*
X130834027Y-60672691D01*
X130901264Y-60653690D01*
X130965973Y-60672691D01*
X131050475Y-60725788D01*
X131220745Y-60785368D01*
X131220750Y-60785369D01*
X131399996Y-60805565D01*
X131400000Y-60805565D01*
X131400004Y-60805565D01*
X131579249Y-60785369D01*
X131579252Y-60785368D01*
X131579255Y-60785368D01*
X131749522Y-60725789D01*
X131902262Y-60629816D01*
X132029816Y-60502262D01*
X132125789Y-60349522D01*
X132185368Y-60179255D01*
X132205565Y-60000000D01*
X132185368Y-59820745D01*
X132125789Y-59650478D01*
X132029816Y-59497738D01*
X131902262Y-59370184D01*
X131834027Y-59327309D01*
X131749523Y-59274211D01*
X131579254Y-59214631D01*
X131579249Y-59214630D01*
X131400004Y-59194435D01*
X131399996Y-59194435D01*
X131220750Y-59214630D01*
X131220737Y-59214633D01*
X131050479Y-59274209D01*
X130965971Y-59327309D01*
X130898734Y-59346309D01*
X130834029Y-59327309D01*
X130749520Y-59274209D01*
X130579262Y-59214633D01*
X130579249Y-59214630D01*
X130400004Y-59194435D01*
X130399996Y-59194435D01*
X130220750Y-59214630D01*
X130220737Y-59214633D01*
X130050479Y-59274209D01*
X129965971Y-59327309D01*
X129898734Y-59346309D01*
X129834029Y-59327309D01*
X129749520Y-59274209D01*
X129579262Y-59214633D01*
X129579249Y-59214630D01*
X129400004Y-59194435D01*
X129399996Y-59194435D01*
X129220750Y-59214630D01*
X129220745Y-59214631D01*
X129102668Y-59255949D01*
X129032889Y-59259510D01*
X128972261Y-59224781D01*
X128940034Y-59162788D01*
X128946439Y-59093213D01*
X128989443Y-59038145D01*
X128995742Y-59033913D01*
X129002259Y-59029818D01*
X129002259Y-59029817D01*
X129002262Y-59029816D01*
X129129816Y-58902262D01*
X129225789Y-58749522D01*
X129285368Y-58579255D01*
X129286071Y-58573017D01*
X129305565Y-58400003D01*
X129305565Y-58399996D01*
X129285369Y-58220750D01*
X129285368Y-58220745D01*
X129225789Y-58050478D01*
X129225188Y-58049522D01*
X129157663Y-57942056D01*
X129129816Y-57897738D01*
X129069759Y-57837681D01*
X129036274Y-57776358D01*
X129041258Y-57706666D01*
X129069759Y-57662319D01*
X129088744Y-57643334D01*
X129129816Y-57602262D01*
X129225789Y-57449522D01*
X129285368Y-57279255D01*
X129286861Y-57266005D01*
X129305565Y-57100003D01*
X129305565Y-57099996D01*
X129294298Y-56999996D01*
X131194435Y-56999996D01*
X131194435Y-57000003D01*
X131214630Y-57179249D01*
X131214631Y-57179254D01*
X131274211Y-57349523D01*
X131370184Y-57502262D01*
X131380241Y-57512319D01*
X131413726Y-57573642D01*
X131408742Y-57643334D01*
X131380241Y-57687681D01*
X131370184Y-57697737D01*
X131274211Y-57850476D01*
X131214631Y-58020745D01*
X131214630Y-58020750D01*
X131194435Y-58199996D01*
X131194435Y-58200003D01*
X131214630Y-58379249D01*
X131214631Y-58379254D01*
X131274211Y-58549523D01*
X131370184Y-58702262D01*
X131497738Y-58829816D01*
X131650478Y-58925789D01*
X131686670Y-58938453D01*
X131820745Y-58985368D01*
X131820750Y-58985369D01*
X131999996Y-59005565D01*
X132000000Y-59005565D01*
X132000004Y-59005565D01*
X132179249Y-58985369D01*
X132179252Y-58985368D01*
X132179255Y-58985368D01*
X132349522Y-58925789D01*
X132502262Y-58829816D01*
X132629816Y-58702262D01*
X132717264Y-58563089D01*
X135245480Y-58563089D01*
X135283928Y-58756375D01*
X135283931Y-58756385D01*
X135359345Y-58938453D01*
X135359352Y-58938466D01*
X135468841Y-59102327D01*
X135468844Y-59102331D01*
X135608195Y-59241682D01*
X135608199Y-59241685D01*
X135772060Y-59351174D01*
X135772073Y-59351181D01*
X135954141Y-59426595D01*
X135954146Y-59426597D01*
X135954150Y-59426597D01*
X135954151Y-59426598D01*
X136147437Y-59465046D01*
X136147440Y-59465046D01*
X136344524Y-59465046D01*
X136474563Y-59439178D01*
X136537816Y-59426597D01*
X136719895Y-59351178D01*
X136883763Y-59241685D01*
X137023120Y-59102328D01*
X137132613Y-58938460D01*
X137137862Y-58925789D01*
X137208030Y-58756385D01*
X137208032Y-58756381D01*
X137244506Y-58573017D01*
X137246481Y-58563089D01*
X137246481Y-57988143D01*
X137266166Y-57921104D01*
X137318970Y-57875349D01*
X137388128Y-57865405D01*
X137432476Y-57880754D01*
X137473145Y-57904234D01*
X137606798Y-57940046D01*
X137606800Y-57940046D01*
X137745162Y-57940046D01*
X137745164Y-57940046D01*
X137878817Y-57904234D01*
X137998646Y-57835051D01*
X138096486Y-57737211D01*
X138112712Y-57709105D01*
X138163279Y-57660890D01*
X138231886Y-57647666D01*
X138296751Y-57673634D01*
X138307781Y-57683424D01*
X138313720Y-57689363D01*
X138327049Y-57697738D01*
X138452171Y-57776358D01*
X138466460Y-57785336D01*
X138623104Y-57840148D01*
X138636727Y-57844915D01*
X138636732Y-57844916D01*
X138815978Y-57865112D01*
X138815982Y-57865112D01*
X138815986Y-57865112D01*
X138995231Y-57844916D01*
X138995234Y-57844915D01*
X138995237Y-57844915D01*
X139165504Y-57785336D01*
X139179793Y-57776358D01*
X139242094Y-57737211D01*
X139318244Y-57689363D01*
X139318245Y-57689361D01*
X139320958Y-57687657D01*
X139388195Y-57668656D01*
X139455030Y-57689023D01*
X139483879Y-57715338D01*
X139486308Y-57718385D01*
X139486312Y-57718390D01*
X139613866Y-57845944D01*
X139679421Y-57887135D01*
X139763626Y-57940045D01*
X139766606Y-57941917D01*
X139936873Y-58001496D01*
X139936878Y-58001497D01*
X140116124Y-58021693D01*
X140116128Y-58021693D01*
X140116132Y-58021693D01*
X140295377Y-58001497D01*
X140295380Y-58001496D01*
X140295383Y-58001496D01*
X140465650Y-57941917D01*
X140618390Y-57845944D01*
X140628444Y-57835890D01*
X140689766Y-57802403D01*
X140759458Y-57807385D01*
X140803809Y-57835887D01*
X140847738Y-57879816D01*
X141000478Y-57975789D01*
X141128955Y-58020745D01*
X141170745Y-58035368D01*
X141170750Y-58035369D01*
X141349996Y-58055565D01*
X141350000Y-58055565D01*
X141350004Y-58055565D01*
X141529249Y-58035369D01*
X141529252Y-58035368D01*
X141529255Y-58035368D01*
X141699522Y-57975789D01*
X141852262Y-57879816D01*
X141979816Y-57752262D01*
X142075789Y-57599522D01*
X142135368Y-57429255D01*
X142135368Y-57429254D01*
X142137668Y-57422682D01*
X142140206Y-57423570D01*
X142168309Y-57373288D01*
X142193769Y-57355412D01*
X142193383Y-57354797D01*
X142208396Y-57345363D01*
X142930481Y-57345363D01*
X142930481Y-57483729D01*
X142961508Y-57599522D01*
X142966293Y-57617381D01*
X142966294Y-57617384D01*
X143035473Y-57737207D01*
X143035475Y-57737209D01*
X143035476Y-57737211D01*
X143133316Y-57835051D01*
X143133317Y-57835052D01*
X143133319Y-57835053D01*
X143185383Y-57865112D01*
X143253145Y-57904234D01*
X143386798Y-57940046D01*
X143386800Y-57940046D01*
X143525162Y-57940046D01*
X143525164Y-57940046D01*
X143658817Y-57904234D01*
X143699483Y-57880755D01*
X143767380Y-57864283D01*
X143833407Y-57887135D01*
X143876598Y-57942056D01*
X143885481Y-57988143D01*
X143885481Y-58563087D01*
X143885481Y-58563089D01*
X143885480Y-58563089D01*
X143923928Y-58756375D01*
X143923931Y-58756385D01*
X143999345Y-58938453D01*
X143999352Y-58938466D01*
X144108841Y-59102327D01*
X144108844Y-59102331D01*
X144248195Y-59241682D01*
X144248199Y-59241685D01*
X144412060Y-59351174D01*
X144412073Y-59351181D01*
X144594141Y-59426595D01*
X144594146Y-59426597D01*
X144594150Y-59426597D01*
X144594151Y-59426598D01*
X144787437Y-59465046D01*
X144787440Y-59465046D01*
X144984524Y-59465046D01*
X145114563Y-59439178D01*
X145177816Y-59426597D01*
X145359895Y-59351178D01*
X145523763Y-59241685D01*
X145663120Y-59102328D01*
X145772613Y-58938460D01*
X145777862Y-58925789D01*
X145848030Y-58756385D01*
X145848032Y-58756381D01*
X145884506Y-58573017D01*
X145886481Y-58563089D01*
X145886481Y-57266002D01*
X145848033Y-57072716D01*
X145848032Y-57072715D01*
X145848032Y-57072711D01*
X145824963Y-57017016D01*
X145772616Y-56890638D01*
X145772609Y-56890625D01*
X145663120Y-56726764D01*
X145663117Y-56726760D01*
X145523766Y-56587409D01*
X145523762Y-56587406D01*
X145359901Y-56477917D01*
X145359888Y-56477910D01*
X145177820Y-56402496D01*
X145177810Y-56402493D01*
X144984524Y-56364046D01*
X144984522Y-56364046D01*
X144787440Y-56364046D01*
X144787438Y-56364046D01*
X144594151Y-56402493D01*
X144594141Y-56402496D01*
X144412073Y-56477910D01*
X144412060Y-56477917D01*
X144248199Y-56587406D01*
X144248195Y-56587409D01*
X144108844Y-56726760D01*
X144108841Y-56726764D01*
X143999352Y-56890625D01*
X143999349Y-56890632D01*
X143975436Y-56948362D01*
X143931594Y-57002765D01*
X143865300Y-57024829D01*
X143797601Y-57007549D01*
X143785646Y-56998262D01*
X143785091Y-56998987D01*
X143778642Y-56994038D01*
X143658819Y-56924859D01*
X143658818Y-56924858D01*
X143658817Y-56924858D01*
X143525164Y-56889046D01*
X143386798Y-56889046D01*
X143253145Y-56924858D01*
X143253142Y-56924859D01*
X143133319Y-56994038D01*
X143133314Y-56994042D01*
X143035477Y-57091879D01*
X143035473Y-57091884D01*
X142966294Y-57211707D01*
X142966293Y-57211710D01*
X142930481Y-57345363D01*
X142208396Y-57345363D01*
X142229417Y-57332154D01*
X142352019Y-57255119D01*
X142479573Y-57127565D01*
X142575546Y-56974825D01*
X142635125Y-56804558D01*
X142635126Y-56804552D01*
X142655322Y-56625306D01*
X142655322Y-56625300D01*
X142644611Y-56530241D01*
X142638849Y-56479104D01*
X142650903Y-56410286D01*
X142656515Y-56400153D01*
X142726888Y-56286062D01*
X142781154Y-56122299D01*
X142791480Y-56021223D01*
X142791479Y-55497648D01*
X161299500Y-55497648D01*
X161299500Y-55702351D01*
X161331522Y-55904534D01*
X161394781Y-56099223D01*
X161487715Y-56281613D01*
X161608028Y-56447213D01*
X161752786Y-56591971D01*
X161907749Y-56704556D01*
X161918390Y-56712287D01*
X162034607Y-56771503D01*
X162100776Y-56805218D01*
X162100778Y-56805218D01*
X162100781Y-56805220D01*
X162205137Y-56839127D01*
X162295465Y-56868477D01*
X162370062Y-56880292D01*
X162497648Y-56900500D01*
X162497649Y-56900500D01*
X162702351Y-56900500D01*
X162702352Y-56900500D01*
X162904534Y-56868477D01*
X163099219Y-56805220D01*
X163281610Y-56712287D01*
X163401330Y-56625306D01*
X163447213Y-56591971D01*
X163447215Y-56591968D01*
X163447219Y-56591966D01*
X163591966Y-56447219D01*
X163591968Y-56447215D01*
X163591971Y-56447213D01*
X163688296Y-56314631D01*
X163712287Y-56281610D01*
X163805220Y-56099219D01*
X163868477Y-55904534D01*
X163900500Y-55702352D01*
X163900500Y-55497648D01*
X163868477Y-55295466D01*
X163805220Y-55100781D01*
X163805218Y-55100778D01*
X163805218Y-55100776D01*
X163764658Y-55021174D01*
X163712287Y-54918390D01*
X163685565Y-54881610D01*
X163591971Y-54752786D01*
X163447213Y-54608028D01*
X163281613Y-54487715D01*
X163281612Y-54487714D01*
X163281610Y-54487713D01*
X163224653Y-54458691D01*
X163099223Y-54394781D01*
X162904534Y-54331522D01*
X162729995Y-54303878D01*
X162702352Y-54299500D01*
X162497648Y-54299500D01*
X162473329Y-54303351D01*
X162295465Y-54331522D01*
X162100776Y-54394781D01*
X161918386Y-54487715D01*
X161752786Y-54608028D01*
X161608028Y-54752786D01*
X161487715Y-54918386D01*
X161394781Y-55100776D01*
X161331522Y-55295465D01*
X161299500Y-55497648D01*
X142791479Y-55497648D01*
X142791479Y-55422870D01*
X142781154Y-55321793D01*
X142726888Y-55158030D01*
X142636320Y-55011196D01*
X142521997Y-54896873D01*
X142488512Y-54835550D01*
X142493496Y-54765858D01*
X142521997Y-54721510D01*
X142635928Y-54607579D01*
X142726428Y-54460857D01*
X142726433Y-54460846D01*
X142780660Y-54297198D01*
X142787210Y-54233089D01*
X143885480Y-54233089D01*
X143923928Y-54426375D01*
X143923931Y-54426385D01*
X143999345Y-54608453D01*
X143999352Y-54608466D01*
X144108841Y-54772327D01*
X144108844Y-54772331D01*
X144248195Y-54911682D01*
X144248199Y-54911685D01*
X144412060Y-55021174D01*
X144412073Y-55021181D01*
X144594141Y-55096595D01*
X144594146Y-55096597D01*
X144594150Y-55096597D01*
X144594151Y-55096598D01*
X144787437Y-55135046D01*
X144787440Y-55135046D01*
X144984524Y-55135046D01*
X145114563Y-55109178D01*
X145177816Y-55096597D01*
X145359895Y-55021178D01*
X145523763Y-54911685D01*
X145663120Y-54772328D01*
X145772613Y-54608460D01*
X145772790Y-54608034D01*
X145822627Y-54487715D01*
X145848032Y-54426381D01*
X145872703Y-54302352D01*
X145886481Y-54233089D01*
X145886481Y-53236002D01*
X145848033Y-53042716D01*
X145848032Y-53042715D01*
X145848032Y-53042711D01*
X145828179Y-52994781D01*
X145772616Y-52860638D01*
X145772609Y-52860625D01*
X145663120Y-52696764D01*
X145663117Y-52696760D01*
X145523766Y-52557409D01*
X145523762Y-52557406D01*
X145359901Y-52447917D01*
X145359888Y-52447910D01*
X145177820Y-52372496D01*
X145177810Y-52372493D01*
X144984524Y-52334046D01*
X144984522Y-52334046D01*
X144787440Y-52334046D01*
X144787438Y-52334046D01*
X144594151Y-52372493D01*
X144594141Y-52372496D01*
X144412073Y-52447910D01*
X144412060Y-52447917D01*
X144248199Y-52557406D01*
X144248195Y-52557409D01*
X144108844Y-52696760D01*
X144108841Y-52696764D01*
X143999352Y-52860625D01*
X143999345Y-52860638D01*
X143923931Y-53042706D01*
X143923928Y-53042716D01*
X143885481Y-53236002D01*
X143885481Y-53236005D01*
X143885481Y-54233087D01*
X143885481Y-54233089D01*
X143885480Y-54233089D01*
X142787210Y-54233089D01*
X142790979Y-54196200D01*
X142790980Y-54196187D01*
X142790980Y-54147046D01*
X140840981Y-54147046D01*
X140840981Y-54196200D01*
X140851299Y-54297198D01*
X140905526Y-54460846D01*
X140905531Y-54460857D01*
X140996032Y-54607580D01*
X140996035Y-54607584D01*
X141109962Y-54721511D01*
X141143447Y-54782834D01*
X141138463Y-54852526D01*
X141109963Y-54896873D01*
X140995639Y-55011197D01*
X140905073Y-55158027D01*
X140905071Y-55158032D01*
X140893825Y-55191971D01*
X140850806Y-55321793D01*
X140850806Y-55321794D01*
X140850805Y-55321794D01*
X140840480Y-55422861D01*
X140840480Y-56021215D01*
X140840481Y-56021233D01*
X140850805Y-56122298D01*
X140905072Y-56286061D01*
X140905073Y-56286064D01*
X140973025Y-56396231D01*
X140991465Y-56463624D01*
X140970542Y-56530287D01*
X140933459Y-56566321D01*
X140847737Y-56620184D01*
X140847732Y-56620187D01*
X140837677Y-56630243D01*
X140776353Y-56663726D01*
X140706662Y-56658739D01*
X140662318Y-56630240D01*
X140618390Y-56586312D01*
X140465651Y-56490339D01*
X140295382Y-56430759D01*
X140295377Y-56430758D01*
X140116132Y-56410563D01*
X140116124Y-56410563D01*
X139936878Y-56430758D01*
X139936867Y-56430761D01*
X139882970Y-56449620D01*
X139813191Y-56453181D01*
X139752564Y-56418451D01*
X139720338Y-56356458D01*
X139726141Y-56293421D01*
X139724618Y-56292917D01*
X139726888Y-56286063D01*
X139726890Y-56286062D01*
X139781156Y-56122299D01*
X139791482Y-56021223D01*
X139791481Y-55422870D01*
X139781156Y-55321793D01*
X139726890Y-55158030D01*
X139636322Y-55011196D01*
X139521999Y-54896873D01*
X139488514Y-54835550D01*
X139493498Y-54765858D01*
X139521999Y-54721510D01*
X139635930Y-54607579D01*
X139726430Y-54460857D01*
X139726435Y-54460846D01*
X139780662Y-54297198D01*
X139790981Y-54196200D01*
X139790982Y-54196187D01*
X139790982Y-54147046D01*
X137840983Y-54147046D01*
X137840983Y-54196200D01*
X137851301Y-54297198D01*
X137905528Y-54460846D01*
X137905533Y-54460857D01*
X137996034Y-54607580D01*
X137996037Y-54607584D01*
X138109964Y-54721511D01*
X138143449Y-54782834D01*
X138138465Y-54852526D01*
X138109965Y-54896873D01*
X137995641Y-55011197D01*
X137905075Y-55158027D01*
X137905073Y-55158032D01*
X137893827Y-55191971D01*
X137850808Y-55321793D01*
X137850808Y-55321794D01*
X137850807Y-55321794D01*
X137840482Y-55422861D01*
X137840482Y-56021215D01*
X137840483Y-56021233D01*
X137850807Y-56122298D01*
X137905074Y-56286061D01*
X137905075Y-56286064D01*
X137922696Y-56314632D01*
X137994323Y-56430758D01*
X137995643Y-56432897D01*
X138090722Y-56527976D01*
X138124207Y-56589299D01*
X138119223Y-56658991D01*
X138108036Y-56681627D01*
X138090193Y-56710023D01*
X138041097Y-56850334D01*
X138000375Y-56907110D01*
X137935422Y-56932857D01*
X137887052Y-56925527D01*
X137886668Y-56926962D01*
X137878818Y-56924858D01*
X137878817Y-56924858D01*
X137745164Y-56889046D01*
X137606798Y-56889046D01*
X137473145Y-56924858D01*
X137473142Y-56924859D01*
X137353319Y-56994038D01*
X137346871Y-56998987D01*
X137344780Y-56996263D01*
X137297239Y-57022119D01*
X137227556Y-57017016D01*
X137171693Y-56975050D01*
X137156525Y-56948360D01*
X137132616Y-56890638D01*
X137132609Y-56890625D01*
X137023120Y-56726764D01*
X137023117Y-56726760D01*
X136883766Y-56587409D01*
X136883762Y-56587406D01*
X136719901Y-56477917D01*
X136719888Y-56477910D01*
X136537820Y-56402496D01*
X136537810Y-56402493D01*
X136344524Y-56364046D01*
X136344522Y-56364046D01*
X136147440Y-56364046D01*
X136147438Y-56364046D01*
X135954151Y-56402493D01*
X135954141Y-56402496D01*
X135772073Y-56477910D01*
X135772060Y-56477917D01*
X135608199Y-56587406D01*
X135608195Y-56587409D01*
X135468844Y-56726760D01*
X135468841Y-56726764D01*
X135359352Y-56890625D01*
X135359345Y-56890638D01*
X135283931Y-57072706D01*
X135283928Y-57072716D01*
X135245481Y-57266002D01*
X135245481Y-57266005D01*
X135245481Y-58563087D01*
X135245481Y-58563089D01*
X135245480Y-58563089D01*
X132717264Y-58563089D01*
X132725789Y-58549522D01*
X132764060Y-58440147D01*
X132804782Y-58383372D01*
X132840146Y-58364060D01*
X132949522Y-58325789D01*
X133102262Y-58229816D01*
X133229816Y-58102262D01*
X133325789Y-57949522D01*
X133364060Y-57840147D01*
X133404782Y-57783372D01*
X133440146Y-57764060D01*
X133549522Y-57725789D01*
X133702262Y-57629816D01*
X133829816Y-57502262D01*
X133925789Y-57349522D01*
X133985368Y-57179255D01*
X133991192Y-57127565D01*
X134005565Y-57000003D01*
X134005565Y-56999996D01*
X133985369Y-56820750D01*
X133985368Y-56820745D01*
X133979702Y-56804552D01*
X133925789Y-56650478D01*
X133913074Y-56630243D01*
X133868147Y-56558742D01*
X133829816Y-56497738D01*
X133702262Y-56370184D01*
X133549523Y-56274211D01*
X133379254Y-56214631D01*
X133379249Y-56214630D01*
X133200004Y-56194435D01*
X133199996Y-56194435D01*
X133020750Y-56214630D01*
X133020745Y-56214631D01*
X132850476Y-56274211D01*
X132697737Y-56370184D01*
X132687681Y-56380241D01*
X132626358Y-56413726D01*
X132556666Y-56408742D01*
X132512319Y-56380241D01*
X132502262Y-56370184D01*
X132349523Y-56274211D01*
X132179254Y-56214631D01*
X132179249Y-56214630D01*
X132000004Y-56194435D01*
X131999996Y-56194435D01*
X131820750Y-56214630D01*
X131820745Y-56214631D01*
X131650476Y-56274211D01*
X131497737Y-56370184D01*
X131370184Y-56497737D01*
X131274211Y-56650476D01*
X131214631Y-56820745D01*
X131214630Y-56820750D01*
X131194435Y-56999996D01*
X129294298Y-56999996D01*
X129285369Y-56920750D01*
X129285368Y-56920745D01*
X129225788Y-56750476D01*
X129168304Y-56658991D01*
X129129816Y-56597738D01*
X129002262Y-56470184D01*
X128969535Y-56449620D01*
X128849523Y-56374211D01*
X128679254Y-56314631D01*
X128679249Y-56314630D01*
X128500004Y-56294435D01*
X128499996Y-56294435D01*
X128320750Y-56314630D01*
X128320745Y-56314631D01*
X128150476Y-56374211D01*
X127997737Y-56470184D01*
X127937681Y-56530241D01*
X127876358Y-56563726D01*
X127806666Y-56558742D01*
X127762319Y-56530241D01*
X127702262Y-56470184D01*
X127549523Y-56374211D01*
X127379254Y-56314631D01*
X127379249Y-56314630D01*
X127200004Y-56294435D01*
X127199996Y-56294435D01*
X127020750Y-56314630D01*
X127020745Y-56314631D01*
X126850476Y-56374211D01*
X126697737Y-56470184D01*
X126570184Y-56597737D01*
X126474211Y-56750476D01*
X126414631Y-56920745D01*
X126414630Y-56920750D01*
X126394435Y-57099996D01*
X121016480Y-57099996D01*
X121016480Y-54099427D01*
X121016481Y-54099425D01*
X121016481Y-54097648D01*
X122299500Y-54097648D01*
X122299500Y-54302351D01*
X122331522Y-54504534D01*
X122394781Y-54699223D01*
X122487715Y-54881613D01*
X122608028Y-55047213D01*
X122752786Y-55191971D01*
X122895236Y-55295465D01*
X122918390Y-55312287D01*
X123034607Y-55371503D01*
X123100776Y-55405218D01*
X123100778Y-55405218D01*
X123100781Y-55405220D01*
X123155121Y-55422876D01*
X123295465Y-55468477D01*
X123396557Y-55484488D01*
X123497648Y-55500500D01*
X123497649Y-55500500D01*
X123702351Y-55500500D01*
X123702352Y-55500500D01*
X123904534Y-55468477D01*
X124099219Y-55405220D01*
X124281610Y-55312287D01*
X124374590Y-55244732D01*
X124447213Y-55191971D01*
X124447215Y-55191968D01*
X124447219Y-55191966D01*
X124591966Y-55047219D01*
X124591968Y-55047215D01*
X124591971Y-55047213D01*
X124644732Y-54974590D01*
X124712287Y-54881610D01*
X124805220Y-54699219D01*
X124868477Y-54504534D01*
X124900500Y-54302352D01*
X124900500Y-54233089D01*
X135245480Y-54233089D01*
X135283928Y-54426375D01*
X135283931Y-54426385D01*
X135359345Y-54608453D01*
X135359352Y-54608466D01*
X135468841Y-54772327D01*
X135468844Y-54772331D01*
X135608195Y-54911682D01*
X135608199Y-54911685D01*
X135772060Y-55021174D01*
X135772073Y-55021181D01*
X135954141Y-55096595D01*
X135954146Y-55096597D01*
X135954150Y-55096597D01*
X135954151Y-55096598D01*
X136147437Y-55135046D01*
X136147440Y-55135046D01*
X136344524Y-55135046D01*
X136474563Y-55109178D01*
X136537816Y-55096597D01*
X136719895Y-55021178D01*
X136883763Y-54911685D01*
X137023120Y-54772328D01*
X137132613Y-54608460D01*
X137132790Y-54608034D01*
X137182627Y-54487715D01*
X137208032Y-54426381D01*
X137232703Y-54302352D01*
X137246481Y-54233089D01*
X137246481Y-53597891D01*
X137840982Y-53597891D01*
X137840982Y-53647046D01*
X138565982Y-53647046D01*
X139065982Y-53647046D01*
X139790981Y-53647046D01*
X139790981Y-53597906D01*
X139790980Y-53597891D01*
X140840980Y-53597891D01*
X140840980Y-53647046D01*
X141565980Y-53647046D01*
X142065980Y-53647046D01*
X142790979Y-53647046D01*
X142790979Y-53597906D01*
X142790978Y-53597891D01*
X142780660Y-53496893D01*
X142726433Y-53333245D01*
X142726428Y-53333234D01*
X142635927Y-53186511D01*
X142635924Y-53186507D01*
X142514018Y-53064601D01*
X142514014Y-53064598D01*
X142367291Y-52974097D01*
X142367280Y-52974092D01*
X142203632Y-52919865D01*
X142102634Y-52909546D01*
X142065980Y-52909546D01*
X142065980Y-53647046D01*
X141565980Y-53647046D01*
X141565980Y-52909546D01*
X141529341Y-52909546D01*
X141529323Y-52909547D01*
X141428327Y-52919865D01*
X141264679Y-52974092D01*
X141264668Y-52974097D01*
X141117945Y-53064598D01*
X141117941Y-53064601D01*
X140996035Y-53186507D01*
X140996032Y-53186511D01*
X140905531Y-53333234D01*
X140905526Y-53333245D01*
X140851299Y-53496893D01*
X140840980Y-53597891D01*
X139790980Y-53597891D01*
X139780662Y-53496893D01*
X139726435Y-53333245D01*
X139726430Y-53333234D01*
X139635929Y-53186511D01*
X139635926Y-53186507D01*
X139514020Y-53064601D01*
X139514016Y-53064598D01*
X139367293Y-52974097D01*
X139367282Y-52974092D01*
X139203634Y-52919865D01*
X139102636Y-52909546D01*
X139065982Y-52909546D01*
X139065982Y-53647046D01*
X138565982Y-53647046D01*
X138565982Y-52909546D01*
X138529343Y-52909546D01*
X138529325Y-52909547D01*
X138428329Y-52919865D01*
X138264681Y-52974092D01*
X138264670Y-52974097D01*
X138117947Y-53064598D01*
X138117943Y-53064601D01*
X137996037Y-53186507D01*
X137996034Y-53186511D01*
X137905533Y-53333234D01*
X137905528Y-53333245D01*
X137851301Y-53496893D01*
X137840982Y-53597891D01*
X137246481Y-53597891D01*
X137246481Y-53236002D01*
X137208033Y-53042716D01*
X137208032Y-53042715D01*
X137208032Y-53042711D01*
X137188179Y-52994781D01*
X137132616Y-52860638D01*
X137132609Y-52860625D01*
X137023120Y-52696764D01*
X137023117Y-52696760D01*
X136883766Y-52557409D01*
X136883762Y-52557406D01*
X136719901Y-52447917D01*
X136719888Y-52447910D01*
X136537820Y-52372496D01*
X136537810Y-52372493D01*
X136344524Y-52334046D01*
X136344522Y-52334046D01*
X136147440Y-52334046D01*
X136147438Y-52334046D01*
X135954151Y-52372493D01*
X135954141Y-52372496D01*
X135772073Y-52447910D01*
X135772060Y-52447917D01*
X135608199Y-52557406D01*
X135608195Y-52557409D01*
X135468844Y-52696760D01*
X135468841Y-52696764D01*
X135359352Y-52860625D01*
X135359345Y-52860638D01*
X135283931Y-53042706D01*
X135283928Y-53042716D01*
X135245481Y-53236002D01*
X135245481Y-53236005D01*
X135245481Y-54233087D01*
X135245481Y-54233089D01*
X135245480Y-54233089D01*
X124900500Y-54233089D01*
X124900500Y-54097648D01*
X124868477Y-53895466D01*
X124805220Y-53700781D01*
X124805218Y-53700778D01*
X124805218Y-53700776D01*
X124752795Y-53597891D01*
X124712287Y-53518390D01*
X124696669Y-53496893D01*
X124591971Y-53352786D01*
X124447213Y-53208028D01*
X124281613Y-53087715D01*
X124281612Y-53087714D01*
X124281610Y-53087713D01*
X124193279Y-53042706D01*
X124099223Y-52994781D01*
X123904534Y-52931522D01*
X123729995Y-52903878D01*
X123702352Y-52899500D01*
X123497648Y-52899500D01*
X123473329Y-52903351D01*
X123295465Y-52931522D01*
X123100776Y-52994781D01*
X122918386Y-53087715D01*
X122752786Y-53208028D01*
X122608028Y-53352786D01*
X122487715Y-53518386D01*
X122394781Y-53700776D01*
X122331522Y-53895465D01*
X122299500Y-54097648D01*
X121016481Y-54097648D01*
X121016480Y-54063017D01*
X121016675Y-54056068D01*
X121018719Y-54019664D01*
X121033688Y-53753029D01*
X121035242Y-53739240D01*
X121085496Y-53443444D01*
X121088585Y-53429904D01*
X121171641Y-53141597D01*
X121176226Y-53128493D01*
X121291047Y-52851278D01*
X121297065Y-52838783D01*
X121442192Y-52576188D01*
X121449580Y-52564428D01*
X121623210Y-52319713D01*
X121631852Y-52308877D01*
X121831789Y-52085142D01*
X121841601Y-52075330D01*
X122065325Y-51875394D01*
X122076174Y-51866742D01*
X122320874Y-51693114D01*
X122332627Y-51685729D01*
X122595216Y-51540599D01*
X122607733Y-51534570D01*
X122884936Y-51419746D01*
X122898042Y-51415161D01*
X123186337Y-51332102D01*
X123199880Y-51329010D01*
X123495678Y-51278749D01*
X123509477Y-51277194D01*
X123783299Y-51261815D01*
X123811335Y-51260241D01*
X123818288Y-51260046D01*
X123855863Y-51260046D01*
X149852117Y-51260046D01*
X149919156Y-51279731D01*
G37*
%TD.AperFunction*%
%TD*%
M02*
