%TF.GenerationSoftware,KiCad,Pcbnew,8.0.4*%
%TF.CreationDate,2024-10-06T13:03:41-05:00*%
%TF.ProjectId,BinauralMic,42696e61-7572-4616-9c4d-69632e6b6963,rev?*%
%TF.SameCoordinates,Original*%
%TF.FileFunction,Legend,Top*%
%TF.FilePolarity,Positive*%
%FSLAX46Y46*%
G04 Gerber Fmt 4.6, Leading zero omitted, Abs format (unit mm)*
G04 Created by KiCad (PCBNEW 8.0.4) date 2024-10-06 13:03:41*
%MOMM*%
%LPD*%
G01*
G04 APERTURE LIST*
G04 Aperture macros list*
%AMRoundRect*
0 Rectangle with rounded corners*
0 $1 Rounding radius*
0 $2 $3 $4 $5 $6 $7 $8 $9 X,Y pos of 4 corners*
0 Add a 4 corners polygon primitive as box body*
4,1,4,$2,$3,$4,$5,$6,$7,$8,$9,$2,$3,0*
0 Add four circle primitives for the rounded corners*
1,1,$1+$1,$2,$3*
1,1,$1+$1,$4,$5*
1,1,$1+$1,$6,$7*
1,1,$1+$1,$8,$9*
0 Add four rect primitives between the rounded corners*
20,1,$1+$1,$2,$3,$4,$5,0*
20,1,$1+$1,$4,$5,$6,$7,0*
20,1,$1+$1,$6,$7,$8,$9,0*
20,1,$1+$1,$8,$9,$2,$3,0*%
G04 Aperture macros list end*
%ADD10C,0.100000*%
%ADD11C,0.254000*%
%ADD12C,0.150000*%
%ADD13C,0.120000*%
%ADD14C,0.200000*%
%ADD15R,1.350000X1.350000*%
%ADD16O,1.350000X1.350000*%
%ADD17C,2.200000*%
%ADD18R,2.100000X5.600000*%
%ADD19RoundRect,0.250000X-0.412500X-0.650000X0.412500X-0.650000X0.412500X0.650000X-0.412500X0.650000X0*%
%ADD20RoundRect,0.250000X0.337500X0.475000X-0.337500X0.475000X-0.337500X-0.475000X0.337500X-0.475000X0*%
%ADD21RoundRect,0.237500X-0.300000X-0.237500X0.300000X-0.237500X0.300000X0.237500X-0.300000X0.237500X0*%
%ADD22RoundRect,0.237500X-0.237500X0.250000X-0.237500X-0.250000X0.237500X-0.250000X0.237500X0.250000X0*%
%ADD23RoundRect,0.237500X-0.250000X-0.237500X0.250000X-0.237500X0.250000X0.237500X-0.250000X0.237500X0*%
%ADD24RoundRect,0.237500X0.237500X-0.250000X0.237500X0.250000X-0.237500X0.250000X-0.237500X-0.250000X0*%
%ADD25RoundRect,0.250000X1.100000X-0.412500X1.100000X0.412500X-1.100000X0.412500X-1.100000X-0.412500X0*%
%ADD26RoundRect,0.162500X0.617500X0.162500X-0.617500X0.162500X-0.617500X-0.162500X0.617500X-0.162500X0*%
%ADD27RoundRect,0.237500X0.250000X0.237500X-0.250000X0.237500X-0.250000X-0.237500X0.250000X-0.237500X0*%
%ADD28RoundRect,0.150000X-0.150000X0.825000X-0.150000X-0.825000X0.150000X-0.825000X0.150000X0.825000X0*%
%ADD29RoundRect,0.237500X-0.237500X0.300000X-0.237500X-0.300000X0.237500X-0.300000X0.237500X0.300000X0*%
%ADD30RoundRect,0.150000X0.150000X0.750000X-0.150000X0.750000X-0.150000X-0.750000X0.150000X-0.750000X0*%
%ADD31RoundRect,0.250000X0.650000X-0.412500X0.650000X0.412500X-0.650000X0.412500X-0.650000X-0.412500X0*%
%ADD32RoundRect,0.250000X-0.475000X0.337500X-0.475000X-0.337500X0.475000X-0.337500X0.475000X0.337500X0*%
%ADD33RoundRect,0.237500X-0.237500X0.287500X-0.237500X-0.287500X0.237500X-0.287500X0.237500X0.287500X0*%
%ADD34RoundRect,0.250000X-0.650000X0.412500X-0.650000X-0.412500X0.650000X-0.412500X0.650000X0.412500X0*%
%ADD35RoundRect,0.237500X0.237500X-0.300000X0.237500X0.300000X-0.237500X0.300000X-0.237500X-0.300000X0*%
%ADD36RoundRect,0.162500X0.162500X-0.617500X0.162500X0.617500X-0.162500X0.617500X-0.162500X-0.617500X0*%
%ADD37RoundRect,0.150000X-0.150000X-0.750000X0.150000X-0.750000X0.150000X0.750000X-0.150000X0.750000X0*%
%ADD38RoundRect,0.050000X-0.150000X-0.300000X0.150000X-0.300000X0.150000X0.300000X-0.150000X0.300000X0*%
%ADD39RoundRect,0.250000X-0.337500X-0.475000X0.337500X-0.475000X0.337500X0.475000X-0.337500X0.475000X0*%
%ADD40RoundRect,0.050000X0.150000X0.300000X-0.150000X0.300000X-0.150000X-0.300000X0.150000X-0.300000X0*%
%ADD41C,0.650000*%
%ADD42RoundRect,0.150000X0.150000X0.425000X-0.150000X0.425000X-0.150000X-0.425000X0.150000X-0.425000X0*%
%ADD43RoundRect,0.075000X0.075000X0.500000X-0.075000X0.500000X-0.075000X-0.500000X0.075000X-0.500000X0*%
%ADD44O,1.000000X2.100000*%
%ADD45O,1.000000X1.800000*%
%ADD46R,1.800000X0.450000*%
%ADD47RoundRect,0.150000X-0.150000X0.512500X-0.150000X-0.512500X0.150000X-0.512500X0.150000X0.512500X0*%
G04 APERTURE END LIST*
D10*
X147589598Y-83372419D02*
X147589598Y-84086704D01*
X147589598Y-84086704D02*
X147541979Y-84229561D01*
X147541979Y-84229561D02*
X147446741Y-84324800D01*
X147446741Y-84324800D02*
X147303884Y-84372419D01*
X147303884Y-84372419D02*
X147208646Y-84372419D01*
X148541979Y-84372419D02*
X148065789Y-84372419D01*
X148065789Y-84372419D02*
X148065789Y-83372419D01*
X149446741Y-84277180D02*
X149399122Y-84324800D01*
X149399122Y-84324800D02*
X149256265Y-84372419D01*
X149256265Y-84372419D02*
X149161027Y-84372419D01*
X149161027Y-84372419D02*
X149018170Y-84324800D01*
X149018170Y-84324800D02*
X148922932Y-84229561D01*
X148922932Y-84229561D02*
X148875313Y-84134323D01*
X148875313Y-84134323D02*
X148827694Y-83943847D01*
X148827694Y-83943847D02*
X148827694Y-83800990D01*
X148827694Y-83800990D02*
X148875313Y-83610514D01*
X148875313Y-83610514D02*
X148922932Y-83515276D01*
X148922932Y-83515276D02*
X149018170Y-83420038D01*
X149018170Y-83420038D02*
X149161027Y-83372419D01*
X149161027Y-83372419D02*
X149256265Y-83372419D01*
X149256265Y-83372419D02*
X149399122Y-83420038D01*
X149399122Y-83420038D02*
X149446741Y-83467657D01*
X150161027Y-83372419D02*
X150161027Y-84086704D01*
X150161027Y-84086704D02*
X150113408Y-84229561D01*
X150113408Y-84229561D02*
X150018170Y-84324800D01*
X150018170Y-84324800D02*
X149875313Y-84372419D01*
X149875313Y-84372419D02*
X149780075Y-84372419D01*
X151113408Y-84372419D02*
X150637218Y-84372419D01*
X150637218Y-84372419D02*
X150637218Y-83372419D01*
X152018170Y-84277180D02*
X151970551Y-84324800D01*
X151970551Y-84324800D02*
X151827694Y-84372419D01*
X151827694Y-84372419D02*
X151732456Y-84372419D01*
X151732456Y-84372419D02*
X151589599Y-84324800D01*
X151589599Y-84324800D02*
X151494361Y-84229561D01*
X151494361Y-84229561D02*
X151446742Y-84134323D01*
X151446742Y-84134323D02*
X151399123Y-83943847D01*
X151399123Y-83943847D02*
X151399123Y-83800990D01*
X151399123Y-83800990D02*
X151446742Y-83610514D01*
X151446742Y-83610514D02*
X151494361Y-83515276D01*
X151494361Y-83515276D02*
X151589599Y-83420038D01*
X151589599Y-83420038D02*
X151732456Y-83372419D01*
X151732456Y-83372419D02*
X151827694Y-83372419D01*
X151827694Y-83372419D02*
X151970551Y-83420038D01*
X151970551Y-83420038D02*
X152018170Y-83467657D01*
X152732456Y-83372419D02*
X152732456Y-84086704D01*
X152732456Y-84086704D02*
X152684837Y-84229561D01*
X152684837Y-84229561D02*
X152589599Y-84324800D01*
X152589599Y-84324800D02*
X152446742Y-84372419D01*
X152446742Y-84372419D02*
X152351504Y-84372419D01*
X153684837Y-84372419D02*
X153208647Y-84372419D01*
X153208647Y-84372419D02*
X153208647Y-83372419D01*
X154589599Y-84277180D02*
X154541980Y-84324800D01*
X154541980Y-84324800D02*
X154399123Y-84372419D01*
X154399123Y-84372419D02*
X154303885Y-84372419D01*
X154303885Y-84372419D02*
X154161028Y-84324800D01*
X154161028Y-84324800D02*
X154065790Y-84229561D01*
X154065790Y-84229561D02*
X154018171Y-84134323D01*
X154018171Y-84134323D02*
X153970552Y-83943847D01*
X153970552Y-83943847D02*
X153970552Y-83800990D01*
X153970552Y-83800990D02*
X154018171Y-83610514D01*
X154018171Y-83610514D02*
X154065790Y-83515276D01*
X154065790Y-83515276D02*
X154161028Y-83420038D01*
X154161028Y-83420038D02*
X154303885Y-83372419D01*
X154303885Y-83372419D02*
X154399123Y-83372419D01*
X154399123Y-83372419D02*
X154541980Y-83420038D01*
X154541980Y-83420038D02*
X154589599Y-83467657D01*
X155303885Y-83372419D02*
X155303885Y-84086704D01*
X155303885Y-84086704D02*
X155256266Y-84229561D01*
X155256266Y-84229561D02*
X155161028Y-84324800D01*
X155161028Y-84324800D02*
X155018171Y-84372419D01*
X155018171Y-84372419D02*
X154922933Y-84372419D01*
X156256266Y-84372419D02*
X155780076Y-84372419D01*
X155780076Y-84372419D02*
X155780076Y-83372419D01*
X157161028Y-84277180D02*
X157113409Y-84324800D01*
X157113409Y-84324800D02*
X156970552Y-84372419D01*
X156970552Y-84372419D02*
X156875314Y-84372419D01*
X156875314Y-84372419D02*
X156732457Y-84324800D01*
X156732457Y-84324800D02*
X156637219Y-84229561D01*
X156637219Y-84229561D02*
X156589600Y-84134323D01*
X156589600Y-84134323D02*
X156541981Y-83943847D01*
X156541981Y-83943847D02*
X156541981Y-83800990D01*
X156541981Y-83800990D02*
X156589600Y-83610514D01*
X156589600Y-83610514D02*
X156637219Y-83515276D01*
X156637219Y-83515276D02*
X156732457Y-83420038D01*
X156732457Y-83420038D02*
X156875314Y-83372419D01*
X156875314Y-83372419D02*
X156970552Y-83372419D01*
X156970552Y-83372419D02*
X157113409Y-83420038D01*
X157113409Y-83420038D02*
X157161028Y-83467657D01*
X162100000Y-64600000D02*
X162100000Y-65000000D01*
X123500000Y-76700000D02*
X123000000Y-77300000D01*
X158600000Y-81800000D02*
X159000000Y-82200000D01*
X123000000Y-72200000D02*
X123500000Y-72800000D01*
X163100000Y-64600000D02*
X163100000Y-65000000D01*
X158600000Y-81800000D02*
X158600000Y-81000000D01*
X162600000Y-64600000D02*
X162600000Y-65200000D01*
X159600000Y-64600000D02*
X164600000Y-64600000D01*
X164600000Y-65600000D01*
X159600000Y-65600000D01*
X159600000Y-64600000D01*
X123000000Y-76700000D02*
X123500000Y-77300000D01*
X123500000Y-72200000D02*
X123000000Y-72800000D01*
X160100000Y-64600000D02*
X160100000Y-65000000D01*
X164100000Y-64600000D02*
X164100000Y-65000000D01*
X161600000Y-64600000D02*
X161600000Y-65200000D01*
X161100000Y-64600000D02*
X161100000Y-65000000D01*
X163600000Y-64600000D02*
X163600000Y-65200000D01*
X159600000Y-81800000D02*
G75*
G02*
X157600000Y-81800000I-1000000J0D01*
G01*
X157600000Y-81800000D02*
G75*
G02*
X159600000Y-81800000I1000000J0D01*
G01*
X160600000Y-64600000D02*
X160600000Y-65200000D01*
G36*
X138977752Y-52039929D02*
G01*
X139011287Y-52073465D01*
X139049999Y-52150888D01*
X139049999Y-52270138D01*
X139011287Y-52347561D01*
X138975141Y-52383708D01*
X138897720Y-52422419D01*
X138578571Y-52422419D01*
X138578571Y-51998609D01*
X138853791Y-51998609D01*
X138977752Y-52039929D01*
G37*
G36*
X138927524Y-51561130D02*
G01*
X138963668Y-51597275D01*
X139002380Y-51674698D01*
X139002380Y-51746329D01*
X138963668Y-51823752D01*
X138927524Y-51859897D01*
X138850101Y-51898609D01*
X138578571Y-51898609D01*
X138578571Y-51522419D01*
X138850101Y-51522419D01*
X138927524Y-51561130D01*
G37*
G36*
X143403715Y-51894463D02*
G01*
X143439859Y-51930608D01*
X143478571Y-52008031D01*
X143478571Y-52270138D01*
X143439859Y-52347561D01*
X143403713Y-52383708D01*
X143326292Y-52422419D01*
X143207042Y-52422419D01*
X143129619Y-52383708D01*
X143093473Y-52347561D01*
X143054762Y-52270139D01*
X143054762Y-52008031D01*
X143093473Y-51930607D01*
X143129618Y-51894463D01*
X143207042Y-51855752D01*
X143326292Y-51855752D01*
X143403715Y-51894463D01*
G37*
G36*
X142498953Y-51561130D02*
G01*
X142535097Y-51597275D01*
X142573809Y-51674698D01*
X142573809Y-51793948D01*
X142535097Y-51871371D01*
X142498953Y-51907516D01*
X142421530Y-51946228D01*
X142102381Y-51946228D01*
X142102381Y-51522419D01*
X142421530Y-51522419D01*
X142498953Y-51561130D01*
G37*
G36*
X144971591Y-52633530D02*
G01*
X136367460Y-52633530D01*
X136367460Y-51472419D01*
X136478571Y-51472419D01*
X136478571Y-52281942D01*
X136479059Y-52284398D01*
X136478697Y-52285487D01*
X136480813Y-52293214D01*
X136482377Y-52301076D01*
X136483188Y-52301887D01*
X136483850Y-52304303D01*
X136531468Y-52399540D01*
X136536379Y-52405868D01*
X136540834Y-52412535D01*
X136588453Y-52460155D01*
X136595119Y-52464609D01*
X136601448Y-52469521D01*
X136696686Y-52517140D01*
X136699101Y-52517801D01*
X136699913Y-52518613D01*
X136707774Y-52520176D01*
X136715502Y-52522293D01*
X136716590Y-52521930D01*
X136719047Y-52522419D01*
X136909523Y-52522419D01*
X136911979Y-52521930D01*
X136913068Y-52522293D01*
X136920795Y-52520176D01*
X136928657Y-52518613D01*
X136929468Y-52517801D01*
X136931884Y-52517140D01*
X137027121Y-52469522D01*
X137033448Y-52464611D01*
X137040117Y-52460155D01*
X137087736Y-52412535D01*
X137092189Y-52405869D01*
X137097101Y-52399541D01*
X137144720Y-52304303D01*
X137145381Y-52301887D01*
X137146193Y-52301076D01*
X137147756Y-52293214D01*
X137149873Y-52285487D01*
X137149510Y-52284398D01*
X137149999Y-52281942D01*
X137149999Y-51662895D01*
X137478571Y-51662895D01*
X137478571Y-51758133D01*
X137479059Y-51760589D01*
X137478697Y-51761678D01*
X137480813Y-51769405D01*
X137482377Y-51777267D01*
X137483188Y-51778078D01*
X137483850Y-51780494D01*
X137531468Y-51875731D01*
X137536383Y-51882064D01*
X137540835Y-51888726D01*
X137588453Y-51936345D01*
X137595119Y-51940799D01*
X137601448Y-51945711D01*
X137696686Y-51993330D01*
X137701967Y-51994776D01*
X137706920Y-51997116D01*
X137892072Y-52043404D01*
X137975143Y-52084939D01*
X138011287Y-52121084D01*
X138049999Y-52198507D01*
X138049999Y-52270138D01*
X138011287Y-52347561D01*
X137975141Y-52383708D01*
X137897720Y-52422419D01*
X137679541Y-52422419D01*
X137544382Y-52377366D01*
X137525027Y-52374926D01*
X137490798Y-52392040D01*
X137478697Y-52428344D01*
X137495811Y-52462573D01*
X137512760Y-52472234D01*
X137655616Y-52519853D01*
X137663566Y-52520855D01*
X137671428Y-52522419D01*
X137909523Y-52522419D01*
X137911979Y-52521930D01*
X137913068Y-52522293D01*
X137920795Y-52520176D01*
X137928657Y-52518613D01*
X137929468Y-52517801D01*
X137931884Y-52517140D01*
X138027121Y-52469522D01*
X138033448Y-52464611D01*
X138040117Y-52460155D01*
X138087736Y-52412535D01*
X138092189Y-52405869D01*
X138097101Y-52399541D01*
X138144720Y-52304303D01*
X138145381Y-52301887D01*
X138146193Y-52301076D01*
X138147756Y-52293214D01*
X138149873Y-52285487D01*
X138149510Y-52284398D01*
X138149999Y-52281942D01*
X138149999Y-52186704D01*
X138149510Y-52184247D01*
X138149873Y-52183159D01*
X138147756Y-52175431D01*
X138146193Y-52167570D01*
X138145381Y-52166758D01*
X138144720Y-52164343D01*
X138097101Y-52069105D01*
X138092189Y-52062776D01*
X138087735Y-52056110D01*
X138040116Y-52008492D01*
X138033454Y-52004040D01*
X138027121Y-51999125D01*
X137931884Y-51951507D01*
X137926602Y-51950060D01*
X137921650Y-51947721D01*
X137736499Y-51901433D01*
X137653427Y-51859897D01*
X137617282Y-51823753D01*
X137578571Y-51746330D01*
X137578571Y-51674698D01*
X137617282Y-51597274D01*
X137653427Y-51561130D01*
X137730851Y-51522419D01*
X137949029Y-51522419D01*
X138084187Y-51567472D01*
X138103543Y-51569912D01*
X138137771Y-51552798D01*
X138149873Y-51516494D01*
X138132758Y-51482265D01*
X138115810Y-51472604D01*
X138115255Y-51472419D01*
X138478571Y-51472419D01*
X138478571Y-52472419D01*
X138482377Y-52491553D01*
X138509437Y-52518613D01*
X138528571Y-52522419D01*
X138909523Y-52522419D01*
X138911979Y-52521930D01*
X138913068Y-52522293D01*
X138920795Y-52520176D01*
X138928657Y-52518613D01*
X138929468Y-52517801D01*
X138931884Y-52517140D01*
X139027121Y-52469522D01*
X139033448Y-52464611D01*
X139040117Y-52460155D01*
X139087736Y-52412535D01*
X139092189Y-52405869D01*
X139097101Y-52399541D01*
X139144720Y-52304303D01*
X139145381Y-52301887D01*
X139146193Y-52301076D01*
X139147756Y-52293214D01*
X139149873Y-52285487D01*
X139149510Y-52284398D01*
X139149999Y-52281942D01*
X139149999Y-52139085D01*
X139149510Y-52136628D01*
X139149873Y-52135540D01*
X139147756Y-52127812D01*
X139146193Y-52119951D01*
X139145381Y-52119139D01*
X139144720Y-52116724D01*
X139097101Y-52021486D01*
X139092189Y-52015157D01*
X139087735Y-52008491D01*
X139040116Y-51960873D01*
X139038033Y-51959481D01*
X139037520Y-51958455D01*
X139030559Y-51954487D01*
X139023895Y-51950034D01*
X139022747Y-51950034D01*
X139020572Y-51948794D01*
X138989411Y-51938407D01*
X138992497Y-51936345D01*
X139027853Y-51900990D01*
X140192857Y-51900990D01*
X140192857Y-52043847D01*
X140194052Y-52049856D01*
X140194350Y-52055974D01*
X140241969Y-52246450D01*
X140244308Y-52251402D01*
X140245755Y-52256684D01*
X140293373Y-52351921D01*
X140298284Y-52358249D01*
X140302739Y-52364916D01*
X140397978Y-52460155D01*
X140400059Y-52461545D01*
X140400573Y-52462573D01*
X140407538Y-52466543D01*
X140414199Y-52470994D01*
X140415347Y-52470994D01*
X140417522Y-52472234D01*
X140560378Y-52519853D01*
X140568328Y-52520855D01*
X140576190Y-52522419D01*
X140671428Y-52522419D01*
X140679290Y-52520855D01*
X140687239Y-52519853D01*
X140830096Y-52472234D01*
X140832271Y-52470994D01*
X140833420Y-52470994D01*
X140840090Y-52466536D01*
X140847044Y-52462573D01*
X140847556Y-52461547D01*
X140849641Y-52460155D01*
X140897260Y-52412535D01*
X140908098Y-52396314D01*
X140908098Y-52358045D01*
X140881038Y-52330986D01*
X140842769Y-52330986D01*
X140826548Y-52341825D01*
X140787275Y-52381098D01*
X140663315Y-52422419D01*
X140584303Y-52422419D01*
X140460343Y-52381099D01*
X140379187Y-52299942D01*
X140337652Y-52216872D01*
X140292857Y-52037692D01*
X140292857Y-51907145D01*
X140337652Y-51727965D01*
X140379188Y-51644893D01*
X140460341Y-51563739D01*
X140584303Y-51522419D01*
X140663315Y-51522419D01*
X140787276Y-51563739D01*
X140826548Y-51603012D01*
X140842769Y-51613851D01*
X140881038Y-51613851D01*
X140908098Y-51586791D01*
X140908098Y-51548522D01*
X140897259Y-51532301D01*
X140849640Y-51484683D01*
X140847557Y-51483291D01*
X140847044Y-51482265D01*
X140840083Y-51478297D01*
X140833419Y-51473844D01*
X140832271Y-51473844D01*
X140830096Y-51472604D01*
X140829541Y-51472419D01*
X142002381Y-51472419D01*
X142002381Y-52472419D01*
X142006187Y-52491553D01*
X142033247Y-52518613D01*
X142071515Y-52518613D01*
X142098575Y-52491553D01*
X142102381Y-52472419D01*
X142102381Y-52046228D01*
X142433333Y-52046228D01*
X142435789Y-52045739D01*
X142436878Y-52046102D01*
X142444605Y-52043985D01*
X142452467Y-52042422D01*
X142453278Y-52041610D01*
X142455694Y-52040949D01*
X142545137Y-51996228D01*
X142954762Y-51996228D01*
X142954762Y-52281942D01*
X142955250Y-52284398D01*
X142954888Y-52285487D01*
X142957004Y-52293214D01*
X142958568Y-52301076D01*
X142959379Y-52301887D01*
X142960041Y-52304303D01*
X143007659Y-52399540D01*
X143012570Y-52405868D01*
X143017025Y-52412535D01*
X143064644Y-52460155D01*
X143071310Y-52464609D01*
X143077639Y-52469521D01*
X143172877Y-52517140D01*
X143175292Y-52517801D01*
X143176104Y-52518613D01*
X143183965Y-52520176D01*
X143191693Y-52522293D01*
X143192781Y-52521930D01*
X143195238Y-52522419D01*
X143338095Y-52522419D01*
X143340551Y-52521930D01*
X143341640Y-52522293D01*
X143349367Y-52520176D01*
X143357229Y-52518613D01*
X143358040Y-52517801D01*
X143360456Y-52517140D01*
X143455693Y-52469522D01*
X143462020Y-52464611D01*
X143468689Y-52460155D01*
X143516308Y-52412535D01*
X143520761Y-52405869D01*
X143525673Y-52399541D01*
X143573292Y-52304303D01*
X143573953Y-52301887D01*
X143574765Y-52301076D01*
X143576328Y-52293214D01*
X143578445Y-52285487D01*
X143578082Y-52284398D01*
X143578571Y-52281942D01*
X143578571Y-51996228D01*
X143578082Y-51993771D01*
X143578445Y-51992683D01*
X143576328Y-51984955D01*
X143574765Y-51977094D01*
X143573953Y-51976282D01*
X143573292Y-51973867D01*
X143525673Y-51878629D01*
X143520761Y-51872300D01*
X143516307Y-51865634D01*
X143468688Y-51818016D01*
X143462026Y-51813564D01*
X143455693Y-51808649D01*
X143449899Y-51805752D01*
X143907143Y-51805752D01*
X143907143Y-52472419D01*
X143910949Y-52491553D01*
X143938009Y-52518613D01*
X143976277Y-52518613D01*
X144003337Y-52491553D01*
X144007143Y-52472419D01*
X144007143Y-52008031D01*
X144045854Y-51930607D01*
X144081999Y-51894463D01*
X144159423Y-51855752D01*
X144242857Y-51855752D01*
X144261991Y-51851946D01*
X144289051Y-51824886D01*
X144289051Y-51786618D01*
X144387140Y-51786618D01*
X144387140Y-51824886D01*
X144414200Y-51851946D01*
X144433334Y-51855752D01*
X144526191Y-51855752D01*
X144526191Y-52329561D01*
X144526679Y-52332017D01*
X144526317Y-52333105D01*
X144528432Y-52340829D01*
X144529997Y-52348695D01*
X144530808Y-52349506D01*
X144531470Y-52351921D01*
X144579088Y-52447160D01*
X144585191Y-52455024D01*
X144586037Y-52457560D01*
X144588860Y-52459751D01*
X144591050Y-52462572D01*
X144593583Y-52463416D01*
X144601449Y-52469521D01*
X144696687Y-52517140D01*
X144699102Y-52517801D01*
X144699914Y-52518613D01*
X144707775Y-52520176D01*
X144715503Y-52522293D01*
X144716591Y-52521930D01*
X144719048Y-52522419D01*
X144814286Y-52522419D01*
X144833420Y-52518613D01*
X144860480Y-52491553D01*
X144860480Y-52453285D01*
X144833420Y-52426225D01*
X144814286Y-52422419D01*
X144730852Y-52422419D01*
X144661077Y-52387532D01*
X144626191Y-52317759D01*
X144626191Y-51855752D01*
X144814286Y-51855752D01*
X144833420Y-51851946D01*
X144860480Y-51824886D01*
X144860480Y-51786618D01*
X144833420Y-51759558D01*
X144814286Y-51755752D01*
X144626191Y-51755752D01*
X144626191Y-51472419D01*
X144622385Y-51453285D01*
X144595325Y-51426225D01*
X144557057Y-51426225D01*
X144529997Y-51453285D01*
X144526191Y-51472419D01*
X144526191Y-51755752D01*
X144433334Y-51755752D01*
X144414200Y-51759558D01*
X144387140Y-51786618D01*
X144289051Y-51786618D01*
X144261991Y-51759558D01*
X144242857Y-51755752D01*
X144147619Y-51755752D01*
X144145162Y-51756240D01*
X144144074Y-51755878D01*
X144136346Y-51757994D01*
X144128485Y-51759558D01*
X144127673Y-51760369D01*
X144125258Y-51761031D01*
X144030020Y-51808650D01*
X144023691Y-51813561D01*
X144017025Y-51818016D01*
X144007143Y-51827898D01*
X144007143Y-51805752D01*
X144003337Y-51786618D01*
X143976277Y-51759558D01*
X143938009Y-51759558D01*
X143910949Y-51786618D01*
X143907143Y-51805752D01*
X143449899Y-51805752D01*
X143360456Y-51761031D01*
X143358040Y-51760369D01*
X143357229Y-51759558D01*
X143349367Y-51757994D01*
X143341640Y-51755878D01*
X143340551Y-51756240D01*
X143338095Y-51755752D01*
X143195238Y-51755752D01*
X143192781Y-51756240D01*
X143191693Y-51755878D01*
X143183965Y-51757994D01*
X143176104Y-51759558D01*
X143175292Y-51760369D01*
X143172877Y-51761031D01*
X143077639Y-51808650D01*
X143071310Y-51813561D01*
X143064644Y-51818016D01*
X143017026Y-51865635D01*
X143012574Y-51872296D01*
X143007659Y-51878630D01*
X142960041Y-51973867D01*
X142959379Y-51976282D01*
X142958568Y-51977094D01*
X142957004Y-51984955D01*
X142954888Y-51992683D01*
X142955250Y-51993771D01*
X142954762Y-51996228D01*
X142545137Y-51996228D01*
X142550931Y-51993331D01*
X142557264Y-51988415D01*
X142563926Y-51983964D01*
X142611545Y-51936346D01*
X142615999Y-51929679D01*
X142620911Y-51923351D01*
X142668530Y-51828113D01*
X142669191Y-51825697D01*
X142670003Y-51824886D01*
X142671566Y-51817024D01*
X142673683Y-51809297D01*
X142673320Y-51808208D01*
X142673809Y-51805752D01*
X142673809Y-51662895D01*
X142673320Y-51660438D01*
X142673683Y-51659350D01*
X142671566Y-51651622D01*
X142670003Y-51643761D01*
X142669191Y-51642949D01*
X142668530Y-51640534D01*
X142620911Y-51545296D01*
X142615999Y-51538967D01*
X142611545Y-51532301D01*
X142563926Y-51484683D01*
X142557264Y-51480231D01*
X142550931Y-51475316D01*
X142455694Y-51427698D01*
X142453278Y-51427036D01*
X142452467Y-51426225D01*
X142444605Y-51424661D01*
X142436878Y-51422545D01*
X142435789Y-51422907D01*
X142433333Y-51422419D01*
X142052381Y-51422419D01*
X142033247Y-51426225D01*
X142006187Y-51453285D01*
X142002381Y-51472419D01*
X140829541Y-51472419D01*
X140687239Y-51424985D01*
X140679290Y-51423982D01*
X140671428Y-51422419D01*
X140576190Y-51422419D01*
X140568328Y-51423982D01*
X140560378Y-51424985D01*
X140417522Y-51472604D01*
X140415347Y-51473844D01*
X140414199Y-51473844D01*
X140407538Y-51478294D01*
X140400573Y-51482265D01*
X140400059Y-51483292D01*
X140397978Y-51484683D01*
X140302740Y-51579921D01*
X140298288Y-51586582D01*
X140293373Y-51592916D01*
X140245755Y-51688153D01*
X140244308Y-51693434D01*
X140241969Y-51698387D01*
X140194350Y-51888863D01*
X140194052Y-51894980D01*
X140192857Y-51900990D01*
X139027853Y-51900990D01*
X139040116Y-51888727D01*
X139044570Y-51882060D01*
X139049482Y-51875732D01*
X139097101Y-51780494D01*
X139097762Y-51778078D01*
X139098574Y-51777267D01*
X139100137Y-51769405D01*
X139102254Y-51761678D01*
X139101891Y-51760589D01*
X139102380Y-51758133D01*
X139102380Y-51662895D01*
X139101891Y-51660438D01*
X139102254Y-51659350D01*
X139100137Y-51651622D01*
X139098574Y-51643761D01*
X139097762Y-51642949D01*
X139097101Y-51640534D01*
X139049482Y-51545296D01*
X139044570Y-51538967D01*
X139040116Y-51532301D01*
X138992497Y-51484683D01*
X138985835Y-51480231D01*
X138979502Y-51475316D01*
X138884265Y-51427698D01*
X138881849Y-51427036D01*
X138881038Y-51426225D01*
X138873176Y-51424661D01*
X138865449Y-51422545D01*
X138864360Y-51422907D01*
X138861904Y-51422419D01*
X138528571Y-51422419D01*
X138509437Y-51426225D01*
X138482377Y-51453285D01*
X138478571Y-51472419D01*
X138115255Y-51472419D01*
X137972953Y-51424985D01*
X137965004Y-51423982D01*
X137957142Y-51422419D01*
X137719047Y-51422419D01*
X137716590Y-51422907D01*
X137715502Y-51422545D01*
X137707774Y-51424661D01*
X137699913Y-51426225D01*
X137699101Y-51427036D01*
X137696686Y-51427698D01*
X137601448Y-51475317D01*
X137595119Y-51480228D01*
X137588453Y-51484683D01*
X137540835Y-51532302D01*
X137536383Y-51538963D01*
X137531468Y-51545297D01*
X137483850Y-51640534D01*
X137483188Y-51642949D01*
X137482377Y-51643761D01*
X137480813Y-51651622D01*
X137478697Y-51659350D01*
X137479059Y-51660438D01*
X137478571Y-51662895D01*
X137149999Y-51662895D01*
X137149999Y-51472419D01*
X137146193Y-51453285D01*
X137119133Y-51426225D01*
X137080865Y-51426225D01*
X137053805Y-51453285D01*
X137049999Y-51472419D01*
X137049999Y-52270138D01*
X137011287Y-52347561D01*
X136975141Y-52383708D01*
X136897720Y-52422419D01*
X136730851Y-52422419D01*
X136653428Y-52383708D01*
X136617282Y-52347561D01*
X136578571Y-52270139D01*
X136578571Y-51472419D01*
X136574765Y-51453285D01*
X136547705Y-51426225D01*
X136509437Y-51426225D01*
X136482377Y-51453285D01*
X136478571Y-51472419D01*
X136367460Y-51472419D01*
X136367460Y-51311308D01*
X144971591Y-51311308D01*
X144971591Y-52633530D01*
G37*
X137496895Y-75086591D02*
X137115942Y-75353258D01*
X137496895Y-75543734D02*
X136696895Y-75543734D01*
X136696895Y-75543734D02*
X136696895Y-75238972D01*
X136696895Y-75238972D02*
X136734990Y-75162782D01*
X136734990Y-75162782D02*
X136773085Y-75124687D01*
X136773085Y-75124687D02*
X136849276Y-75086591D01*
X136849276Y-75086591D02*
X136963561Y-75086591D01*
X136963561Y-75086591D02*
X137039752Y-75124687D01*
X137039752Y-75124687D02*
X137077847Y-75162782D01*
X137077847Y-75162782D02*
X137115942Y-75238972D01*
X137115942Y-75238972D02*
X137115942Y-75543734D01*
X137585276Y-74781830D02*
X137158609Y-74781830D01*
X136945276Y-74781830D02*
X136975752Y-74812306D01*
X136975752Y-74812306D02*
X137006228Y-74781830D01*
X137006228Y-74781830D02*
X136975752Y-74751353D01*
X136975752Y-74751353D02*
X136945276Y-74781830D01*
X136945276Y-74781830D02*
X137006228Y-74781830D01*
X137158609Y-74477068D02*
X137585276Y-74477068D01*
X137219561Y-74477068D02*
X137189085Y-74446591D01*
X137189085Y-74446591D02*
X137158609Y-74385639D01*
X137158609Y-74385639D02*
X137158609Y-74294210D01*
X137158609Y-74294210D02*
X137189085Y-74233258D01*
X137189085Y-74233258D02*
X137250038Y-74202782D01*
X137250038Y-74202782D02*
X137585276Y-74202782D01*
X137696895Y-69962782D02*
X137696895Y-70343734D01*
X137696895Y-70343734D02*
X136896895Y-70343734D01*
X137785276Y-69734211D02*
X137358609Y-69734211D01*
X137145276Y-69734211D02*
X137175752Y-69764687D01*
X137175752Y-69764687D02*
X137206228Y-69734211D01*
X137206228Y-69734211D02*
X137175752Y-69703734D01*
X137175752Y-69703734D02*
X137145276Y-69734211D01*
X137145276Y-69734211D02*
X137206228Y-69734211D01*
X137358609Y-69429449D02*
X137785276Y-69429449D01*
X137419561Y-69429449D02*
X137389085Y-69398972D01*
X137389085Y-69398972D02*
X137358609Y-69338020D01*
X137358609Y-69338020D02*
X137358609Y-69246591D01*
X137358609Y-69246591D02*
X137389085Y-69185639D01*
X137389085Y-69185639D02*
X137450038Y-69155163D01*
X137450038Y-69155163D02*
X137785276Y-69155163D01*
X122472419Y-69496115D02*
X121472419Y-69496115D01*
X121472419Y-69496115D02*
X121472419Y-69115163D01*
X121472419Y-69115163D02*
X121520038Y-69019925D01*
X121520038Y-69019925D02*
X121567657Y-68972306D01*
X121567657Y-68972306D02*
X121662895Y-68924687D01*
X121662895Y-68924687D02*
X121805752Y-68924687D01*
X121805752Y-68924687D02*
X121900990Y-68972306D01*
X121900990Y-68972306D02*
X121948609Y-69019925D01*
X121948609Y-69019925D02*
X121996228Y-69115163D01*
X121996228Y-69115163D02*
X121996228Y-69496115D01*
X122472419Y-68496115D02*
X121805752Y-68496115D01*
X121996228Y-68496115D02*
X121900990Y-68448496D01*
X121900990Y-68448496D02*
X121853371Y-68400877D01*
X121853371Y-68400877D02*
X121805752Y-68305639D01*
X121805752Y-68305639D02*
X121805752Y-68210401D01*
X122424800Y-67496115D02*
X122472419Y-67591353D01*
X122472419Y-67591353D02*
X122472419Y-67781829D01*
X122472419Y-67781829D02*
X122424800Y-67877067D01*
X122424800Y-67877067D02*
X122329561Y-67924686D01*
X122329561Y-67924686D02*
X121948609Y-67924686D01*
X121948609Y-67924686D02*
X121853371Y-67877067D01*
X121853371Y-67877067D02*
X121805752Y-67781829D01*
X121805752Y-67781829D02*
X121805752Y-67591353D01*
X121805752Y-67591353D02*
X121853371Y-67496115D01*
X121853371Y-67496115D02*
X121948609Y-67448496D01*
X121948609Y-67448496D02*
X122043847Y-67448496D01*
X122043847Y-67448496D02*
X122139085Y-67924686D01*
X122472419Y-66591353D02*
X121948609Y-66591353D01*
X121948609Y-66591353D02*
X121853371Y-66638972D01*
X121853371Y-66638972D02*
X121805752Y-66734210D01*
X121805752Y-66734210D02*
X121805752Y-66924686D01*
X121805752Y-66924686D02*
X121853371Y-67019924D01*
X122424800Y-66591353D02*
X122472419Y-66686591D01*
X122472419Y-66686591D02*
X122472419Y-66924686D01*
X122472419Y-66924686D02*
X122424800Y-67019924D01*
X122424800Y-67019924D02*
X122329561Y-67067543D01*
X122329561Y-67067543D02*
X122234323Y-67067543D01*
X122234323Y-67067543D02*
X122139085Y-67019924D01*
X122139085Y-67019924D02*
X122091466Y-66924686D01*
X122091466Y-66924686D02*
X122091466Y-66686591D01*
X122091466Y-66686591D02*
X122043847Y-66591353D01*
X122472419Y-66115162D02*
X121805752Y-66115162D01*
X121900990Y-66115162D02*
X121853371Y-66067543D01*
X121853371Y-66067543D02*
X121805752Y-65972305D01*
X121805752Y-65972305D02*
X121805752Y-65829448D01*
X121805752Y-65829448D02*
X121853371Y-65734210D01*
X121853371Y-65734210D02*
X121948609Y-65686591D01*
X121948609Y-65686591D02*
X122472419Y-65686591D01*
X121948609Y-65686591D02*
X121853371Y-65638972D01*
X121853371Y-65638972D02*
X121805752Y-65543734D01*
X121805752Y-65543734D02*
X121805752Y-65400877D01*
X121805752Y-65400877D02*
X121853371Y-65305638D01*
X121853371Y-65305638D02*
X121948609Y-65258019D01*
X121948609Y-65258019D02*
X122472419Y-65258019D01*
X121805752Y-64781829D02*
X122805752Y-64781829D01*
X121853371Y-64781829D02*
X121805752Y-64686591D01*
X121805752Y-64686591D02*
X121805752Y-64496115D01*
X121805752Y-64496115D02*
X121853371Y-64400877D01*
X121853371Y-64400877D02*
X121900990Y-64353258D01*
X121900990Y-64353258D02*
X121996228Y-64305639D01*
X121996228Y-64305639D02*
X122281942Y-64305639D01*
X122281942Y-64305639D02*
X122377180Y-64353258D01*
X122377180Y-64353258D02*
X122424800Y-64400877D01*
X122424800Y-64400877D02*
X122472419Y-64496115D01*
X122472419Y-64496115D02*
X122472419Y-64686591D01*
X122472419Y-64686591D02*
X122424800Y-64781829D01*
G36*
X122783530Y-63189682D02*
G01*
X121461308Y-63189682D01*
X121461308Y-63009437D01*
X121576225Y-63009437D01*
X121576225Y-63047705D01*
X121603285Y-63074765D01*
X121622419Y-63078571D01*
X122622419Y-63078571D01*
X122641553Y-63074765D01*
X122668613Y-63047705D01*
X122672419Y-63028571D01*
X122672419Y-62552381D01*
X122668613Y-62533247D01*
X122641553Y-62506187D01*
X122603285Y-62506187D01*
X122576225Y-62533247D01*
X122572419Y-62552381D01*
X122572419Y-62978571D01*
X121622419Y-62978571D01*
X121603285Y-62982377D01*
X121576225Y-63009437D01*
X121461308Y-63009437D01*
X121461308Y-61742857D01*
X121572419Y-61742857D01*
X121572419Y-62219047D01*
X121576225Y-62238181D01*
X121603285Y-62265241D01*
X121622419Y-62269047D01*
X122622419Y-62269047D01*
X122641553Y-62265241D01*
X122668613Y-62238181D01*
X122672419Y-62219047D01*
X122672419Y-61742857D01*
X122668613Y-61723723D01*
X122641553Y-61696663D01*
X122603285Y-61696663D01*
X122576225Y-61723723D01*
X122572419Y-61742857D01*
X122572419Y-62169047D01*
X122148609Y-62169047D01*
X122148609Y-61885714D01*
X122144803Y-61866580D01*
X122117743Y-61839520D01*
X122079475Y-61839520D01*
X122052415Y-61866580D01*
X122048609Y-61885714D01*
X122048609Y-62169047D01*
X121672419Y-62169047D01*
X121672419Y-61742857D01*
X121668613Y-61723723D01*
X121641553Y-61696663D01*
X121603285Y-61696663D01*
X121576225Y-61723723D01*
X121572419Y-61742857D01*
X121461308Y-61742857D01*
X121461308Y-60838095D01*
X121572419Y-60838095D01*
X121572419Y-61314285D01*
X121576225Y-61333419D01*
X121603285Y-61360479D01*
X121622419Y-61364285D01*
X122622419Y-61364285D01*
X122641553Y-61360479D01*
X122668613Y-61333419D01*
X122668613Y-61295151D01*
X122641553Y-61268091D01*
X122622419Y-61264285D01*
X122148609Y-61264285D01*
X122148609Y-60980952D01*
X122144803Y-60961818D01*
X122117743Y-60934758D01*
X122079475Y-60934758D01*
X122052415Y-60961818D01*
X122048609Y-60980952D01*
X122048609Y-61264285D01*
X121672419Y-61264285D01*
X121672419Y-60838095D01*
X121668613Y-60818961D01*
X121641553Y-60791901D01*
X121603285Y-60791901D01*
X121576225Y-60818961D01*
X121572419Y-60838095D01*
X121461308Y-60838095D01*
X121461308Y-60028571D01*
X121572419Y-60028571D01*
X121572419Y-60599999D01*
X121576225Y-60619133D01*
X121603285Y-60646193D01*
X121641553Y-60646193D01*
X121668613Y-60619133D01*
X121672419Y-60599999D01*
X121672419Y-60364285D01*
X122622419Y-60364285D01*
X122641553Y-60360479D01*
X122668613Y-60333419D01*
X122668613Y-60295151D01*
X122641553Y-60268091D01*
X122622419Y-60264285D01*
X121672419Y-60264285D01*
X121672419Y-60028571D01*
X121668613Y-60009437D01*
X121641553Y-59982377D01*
X121603285Y-59982377D01*
X121576225Y-60009437D01*
X121572419Y-60028571D01*
X121461308Y-60028571D01*
X121461308Y-59871266D01*
X122783530Y-59871266D01*
X122783530Y-63189682D01*
G37*
G36*
X122021372Y-82672044D02*
G01*
X122057516Y-82708189D01*
X122096228Y-82785612D01*
X122096228Y-83104761D01*
X121672419Y-83104761D01*
X121672419Y-82785612D01*
X121711130Y-82708188D01*
X121747275Y-82672044D01*
X121824699Y-82633333D01*
X121943949Y-82633333D01*
X122021372Y-82672044D01*
G37*
G36*
X122783530Y-83315872D02*
G01*
X121461308Y-83315872D01*
X121461308Y-82773809D01*
X121572419Y-82773809D01*
X121572419Y-83154761D01*
X121576225Y-83173895D01*
X121603285Y-83200955D01*
X121622419Y-83204761D01*
X122622419Y-83204761D01*
X122641553Y-83200955D01*
X122668613Y-83173895D01*
X122668613Y-83135627D01*
X122641553Y-83108567D01*
X122622419Y-83104761D01*
X122196228Y-83104761D01*
X122196228Y-82942699D01*
X122651092Y-82624295D01*
X122664585Y-82610204D01*
X122671235Y-82572518D01*
X122649290Y-82541167D01*
X122611604Y-82534517D01*
X122593746Y-82542371D01*
X122196228Y-82820633D01*
X122196228Y-82773809D01*
X122195739Y-82771352D01*
X122196102Y-82770264D01*
X122193985Y-82762536D01*
X122192422Y-82754675D01*
X122191610Y-82753863D01*
X122190949Y-82751448D01*
X122143330Y-82656210D01*
X122138418Y-82649881D01*
X122133964Y-82643215D01*
X122086345Y-82595597D01*
X122079683Y-82591145D01*
X122073350Y-82586230D01*
X121978113Y-82538612D01*
X121975697Y-82537950D01*
X121974886Y-82537139D01*
X121967024Y-82535575D01*
X121959297Y-82533459D01*
X121958208Y-82533821D01*
X121955752Y-82533333D01*
X121812895Y-82533333D01*
X121810438Y-82533821D01*
X121809350Y-82533459D01*
X121801622Y-82535575D01*
X121793761Y-82537139D01*
X121792949Y-82537950D01*
X121790534Y-82538612D01*
X121695296Y-82586231D01*
X121688967Y-82591142D01*
X121682301Y-82595597D01*
X121634683Y-82643216D01*
X121630231Y-82649877D01*
X121625316Y-82656211D01*
X121577698Y-82751448D01*
X121577036Y-82753863D01*
X121576225Y-82754675D01*
X121574661Y-82762536D01*
X121572545Y-82770264D01*
X121572907Y-82771352D01*
X121572419Y-82773809D01*
X121461308Y-82773809D01*
X121461308Y-82135627D01*
X121576225Y-82135627D01*
X121576225Y-82173895D01*
X121603285Y-82200955D01*
X121622419Y-82204761D01*
X122622419Y-82204761D01*
X122641553Y-82200955D01*
X122668613Y-82173895D01*
X122668613Y-82135627D01*
X122641553Y-82108567D01*
X122622419Y-82104761D01*
X121622419Y-82104761D01*
X121603285Y-82108567D01*
X121576225Y-82135627D01*
X121461308Y-82135627D01*
X121461308Y-81250000D01*
X121572419Y-81250000D01*
X121572419Y-81392857D01*
X121573982Y-81400719D01*
X121574985Y-81408668D01*
X121622604Y-81551525D01*
X121623844Y-81553700D01*
X121623844Y-81554848D01*
X121628297Y-81561512D01*
X121632265Y-81568473D01*
X121633291Y-81568986D01*
X121634683Y-81571069D01*
X121729921Y-81666307D01*
X121736580Y-81670757D01*
X121742915Y-81675673D01*
X121838153Y-81723292D01*
X121843434Y-81724738D01*
X121848387Y-81727078D01*
X122038863Y-81774697D01*
X122044980Y-81774994D01*
X122050990Y-81776190D01*
X122193847Y-81776190D01*
X122199856Y-81774994D01*
X122205974Y-81774697D01*
X122396450Y-81727078D01*
X122401402Y-81724738D01*
X122406684Y-81723292D01*
X122501921Y-81675674D01*
X122508249Y-81670762D01*
X122514916Y-81666308D01*
X122610155Y-81571069D01*
X122611545Y-81568987D01*
X122612573Y-81568474D01*
X122616543Y-81561508D01*
X122620994Y-81554848D01*
X122620994Y-81553700D01*
X122622234Y-81551525D01*
X122669853Y-81408669D01*
X122670855Y-81400718D01*
X122672419Y-81392857D01*
X122672419Y-81297619D01*
X122670855Y-81289757D01*
X122669853Y-81281807D01*
X122622234Y-81138951D01*
X122620994Y-81136775D01*
X122620994Y-81135627D01*
X122616539Y-81128960D01*
X122612573Y-81122002D01*
X122611546Y-81121488D01*
X122610155Y-81119406D01*
X122562535Y-81071787D01*
X122546314Y-81060949D01*
X122527180Y-81057143D01*
X122193847Y-81057143D01*
X122174713Y-81060949D01*
X122147653Y-81088009D01*
X122143847Y-81107143D01*
X122143847Y-81297619D01*
X122147653Y-81316753D01*
X122174713Y-81343813D01*
X122212981Y-81343813D01*
X122240041Y-81316753D01*
X122243847Y-81297619D01*
X122243847Y-81157143D01*
X122506469Y-81157143D01*
X122531099Y-81181772D01*
X122572419Y-81305732D01*
X122572419Y-81384744D01*
X122531099Y-81508703D01*
X122449942Y-81589859D01*
X122366872Y-81631395D01*
X122187692Y-81676190D01*
X122057145Y-81676190D01*
X121877966Y-81631395D01*
X121794892Y-81589858D01*
X121713739Y-81508705D01*
X121672419Y-81384743D01*
X121672419Y-81261803D01*
X121714759Y-81177123D01*
X121719912Y-81158307D01*
X121707810Y-81122002D01*
X121673582Y-81104888D01*
X121637278Y-81116990D01*
X121625316Y-81132402D01*
X121577698Y-81227639D01*
X121577036Y-81230054D01*
X121576225Y-81230866D01*
X121574661Y-81238727D01*
X121572545Y-81246455D01*
X121572907Y-81247543D01*
X121572419Y-81250000D01*
X121461308Y-81250000D01*
X121461308Y-80088009D01*
X121576225Y-80088009D01*
X121576225Y-80126277D01*
X121603285Y-80153337D01*
X121622419Y-80157143D01*
X122048609Y-80157143D01*
X122048609Y-80628571D01*
X121622419Y-80628571D01*
X121603285Y-80632377D01*
X121576225Y-80659437D01*
X121576225Y-80697705D01*
X121603285Y-80724765D01*
X121622419Y-80728571D01*
X122622419Y-80728571D01*
X122641553Y-80724765D01*
X122668613Y-80697705D01*
X122668613Y-80659437D01*
X122641553Y-80632377D01*
X122622419Y-80628571D01*
X122148609Y-80628571D01*
X122148609Y-80157143D01*
X122622419Y-80157143D01*
X122641553Y-80153337D01*
X122668613Y-80126277D01*
X122668613Y-80088009D01*
X122641553Y-80060949D01*
X122622419Y-80057143D01*
X121622419Y-80057143D01*
X121603285Y-80060949D01*
X121576225Y-80088009D01*
X121461308Y-80088009D01*
X121461308Y-79202381D01*
X121572419Y-79202381D01*
X121572419Y-79773809D01*
X121576225Y-79792943D01*
X121603285Y-79820003D01*
X121641553Y-79820003D01*
X121668613Y-79792943D01*
X121672419Y-79773809D01*
X121672419Y-79538095D01*
X122622419Y-79538095D01*
X122641553Y-79534289D01*
X122668613Y-79507229D01*
X122668613Y-79468961D01*
X122641553Y-79441901D01*
X122622419Y-79438095D01*
X121672419Y-79438095D01*
X121672419Y-79202381D01*
X121668613Y-79183247D01*
X121641553Y-79156187D01*
X121603285Y-79156187D01*
X121576225Y-79183247D01*
X121572419Y-79202381D01*
X121461308Y-79202381D01*
X121461308Y-79045076D01*
X122783530Y-79045076D01*
X122783530Y-83315872D01*
G37*
X139219048Y-64676466D02*
X139980953Y-64676466D01*
X139600000Y-65057419D02*
X139600000Y-64295514D01*
X159935353Y-58582241D02*
X160642460Y-57875134D01*
X160238399Y-58885287D02*
X160608788Y-58514898D01*
X160608788Y-58514898D02*
X160642460Y-58413882D01*
X160642460Y-58413882D02*
X160608788Y-58312867D01*
X160608788Y-58312867D02*
X160507773Y-58211852D01*
X160507773Y-58211852D02*
X160406757Y-58178180D01*
X160406757Y-58178180D02*
X160339414Y-58178180D01*
X160676131Y-59323020D02*
X160642460Y-59222004D01*
X160642460Y-59222004D02*
X160642460Y-59154661D01*
X160642460Y-59154661D02*
X160676131Y-59053646D01*
X160676131Y-59053646D02*
X160878162Y-58851615D01*
X160878162Y-58851615D02*
X160979177Y-58817943D01*
X160979177Y-58817943D02*
X161046521Y-58817943D01*
X161046521Y-58817943D02*
X161147536Y-58851615D01*
X161147536Y-58851615D02*
X161248551Y-58952630D01*
X161248551Y-58952630D02*
X161282223Y-59053646D01*
X161282223Y-59053646D02*
X161282223Y-59120989D01*
X161282223Y-59120989D02*
X161248551Y-59222004D01*
X161248551Y-59222004D02*
X161046521Y-59424035D01*
X161046521Y-59424035D02*
X160945505Y-59457707D01*
X160945505Y-59457707D02*
X160878162Y-59457707D01*
X160878162Y-59457707D02*
X160777147Y-59424035D01*
X160777147Y-59424035D02*
X160676131Y-59323020D01*
X161315895Y-59962783D02*
X161282223Y-59861768D01*
X161282223Y-59861768D02*
X161315895Y-59760752D01*
X161315895Y-59760752D02*
X161921986Y-59154661D01*
X161989330Y-59693409D02*
X161686284Y-60333173D01*
X162326048Y-60030127D02*
X161686284Y-60333173D01*
X161686284Y-60333173D02*
X161450582Y-60434188D01*
X161450582Y-60434188D02*
X161383239Y-60434188D01*
X161383239Y-60434188D02*
X161282223Y-60400516D01*
X162662766Y-61309654D02*
X163134170Y-60838249D01*
X163066827Y-60905593D02*
X163134170Y-60905593D01*
X163134170Y-60905593D02*
X163235185Y-60939264D01*
X163235185Y-60939264D02*
X163336201Y-61040280D01*
X163336201Y-61040280D02*
X163369872Y-61141295D01*
X163369872Y-61141295D02*
X163336201Y-61242310D01*
X163336201Y-61242310D02*
X162965811Y-61612699D01*
X163336201Y-61242310D02*
X163437216Y-61208638D01*
X163437216Y-61208638D02*
X163538231Y-61242310D01*
X163538231Y-61242310D02*
X163639246Y-61343325D01*
X163639246Y-61343325D02*
X163672918Y-61444341D01*
X163672918Y-61444341D02*
X163639246Y-61545356D01*
X163639246Y-61545356D02*
X163268857Y-61915745D01*
X163706590Y-62353478D02*
X163672918Y-62252463D01*
X163672918Y-62252463D02*
X163672918Y-62185119D01*
X163672918Y-62185119D02*
X163706590Y-62084104D01*
X163706590Y-62084104D02*
X163908620Y-61882073D01*
X163908620Y-61882073D02*
X164009635Y-61848402D01*
X164009635Y-61848402D02*
X164076979Y-61848402D01*
X164076979Y-61848402D02*
X164177994Y-61882073D01*
X164177994Y-61882073D02*
X164279009Y-61983089D01*
X164279009Y-61983089D02*
X164312681Y-62084104D01*
X164312681Y-62084104D02*
X164312681Y-62151447D01*
X164312681Y-62151447D02*
X164279009Y-62252463D01*
X164279009Y-62252463D02*
X164076979Y-62454493D01*
X164076979Y-62454493D02*
X163975964Y-62488165D01*
X163975964Y-62488165D02*
X163908620Y-62488165D01*
X163908620Y-62488165D02*
X163807605Y-62454493D01*
X163807605Y-62454493D02*
X163706590Y-62353478D01*
X164346353Y-62993241D02*
X164312681Y-62892226D01*
X164312681Y-62892226D02*
X164346353Y-62791211D01*
X164346353Y-62791211D02*
X164952444Y-62185119D01*
X165019788Y-62723867D02*
X164716743Y-63363631D01*
X165356506Y-63060585D02*
X164716743Y-63363631D01*
X164716743Y-63363631D02*
X164481040Y-63464646D01*
X164481040Y-63464646D02*
X164413697Y-63464646D01*
X164413697Y-63464646D02*
X164312682Y-63430974D01*
D11*
X161785537Y-75414306D02*
X162390299Y-75414306D01*
X161120299Y-75837639D02*
X161785537Y-75414306D01*
X161785537Y-75414306D02*
X161120299Y-74990972D01*
X162390299Y-73902401D02*
X162390299Y-74628116D01*
X162390299Y-74265259D02*
X161120299Y-74265259D01*
X161120299Y-74265259D02*
X161301727Y-74386211D01*
X161301727Y-74386211D02*
X161422680Y-74507163D01*
X161422680Y-74507163D02*
X161483156Y-74628116D01*
D12*
X161583333Y-53359580D02*
X161535714Y-53407200D01*
X161535714Y-53407200D02*
X161392857Y-53454819D01*
X161392857Y-53454819D02*
X161297619Y-53454819D01*
X161297619Y-53454819D02*
X161154762Y-53407200D01*
X161154762Y-53407200D02*
X161059524Y-53311961D01*
X161059524Y-53311961D02*
X161011905Y-53216723D01*
X161011905Y-53216723D02*
X160964286Y-53026247D01*
X160964286Y-53026247D02*
X160964286Y-52883390D01*
X160964286Y-52883390D02*
X161011905Y-52692914D01*
X161011905Y-52692914D02*
X161059524Y-52597676D01*
X161059524Y-52597676D02*
X161154762Y-52502438D01*
X161154762Y-52502438D02*
X161297619Y-52454819D01*
X161297619Y-52454819D02*
X161392857Y-52454819D01*
X161392857Y-52454819D02*
X161535714Y-52502438D01*
X161535714Y-52502438D02*
X161583333Y-52550057D01*
X162440476Y-52788152D02*
X162440476Y-53454819D01*
X162202381Y-52407200D02*
X161964286Y-53121485D01*
X161964286Y-53121485D02*
X162583333Y-53121485D01*
X142957142Y-83759580D02*
X142909523Y-83807200D01*
X142909523Y-83807200D02*
X142766666Y-83854819D01*
X142766666Y-83854819D02*
X142671428Y-83854819D01*
X142671428Y-83854819D02*
X142528571Y-83807200D01*
X142528571Y-83807200D02*
X142433333Y-83711961D01*
X142433333Y-83711961D02*
X142385714Y-83616723D01*
X142385714Y-83616723D02*
X142338095Y-83426247D01*
X142338095Y-83426247D02*
X142338095Y-83283390D01*
X142338095Y-83283390D02*
X142385714Y-83092914D01*
X142385714Y-83092914D02*
X142433333Y-82997676D01*
X142433333Y-82997676D02*
X142528571Y-82902438D01*
X142528571Y-82902438D02*
X142671428Y-82854819D01*
X142671428Y-82854819D02*
X142766666Y-82854819D01*
X142766666Y-82854819D02*
X142909523Y-82902438D01*
X142909523Y-82902438D02*
X142957142Y-82950057D01*
X143909523Y-83854819D02*
X143338095Y-83854819D01*
X143623809Y-83854819D02*
X143623809Y-82854819D01*
X143623809Y-82854819D02*
X143528571Y-82997676D01*
X143528571Y-82997676D02*
X143433333Y-83092914D01*
X143433333Y-83092914D02*
X143338095Y-83140533D01*
X144385714Y-83854819D02*
X144576190Y-83854819D01*
X144576190Y-83854819D02*
X144671428Y-83807200D01*
X144671428Y-83807200D02*
X144719047Y-83759580D01*
X144719047Y-83759580D02*
X144814285Y-83616723D01*
X144814285Y-83616723D02*
X144861904Y-83426247D01*
X144861904Y-83426247D02*
X144861904Y-83045295D01*
X144861904Y-83045295D02*
X144814285Y-82950057D01*
X144814285Y-82950057D02*
X144766666Y-82902438D01*
X144766666Y-82902438D02*
X144671428Y-82854819D01*
X144671428Y-82854819D02*
X144480952Y-82854819D01*
X144480952Y-82854819D02*
X144385714Y-82902438D01*
X144385714Y-82902438D02*
X144338095Y-82950057D01*
X144338095Y-82950057D02*
X144290476Y-83045295D01*
X144290476Y-83045295D02*
X144290476Y-83283390D01*
X144290476Y-83283390D02*
X144338095Y-83378628D01*
X144338095Y-83378628D02*
X144385714Y-83426247D01*
X144385714Y-83426247D02*
X144480952Y-83473866D01*
X144480952Y-83473866D02*
X144671428Y-83473866D01*
X144671428Y-83473866D02*
X144766666Y-83426247D01*
X144766666Y-83426247D02*
X144814285Y-83378628D01*
X144814285Y-83378628D02*
X144861904Y-83283390D01*
X134333333Y-64859580D02*
X134285714Y-64907200D01*
X134285714Y-64907200D02*
X134142857Y-64954819D01*
X134142857Y-64954819D02*
X134047619Y-64954819D01*
X134047619Y-64954819D02*
X133904762Y-64907200D01*
X133904762Y-64907200D02*
X133809524Y-64811961D01*
X133809524Y-64811961D02*
X133761905Y-64716723D01*
X133761905Y-64716723D02*
X133714286Y-64526247D01*
X133714286Y-64526247D02*
X133714286Y-64383390D01*
X133714286Y-64383390D02*
X133761905Y-64192914D01*
X133761905Y-64192914D02*
X133809524Y-64097676D01*
X133809524Y-64097676D02*
X133904762Y-64002438D01*
X133904762Y-64002438D02*
X134047619Y-63954819D01*
X134047619Y-63954819D02*
X134142857Y-63954819D01*
X134142857Y-63954819D02*
X134285714Y-64002438D01*
X134285714Y-64002438D02*
X134333333Y-64050057D01*
X134666667Y-63954819D02*
X135333333Y-63954819D01*
X135333333Y-63954819D02*
X134904762Y-64954819D01*
X154954819Y-63392857D02*
X154478628Y-63726190D01*
X154954819Y-63964285D02*
X153954819Y-63964285D01*
X153954819Y-63964285D02*
X153954819Y-63583333D01*
X153954819Y-63583333D02*
X154002438Y-63488095D01*
X154002438Y-63488095D02*
X154050057Y-63440476D01*
X154050057Y-63440476D02*
X154145295Y-63392857D01*
X154145295Y-63392857D02*
X154288152Y-63392857D01*
X154288152Y-63392857D02*
X154383390Y-63440476D01*
X154383390Y-63440476D02*
X154431009Y-63488095D01*
X154431009Y-63488095D02*
X154478628Y-63583333D01*
X154478628Y-63583333D02*
X154478628Y-63964285D01*
X154954819Y-62440476D02*
X154954819Y-63011904D01*
X154954819Y-62726190D02*
X153954819Y-62726190D01*
X153954819Y-62726190D02*
X154097676Y-62821428D01*
X154097676Y-62821428D02*
X154192914Y-62916666D01*
X154192914Y-62916666D02*
X154240533Y-63011904D01*
X154383390Y-61869047D02*
X154335771Y-61964285D01*
X154335771Y-61964285D02*
X154288152Y-62011904D01*
X154288152Y-62011904D02*
X154192914Y-62059523D01*
X154192914Y-62059523D02*
X154145295Y-62059523D01*
X154145295Y-62059523D02*
X154050057Y-62011904D01*
X154050057Y-62011904D02*
X154002438Y-61964285D01*
X154002438Y-61964285D02*
X153954819Y-61869047D01*
X153954819Y-61869047D02*
X153954819Y-61678571D01*
X153954819Y-61678571D02*
X154002438Y-61583333D01*
X154002438Y-61583333D02*
X154050057Y-61535714D01*
X154050057Y-61535714D02*
X154145295Y-61488095D01*
X154145295Y-61488095D02*
X154192914Y-61488095D01*
X154192914Y-61488095D02*
X154288152Y-61535714D01*
X154288152Y-61535714D02*
X154335771Y-61583333D01*
X154335771Y-61583333D02*
X154383390Y-61678571D01*
X154383390Y-61678571D02*
X154383390Y-61869047D01*
X154383390Y-61869047D02*
X154431009Y-61964285D01*
X154431009Y-61964285D02*
X154478628Y-62011904D01*
X154478628Y-62011904D02*
X154573866Y-62059523D01*
X154573866Y-62059523D02*
X154764342Y-62059523D01*
X154764342Y-62059523D02*
X154859580Y-62011904D01*
X154859580Y-62011904D02*
X154907200Y-61964285D01*
X154907200Y-61964285D02*
X154954819Y-61869047D01*
X154954819Y-61869047D02*
X154954819Y-61678571D01*
X154954819Y-61678571D02*
X154907200Y-61583333D01*
X154907200Y-61583333D02*
X154859580Y-61535714D01*
X154859580Y-61535714D02*
X154764342Y-61488095D01*
X154764342Y-61488095D02*
X154573866Y-61488095D01*
X154573866Y-61488095D02*
X154478628Y-61535714D01*
X154478628Y-61535714D02*
X154431009Y-61583333D01*
X154431009Y-61583333D02*
X154383390Y-61678571D01*
X148157142Y-61854819D02*
X147823809Y-61378628D01*
X147585714Y-61854819D02*
X147585714Y-60854819D01*
X147585714Y-60854819D02*
X147966666Y-60854819D01*
X147966666Y-60854819D02*
X148061904Y-60902438D01*
X148061904Y-60902438D02*
X148109523Y-60950057D01*
X148109523Y-60950057D02*
X148157142Y-61045295D01*
X148157142Y-61045295D02*
X148157142Y-61188152D01*
X148157142Y-61188152D02*
X148109523Y-61283390D01*
X148109523Y-61283390D02*
X148061904Y-61331009D01*
X148061904Y-61331009D02*
X147966666Y-61378628D01*
X147966666Y-61378628D02*
X147585714Y-61378628D01*
X149109523Y-61854819D02*
X148538095Y-61854819D01*
X148823809Y-61854819D02*
X148823809Y-60854819D01*
X148823809Y-60854819D02*
X148728571Y-60997676D01*
X148728571Y-60997676D02*
X148633333Y-61092914D01*
X148633333Y-61092914D02*
X148538095Y-61140533D01*
X149442857Y-60854819D02*
X150109523Y-60854819D01*
X150109523Y-60854819D02*
X149680952Y-61854819D01*
X137454819Y-79642857D02*
X136978628Y-79976190D01*
X137454819Y-80214285D02*
X136454819Y-80214285D01*
X136454819Y-80214285D02*
X136454819Y-79833333D01*
X136454819Y-79833333D02*
X136502438Y-79738095D01*
X136502438Y-79738095D02*
X136550057Y-79690476D01*
X136550057Y-79690476D02*
X136645295Y-79642857D01*
X136645295Y-79642857D02*
X136788152Y-79642857D01*
X136788152Y-79642857D02*
X136883390Y-79690476D01*
X136883390Y-79690476D02*
X136931009Y-79738095D01*
X136931009Y-79738095D02*
X136978628Y-79833333D01*
X136978628Y-79833333D02*
X136978628Y-80214285D01*
X137454819Y-78690476D02*
X137454819Y-79261904D01*
X137454819Y-78976190D02*
X136454819Y-78976190D01*
X136454819Y-78976190D02*
X136597676Y-79071428D01*
X136597676Y-79071428D02*
X136692914Y-79166666D01*
X136692914Y-79166666D02*
X136740533Y-79261904D01*
X136788152Y-77833333D02*
X137454819Y-77833333D01*
X136407200Y-78071428D02*
X137121485Y-78309523D01*
X137121485Y-78309523D02*
X137121485Y-77690476D01*
X136954819Y-66142857D02*
X136478628Y-66476190D01*
X136954819Y-66714285D02*
X135954819Y-66714285D01*
X135954819Y-66714285D02*
X135954819Y-66333333D01*
X135954819Y-66333333D02*
X136002438Y-66238095D01*
X136002438Y-66238095D02*
X136050057Y-66190476D01*
X136050057Y-66190476D02*
X136145295Y-66142857D01*
X136145295Y-66142857D02*
X136288152Y-66142857D01*
X136288152Y-66142857D02*
X136383390Y-66190476D01*
X136383390Y-66190476D02*
X136431009Y-66238095D01*
X136431009Y-66238095D02*
X136478628Y-66333333D01*
X136478628Y-66333333D02*
X136478628Y-66714285D01*
X136050057Y-65761904D02*
X136002438Y-65714285D01*
X136002438Y-65714285D02*
X135954819Y-65619047D01*
X135954819Y-65619047D02*
X135954819Y-65380952D01*
X135954819Y-65380952D02*
X136002438Y-65285714D01*
X136002438Y-65285714D02*
X136050057Y-65238095D01*
X136050057Y-65238095D02*
X136145295Y-65190476D01*
X136145295Y-65190476D02*
X136240533Y-65190476D01*
X136240533Y-65190476D02*
X136383390Y-65238095D01*
X136383390Y-65238095D02*
X136954819Y-65809523D01*
X136954819Y-65809523D02*
X136954819Y-65190476D01*
X135954819Y-64571428D02*
X135954819Y-64476190D01*
X135954819Y-64476190D02*
X136002438Y-64380952D01*
X136002438Y-64380952D02*
X136050057Y-64333333D01*
X136050057Y-64333333D02*
X136145295Y-64285714D01*
X136145295Y-64285714D02*
X136335771Y-64238095D01*
X136335771Y-64238095D02*
X136573866Y-64238095D01*
X136573866Y-64238095D02*
X136764342Y-64285714D01*
X136764342Y-64285714D02*
X136859580Y-64333333D01*
X136859580Y-64333333D02*
X136907200Y-64380952D01*
X136907200Y-64380952D02*
X136954819Y-64476190D01*
X136954819Y-64476190D02*
X136954819Y-64571428D01*
X136954819Y-64571428D02*
X136907200Y-64666666D01*
X136907200Y-64666666D02*
X136859580Y-64714285D01*
X136859580Y-64714285D02*
X136764342Y-64761904D01*
X136764342Y-64761904D02*
X136573866Y-64809523D01*
X136573866Y-64809523D02*
X136335771Y-64809523D01*
X136335771Y-64809523D02*
X136145295Y-64761904D01*
X136145295Y-64761904D02*
X136050057Y-64714285D01*
X136050057Y-64714285D02*
X136002438Y-64666666D01*
X136002438Y-64666666D02*
X135954819Y-64571428D01*
X126109580Y-57166666D02*
X126157200Y-57214285D01*
X126157200Y-57214285D02*
X126204819Y-57357142D01*
X126204819Y-57357142D02*
X126204819Y-57452380D01*
X126204819Y-57452380D02*
X126157200Y-57595237D01*
X126157200Y-57595237D02*
X126061961Y-57690475D01*
X126061961Y-57690475D02*
X125966723Y-57738094D01*
X125966723Y-57738094D02*
X125776247Y-57785713D01*
X125776247Y-57785713D02*
X125633390Y-57785713D01*
X125633390Y-57785713D02*
X125442914Y-57738094D01*
X125442914Y-57738094D02*
X125347676Y-57690475D01*
X125347676Y-57690475D02*
X125252438Y-57595237D01*
X125252438Y-57595237D02*
X125204819Y-57452380D01*
X125204819Y-57452380D02*
X125204819Y-57357142D01*
X125204819Y-57357142D02*
X125252438Y-57214285D01*
X125252438Y-57214285D02*
X125300057Y-57166666D01*
X125204819Y-56309523D02*
X125204819Y-56499999D01*
X125204819Y-56499999D02*
X125252438Y-56595237D01*
X125252438Y-56595237D02*
X125300057Y-56642856D01*
X125300057Y-56642856D02*
X125442914Y-56738094D01*
X125442914Y-56738094D02*
X125633390Y-56785713D01*
X125633390Y-56785713D02*
X126014342Y-56785713D01*
X126014342Y-56785713D02*
X126109580Y-56738094D01*
X126109580Y-56738094D02*
X126157200Y-56690475D01*
X126157200Y-56690475D02*
X126204819Y-56595237D01*
X126204819Y-56595237D02*
X126204819Y-56404761D01*
X126204819Y-56404761D02*
X126157200Y-56309523D01*
X126157200Y-56309523D02*
X126109580Y-56261904D01*
X126109580Y-56261904D02*
X126014342Y-56214285D01*
X126014342Y-56214285D02*
X125776247Y-56214285D01*
X125776247Y-56214285D02*
X125681009Y-56261904D01*
X125681009Y-56261904D02*
X125633390Y-56309523D01*
X125633390Y-56309523D02*
X125585771Y-56404761D01*
X125585771Y-56404761D02*
X125585771Y-56595237D01*
X125585771Y-56595237D02*
X125633390Y-56690475D01*
X125633390Y-56690475D02*
X125681009Y-56738094D01*
X125681009Y-56738094D02*
X125776247Y-56785713D01*
X136954819Y-63166666D02*
X136478628Y-63499999D01*
X136954819Y-63738094D02*
X135954819Y-63738094D01*
X135954819Y-63738094D02*
X135954819Y-63357142D01*
X135954819Y-63357142D02*
X136002438Y-63261904D01*
X136002438Y-63261904D02*
X136050057Y-63214285D01*
X136050057Y-63214285D02*
X136145295Y-63166666D01*
X136145295Y-63166666D02*
X136288152Y-63166666D01*
X136288152Y-63166666D02*
X136383390Y-63214285D01*
X136383390Y-63214285D02*
X136431009Y-63261904D01*
X136431009Y-63261904D02*
X136478628Y-63357142D01*
X136478628Y-63357142D02*
X136478628Y-63738094D01*
X135954819Y-62833332D02*
X135954819Y-62166666D01*
X135954819Y-62166666D02*
X136954819Y-62595237D01*
X134107142Y-81954819D02*
X133773809Y-81478628D01*
X133535714Y-81954819D02*
X133535714Y-80954819D01*
X133535714Y-80954819D02*
X133916666Y-80954819D01*
X133916666Y-80954819D02*
X134011904Y-81002438D01*
X134011904Y-81002438D02*
X134059523Y-81050057D01*
X134059523Y-81050057D02*
X134107142Y-81145295D01*
X134107142Y-81145295D02*
X134107142Y-81288152D01*
X134107142Y-81288152D02*
X134059523Y-81383390D01*
X134059523Y-81383390D02*
X134011904Y-81431009D01*
X134011904Y-81431009D02*
X133916666Y-81478628D01*
X133916666Y-81478628D02*
X133535714Y-81478628D01*
X135059523Y-81954819D02*
X134488095Y-81954819D01*
X134773809Y-81954819D02*
X134773809Y-80954819D01*
X134773809Y-80954819D02*
X134678571Y-81097676D01*
X134678571Y-81097676D02*
X134583333Y-81192914D01*
X134583333Y-81192914D02*
X134488095Y-81240533D01*
X136011904Y-81954819D02*
X135440476Y-81954819D01*
X135726190Y-81954819D02*
X135726190Y-80954819D01*
X135726190Y-80954819D02*
X135630952Y-81097676D01*
X135630952Y-81097676D02*
X135535714Y-81192914D01*
X135535714Y-81192914D02*
X135440476Y-81240533D01*
X146238095Y-62954819D02*
X146238095Y-63764342D01*
X146238095Y-63764342D02*
X146285714Y-63859580D01*
X146285714Y-63859580D02*
X146333333Y-63907200D01*
X146333333Y-63907200D02*
X146428571Y-63954819D01*
X146428571Y-63954819D02*
X146619047Y-63954819D01*
X146619047Y-63954819D02*
X146714285Y-63907200D01*
X146714285Y-63907200D02*
X146761904Y-63859580D01*
X146761904Y-63859580D02*
X146809523Y-63764342D01*
X146809523Y-63764342D02*
X146809523Y-62954819D01*
X147190476Y-62954819D02*
X147809523Y-62954819D01*
X147809523Y-62954819D02*
X147476190Y-63335771D01*
X147476190Y-63335771D02*
X147619047Y-63335771D01*
X147619047Y-63335771D02*
X147714285Y-63383390D01*
X147714285Y-63383390D02*
X147761904Y-63431009D01*
X147761904Y-63431009D02*
X147809523Y-63526247D01*
X147809523Y-63526247D02*
X147809523Y-63764342D01*
X147809523Y-63764342D02*
X147761904Y-63859580D01*
X147761904Y-63859580D02*
X147714285Y-63907200D01*
X147714285Y-63907200D02*
X147619047Y-63954819D01*
X147619047Y-63954819D02*
X147333333Y-63954819D01*
X147333333Y-63954819D02*
X147238095Y-63907200D01*
X147238095Y-63907200D02*
X147190476Y-63859580D01*
X138557142Y-77259580D02*
X138509523Y-77307200D01*
X138509523Y-77307200D02*
X138366666Y-77354819D01*
X138366666Y-77354819D02*
X138271428Y-77354819D01*
X138271428Y-77354819D02*
X138128571Y-77307200D01*
X138128571Y-77307200D02*
X138033333Y-77211961D01*
X138033333Y-77211961D02*
X137985714Y-77116723D01*
X137985714Y-77116723D02*
X137938095Y-76926247D01*
X137938095Y-76926247D02*
X137938095Y-76783390D01*
X137938095Y-76783390D02*
X137985714Y-76592914D01*
X137985714Y-76592914D02*
X138033333Y-76497676D01*
X138033333Y-76497676D02*
X138128571Y-76402438D01*
X138128571Y-76402438D02*
X138271428Y-76354819D01*
X138271428Y-76354819D02*
X138366666Y-76354819D01*
X138366666Y-76354819D02*
X138509523Y-76402438D01*
X138509523Y-76402438D02*
X138557142Y-76450057D01*
X139509523Y-77354819D02*
X138938095Y-77354819D01*
X139223809Y-77354819D02*
X139223809Y-76354819D01*
X139223809Y-76354819D02*
X139128571Y-76497676D01*
X139128571Y-76497676D02*
X139033333Y-76592914D01*
X139033333Y-76592914D02*
X138938095Y-76640533D01*
X140414285Y-76354819D02*
X139938095Y-76354819D01*
X139938095Y-76354819D02*
X139890476Y-76831009D01*
X139890476Y-76831009D02*
X139938095Y-76783390D01*
X139938095Y-76783390D02*
X140033333Y-76735771D01*
X140033333Y-76735771D02*
X140271428Y-76735771D01*
X140271428Y-76735771D02*
X140366666Y-76783390D01*
X140366666Y-76783390D02*
X140414285Y-76831009D01*
X140414285Y-76831009D02*
X140461904Y-76926247D01*
X140461904Y-76926247D02*
X140461904Y-77164342D01*
X140461904Y-77164342D02*
X140414285Y-77259580D01*
X140414285Y-77259580D02*
X140366666Y-77307200D01*
X140366666Y-77307200D02*
X140271428Y-77354819D01*
X140271428Y-77354819D02*
X140033333Y-77354819D01*
X140033333Y-77354819D02*
X139938095Y-77307200D01*
X139938095Y-77307200D02*
X139890476Y-77259580D01*
X138454819Y-66142857D02*
X137978628Y-66476190D01*
X138454819Y-66714285D02*
X137454819Y-66714285D01*
X137454819Y-66714285D02*
X137454819Y-66333333D01*
X137454819Y-66333333D02*
X137502438Y-66238095D01*
X137502438Y-66238095D02*
X137550057Y-66190476D01*
X137550057Y-66190476D02*
X137645295Y-66142857D01*
X137645295Y-66142857D02*
X137788152Y-66142857D01*
X137788152Y-66142857D02*
X137883390Y-66190476D01*
X137883390Y-66190476D02*
X137931009Y-66238095D01*
X137931009Y-66238095D02*
X137978628Y-66333333D01*
X137978628Y-66333333D02*
X137978628Y-66714285D01*
X138454819Y-65190476D02*
X138454819Y-65761904D01*
X138454819Y-65476190D02*
X137454819Y-65476190D01*
X137454819Y-65476190D02*
X137597676Y-65571428D01*
X137597676Y-65571428D02*
X137692914Y-65666666D01*
X137692914Y-65666666D02*
X137740533Y-65761904D01*
X138454819Y-64714285D02*
X138454819Y-64523809D01*
X138454819Y-64523809D02*
X138407200Y-64428571D01*
X138407200Y-64428571D02*
X138359580Y-64380952D01*
X138359580Y-64380952D02*
X138216723Y-64285714D01*
X138216723Y-64285714D02*
X138026247Y-64238095D01*
X138026247Y-64238095D02*
X137645295Y-64238095D01*
X137645295Y-64238095D02*
X137550057Y-64285714D01*
X137550057Y-64285714D02*
X137502438Y-64333333D01*
X137502438Y-64333333D02*
X137454819Y-64428571D01*
X137454819Y-64428571D02*
X137454819Y-64619047D01*
X137454819Y-64619047D02*
X137502438Y-64714285D01*
X137502438Y-64714285D02*
X137550057Y-64761904D01*
X137550057Y-64761904D02*
X137645295Y-64809523D01*
X137645295Y-64809523D02*
X137883390Y-64809523D01*
X137883390Y-64809523D02*
X137978628Y-64761904D01*
X137978628Y-64761904D02*
X138026247Y-64714285D01*
X138026247Y-64714285D02*
X138073866Y-64619047D01*
X138073866Y-64619047D02*
X138073866Y-64428571D01*
X138073866Y-64428571D02*
X138026247Y-64333333D01*
X138026247Y-64333333D02*
X137978628Y-64285714D01*
X137978628Y-64285714D02*
X137883390Y-64238095D01*
X148083333Y-52859580D02*
X148035714Y-52907200D01*
X148035714Y-52907200D02*
X147892857Y-52954819D01*
X147892857Y-52954819D02*
X147797619Y-52954819D01*
X147797619Y-52954819D02*
X147654762Y-52907200D01*
X147654762Y-52907200D02*
X147559524Y-52811961D01*
X147559524Y-52811961D02*
X147511905Y-52716723D01*
X147511905Y-52716723D02*
X147464286Y-52526247D01*
X147464286Y-52526247D02*
X147464286Y-52383390D01*
X147464286Y-52383390D02*
X147511905Y-52192914D01*
X147511905Y-52192914D02*
X147559524Y-52097676D01*
X147559524Y-52097676D02*
X147654762Y-52002438D01*
X147654762Y-52002438D02*
X147797619Y-51954819D01*
X147797619Y-51954819D02*
X147892857Y-51954819D01*
X147892857Y-51954819D02*
X148035714Y-52002438D01*
X148035714Y-52002438D02*
X148083333Y-52050057D01*
X149035714Y-52954819D02*
X148464286Y-52954819D01*
X148750000Y-52954819D02*
X148750000Y-51954819D01*
X148750000Y-51954819D02*
X148654762Y-52097676D01*
X148654762Y-52097676D02*
X148559524Y-52192914D01*
X148559524Y-52192914D02*
X148464286Y-52240533D01*
X128083333Y-60454819D02*
X127750000Y-59978628D01*
X127511905Y-60454819D02*
X127511905Y-59454819D01*
X127511905Y-59454819D02*
X127892857Y-59454819D01*
X127892857Y-59454819D02*
X127988095Y-59502438D01*
X127988095Y-59502438D02*
X128035714Y-59550057D01*
X128035714Y-59550057D02*
X128083333Y-59645295D01*
X128083333Y-59645295D02*
X128083333Y-59788152D01*
X128083333Y-59788152D02*
X128035714Y-59883390D01*
X128035714Y-59883390D02*
X127988095Y-59931009D01*
X127988095Y-59931009D02*
X127892857Y-59978628D01*
X127892857Y-59978628D02*
X127511905Y-59978628D01*
X128988095Y-59454819D02*
X128511905Y-59454819D01*
X128511905Y-59454819D02*
X128464286Y-59931009D01*
X128464286Y-59931009D02*
X128511905Y-59883390D01*
X128511905Y-59883390D02*
X128607143Y-59835771D01*
X128607143Y-59835771D02*
X128845238Y-59835771D01*
X128845238Y-59835771D02*
X128940476Y-59883390D01*
X128940476Y-59883390D02*
X128988095Y-59931009D01*
X128988095Y-59931009D02*
X129035714Y-60026247D01*
X129035714Y-60026247D02*
X129035714Y-60264342D01*
X129035714Y-60264342D02*
X128988095Y-60359580D01*
X128988095Y-60359580D02*
X128940476Y-60407200D01*
X128940476Y-60407200D02*
X128845238Y-60454819D01*
X128845238Y-60454819D02*
X128607143Y-60454819D01*
X128607143Y-60454819D02*
X128511905Y-60407200D01*
X128511905Y-60407200D02*
X128464286Y-60359580D01*
X123454819Y-69761904D02*
X124264342Y-69761904D01*
X124264342Y-69761904D02*
X124359580Y-69714285D01*
X124359580Y-69714285D02*
X124407200Y-69666666D01*
X124407200Y-69666666D02*
X124454819Y-69571428D01*
X124454819Y-69571428D02*
X124454819Y-69380952D01*
X124454819Y-69380952D02*
X124407200Y-69285714D01*
X124407200Y-69285714D02*
X124359580Y-69238095D01*
X124359580Y-69238095D02*
X124264342Y-69190476D01*
X124264342Y-69190476D02*
X123454819Y-69190476D01*
X123550057Y-68761904D02*
X123502438Y-68714285D01*
X123502438Y-68714285D02*
X123454819Y-68619047D01*
X123454819Y-68619047D02*
X123454819Y-68380952D01*
X123454819Y-68380952D02*
X123502438Y-68285714D01*
X123502438Y-68285714D02*
X123550057Y-68238095D01*
X123550057Y-68238095D02*
X123645295Y-68190476D01*
X123645295Y-68190476D02*
X123740533Y-68190476D01*
X123740533Y-68190476D02*
X123883390Y-68238095D01*
X123883390Y-68238095D02*
X124454819Y-68809523D01*
X124454819Y-68809523D02*
X124454819Y-68190476D01*
X158605561Y-79702401D02*
X158653181Y-79750020D01*
X158653181Y-79750020D02*
X158700800Y-79892877D01*
X158700800Y-79892877D02*
X158700800Y-79988115D01*
X158700800Y-79988115D02*
X158653181Y-80130972D01*
X158653181Y-80130972D02*
X158557942Y-80226210D01*
X158557942Y-80226210D02*
X158462704Y-80273829D01*
X158462704Y-80273829D02*
X158272228Y-80321448D01*
X158272228Y-80321448D02*
X158129371Y-80321448D01*
X158129371Y-80321448D02*
X157938895Y-80273829D01*
X157938895Y-80273829D02*
X157843657Y-80226210D01*
X157843657Y-80226210D02*
X157748419Y-80130972D01*
X157748419Y-80130972D02*
X157700800Y-79988115D01*
X157700800Y-79988115D02*
X157700800Y-79892877D01*
X157700800Y-79892877D02*
X157748419Y-79750020D01*
X157748419Y-79750020D02*
X157796038Y-79702401D01*
X157796038Y-79321448D02*
X157748419Y-79273829D01*
X157748419Y-79273829D02*
X157700800Y-79178591D01*
X157700800Y-79178591D02*
X157700800Y-78940496D01*
X157700800Y-78940496D02*
X157748419Y-78845258D01*
X157748419Y-78845258D02*
X157796038Y-78797639D01*
X157796038Y-78797639D02*
X157891276Y-78750020D01*
X157891276Y-78750020D02*
X157986514Y-78750020D01*
X157986514Y-78750020D02*
X158129371Y-78797639D01*
X158129371Y-78797639D02*
X158700800Y-79369067D01*
X158700800Y-79369067D02*
X158700800Y-78750020D01*
X157796038Y-78369067D02*
X157748419Y-78321448D01*
X157748419Y-78321448D02*
X157700800Y-78226210D01*
X157700800Y-78226210D02*
X157700800Y-77988115D01*
X157700800Y-77988115D02*
X157748419Y-77892877D01*
X157748419Y-77892877D02*
X157796038Y-77845258D01*
X157796038Y-77845258D02*
X157891276Y-77797639D01*
X157891276Y-77797639D02*
X157986514Y-77797639D01*
X157986514Y-77797639D02*
X158129371Y-77845258D01*
X158129371Y-77845258D02*
X158700800Y-78416686D01*
X158700800Y-78416686D02*
X158700800Y-77797639D01*
X134333333Y-63454819D02*
X134000000Y-62978628D01*
X133761905Y-63454819D02*
X133761905Y-62454819D01*
X133761905Y-62454819D02*
X134142857Y-62454819D01*
X134142857Y-62454819D02*
X134238095Y-62502438D01*
X134238095Y-62502438D02*
X134285714Y-62550057D01*
X134285714Y-62550057D02*
X134333333Y-62645295D01*
X134333333Y-62645295D02*
X134333333Y-62788152D01*
X134333333Y-62788152D02*
X134285714Y-62883390D01*
X134285714Y-62883390D02*
X134238095Y-62931009D01*
X134238095Y-62931009D02*
X134142857Y-62978628D01*
X134142857Y-62978628D02*
X133761905Y-62978628D01*
X135190476Y-62788152D02*
X135190476Y-63454819D01*
X134952381Y-62407200D02*
X134714286Y-63121485D01*
X134714286Y-63121485D02*
X135333333Y-63121485D01*
X132916666Y-58295180D02*
X133392856Y-58295180D01*
X133392856Y-58295180D02*
X133392856Y-59295180D01*
X132630951Y-59199942D02*
X132583332Y-59247561D01*
X132583332Y-59247561D02*
X132488094Y-59295180D01*
X132488094Y-59295180D02*
X132249999Y-59295180D01*
X132249999Y-59295180D02*
X132154761Y-59247561D01*
X132154761Y-59247561D02*
X132107142Y-59199942D01*
X132107142Y-59199942D02*
X132059523Y-59104704D01*
X132059523Y-59104704D02*
X132059523Y-59009466D01*
X132059523Y-59009466D02*
X132107142Y-58866609D01*
X132107142Y-58866609D02*
X132678570Y-58295180D01*
X132678570Y-58295180D02*
X132059523Y-58295180D01*
X133859580Y-72892857D02*
X133907200Y-72940476D01*
X133907200Y-72940476D02*
X133954819Y-73083333D01*
X133954819Y-73083333D02*
X133954819Y-73178571D01*
X133954819Y-73178571D02*
X133907200Y-73321428D01*
X133907200Y-73321428D02*
X133811961Y-73416666D01*
X133811961Y-73416666D02*
X133716723Y-73464285D01*
X133716723Y-73464285D02*
X133526247Y-73511904D01*
X133526247Y-73511904D02*
X133383390Y-73511904D01*
X133383390Y-73511904D02*
X133192914Y-73464285D01*
X133192914Y-73464285D02*
X133097676Y-73416666D01*
X133097676Y-73416666D02*
X133002438Y-73321428D01*
X133002438Y-73321428D02*
X132954819Y-73178571D01*
X132954819Y-73178571D02*
X132954819Y-73083333D01*
X132954819Y-73083333D02*
X133002438Y-72940476D01*
X133002438Y-72940476D02*
X133050057Y-72892857D01*
X133954819Y-71940476D02*
X133954819Y-72511904D01*
X133954819Y-72226190D02*
X132954819Y-72226190D01*
X132954819Y-72226190D02*
X133097676Y-72321428D01*
X133097676Y-72321428D02*
X133192914Y-72416666D01*
X133192914Y-72416666D02*
X133240533Y-72511904D01*
X133954819Y-70988095D02*
X133954819Y-71559523D01*
X133954819Y-71273809D02*
X132954819Y-71273809D01*
X132954819Y-71273809D02*
X133097676Y-71369047D01*
X133097676Y-71369047D02*
X133192914Y-71464285D01*
X133192914Y-71464285D02*
X133240533Y-71559523D01*
X128594642Y-84884819D02*
X128261309Y-84408628D01*
X128023214Y-84884819D02*
X128023214Y-83884819D01*
X128023214Y-83884819D02*
X128404166Y-83884819D01*
X128404166Y-83884819D02*
X128499404Y-83932438D01*
X128499404Y-83932438D02*
X128547023Y-83980057D01*
X128547023Y-83980057D02*
X128594642Y-84075295D01*
X128594642Y-84075295D02*
X128594642Y-84218152D01*
X128594642Y-84218152D02*
X128547023Y-84313390D01*
X128547023Y-84313390D02*
X128499404Y-84361009D01*
X128499404Y-84361009D02*
X128404166Y-84408628D01*
X128404166Y-84408628D02*
X128023214Y-84408628D01*
X129547023Y-84884819D02*
X128975595Y-84884819D01*
X129261309Y-84884819D02*
X129261309Y-83884819D01*
X129261309Y-83884819D02*
X129166071Y-84027676D01*
X129166071Y-84027676D02*
X129070833Y-84122914D01*
X129070833Y-84122914D02*
X128975595Y-84170533D01*
X129927976Y-83980057D02*
X129975595Y-83932438D01*
X129975595Y-83932438D02*
X130070833Y-83884819D01*
X130070833Y-83884819D02*
X130308928Y-83884819D01*
X130308928Y-83884819D02*
X130404166Y-83932438D01*
X130404166Y-83932438D02*
X130451785Y-83980057D01*
X130451785Y-83980057D02*
X130499404Y-84075295D01*
X130499404Y-84075295D02*
X130499404Y-84170533D01*
X130499404Y-84170533D02*
X130451785Y-84313390D01*
X130451785Y-84313390D02*
X129880357Y-84884819D01*
X129880357Y-84884819D02*
X130499404Y-84884819D01*
X142857142Y-64954819D02*
X142523809Y-64478628D01*
X142285714Y-64954819D02*
X142285714Y-63954819D01*
X142285714Y-63954819D02*
X142666666Y-63954819D01*
X142666666Y-63954819D02*
X142761904Y-64002438D01*
X142761904Y-64002438D02*
X142809523Y-64050057D01*
X142809523Y-64050057D02*
X142857142Y-64145295D01*
X142857142Y-64145295D02*
X142857142Y-64288152D01*
X142857142Y-64288152D02*
X142809523Y-64383390D01*
X142809523Y-64383390D02*
X142761904Y-64431009D01*
X142761904Y-64431009D02*
X142666666Y-64478628D01*
X142666666Y-64478628D02*
X142285714Y-64478628D01*
X143809523Y-64954819D02*
X143238095Y-64954819D01*
X143523809Y-64954819D02*
X143523809Y-63954819D01*
X143523809Y-63954819D02*
X143428571Y-64097676D01*
X143428571Y-64097676D02*
X143333333Y-64192914D01*
X143333333Y-64192914D02*
X143238095Y-64240533D01*
X144666666Y-63954819D02*
X144476190Y-63954819D01*
X144476190Y-63954819D02*
X144380952Y-64002438D01*
X144380952Y-64002438D02*
X144333333Y-64050057D01*
X144333333Y-64050057D02*
X144238095Y-64192914D01*
X144238095Y-64192914D02*
X144190476Y-64383390D01*
X144190476Y-64383390D02*
X144190476Y-64764342D01*
X144190476Y-64764342D02*
X144238095Y-64859580D01*
X144238095Y-64859580D02*
X144285714Y-64907200D01*
X144285714Y-64907200D02*
X144380952Y-64954819D01*
X144380952Y-64954819D02*
X144571428Y-64954819D01*
X144571428Y-64954819D02*
X144666666Y-64907200D01*
X144666666Y-64907200D02*
X144714285Y-64859580D01*
X144714285Y-64859580D02*
X144761904Y-64764342D01*
X144761904Y-64764342D02*
X144761904Y-64526247D01*
X144761904Y-64526247D02*
X144714285Y-64431009D01*
X144714285Y-64431009D02*
X144666666Y-64383390D01*
X144666666Y-64383390D02*
X144571428Y-64335771D01*
X144571428Y-64335771D02*
X144380952Y-64335771D01*
X144380952Y-64335771D02*
X144285714Y-64383390D01*
X144285714Y-64383390D02*
X144238095Y-64431009D01*
X144238095Y-64431009D02*
X144190476Y-64526247D01*
X153109580Y-63392857D02*
X153157200Y-63440476D01*
X153157200Y-63440476D02*
X153204819Y-63583333D01*
X153204819Y-63583333D02*
X153204819Y-63678571D01*
X153204819Y-63678571D02*
X153157200Y-63821428D01*
X153157200Y-63821428D02*
X153061961Y-63916666D01*
X153061961Y-63916666D02*
X152966723Y-63964285D01*
X152966723Y-63964285D02*
X152776247Y-64011904D01*
X152776247Y-64011904D02*
X152633390Y-64011904D01*
X152633390Y-64011904D02*
X152442914Y-63964285D01*
X152442914Y-63964285D02*
X152347676Y-63916666D01*
X152347676Y-63916666D02*
X152252438Y-63821428D01*
X152252438Y-63821428D02*
X152204819Y-63678571D01*
X152204819Y-63678571D02*
X152204819Y-63583333D01*
X152204819Y-63583333D02*
X152252438Y-63440476D01*
X152252438Y-63440476D02*
X152300057Y-63392857D01*
X153204819Y-62440476D02*
X153204819Y-63011904D01*
X153204819Y-62726190D02*
X152204819Y-62726190D01*
X152204819Y-62726190D02*
X152347676Y-62821428D01*
X152347676Y-62821428D02*
X152442914Y-62916666D01*
X152442914Y-62916666D02*
X152490533Y-63011904D01*
X152204819Y-61583333D02*
X152204819Y-61773809D01*
X152204819Y-61773809D02*
X152252438Y-61869047D01*
X152252438Y-61869047D02*
X152300057Y-61916666D01*
X152300057Y-61916666D02*
X152442914Y-62011904D01*
X152442914Y-62011904D02*
X152633390Y-62059523D01*
X152633390Y-62059523D02*
X153014342Y-62059523D01*
X153014342Y-62059523D02*
X153109580Y-62011904D01*
X153109580Y-62011904D02*
X153157200Y-61964285D01*
X153157200Y-61964285D02*
X153204819Y-61869047D01*
X153204819Y-61869047D02*
X153204819Y-61678571D01*
X153204819Y-61678571D02*
X153157200Y-61583333D01*
X153157200Y-61583333D02*
X153109580Y-61535714D01*
X153109580Y-61535714D02*
X153014342Y-61488095D01*
X153014342Y-61488095D02*
X152776247Y-61488095D01*
X152776247Y-61488095D02*
X152681009Y-61535714D01*
X152681009Y-61535714D02*
X152633390Y-61583333D01*
X152633390Y-61583333D02*
X152585771Y-61678571D01*
X152585771Y-61678571D02*
X152585771Y-61869047D01*
X152585771Y-61869047D02*
X152633390Y-61964285D01*
X152633390Y-61964285D02*
X152681009Y-62011904D01*
X152681009Y-62011904D02*
X152776247Y-62059523D01*
X158954819Y-66938094D02*
X157954819Y-66938094D01*
X157954819Y-66938094D02*
X157954819Y-66699999D01*
X157954819Y-66699999D02*
X158002438Y-66557142D01*
X158002438Y-66557142D02*
X158097676Y-66461904D01*
X158097676Y-66461904D02*
X158192914Y-66414285D01*
X158192914Y-66414285D02*
X158383390Y-66366666D01*
X158383390Y-66366666D02*
X158526247Y-66366666D01*
X158526247Y-66366666D02*
X158716723Y-66414285D01*
X158716723Y-66414285D02*
X158811961Y-66461904D01*
X158811961Y-66461904D02*
X158907200Y-66557142D01*
X158907200Y-66557142D02*
X158954819Y-66699999D01*
X158954819Y-66699999D02*
X158954819Y-66938094D01*
X158288152Y-65509523D02*
X158954819Y-65509523D01*
X157907200Y-65747618D02*
X158621485Y-65985713D01*
X158621485Y-65985713D02*
X158621485Y-65366666D01*
X130659579Y-54366666D02*
X130707199Y-54414285D01*
X130707199Y-54414285D02*
X130754818Y-54557142D01*
X130754818Y-54557142D02*
X130754818Y-54652380D01*
X130754818Y-54652380D02*
X130707199Y-54795237D01*
X130707199Y-54795237D02*
X130611960Y-54890475D01*
X130611960Y-54890475D02*
X130516722Y-54938094D01*
X130516722Y-54938094D02*
X130326246Y-54985713D01*
X130326246Y-54985713D02*
X130183389Y-54985713D01*
X130183389Y-54985713D02*
X129992913Y-54938094D01*
X129992913Y-54938094D02*
X129897675Y-54890475D01*
X129897675Y-54890475D02*
X129802437Y-54795237D01*
X129802437Y-54795237D02*
X129754818Y-54652380D01*
X129754818Y-54652380D02*
X129754818Y-54557142D01*
X129754818Y-54557142D02*
X129802437Y-54414285D01*
X129802437Y-54414285D02*
X129850056Y-54366666D01*
X129754818Y-53461904D02*
X129754818Y-53938094D01*
X129754818Y-53938094D02*
X130231008Y-53985713D01*
X130231008Y-53985713D02*
X130183389Y-53938094D01*
X130183389Y-53938094D02*
X130135770Y-53842856D01*
X130135770Y-53842856D02*
X130135770Y-53604761D01*
X130135770Y-53604761D02*
X130183389Y-53509523D01*
X130183389Y-53509523D02*
X130231008Y-53461904D01*
X130231008Y-53461904D02*
X130326246Y-53414285D01*
X130326246Y-53414285D02*
X130564341Y-53414285D01*
X130564341Y-53414285D02*
X130659579Y-53461904D01*
X130659579Y-53461904D02*
X130707199Y-53509523D01*
X130707199Y-53509523D02*
X130754818Y-53604761D01*
X130754818Y-53604761D02*
X130754818Y-53842856D01*
X130754818Y-53842856D02*
X130707199Y-53938094D01*
X130707199Y-53938094D02*
X130659579Y-53985713D01*
X124609580Y-65766666D02*
X124657200Y-65814285D01*
X124657200Y-65814285D02*
X124704819Y-65957142D01*
X124704819Y-65957142D02*
X124704819Y-66052380D01*
X124704819Y-66052380D02*
X124657200Y-66195237D01*
X124657200Y-66195237D02*
X124561961Y-66290475D01*
X124561961Y-66290475D02*
X124466723Y-66338094D01*
X124466723Y-66338094D02*
X124276247Y-66385713D01*
X124276247Y-66385713D02*
X124133390Y-66385713D01*
X124133390Y-66385713D02*
X123942914Y-66338094D01*
X123942914Y-66338094D02*
X123847676Y-66290475D01*
X123847676Y-66290475D02*
X123752438Y-66195237D01*
X123752438Y-66195237D02*
X123704819Y-66052380D01*
X123704819Y-66052380D02*
X123704819Y-65957142D01*
X123704819Y-65957142D02*
X123752438Y-65814285D01*
X123752438Y-65814285D02*
X123800057Y-65766666D01*
X124133390Y-65195237D02*
X124085771Y-65290475D01*
X124085771Y-65290475D02*
X124038152Y-65338094D01*
X124038152Y-65338094D02*
X123942914Y-65385713D01*
X123942914Y-65385713D02*
X123895295Y-65385713D01*
X123895295Y-65385713D02*
X123800057Y-65338094D01*
X123800057Y-65338094D02*
X123752438Y-65290475D01*
X123752438Y-65290475D02*
X123704819Y-65195237D01*
X123704819Y-65195237D02*
X123704819Y-65004761D01*
X123704819Y-65004761D02*
X123752438Y-64909523D01*
X123752438Y-64909523D02*
X123800057Y-64861904D01*
X123800057Y-64861904D02*
X123895295Y-64814285D01*
X123895295Y-64814285D02*
X123942914Y-64814285D01*
X123942914Y-64814285D02*
X124038152Y-64861904D01*
X124038152Y-64861904D02*
X124085771Y-64909523D01*
X124085771Y-64909523D02*
X124133390Y-65004761D01*
X124133390Y-65004761D02*
X124133390Y-65195237D01*
X124133390Y-65195237D02*
X124181009Y-65290475D01*
X124181009Y-65290475D02*
X124228628Y-65338094D01*
X124228628Y-65338094D02*
X124323866Y-65385713D01*
X124323866Y-65385713D02*
X124514342Y-65385713D01*
X124514342Y-65385713D02*
X124609580Y-65338094D01*
X124609580Y-65338094D02*
X124657200Y-65290475D01*
X124657200Y-65290475D02*
X124704819Y-65195237D01*
X124704819Y-65195237D02*
X124704819Y-65004761D01*
X124704819Y-65004761D02*
X124657200Y-64909523D01*
X124657200Y-64909523D02*
X124609580Y-64861904D01*
X124609580Y-64861904D02*
X124514342Y-64814285D01*
X124514342Y-64814285D02*
X124323866Y-64814285D01*
X124323866Y-64814285D02*
X124228628Y-64861904D01*
X124228628Y-64861904D02*
X124181009Y-64909523D01*
X124181009Y-64909523D02*
X124133390Y-65004761D01*
X137583333Y-68359580D02*
X137535714Y-68407200D01*
X137535714Y-68407200D02*
X137392857Y-68454819D01*
X137392857Y-68454819D02*
X137297619Y-68454819D01*
X137297619Y-68454819D02*
X137154762Y-68407200D01*
X137154762Y-68407200D02*
X137059524Y-68311961D01*
X137059524Y-68311961D02*
X137011905Y-68216723D01*
X137011905Y-68216723D02*
X136964286Y-68026247D01*
X136964286Y-68026247D02*
X136964286Y-67883390D01*
X136964286Y-67883390D02*
X137011905Y-67692914D01*
X137011905Y-67692914D02*
X137059524Y-67597676D01*
X137059524Y-67597676D02*
X137154762Y-67502438D01*
X137154762Y-67502438D02*
X137297619Y-67454819D01*
X137297619Y-67454819D02*
X137392857Y-67454819D01*
X137392857Y-67454819D02*
X137535714Y-67502438D01*
X137535714Y-67502438D02*
X137583333Y-67550057D01*
X138059524Y-68454819D02*
X138250000Y-68454819D01*
X138250000Y-68454819D02*
X138345238Y-68407200D01*
X138345238Y-68407200D02*
X138392857Y-68359580D01*
X138392857Y-68359580D02*
X138488095Y-68216723D01*
X138488095Y-68216723D02*
X138535714Y-68026247D01*
X138535714Y-68026247D02*
X138535714Y-67645295D01*
X138535714Y-67645295D02*
X138488095Y-67550057D01*
X138488095Y-67550057D02*
X138440476Y-67502438D01*
X138440476Y-67502438D02*
X138345238Y-67454819D01*
X138345238Y-67454819D02*
X138154762Y-67454819D01*
X138154762Y-67454819D02*
X138059524Y-67502438D01*
X138059524Y-67502438D02*
X138011905Y-67550057D01*
X138011905Y-67550057D02*
X137964286Y-67645295D01*
X137964286Y-67645295D02*
X137964286Y-67883390D01*
X137964286Y-67883390D02*
X138011905Y-67978628D01*
X138011905Y-67978628D02*
X138059524Y-68026247D01*
X138059524Y-68026247D02*
X138154762Y-68073866D01*
X138154762Y-68073866D02*
X138345238Y-68073866D01*
X138345238Y-68073866D02*
X138440476Y-68026247D01*
X138440476Y-68026247D02*
X138488095Y-67978628D01*
X138488095Y-67978628D02*
X138535714Y-67883390D01*
X124609580Y-80642857D02*
X124657200Y-80690476D01*
X124657200Y-80690476D02*
X124704819Y-80833333D01*
X124704819Y-80833333D02*
X124704819Y-80928571D01*
X124704819Y-80928571D02*
X124657200Y-81071428D01*
X124657200Y-81071428D02*
X124561961Y-81166666D01*
X124561961Y-81166666D02*
X124466723Y-81214285D01*
X124466723Y-81214285D02*
X124276247Y-81261904D01*
X124276247Y-81261904D02*
X124133390Y-81261904D01*
X124133390Y-81261904D02*
X123942914Y-81214285D01*
X123942914Y-81214285D02*
X123847676Y-81166666D01*
X123847676Y-81166666D02*
X123752438Y-81071428D01*
X123752438Y-81071428D02*
X123704819Y-80928571D01*
X123704819Y-80928571D02*
X123704819Y-80833333D01*
X123704819Y-80833333D02*
X123752438Y-80690476D01*
X123752438Y-80690476D02*
X123800057Y-80642857D01*
X124704819Y-79690476D02*
X124704819Y-80261904D01*
X124704819Y-79976190D02*
X123704819Y-79976190D01*
X123704819Y-79976190D02*
X123847676Y-80071428D01*
X123847676Y-80071428D02*
X123942914Y-80166666D01*
X123942914Y-80166666D02*
X123990533Y-80261904D01*
X124038152Y-78833333D02*
X124704819Y-78833333D01*
X123657200Y-79071428D02*
X124371485Y-79309523D01*
X124371485Y-79309523D02*
X124371485Y-78690476D01*
X158609580Y-71202403D02*
X158657200Y-71250022D01*
X158657200Y-71250022D02*
X158704819Y-71392879D01*
X158704819Y-71392879D02*
X158704819Y-71488117D01*
X158704819Y-71488117D02*
X158657200Y-71630974D01*
X158657200Y-71630974D02*
X158561961Y-71726212D01*
X158561961Y-71726212D02*
X158466723Y-71773831D01*
X158466723Y-71773831D02*
X158276247Y-71821450D01*
X158276247Y-71821450D02*
X158133390Y-71821450D01*
X158133390Y-71821450D02*
X157942914Y-71773831D01*
X157942914Y-71773831D02*
X157847676Y-71726212D01*
X157847676Y-71726212D02*
X157752438Y-71630974D01*
X157752438Y-71630974D02*
X157704819Y-71488117D01*
X157704819Y-71488117D02*
X157704819Y-71392879D01*
X157704819Y-71392879D02*
X157752438Y-71250022D01*
X157752438Y-71250022D02*
X157800057Y-71202403D01*
X157800057Y-70821450D02*
X157752438Y-70773831D01*
X157752438Y-70773831D02*
X157704819Y-70678593D01*
X157704819Y-70678593D02*
X157704819Y-70440498D01*
X157704819Y-70440498D02*
X157752438Y-70345260D01*
X157752438Y-70345260D02*
X157800057Y-70297641D01*
X157800057Y-70297641D02*
X157895295Y-70250022D01*
X157895295Y-70250022D02*
X157990533Y-70250022D01*
X157990533Y-70250022D02*
X158133390Y-70297641D01*
X158133390Y-70297641D02*
X158704819Y-70869069D01*
X158704819Y-70869069D02*
X158704819Y-70250022D01*
X158704819Y-69297641D02*
X158704819Y-69869069D01*
X158704819Y-69583355D02*
X157704819Y-69583355D01*
X157704819Y-69583355D02*
X157847676Y-69678593D01*
X157847676Y-69678593D02*
X157942914Y-69773831D01*
X157942914Y-69773831D02*
X157990533Y-69869069D01*
X154454819Y-59511904D02*
X155264342Y-59511904D01*
X155264342Y-59511904D02*
X155359580Y-59464285D01*
X155359580Y-59464285D02*
X155407200Y-59416666D01*
X155407200Y-59416666D02*
X155454819Y-59321428D01*
X155454819Y-59321428D02*
X155454819Y-59130952D01*
X155454819Y-59130952D02*
X155407200Y-59035714D01*
X155407200Y-59035714D02*
X155359580Y-58988095D01*
X155359580Y-58988095D02*
X155264342Y-58940476D01*
X155264342Y-58940476D02*
X154454819Y-58940476D01*
X155454819Y-57940476D02*
X155454819Y-58511904D01*
X155454819Y-58226190D02*
X154454819Y-58226190D01*
X154454819Y-58226190D02*
X154597676Y-58321428D01*
X154597676Y-58321428D02*
X154692914Y-58416666D01*
X154692914Y-58416666D02*
X154740533Y-58511904D01*
X134107142Y-78954819D02*
X133773809Y-78478628D01*
X133535714Y-78954819D02*
X133535714Y-77954819D01*
X133535714Y-77954819D02*
X133916666Y-77954819D01*
X133916666Y-77954819D02*
X134011904Y-78002438D01*
X134011904Y-78002438D02*
X134059523Y-78050057D01*
X134059523Y-78050057D02*
X134107142Y-78145295D01*
X134107142Y-78145295D02*
X134107142Y-78288152D01*
X134107142Y-78288152D02*
X134059523Y-78383390D01*
X134059523Y-78383390D02*
X134011904Y-78431009D01*
X134011904Y-78431009D02*
X133916666Y-78478628D01*
X133916666Y-78478628D02*
X133535714Y-78478628D01*
X135059523Y-78954819D02*
X134488095Y-78954819D01*
X134773809Y-78954819D02*
X134773809Y-77954819D01*
X134773809Y-77954819D02*
X134678571Y-78097676D01*
X134678571Y-78097676D02*
X134583333Y-78192914D01*
X134583333Y-78192914D02*
X134488095Y-78240533D01*
X135392857Y-77954819D02*
X136011904Y-77954819D01*
X136011904Y-77954819D02*
X135678571Y-78335771D01*
X135678571Y-78335771D02*
X135821428Y-78335771D01*
X135821428Y-78335771D02*
X135916666Y-78383390D01*
X135916666Y-78383390D02*
X135964285Y-78431009D01*
X135964285Y-78431009D02*
X136011904Y-78526247D01*
X136011904Y-78526247D02*
X136011904Y-78764342D01*
X136011904Y-78764342D02*
X135964285Y-78859580D01*
X135964285Y-78859580D02*
X135916666Y-78907200D01*
X135916666Y-78907200D02*
X135821428Y-78954819D01*
X135821428Y-78954819D02*
X135535714Y-78954819D01*
X135535714Y-78954819D02*
X135440476Y-78907200D01*
X135440476Y-78907200D02*
X135392857Y-78859580D01*
X135070833Y-72284819D02*
X134737500Y-71808628D01*
X134499405Y-72284819D02*
X134499405Y-71284819D01*
X134499405Y-71284819D02*
X134880357Y-71284819D01*
X134880357Y-71284819D02*
X134975595Y-71332438D01*
X134975595Y-71332438D02*
X135023214Y-71380057D01*
X135023214Y-71380057D02*
X135070833Y-71475295D01*
X135070833Y-71475295D02*
X135070833Y-71618152D01*
X135070833Y-71618152D02*
X135023214Y-71713390D01*
X135023214Y-71713390D02*
X134975595Y-71761009D01*
X134975595Y-71761009D02*
X134880357Y-71808628D01*
X134880357Y-71808628D02*
X134499405Y-71808628D01*
X135642262Y-71713390D02*
X135547024Y-71665771D01*
X135547024Y-71665771D02*
X135499405Y-71618152D01*
X135499405Y-71618152D02*
X135451786Y-71522914D01*
X135451786Y-71522914D02*
X135451786Y-71475295D01*
X135451786Y-71475295D02*
X135499405Y-71380057D01*
X135499405Y-71380057D02*
X135547024Y-71332438D01*
X135547024Y-71332438D02*
X135642262Y-71284819D01*
X135642262Y-71284819D02*
X135832738Y-71284819D01*
X135832738Y-71284819D02*
X135927976Y-71332438D01*
X135927976Y-71332438D02*
X135975595Y-71380057D01*
X135975595Y-71380057D02*
X136023214Y-71475295D01*
X136023214Y-71475295D02*
X136023214Y-71522914D01*
X136023214Y-71522914D02*
X135975595Y-71618152D01*
X135975595Y-71618152D02*
X135927976Y-71665771D01*
X135927976Y-71665771D02*
X135832738Y-71713390D01*
X135832738Y-71713390D02*
X135642262Y-71713390D01*
X135642262Y-71713390D02*
X135547024Y-71761009D01*
X135547024Y-71761009D02*
X135499405Y-71808628D01*
X135499405Y-71808628D02*
X135451786Y-71903866D01*
X135451786Y-71903866D02*
X135451786Y-72094342D01*
X135451786Y-72094342D02*
X135499405Y-72189580D01*
X135499405Y-72189580D02*
X135547024Y-72237200D01*
X135547024Y-72237200D02*
X135642262Y-72284819D01*
X135642262Y-72284819D02*
X135832738Y-72284819D01*
X135832738Y-72284819D02*
X135927976Y-72237200D01*
X135927976Y-72237200D02*
X135975595Y-72189580D01*
X135975595Y-72189580D02*
X136023214Y-72094342D01*
X136023214Y-72094342D02*
X136023214Y-71903866D01*
X136023214Y-71903866D02*
X135975595Y-71808628D01*
X135975595Y-71808628D02*
X135927976Y-71761009D01*
X135927976Y-71761009D02*
X135832738Y-71713390D01*
X153083333Y-52859580D02*
X153035714Y-52907200D01*
X153035714Y-52907200D02*
X152892857Y-52954819D01*
X152892857Y-52954819D02*
X152797619Y-52954819D01*
X152797619Y-52954819D02*
X152654762Y-52907200D01*
X152654762Y-52907200D02*
X152559524Y-52811961D01*
X152559524Y-52811961D02*
X152511905Y-52716723D01*
X152511905Y-52716723D02*
X152464286Y-52526247D01*
X152464286Y-52526247D02*
X152464286Y-52383390D01*
X152464286Y-52383390D02*
X152511905Y-52192914D01*
X152511905Y-52192914D02*
X152559524Y-52097676D01*
X152559524Y-52097676D02*
X152654762Y-52002438D01*
X152654762Y-52002438D02*
X152797619Y-51954819D01*
X152797619Y-51954819D02*
X152892857Y-51954819D01*
X152892857Y-51954819D02*
X153035714Y-52002438D01*
X153035714Y-52002438D02*
X153083333Y-52050057D01*
X153464286Y-52050057D02*
X153511905Y-52002438D01*
X153511905Y-52002438D02*
X153607143Y-51954819D01*
X153607143Y-51954819D02*
X153845238Y-51954819D01*
X153845238Y-51954819D02*
X153940476Y-52002438D01*
X153940476Y-52002438D02*
X153988095Y-52050057D01*
X153988095Y-52050057D02*
X154035714Y-52145295D01*
X154035714Y-52145295D02*
X154035714Y-52240533D01*
X154035714Y-52240533D02*
X153988095Y-52383390D01*
X153988095Y-52383390D02*
X153416667Y-52954819D01*
X153416667Y-52954819D02*
X154035714Y-52954819D01*
X150433333Y-58254818D02*
X149957143Y-58254818D01*
X149957143Y-58254818D02*
X149957143Y-57254818D01*
X151290476Y-58254818D02*
X150719048Y-58254818D01*
X151004762Y-58254818D02*
X151004762Y-57254818D01*
X151004762Y-57254818D02*
X150909524Y-57397675D01*
X150909524Y-57397675D02*
X150814286Y-57492913D01*
X150814286Y-57492913D02*
X150719048Y-57540532D01*
X136327887Y-60414365D02*
X136327887Y-59414365D01*
X136327887Y-59414365D02*
X136565982Y-59414365D01*
X136565982Y-59414365D02*
X136708839Y-59461984D01*
X136708839Y-59461984D02*
X136804077Y-59557222D01*
X136804077Y-59557222D02*
X136851696Y-59652460D01*
X136851696Y-59652460D02*
X136899315Y-59842936D01*
X136899315Y-59842936D02*
X136899315Y-59985793D01*
X136899315Y-59985793D02*
X136851696Y-60176269D01*
X136851696Y-60176269D02*
X136804077Y-60271507D01*
X136804077Y-60271507D02*
X136708839Y-60366746D01*
X136708839Y-60366746D02*
X136565982Y-60414365D01*
X136565982Y-60414365D02*
X136327887Y-60414365D01*
X137804077Y-59414365D02*
X137327887Y-59414365D01*
X137327887Y-59414365D02*
X137280268Y-59890555D01*
X137280268Y-59890555D02*
X137327887Y-59842936D01*
X137327887Y-59842936D02*
X137423125Y-59795317D01*
X137423125Y-59795317D02*
X137661220Y-59795317D01*
X137661220Y-59795317D02*
X137756458Y-59842936D01*
X137756458Y-59842936D02*
X137804077Y-59890555D01*
X137804077Y-59890555D02*
X137851696Y-59985793D01*
X137851696Y-59985793D02*
X137851696Y-60223888D01*
X137851696Y-60223888D02*
X137804077Y-60319126D01*
X137804077Y-60319126D02*
X137756458Y-60366746D01*
X137756458Y-60366746D02*
X137661220Y-60414365D01*
X137661220Y-60414365D02*
X137423125Y-60414365D01*
X137423125Y-60414365D02*
X137327887Y-60366746D01*
X137327887Y-60366746D02*
X137280268Y-60319126D01*
X134107142Y-80359580D02*
X134059523Y-80407200D01*
X134059523Y-80407200D02*
X133916666Y-80454819D01*
X133916666Y-80454819D02*
X133821428Y-80454819D01*
X133821428Y-80454819D02*
X133678571Y-80407200D01*
X133678571Y-80407200D02*
X133583333Y-80311961D01*
X133583333Y-80311961D02*
X133535714Y-80216723D01*
X133535714Y-80216723D02*
X133488095Y-80026247D01*
X133488095Y-80026247D02*
X133488095Y-79883390D01*
X133488095Y-79883390D02*
X133535714Y-79692914D01*
X133535714Y-79692914D02*
X133583333Y-79597676D01*
X133583333Y-79597676D02*
X133678571Y-79502438D01*
X133678571Y-79502438D02*
X133821428Y-79454819D01*
X133821428Y-79454819D02*
X133916666Y-79454819D01*
X133916666Y-79454819D02*
X134059523Y-79502438D01*
X134059523Y-79502438D02*
X134107142Y-79550057D01*
X135059523Y-80454819D02*
X134488095Y-80454819D01*
X134773809Y-80454819D02*
X134773809Y-79454819D01*
X134773809Y-79454819D02*
X134678571Y-79597676D01*
X134678571Y-79597676D02*
X134583333Y-79692914D01*
X134583333Y-79692914D02*
X134488095Y-79740533D01*
X135392857Y-79454819D02*
X136011904Y-79454819D01*
X136011904Y-79454819D02*
X135678571Y-79835771D01*
X135678571Y-79835771D02*
X135821428Y-79835771D01*
X135821428Y-79835771D02*
X135916666Y-79883390D01*
X135916666Y-79883390D02*
X135964285Y-79931009D01*
X135964285Y-79931009D02*
X136011904Y-80026247D01*
X136011904Y-80026247D02*
X136011904Y-80264342D01*
X136011904Y-80264342D02*
X135964285Y-80359580D01*
X135964285Y-80359580D02*
X135916666Y-80407200D01*
X135916666Y-80407200D02*
X135821428Y-80454819D01*
X135821428Y-80454819D02*
X135535714Y-80454819D01*
X135535714Y-80454819D02*
X135440476Y-80407200D01*
X135440476Y-80407200D02*
X135392857Y-80359580D01*
X156107142Y-73109580D02*
X156059523Y-73157200D01*
X156059523Y-73157200D02*
X155916666Y-73204819D01*
X155916666Y-73204819D02*
X155821428Y-73204819D01*
X155821428Y-73204819D02*
X155678571Y-73157200D01*
X155678571Y-73157200D02*
X155583333Y-73061961D01*
X155583333Y-73061961D02*
X155535714Y-72966723D01*
X155535714Y-72966723D02*
X155488095Y-72776247D01*
X155488095Y-72776247D02*
X155488095Y-72633390D01*
X155488095Y-72633390D02*
X155535714Y-72442914D01*
X155535714Y-72442914D02*
X155583333Y-72347676D01*
X155583333Y-72347676D02*
X155678571Y-72252438D01*
X155678571Y-72252438D02*
X155821428Y-72204819D01*
X155821428Y-72204819D02*
X155916666Y-72204819D01*
X155916666Y-72204819D02*
X156059523Y-72252438D01*
X156059523Y-72252438D02*
X156107142Y-72300057D01*
X156488095Y-72300057D02*
X156535714Y-72252438D01*
X156535714Y-72252438D02*
X156630952Y-72204819D01*
X156630952Y-72204819D02*
X156869047Y-72204819D01*
X156869047Y-72204819D02*
X156964285Y-72252438D01*
X156964285Y-72252438D02*
X157011904Y-72300057D01*
X157011904Y-72300057D02*
X157059523Y-72395295D01*
X157059523Y-72395295D02*
X157059523Y-72490533D01*
X157059523Y-72490533D02*
X157011904Y-72633390D01*
X157011904Y-72633390D02*
X156440476Y-73204819D01*
X156440476Y-73204819D02*
X157059523Y-73204819D01*
X157916666Y-72538152D02*
X157916666Y-73204819D01*
X157678571Y-72157200D02*
X157440476Y-72871485D01*
X157440476Y-72871485D02*
X158059523Y-72871485D01*
X152850625Y-81359580D02*
X152803006Y-81407200D01*
X152803006Y-81407200D02*
X152660149Y-81454819D01*
X152660149Y-81454819D02*
X152564911Y-81454819D01*
X152564911Y-81454819D02*
X152422054Y-81407200D01*
X152422054Y-81407200D02*
X152326816Y-81311961D01*
X152326816Y-81311961D02*
X152279197Y-81216723D01*
X152279197Y-81216723D02*
X152231578Y-81026247D01*
X152231578Y-81026247D02*
X152231578Y-80883390D01*
X152231578Y-80883390D02*
X152279197Y-80692914D01*
X152279197Y-80692914D02*
X152326816Y-80597676D01*
X152326816Y-80597676D02*
X152422054Y-80502438D01*
X152422054Y-80502438D02*
X152564911Y-80454819D01*
X152564911Y-80454819D02*
X152660149Y-80454819D01*
X152660149Y-80454819D02*
X152803006Y-80502438D01*
X152803006Y-80502438D02*
X152850625Y-80550057D01*
X153231578Y-80550057D02*
X153279197Y-80502438D01*
X153279197Y-80502438D02*
X153374435Y-80454819D01*
X153374435Y-80454819D02*
X153612530Y-80454819D01*
X153612530Y-80454819D02*
X153707768Y-80502438D01*
X153707768Y-80502438D02*
X153755387Y-80550057D01*
X153755387Y-80550057D02*
X153803006Y-80645295D01*
X153803006Y-80645295D02*
X153803006Y-80740533D01*
X153803006Y-80740533D02*
X153755387Y-80883390D01*
X153755387Y-80883390D02*
X153183959Y-81454819D01*
X153183959Y-81454819D02*
X153803006Y-81454819D01*
X154136340Y-80454819D02*
X154755387Y-80454819D01*
X154755387Y-80454819D02*
X154422054Y-80835771D01*
X154422054Y-80835771D02*
X154564911Y-80835771D01*
X154564911Y-80835771D02*
X154660149Y-80883390D01*
X154660149Y-80883390D02*
X154707768Y-80931009D01*
X154707768Y-80931009D02*
X154755387Y-81026247D01*
X154755387Y-81026247D02*
X154755387Y-81264342D01*
X154755387Y-81264342D02*
X154707768Y-81359580D01*
X154707768Y-81359580D02*
X154660149Y-81407200D01*
X154660149Y-81407200D02*
X154564911Y-81454819D01*
X154564911Y-81454819D02*
X154279197Y-81454819D01*
X154279197Y-81454819D02*
X154183959Y-81407200D01*
X154183959Y-81407200D02*
X154136340Y-81359580D01*
X161333333Y-62609580D02*
X161285714Y-62657200D01*
X161285714Y-62657200D02*
X161142857Y-62704819D01*
X161142857Y-62704819D02*
X161047619Y-62704819D01*
X161047619Y-62704819D02*
X160904762Y-62657200D01*
X160904762Y-62657200D02*
X160809524Y-62561961D01*
X160809524Y-62561961D02*
X160761905Y-62466723D01*
X160761905Y-62466723D02*
X160714286Y-62276247D01*
X160714286Y-62276247D02*
X160714286Y-62133390D01*
X160714286Y-62133390D02*
X160761905Y-61942914D01*
X160761905Y-61942914D02*
X160809524Y-61847676D01*
X160809524Y-61847676D02*
X160904762Y-61752438D01*
X160904762Y-61752438D02*
X161047619Y-61704819D01*
X161047619Y-61704819D02*
X161142857Y-61704819D01*
X161142857Y-61704819D02*
X161285714Y-61752438D01*
X161285714Y-61752438D02*
X161333333Y-61800057D01*
X161666667Y-61704819D02*
X162285714Y-61704819D01*
X162285714Y-61704819D02*
X161952381Y-62085771D01*
X161952381Y-62085771D02*
X162095238Y-62085771D01*
X162095238Y-62085771D02*
X162190476Y-62133390D01*
X162190476Y-62133390D02*
X162238095Y-62181009D01*
X162238095Y-62181009D02*
X162285714Y-62276247D01*
X162285714Y-62276247D02*
X162285714Y-62514342D01*
X162285714Y-62514342D02*
X162238095Y-62609580D01*
X162238095Y-62609580D02*
X162190476Y-62657200D01*
X162190476Y-62657200D02*
X162095238Y-62704819D01*
X162095238Y-62704819D02*
X161809524Y-62704819D01*
X161809524Y-62704819D02*
X161714286Y-62657200D01*
X161714286Y-62657200D02*
X161666667Y-62609580D01*
X153107142Y-68739127D02*
X153059523Y-68786747D01*
X153059523Y-68786747D02*
X152916666Y-68834366D01*
X152916666Y-68834366D02*
X152821428Y-68834366D01*
X152821428Y-68834366D02*
X152678571Y-68786747D01*
X152678571Y-68786747D02*
X152583333Y-68691508D01*
X152583333Y-68691508D02*
X152535714Y-68596270D01*
X152535714Y-68596270D02*
X152488095Y-68405794D01*
X152488095Y-68405794D02*
X152488095Y-68262937D01*
X152488095Y-68262937D02*
X152535714Y-68072461D01*
X152535714Y-68072461D02*
X152583333Y-67977223D01*
X152583333Y-67977223D02*
X152678571Y-67881985D01*
X152678571Y-67881985D02*
X152821428Y-67834366D01*
X152821428Y-67834366D02*
X152916666Y-67834366D01*
X152916666Y-67834366D02*
X153059523Y-67881985D01*
X153059523Y-67881985D02*
X153107142Y-67929604D01*
X154059523Y-68834366D02*
X153488095Y-68834366D01*
X153773809Y-68834366D02*
X153773809Y-67834366D01*
X153773809Y-67834366D02*
X153678571Y-67977223D01*
X153678571Y-67977223D02*
X153583333Y-68072461D01*
X153583333Y-68072461D02*
X153488095Y-68120080D01*
X154392857Y-67834366D02*
X155059523Y-67834366D01*
X155059523Y-67834366D02*
X154630952Y-68834366D01*
X138557142Y-75854819D02*
X138223809Y-75378628D01*
X137985714Y-75854819D02*
X137985714Y-74854819D01*
X137985714Y-74854819D02*
X138366666Y-74854819D01*
X138366666Y-74854819D02*
X138461904Y-74902438D01*
X138461904Y-74902438D02*
X138509523Y-74950057D01*
X138509523Y-74950057D02*
X138557142Y-75045295D01*
X138557142Y-75045295D02*
X138557142Y-75188152D01*
X138557142Y-75188152D02*
X138509523Y-75283390D01*
X138509523Y-75283390D02*
X138461904Y-75331009D01*
X138461904Y-75331009D02*
X138366666Y-75378628D01*
X138366666Y-75378628D02*
X137985714Y-75378628D01*
X139509523Y-75854819D02*
X138938095Y-75854819D01*
X139223809Y-75854819D02*
X139223809Y-74854819D01*
X139223809Y-74854819D02*
X139128571Y-74997676D01*
X139128571Y-74997676D02*
X139033333Y-75092914D01*
X139033333Y-75092914D02*
X138938095Y-75140533D01*
X140414285Y-74854819D02*
X139938095Y-74854819D01*
X139938095Y-74854819D02*
X139890476Y-75331009D01*
X139890476Y-75331009D02*
X139938095Y-75283390D01*
X139938095Y-75283390D02*
X140033333Y-75235771D01*
X140033333Y-75235771D02*
X140271428Y-75235771D01*
X140271428Y-75235771D02*
X140366666Y-75283390D01*
X140366666Y-75283390D02*
X140414285Y-75331009D01*
X140414285Y-75331009D02*
X140461904Y-75426247D01*
X140461904Y-75426247D02*
X140461904Y-75664342D01*
X140461904Y-75664342D02*
X140414285Y-75759580D01*
X140414285Y-75759580D02*
X140366666Y-75807200D01*
X140366666Y-75807200D02*
X140271428Y-75854819D01*
X140271428Y-75854819D02*
X140033333Y-75854819D01*
X140033333Y-75854819D02*
X139938095Y-75807200D01*
X139938095Y-75807200D02*
X139890476Y-75759580D01*
X122204819Y-77642857D02*
X121728628Y-77976190D01*
X122204819Y-78214285D02*
X121204819Y-78214285D01*
X121204819Y-78214285D02*
X121204819Y-77833333D01*
X121204819Y-77833333D02*
X121252438Y-77738095D01*
X121252438Y-77738095D02*
X121300057Y-77690476D01*
X121300057Y-77690476D02*
X121395295Y-77642857D01*
X121395295Y-77642857D02*
X121538152Y-77642857D01*
X121538152Y-77642857D02*
X121633390Y-77690476D01*
X121633390Y-77690476D02*
X121681009Y-77738095D01*
X121681009Y-77738095D02*
X121728628Y-77833333D01*
X121728628Y-77833333D02*
X121728628Y-78214285D01*
X122204819Y-76690476D02*
X122204819Y-77261904D01*
X122204819Y-76976190D02*
X121204819Y-76976190D01*
X121204819Y-76976190D02*
X121347676Y-77071428D01*
X121347676Y-77071428D02*
X121442914Y-77166666D01*
X121442914Y-77166666D02*
X121490533Y-77261904D01*
X121204819Y-76071428D02*
X121204819Y-75976190D01*
X121204819Y-75976190D02*
X121252438Y-75880952D01*
X121252438Y-75880952D02*
X121300057Y-75833333D01*
X121300057Y-75833333D02*
X121395295Y-75785714D01*
X121395295Y-75785714D02*
X121585771Y-75738095D01*
X121585771Y-75738095D02*
X121823866Y-75738095D01*
X121823866Y-75738095D02*
X122014342Y-75785714D01*
X122014342Y-75785714D02*
X122109580Y-75833333D01*
X122109580Y-75833333D02*
X122157200Y-75880952D01*
X122157200Y-75880952D02*
X122204819Y-75976190D01*
X122204819Y-75976190D02*
X122204819Y-76071428D01*
X122204819Y-76071428D02*
X122157200Y-76166666D01*
X122157200Y-76166666D02*
X122109580Y-76214285D01*
X122109580Y-76214285D02*
X122014342Y-76261904D01*
X122014342Y-76261904D02*
X121823866Y-76309523D01*
X121823866Y-76309523D02*
X121585771Y-76309523D01*
X121585771Y-76309523D02*
X121395295Y-76261904D01*
X121395295Y-76261904D02*
X121300057Y-76214285D01*
X121300057Y-76214285D02*
X121252438Y-76166666D01*
X121252438Y-76166666D02*
X121204819Y-76071428D01*
X143327886Y-63114365D02*
X143327886Y-62114365D01*
X143327886Y-62114365D02*
X143565981Y-62114365D01*
X143565981Y-62114365D02*
X143708838Y-62161984D01*
X143708838Y-62161984D02*
X143804076Y-62257222D01*
X143804076Y-62257222D02*
X143851695Y-62352460D01*
X143851695Y-62352460D02*
X143899314Y-62542936D01*
X143899314Y-62542936D02*
X143899314Y-62685793D01*
X143899314Y-62685793D02*
X143851695Y-62876269D01*
X143851695Y-62876269D02*
X143804076Y-62971507D01*
X143804076Y-62971507D02*
X143708838Y-63066746D01*
X143708838Y-63066746D02*
X143565981Y-63114365D01*
X143565981Y-63114365D02*
X143327886Y-63114365D01*
X144280267Y-62209603D02*
X144327886Y-62161984D01*
X144327886Y-62161984D02*
X144423124Y-62114365D01*
X144423124Y-62114365D02*
X144661219Y-62114365D01*
X144661219Y-62114365D02*
X144756457Y-62161984D01*
X144756457Y-62161984D02*
X144804076Y-62209603D01*
X144804076Y-62209603D02*
X144851695Y-62304841D01*
X144851695Y-62304841D02*
X144851695Y-62400079D01*
X144851695Y-62400079D02*
X144804076Y-62542936D01*
X144804076Y-62542936D02*
X144232648Y-63114365D01*
X144232648Y-63114365D02*
X144851695Y-63114365D01*
X152850622Y-75239127D02*
X152803003Y-75286747D01*
X152803003Y-75286747D02*
X152660146Y-75334366D01*
X152660146Y-75334366D02*
X152564908Y-75334366D01*
X152564908Y-75334366D02*
X152422051Y-75286747D01*
X152422051Y-75286747D02*
X152326813Y-75191508D01*
X152326813Y-75191508D02*
X152279194Y-75096270D01*
X152279194Y-75096270D02*
X152231575Y-74905794D01*
X152231575Y-74905794D02*
X152231575Y-74762937D01*
X152231575Y-74762937D02*
X152279194Y-74572461D01*
X152279194Y-74572461D02*
X152326813Y-74477223D01*
X152326813Y-74477223D02*
X152422051Y-74381985D01*
X152422051Y-74381985D02*
X152564908Y-74334366D01*
X152564908Y-74334366D02*
X152660146Y-74334366D01*
X152660146Y-74334366D02*
X152803003Y-74381985D01*
X152803003Y-74381985D02*
X152850622Y-74429604D01*
X153803003Y-75334366D02*
X153231575Y-75334366D01*
X153517289Y-75334366D02*
X153517289Y-74334366D01*
X153517289Y-74334366D02*
X153422051Y-74477223D01*
X153422051Y-74477223D02*
X153326813Y-74572461D01*
X153326813Y-74572461D02*
X153231575Y-74620080D01*
X154374432Y-74762937D02*
X154279194Y-74715318D01*
X154279194Y-74715318D02*
X154231575Y-74667699D01*
X154231575Y-74667699D02*
X154183956Y-74572461D01*
X154183956Y-74572461D02*
X154183956Y-74524842D01*
X154183956Y-74524842D02*
X154231575Y-74429604D01*
X154231575Y-74429604D02*
X154279194Y-74381985D01*
X154279194Y-74381985D02*
X154374432Y-74334366D01*
X154374432Y-74334366D02*
X154564908Y-74334366D01*
X154564908Y-74334366D02*
X154660146Y-74381985D01*
X154660146Y-74381985D02*
X154707765Y-74429604D01*
X154707765Y-74429604D02*
X154755384Y-74524842D01*
X154755384Y-74524842D02*
X154755384Y-74572461D01*
X154755384Y-74572461D02*
X154707765Y-74667699D01*
X154707765Y-74667699D02*
X154660146Y-74715318D01*
X154660146Y-74715318D02*
X154564908Y-74762937D01*
X154564908Y-74762937D02*
X154374432Y-74762937D01*
X154374432Y-74762937D02*
X154279194Y-74810556D01*
X154279194Y-74810556D02*
X154231575Y-74858175D01*
X154231575Y-74858175D02*
X154183956Y-74953413D01*
X154183956Y-74953413D02*
X154183956Y-75143889D01*
X154183956Y-75143889D02*
X154231575Y-75239127D01*
X154231575Y-75239127D02*
X154279194Y-75286747D01*
X154279194Y-75286747D02*
X154374432Y-75334366D01*
X154374432Y-75334366D02*
X154564908Y-75334366D01*
X154564908Y-75334366D02*
X154660146Y-75286747D01*
X154660146Y-75286747D02*
X154707765Y-75239127D01*
X154707765Y-75239127D02*
X154755384Y-75143889D01*
X154755384Y-75143889D02*
X154755384Y-74953413D01*
X154755384Y-74953413D02*
X154707765Y-74858175D01*
X154707765Y-74858175D02*
X154660146Y-74810556D01*
X154660146Y-74810556D02*
X154564908Y-74762937D01*
X134333333Y-66454819D02*
X134000000Y-65978628D01*
X133761905Y-66454819D02*
X133761905Y-65454819D01*
X133761905Y-65454819D02*
X134142857Y-65454819D01*
X134142857Y-65454819D02*
X134238095Y-65502438D01*
X134238095Y-65502438D02*
X134285714Y-65550057D01*
X134285714Y-65550057D02*
X134333333Y-65645295D01*
X134333333Y-65645295D02*
X134333333Y-65788152D01*
X134333333Y-65788152D02*
X134285714Y-65883390D01*
X134285714Y-65883390D02*
X134238095Y-65931009D01*
X134238095Y-65931009D02*
X134142857Y-65978628D01*
X134142857Y-65978628D02*
X133761905Y-65978628D01*
X135190476Y-65454819D02*
X135000000Y-65454819D01*
X135000000Y-65454819D02*
X134904762Y-65502438D01*
X134904762Y-65502438D02*
X134857143Y-65550057D01*
X134857143Y-65550057D02*
X134761905Y-65692914D01*
X134761905Y-65692914D02*
X134714286Y-65883390D01*
X134714286Y-65883390D02*
X134714286Y-66264342D01*
X134714286Y-66264342D02*
X134761905Y-66359580D01*
X134761905Y-66359580D02*
X134809524Y-66407200D01*
X134809524Y-66407200D02*
X134904762Y-66454819D01*
X134904762Y-66454819D02*
X135095238Y-66454819D01*
X135095238Y-66454819D02*
X135190476Y-66407200D01*
X135190476Y-66407200D02*
X135238095Y-66359580D01*
X135238095Y-66359580D02*
X135285714Y-66264342D01*
X135285714Y-66264342D02*
X135285714Y-66026247D01*
X135285714Y-66026247D02*
X135238095Y-65931009D01*
X135238095Y-65931009D02*
X135190476Y-65883390D01*
X135190476Y-65883390D02*
X135095238Y-65835771D01*
X135095238Y-65835771D02*
X134904762Y-65835771D01*
X134904762Y-65835771D02*
X134809524Y-65883390D01*
X134809524Y-65883390D02*
X134761905Y-65931009D01*
X134761905Y-65931009D02*
X134714286Y-66026247D01*
D11*
X145076219Y-74883864D02*
X145076219Y-73613864D01*
X146406696Y-74762911D02*
X146346220Y-74823388D01*
X146346220Y-74823388D02*
X146164791Y-74883864D01*
X146164791Y-74883864D02*
X146043839Y-74883864D01*
X146043839Y-74883864D02*
X145862410Y-74823388D01*
X145862410Y-74823388D02*
X145741458Y-74702435D01*
X145741458Y-74702435D02*
X145680981Y-74581483D01*
X145680981Y-74581483D02*
X145620505Y-74339578D01*
X145620505Y-74339578D02*
X145620505Y-74158149D01*
X145620505Y-74158149D02*
X145680981Y-73916245D01*
X145680981Y-73916245D02*
X145741458Y-73795292D01*
X145741458Y-73795292D02*
X145862410Y-73674340D01*
X145862410Y-73674340D02*
X146043839Y-73613864D01*
X146043839Y-73613864D02*
X146164791Y-73613864D01*
X146164791Y-73613864D02*
X146346220Y-73674340D01*
X146346220Y-73674340D02*
X146406696Y-73734816D01*
X147616220Y-74883864D02*
X146890505Y-74883864D01*
X147253362Y-74883864D02*
X147253362Y-73613864D01*
X147253362Y-73613864D02*
X147132410Y-73795292D01*
X147132410Y-73795292D02*
X147011458Y-73916245D01*
X147011458Y-73916245D02*
X146890505Y-73976721D01*
D12*
X138009580Y-72842857D02*
X138057200Y-72890476D01*
X138057200Y-72890476D02*
X138104819Y-73033333D01*
X138104819Y-73033333D02*
X138104819Y-73128571D01*
X138104819Y-73128571D02*
X138057200Y-73271428D01*
X138057200Y-73271428D02*
X137961961Y-73366666D01*
X137961961Y-73366666D02*
X137866723Y-73414285D01*
X137866723Y-73414285D02*
X137676247Y-73461904D01*
X137676247Y-73461904D02*
X137533390Y-73461904D01*
X137533390Y-73461904D02*
X137342914Y-73414285D01*
X137342914Y-73414285D02*
X137247676Y-73366666D01*
X137247676Y-73366666D02*
X137152438Y-73271428D01*
X137152438Y-73271428D02*
X137104819Y-73128571D01*
X137104819Y-73128571D02*
X137104819Y-73033333D01*
X137104819Y-73033333D02*
X137152438Y-72890476D01*
X137152438Y-72890476D02*
X137200057Y-72842857D01*
X137200057Y-72461904D02*
X137152438Y-72414285D01*
X137152438Y-72414285D02*
X137104819Y-72319047D01*
X137104819Y-72319047D02*
X137104819Y-72080952D01*
X137104819Y-72080952D02*
X137152438Y-71985714D01*
X137152438Y-71985714D02*
X137200057Y-71938095D01*
X137200057Y-71938095D02*
X137295295Y-71890476D01*
X137295295Y-71890476D02*
X137390533Y-71890476D01*
X137390533Y-71890476D02*
X137533390Y-71938095D01*
X137533390Y-71938095D02*
X138104819Y-72509523D01*
X138104819Y-72509523D02*
X138104819Y-71890476D01*
X137104819Y-71271428D02*
X137104819Y-71176190D01*
X137104819Y-71176190D02*
X137152438Y-71080952D01*
X137152438Y-71080952D02*
X137200057Y-71033333D01*
X137200057Y-71033333D02*
X137295295Y-70985714D01*
X137295295Y-70985714D02*
X137485771Y-70938095D01*
X137485771Y-70938095D02*
X137723866Y-70938095D01*
X137723866Y-70938095D02*
X137914342Y-70985714D01*
X137914342Y-70985714D02*
X138009580Y-71033333D01*
X138009580Y-71033333D02*
X138057200Y-71080952D01*
X138057200Y-71080952D02*
X138104819Y-71176190D01*
X138104819Y-71176190D02*
X138104819Y-71271428D01*
X138104819Y-71271428D02*
X138057200Y-71366666D01*
X138057200Y-71366666D02*
X138009580Y-71414285D01*
X138009580Y-71414285D02*
X137914342Y-71461904D01*
X137914342Y-71461904D02*
X137723866Y-71509523D01*
X137723866Y-71509523D02*
X137485771Y-71509523D01*
X137485771Y-71509523D02*
X137295295Y-71461904D01*
X137295295Y-71461904D02*
X137200057Y-71414285D01*
X137200057Y-71414285D02*
X137152438Y-71366666D01*
X137152438Y-71366666D02*
X137104819Y-71271428D01*
X139761905Y-60454819D02*
X139761905Y-59454819D01*
X139761905Y-59454819D02*
X140000000Y-59454819D01*
X140000000Y-59454819D02*
X140142857Y-59502438D01*
X140142857Y-59502438D02*
X140238095Y-59597676D01*
X140238095Y-59597676D02*
X140285714Y-59692914D01*
X140285714Y-59692914D02*
X140333333Y-59883390D01*
X140333333Y-59883390D02*
X140333333Y-60026247D01*
X140333333Y-60026247D02*
X140285714Y-60216723D01*
X140285714Y-60216723D02*
X140238095Y-60311961D01*
X140238095Y-60311961D02*
X140142857Y-60407200D01*
X140142857Y-60407200D02*
X140000000Y-60454819D01*
X140000000Y-60454819D02*
X139761905Y-60454819D01*
X140666667Y-59454819D02*
X141285714Y-59454819D01*
X141285714Y-59454819D02*
X140952381Y-59835771D01*
X140952381Y-59835771D02*
X141095238Y-59835771D01*
X141095238Y-59835771D02*
X141190476Y-59883390D01*
X141190476Y-59883390D02*
X141238095Y-59931009D01*
X141238095Y-59931009D02*
X141285714Y-60026247D01*
X141285714Y-60026247D02*
X141285714Y-60264342D01*
X141285714Y-60264342D02*
X141238095Y-60359580D01*
X141238095Y-60359580D02*
X141190476Y-60407200D01*
X141190476Y-60407200D02*
X141095238Y-60454819D01*
X141095238Y-60454819D02*
X140809524Y-60454819D01*
X140809524Y-60454819D02*
X140714286Y-60407200D01*
X140714286Y-60407200D02*
X140666667Y-60359580D01*
X158700800Y-75452402D02*
X158224609Y-75785735D01*
X158700800Y-76023830D02*
X157700800Y-76023830D01*
X157700800Y-76023830D02*
X157700800Y-75642878D01*
X157700800Y-75642878D02*
X157748419Y-75547640D01*
X157748419Y-75547640D02*
X157796038Y-75500021D01*
X157796038Y-75500021D02*
X157891276Y-75452402D01*
X157891276Y-75452402D02*
X158034133Y-75452402D01*
X158034133Y-75452402D02*
X158129371Y-75500021D01*
X158129371Y-75500021D02*
X158176990Y-75547640D01*
X158176990Y-75547640D02*
X158224609Y-75642878D01*
X158224609Y-75642878D02*
X158224609Y-76023830D01*
X157796038Y-75071449D02*
X157748419Y-75023830D01*
X157748419Y-75023830D02*
X157700800Y-74928592D01*
X157700800Y-74928592D02*
X157700800Y-74690497D01*
X157700800Y-74690497D02*
X157748419Y-74595259D01*
X157748419Y-74595259D02*
X157796038Y-74547640D01*
X157796038Y-74547640D02*
X157891276Y-74500021D01*
X157891276Y-74500021D02*
X157986514Y-74500021D01*
X157986514Y-74500021D02*
X158129371Y-74547640D01*
X158129371Y-74547640D02*
X158700800Y-75119068D01*
X158700800Y-75119068D02*
X158700800Y-74500021D01*
X158700800Y-73547640D02*
X158700800Y-74119068D01*
X158700800Y-73833354D02*
X157700800Y-73833354D01*
X157700800Y-73833354D02*
X157843657Y-73928592D01*
X157843657Y-73928592D02*
X157938895Y-74023830D01*
X157938895Y-74023830D02*
X157986514Y-74119068D01*
X122204819Y-72666666D02*
X121728628Y-72999999D01*
X122204819Y-73238094D02*
X121204819Y-73238094D01*
X121204819Y-73238094D02*
X121204819Y-72857142D01*
X121204819Y-72857142D02*
X121252438Y-72761904D01*
X121252438Y-72761904D02*
X121300057Y-72714285D01*
X121300057Y-72714285D02*
X121395295Y-72666666D01*
X121395295Y-72666666D02*
X121538152Y-72666666D01*
X121538152Y-72666666D02*
X121633390Y-72714285D01*
X121633390Y-72714285D02*
X121681009Y-72761904D01*
X121681009Y-72761904D02*
X121728628Y-72857142D01*
X121728628Y-72857142D02*
X121728628Y-73238094D01*
X122204819Y-72190475D02*
X122204819Y-71999999D01*
X122204819Y-71999999D02*
X122157200Y-71904761D01*
X122157200Y-71904761D02*
X122109580Y-71857142D01*
X122109580Y-71857142D02*
X121966723Y-71761904D01*
X121966723Y-71761904D02*
X121776247Y-71714285D01*
X121776247Y-71714285D02*
X121395295Y-71714285D01*
X121395295Y-71714285D02*
X121300057Y-71761904D01*
X121300057Y-71761904D02*
X121252438Y-71809523D01*
X121252438Y-71809523D02*
X121204819Y-71904761D01*
X121204819Y-71904761D02*
X121204819Y-72095237D01*
X121204819Y-72095237D02*
X121252438Y-72190475D01*
X121252438Y-72190475D02*
X121300057Y-72238094D01*
X121300057Y-72238094D02*
X121395295Y-72285713D01*
X121395295Y-72285713D02*
X121633390Y-72285713D01*
X121633390Y-72285713D02*
X121728628Y-72238094D01*
X121728628Y-72238094D02*
X121776247Y-72190475D01*
X121776247Y-72190475D02*
X121823866Y-72095237D01*
X121823866Y-72095237D02*
X121823866Y-71904761D01*
X121823866Y-71904761D02*
X121776247Y-71809523D01*
X121776247Y-71809523D02*
X121728628Y-71761904D01*
X121728628Y-71761904D02*
X121633390Y-71714285D01*
D13*
%TO.C,J4*%
X122977500Y-60540000D02*
X122977500Y-62660000D01*
X125037500Y-60540000D02*
X122977500Y-60540000D01*
X125037500Y-60540000D02*
X125037500Y-62660000D01*
X125037500Y-62660000D02*
X122977500Y-62660000D01*
X126037500Y-60540000D02*
X127097500Y-60540000D01*
X127097500Y-60540000D02*
X127097500Y-61600000D01*
D14*
%TO.C,Y1*%
X159465981Y-69109545D02*
X160415981Y-69109545D01*
X159465981Y-80509545D02*
X159465981Y-69109545D01*
X160415981Y-80509545D02*
X159465981Y-80509545D01*
D10*
X161815981Y-66809545D02*
X161815981Y-66809545D01*
X161815981Y-66909544D02*
X161815981Y-66909544D01*
D14*
X163215981Y-69109545D02*
X164165981Y-69109545D01*
X164165981Y-69109545D02*
X164165981Y-80509545D01*
X164165981Y-80509545D02*
X163215981Y-80509545D01*
D10*
X161815981Y-66809545D02*
G75*
G02*
X161815981Y-66909545I0J-50000D01*
G01*
X161815981Y-66909544D02*
G75*
G02*
X161815981Y-66809544I1J50000D01*
G01*
D13*
%TO.C,C4*%
X157104729Y-52049545D02*
X158527233Y-52049545D01*
X157104729Y-53869545D02*
X158527233Y-53869545D01*
%TO.C,C19*%
X143861253Y-80665000D02*
X143338747Y-80665000D01*
X143861253Y-82135000D02*
X143338747Y-82135000D01*
%TO.C,C7*%
X129291233Y-64890000D02*
X129583767Y-64890000D01*
X129291233Y-65910000D02*
X129583767Y-65910000D01*
%TO.C,R18*%
X154077500Y-65945276D02*
X154077500Y-66454724D01*
X155122500Y-65945276D02*
X155122500Y-66454724D01*
%TO.C,R17*%
X149545276Y-62277500D02*
X150054724Y-62277500D01*
X149545276Y-63322500D02*
X150054724Y-63322500D01*
%TO.C,R14*%
X131915000Y-80254724D02*
X131915000Y-79745276D01*
X132960000Y-80254724D02*
X132960000Y-79745276D01*
%TO.C,R20*%
X139077500Y-66545276D02*
X139077500Y-67054724D01*
X140122500Y-66545276D02*
X140122500Y-67054724D01*
%TO.C,C6*%
X126740000Y-54911254D02*
X126740000Y-53488750D01*
X129460000Y-54911254D02*
X129460000Y-53488750D01*
%TO.C,R7*%
X132115000Y-64345276D02*
X132115000Y-64854724D01*
X133160000Y-64345276D02*
X133160000Y-64854724D01*
%TO.C,R11*%
X128982776Y-80477500D02*
X129492224Y-80477500D01*
X128982776Y-81522500D02*
X129492224Y-81522500D01*
%TO.C,U3*%
X147300000Y-67810000D02*
X146500000Y-67810000D01*
X147300000Y-67810000D02*
X148100000Y-67810000D01*
X148300000Y-64590000D02*
X146500000Y-64590000D01*
X148840000Y-68090000D02*
X148360000Y-68090000D01*
X148600001Y-67760000D01*
X148840000Y-68090000D01*
G36*
X148840000Y-68090000D02*
G01*
X148360000Y-68090000D01*
X148600001Y-67760000D01*
X148840000Y-68090000D01*
G37*
%TO.C,J3*%
X122977500Y-81740000D02*
X122977500Y-83860000D01*
X125037500Y-81740000D02*
X122977500Y-81740000D01*
X125037500Y-81740000D02*
X125037500Y-83860000D01*
X125037500Y-83860000D02*
X122977500Y-83860000D01*
X126037500Y-81740000D02*
X127097500Y-81740000D01*
X127097500Y-81740000D02*
X127097500Y-82800000D01*
%TO.C,C15*%
X133563748Y-75490000D02*
X134986252Y-75490000D01*
X133563748Y-77310000D02*
X134986252Y-77310000D01*
%TO.C,R19*%
X141077500Y-66545276D02*
X141077500Y-67054724D01*
X142122500Y-66545276D02*
X142122500Y-67054724D01*
%TO.C,C1*%
X146840000Y-56311252D02*
X146840000Y-54888748D01*
X149560000Y-56311252D02*
X149560000Y-54888748D01*
%TO.C,R5*%
X129692224Y-60877500D02*
X129182776Y-60877500D01*
X129692224Y-61922500D02*
X129182776Y-61922500D01*
%TO.C,U2*%
X124877500Y-72162498D02*
X124877500Y-70212498D01*
X124877500Y-72162498D02*
X124877500Y-74112498D01*
X129997500Y-72162498D02*
X129997500Y-70212498D01*
X129997500Y-72162498D02*
X129997500Y-74112498D01*
X130232500Y-69702498D02*
X129902500Y-69462498D01*
X130232500Y-69222498D01*
X130232500Y-69702498D01*
G36*
X130232500Y-69702498D02*
G01*
X129902500Y-69462498D01*
X130232500Y-69222498D01*
X130232500Y-69702498D01*
G37*
%TO.C,C22*%
X156305981Y-78913277D02*
X156305981Y-79205811D01*
X157325981Y-78913277D02*
X157325981Y-79205811D01*
%TO.C,R4*%
X129182776Y-62877500D02*
X129692224Y-62877500D01*
X129182776Y-63922500D02*
X129692224Y-63922500D01*
D10*
%TO.C,L2*%
X130525000Y-57450003D02*
X130275000Y-57450003D01*
X130525000Y-59450003D02*
X130275000Y-59450003D01*
X131825000Y-57950003D02*
G75*
G02*
X131625000Y-57950003I-100000J0D01*
G01*
X131625000Y-57950003D02*
G75*
G02*
X131825000Y-57950003I100000J0D01*
G01*
D13*
%TO.C,C11*%
X130727500Y-72911252D02*
X130727500Y-71488748D01*
X132547500Y-72911252D02*
X132547500Y-71488748D01*
%TO.C,R12*%
X129492224Y-82477500D02*
X128982776Y-82477500D01*
X129492224Y-83522500D02*
X128982776Y-83522500D01*
%TO.C,R16*%
X143077500Y-67054724D02*
X143077500Y-66545276D01*
X144122500Y-67054724D02*
X144122500Y-66545276D01*
%TO.C,C16*%
X151065000Y-65938747D02*
X151065000Y-66461253D01*
X152535000Y-65938747D02*
X152535000Y-66461253D01*
%TO.C,D4*%
X156065000Y-64540000D02*
X156065000Y-67000000D01*
X157535000Y-64540000D02*
X156065000Y-64540000D01*
X157535000Y-67000000D02*
X157535000Y-64540000D01*
%TO.C,C5*%
X131240000Y-54911252D02*
X131240000Y-53488748D01*
X133960000Y-54911252D02*
X133960000Y-53488748D01*
%TO.C,C8*%
X125327500Y-64888748D02*
X125327500Y-66311252D01*
X127147500Y-64888748D02*
X127147500Y-66311252D01*
%TO.C,C9*%
X133726248Y-67090000D02*
X135148752Y-67090000D01*
X133726248Y-68910000D02*
X135148752Y-68910000D01*
%TO.C,C14*%
X125127500Y-79511252D02*
X125127500Y-78088748D01*
X126947500Y-79511252D02*
X126947500Y-78088748D01*
%TO.C,C21*%
X156305982Y-70705813D02*
X156305982Y-70413279D01*
X157325982Y-70705813D02*
X157325982Y-70413279D01*
%TO.C,U1*%
X156205981Y-57609545D02*
X156205981Y-56809545D01*
X156205981Y-57609545D02*
X156205981Y-58409545D01*
X159425981Y-58609545D02*
X159425981Y-56809545D01*
X156255981Y-58909546D02*
X155925981Y-59149545D01*
X155925981Y-58669545D01*
X156255981Y-58909546D01*
G36*
X156255981Y-58909546D02*
G01*
X155925981Y-59149545D01*
X155925981Y-58669545D01*
X156255981Y-58909546D01*
G37*
%TO.C,R13*%
X128982776Y-76477500D02*
X129492224Y-76477500D01*
X128982776Y-77522500D02*
X129492224Y-77522500D01*
%TO.C,R8*%
X135492224Y-69877500D02*
X134982776Y-69877500D01*
X135492224Y-70922500D02*
X134982776Y-70922500D01*
%TO.C,C2*%
X151840000Y-56311252D02*
X151840000Y-54888748D01*
X154560000Y-56311252D02*
X154560000Y-54888748D01*
D10*
%TO.C,L1*%
X150475000Y-58800000D02*
X150725000Y-58800000D01*
X150475000Y-60800000D02*
X150725000Y-60800000D01*
X149375000Y-60300000D02*
G75*
G02*
X149175000Y-60300000I-100000J0D01*
G01*
X149175000Y-60300000D02*
G75*
G02*
X149375000Y-60300000I100000J0D01*
G01*
D13*
%TO.C,D5*%
X136255982Y-60699545D02*
X136255982Y-61919547D01*
X136255982Y-60699545D02*
X137565982Y-60699545D01*
X136255982Y-61919547D02*
X137565982Y-61919547D01*
%TO.C,C13*%
X129091233Y-78490000D02*
X129383767Y-78490000D01*
X129091233Y-79510000D02*
X129383767Y-79510000D01*
%TO.C,C24*%
X153232229Y-72074545D02*
X153754735Y-72074545D01*
X153232229Y-73544545D02*
X153754735Y-73544545D01*
%TO.C,C23*%
X153232230Y-78324546D02*
X153754736Y-78324546D01*
X153232230Y-79794546D02*
X153754736Y-79794546D01*
%TO.C,C3*%
X157104729Y-61299545D02*
X158527233Y-61299545D01*
X157104729Y-63119545D02*
X158527233Y-63119545D01*
%TO.C,C17*%
X153232229Y-69324546D02*
X153754735Y-69324546D01*
X153232229Y-70794546D02*
X153754735Y-70794546D01*
%TO.C,R15*%
X135529724Y-73477500D02*
X135020276Y-73477500D01*
X135529724Y-74522500D02*
X135020276Y-74522500D01*
%TO.C,R10*%
X122727500Y-76745276D02*
X122727500Y-77254724D01*
X123772500Y-76745276D02*
X123772500Y-77254724D01*
%TO.C,D2*%
X144875981Y-60699545D02*
X143565981Y-60699545D01*
X144875981Y-61919547D02*
X143565981Y-61919547D01*
X144875981Y-61919547D02*
X144875981Y-60699545D01*
%TO.C,J2*%
X135895981Y-54909546D02*
X135895981Y-56609546D01*
X145235981Y-54909546D02*
X145235981Y-56609546D01*
%TO.C,C18*%
X153232227Y-75824546D02*
X153754733Y-75824546D01*
X153232227Y-77294546D02*
X153754733Y-77294546D01*
%TO.C,R6*%
X129182776Y-66877500D02*
X129692224Y-66877500D01*
X129182776Y-67922500D02*
X129692224Y-67922500D01*
D14*
%TO.C,IC1*%
X141865982Y-69509546D02*
X143665982Y-69509545D01*
X144015982Y-69209546D02*
X148615982Y-69209546D01*
X144015982Y-79409546D02*
X144015982Y-69209546D01*
X148615982Y-69209546D02*
X148615982Y-79409546D01*
X148615982Y-79409546D02*
X144015982Y-79409546D01*
D13*
%TO.C,C20*%
X138765000Y-72438747D02*
X138765000Y-72961253D01*
X140235000Y-72438747D02*
X140235000Y-72961253D01*
%TO.C,D3*%
X139005980Y-62600000D02*
X139005981Y-61800000D01*
X139005980Y-62600000D02*
X139005981Y-63400000D01*
X142125982Y-62600000D02*
X142125981Y-61800000D01*
X142125982Y-62600000D02*
X142125981Y-63400000D01*
X142405981Y-61540000D02*
X142075981Y-61300000D01*
X142405981Y-61060000D01*
X142405981Y-61540000D01*
G36*
X142405981Y-61540000D02*
G01*
X142075981Y-61300000D01*
X142405981Y-61060000D01*
X142405981Y-61540000D01*
G37*
%TO.C,R21*%
X156293481Y-74554821D02*
X156293481Y-75064269D01*
X157338481Y-74554821D02*
X157338481Y-75064269D01*
%TO.C,R9*%
X122727500Y-72245276D02*
X122727500Y-72754724D01*
X123772500Y-72245276D02*
X123772500Y-72754724D01*
%TD*%
%LPC*%
D15*
%TO.C,J4*%
X126037500Y-61600000D03*
D16*
X124037499Y-61600000D03*
%TD*%
D17*
%TO.C,REF\u002A\u002A*%
X123600000Y-54200000D03*
%TD*%
D18*
%TO.C,Y1*%
X161815981Y-70059545D03*
X161815981Y-79559545D03*
%TD*%
D19*
%TO.C,C4*%
X156253481Y-52959545D03*
X159378481Y-52959545D03*
%TD*%
D20*
%TO.C,C19*%
X144637500Y-81400000D03*
X142562500Y-81400000D03*
%TD*%
D21*
%TO.C,C7*%
X128574999Y-65400000D03*
X130300001Y-65400000D03*
%TD*%
D22*
%TO.C,R18*%
X154600000Y-65287500D03*
X154600000Y-67112500D03*
%TD*%
D23*
%TO.C,R17*%
X148887500Y-62800000D03*
X150712500Y-62800000D03*
%TD*%
D24*
%TO.C,R14*%
X132437500Y-80912500D03*
X132437500Y-79087500D03*
%TD*%
D22*
%TO.C,R20*%
X139600000Y-65887500D03*
X139600000Y-67712500D03*
%TD*%
D25*
%TO.C,C6*%
X128100000Y-55762502D03*
X128100000Y-52637502D03*
%TD*%
D22*
%TO.C,R7*%
X132637500Y-63687500D03*
X132637500Y-65512500D03*
%TD*%
D23*
%TO.C,R11*%
X128325000Y-81000000D03*
X130150000Y-81000000D03*
%TD*%
D26*
%TO.C,U3*%
X148750000Y-67150000D03*
X148750000Y-66200000D03*
X148750000Y-65250000D03*
X146050000Y-65250000D03*
X146050000Y-67150000D03*
%TD*%
D15*
%TO.C,J3*%
X126037500Y-82800000D03*
D16*
X124037499Y-82800000D03*
%TD*%
D19*
%TO.C,C15*%
X132712500Y-76400000D03*
X135837500Y-76400000D03*
%TD*%
D22*
%TO.C,R19*%
X141600000Y-65887500D03*
X141600000Y-67712500D03*
%TD*%
D25*
%TO.C,C1*%
X148200000Y-57162500D03*
X148200000Y-54037500D03*
%TD*%
D27*
%TO.C,R5*%
X130350000Y-61400000D03*
X128525000Y-61400000D03*
%TD*%
D28*
%TO.C,U2*%
X129342500Y-69687498D03*
X128072500Y-69687498D03*
X126802500Y-69687498D03*
X125532500Y-69687498D03*
X125532500Y-74637498D03*
X126802500Y-74637498D03*
X128072500Y-74637498D03*
X129342500Y-74637498D03*
%TD*%
D29*
%TO.C,C22*%
X156815981Y-78197043D03*
X156815981Y-79922045D03*
%TD*%
D23*
%TO.C,R4*%
X128525000Y-63400000D03*
X130350000Y-63400000D03*
%TD*%
D17*
%TO.C,REF\u002A\u002A*%
X162600000Y-55600000D03*
%TD*%
D30*
%TO.C,L2*%
X131075000Y-58450003D03*
X129725000Y-58450003D03*
%TD*%
D31*
%TO.C,C11*%
X131637500Y-73762500D03*
X131637500Y-70637500D03*
%TD*%
D17*
%TO.C,REF\u002A\u002A*%
X138400000Y-82400000D03*
%TD*%
D27*
%TO.C,R12*%
X130150000Y-83000000D03*
X128325000Y-83000000D03*
%TD*%
D24*
%TO.C,R16*%
X143600000Y-67712500D03*
X143600000Y-65887500D03*
%TD*%
D32*
%TO.C,C16*%
X151800000Y-65162500D03*
X151800000Y-67237500D03*
%TD*%
D33*
%TO.C,D4*%
X156800000Y-65325001D03*
X156800000Y-67074999D03*
%TD*%
D25*
%TO.C,C5*%
X132600000Y-55762500D03*
X132600000Y-52637500D03*
%TD*%
D34*
%TO.C,C8*%
X126237500Y-64037500D03*
X126237500Y-67162500D03*
%TD*%
D19*
%TO.C,C9*%
X132875000Y-68000000D03*
X136000000Y-68000000D03*
%TD*%
D31*
%TO.C,C14*%
X126037500Y-80362500D03*
X126037500Y-77237500D03*
%TD*%
D35*
%TO.C,C21*%
X156815982Y-71422047D03*
X156815982Y-69697045D03*
%TD*%
D36*
%TO.C,U1*%
X156865981Y-59059545D03*
X157815981Y-59059545D03*
X158765981Y-59059545D03*
X158765981Y-56359545D03*
X156865981Y-56359545D03*
%TD*%
D23*
%TO.C,R13*%
X128325000Y-77000000D03*
X130150000Y-77000000D03*
%TD*%
D27*
%TO.C,R8*%
X136150000Y-70400000D03*
X134325000Y-70400000D03*
%TD*%
D25*
%TO.C,C2*%
X153200000Y-57162500D03*
X153200000Y-54037500D03*
%TD*%
D37*
%TO.C,L1*%
X149925000Y-59800000D03*
X151275000Y-59800000D03*
%TD*%
D38*
%TO.C,D5*%
X136715983Y-61309546D03*
X137415981Y-61309546D03*
%TD*%
D21*
%TO.C,C13*%
X128374999Y-79000000D03*
X130100001Y-79000000D03*
%TD*%
D39*
%TO.C,C24*%
X152455982Y-72809545D03*
X154530982Y-72809545D03*
%TD*%
%TO.C,C23*%
X152455983Y-79059546D03*
X154530983Y-79059546D03*
%TD*%
D19*
%TO.C,C3*%
X156253481Y-62209545D03*
X159378481Y-62209545D03*
%TD*%
D39*
%TO.C,C17*%
X152455982Y-70059546D03*
X154530982Y-70059546D03*
%TD*%
D27*
%TO.C,R15*%
X136187500Y-74000000D03*
X134362500Y-74000000D03*
%TD*%
D22*
%TO.C,R10*%
X123250000Y-76087500D03*
X123250000Y-77912500D03*
%TD*%
D40*
%TO.C,D2*%
X144415980Y-61309546D03*
X143715982Y-61309546D03*
%TD*%
D41*
%TO.C,J2*%
X143455981Y-57414546D03*
X137675981Y-57414546D03*
D42*
X143765981Y-58489546D03*
X142965981Y-58489546D03*
D43*
X141815981Y-58489545D03*
X140815981Y-58489546D03*
X140315981Y-58489546D03*
X139315981Y-58489545D03*
D42*
X138165981Y-58489546D03*
X137365981Y-58489546D03*
X137365981Y-58489546D03*
X138165981Y-58489546D03*
D43*
X138815981Y-58489546D03*
X139815981Y-58489546D03*
X141315981Y-58489546D03*
X142315981Y-58489546D03*
D42*
X142965981Y-58489546D03*
X143765981Y-58489546D03*
D44*
X144885981Y-57914546D03*
D45*
X144885981Y-53734546D03*
D44*
X136245981Y-57914546D03*
D45*
X136245981Y-53734546D03*
%TD*%
D39*
%TO.C,C18*%
X152455980Y-76559546D03*
X154530980Y-76559546D03*
%TD*%
D23*
%TO.C,R6*%
X128525000Y-67400000D03*
X130350000Y-67400000D03*
%TD*%
D46*
%TO.C,IC1*%
X142765982Y-70084546D03*
X142765982Y-70734546D03*
X142765982Y-71384546D03*
X142765982Y-72034546D03*
X142765981Y-72684546D03*
X142765982Y-73334546D03*
X142765982Y-73984546D03*
X142765982Y-74634546D03*
X142765982Y-75284546D03*
X142765981Y-75934546D03*
X142765982Y-76584546D03*
X142765982Y-77234546D03*
X142765982Y-77884546D03*
X142765982Y-78534546D03*
X149865982Y-78534546D03*
X149865982Y-77884546D03*
X149865982Y-77234546D03*
X149865982Y-76584546D03*
X149865983Y-75934546D03*
X149865982Y-75284546D03*
X149865982Y-74634546D03*
X149865982Y-73984546D03*
X149865982Y-73334546D03*
X149865983Y-72684546D03*
X149865982Y-72034546D03*
X149865982Y-71384546D03*
X149865982Y-70734546D03*
X149865982Y-70084546D03*
%TD*%
D32*
%TO.C,C20*%
X139500000Y-71662500D03*
X139500000Y-73737500D03*
%TD*%
D47*
%TO.C,D3*%
X141515980Y-61462500D03*
X139615982Y-61462500D03*
X140565981Y-63737500D03*
%TD*%
D22*
%TO.C,R21*%
X156815981Y-73897045D03*
X156815981Y-75722045D03*
%TD*%
%TO.C,R9*%
X123250000Y-71587500D03*
X123250000Y-73412500D03*
%TD*%
G36*
X143743039Y-79019685D02*
G01*
X143788794Y-79072489D01*
X143800000Y-79124000D01*
X143800000Y-79276000D01*
X143780315Y-79343039D01*
X143727511Y-79388794D01*
X143676000Y-79400000D01*
X141924000Y-79400000D01*
X141856961Y-79380315D01*
X141811206Y-79327511D01*
X141800000Y-79276000D01*
X141800000Y-79124000D01*
X141819685Y-79056961D01*
X141872489Y-79011206D01*
X141924000Y-79000000D01*
X143676000Y-79000000D01*
X143743039Y-79019685D01*
G37*
G36*
X150743039Y-79019685D02*
G01*
X150788794Y-79072489D01*
X150800000Y-79124000D01*
X150800000Y-79276000D01*
X150780315Y-79343039D01*
X150727511Y-79388794D01*
X150676000Y-79400000D01*
X148924000Y-79400000D01*
X148856961Y-79380315D01*
X148811206Y-79327511D01*
X148800000Y-79276000D01*
X148800000Y-79124000D01*
X148819685Y-79056961D01*
X148872489Y-79011206D01*
X148924000Y-79000000D01*
X150676000Y-79000000D01*
X150743039Y-79019685D01*
G37*
G36*
X135920929Y-73694936D02*
G01*
X135946009Y-73709506D01*
X136541262Y-74155947D01*
X136583083Y-74211918D01*
X136589616Y-74272683D01*
X136412836Y-75510145D01*
X136383868Y-75573727D01*
X136325124Y-75611555D01*
X136310467Y-75614922D01*
X135390952Y-75768174D01*
X135321589Y-75759778D01*
X135267776Y-75715215D01*
X135246598Y-75648632D01*
X135250936Y-75613234D01*
X135751978Y-73776079D01*
X135788608Y-73716582D01*
X135851591Y-73686333D01*
X135920929Y-73694936D01*
G37*
G36*
X135573927Y-68428987D02*
G01*
X136496385Y-68582730D01*
X136559277Y-68613168D01*
X136595728Y-68672776D01*
X136600000Y-68705043D01*
X136600000Y-69938000D01*
X136580315Y-70005039D01*
X136550400Y-70037200D01*
X135960509Y-70479618D01*
X135895067Y-70504094D01*
X135826780Y-70489304D01*
X135777330Y-70439943D01*
X135764109Y-70402600D01*
X135431542Y-68573482D01*
X135438917Y-68504002D01*
X135482684Y-68449540D01*
X135548948Y-68427385D01*
X135573927Y-68428987D01*
G37*
%LPD*%
M02*
