%TF.GenerationSoftware,KiCad,Pcbnew,8.0.4*%
%TF.CreationDate,2024-10-06T13:03:41-05:00*%
%TF.ProjectId,BinauralMic,42696e61-7572-4616-9c4d-69632e6b6963,rev?*%
%TF.SameCoordinates,Original*%
%TF.FileFunction,Copper,L3,Inr*%
%TF.FilePolarity,Positive*%
%FSLAX46Y46*%
G04 Gerber Fmt 4.6, Leading zero omitted, Abs format (unit mm)*
G04 Created by KiCad (PCBNEW 8.0.4) date 2024-10-06 13:03:41*
%MOMM*%
%LPD*%
G01*
G04 APERTURE LIST*
%TA.AperFunction,ComponentPad*%
%ADD10R,1.350000X1.350000*%
%TD*%
%TA.AperFunction,ComponentPad*%
%ADD11O,1.350000X1.350000*%
%TD*%
%TA.AperFunction,ComponentPad*%
%ADD12O,1.000000X2.100000*%
%TD*%
%TA.AperFunction,ComponentPad*%
%ADD13O,1.000000X1.800000*%
%TD*%
%TA.AperFunction,ViaPad*%
%ADD14C,0.600000*%
%TD*%
%TA.AperFunction,ViaPad*%
%ADD15C,0.800000*%
%TD*%
%TA.AperFunction,Conductor*%
%ADD16C,0.200000*%
%TD*%
%TA.AperFunction,Conductor*%
%ADD17C,0.400000*%
%TD*%
G04 APERTURE END LIST*
D10*
%TO.N,/VRAW_{L}*%
%TO.C,J4*%
X126037500Y-61600000D03*
D11*
%TO.N,/VCOM*%
X124037499Y-61600000D03*
%TD*%
D10*
%TO.N,/VRAW_{R}*%
%TO.C,J3*%
X126037500Y-82800000D03*
D11*
%TO.N,/VCOM*%
X124037499Y-82800000D03*
%TD*%
D12*
%TO.N,unconnected-(J2-SHIELD-PadS1)_1*%
%TO.C,J2*%
X144885981Y-57914546D03*
D13*
%TO.N,unconnected-(J2-SHIELD-PadS1)_2*%
X144885981Y-53734546D03*
D12*
%TO.N,unconnected-(J2-SHIELD-PadS1)*%
X136245981Y-57914546D03*
D13*
%TO.N,unconnected-(J2-SHIELD-PadS1)_3*%
X136245981Y-53734546D03*
%TD*%
D14*
%TO.N,GND*%
X143250000Y-54750000D03*
X140500000Y-54000000D03*
X141000000Y-53000000D03*
X137500000Y-54750000D03*
X143250000Y-53000000D03*
X142250000Y-53000000D03*
X140000000Y-53000000D03*
X138750000Y-53000000D03*
X137500000Y-53000000D03*
%TO.N,+3.3VA*%
X128500000Y-57100000D03*
X127200000Y-57100000D03*
X128500000Y-58400000D03*
X131400000Y-60000000D03*
X130400000Y-60000000D03*
X127800000Y-57700000D03*
X128400000Y-60000000D03*
X129900000Y-73300000D03*
X123500000Y-70500000D03*
X129400000Y-60000000D03*
X130400000Y-74000000D03*
%TO.N,GND*%
X161800000Y-59400000D03*
X154200000Y-71600000D03*
X149200000Y-64000000D03*
X139600000Y-78400000D03*
X124400000Y-58600000D03*
X149200000Y-82400000D03*
D15*
X145400000Y-61200000D03*
D14*
X161800000Y-62400000D03*
X151200000Y-81400000D03*
X158200000Y-54400000D03*
X137600000Y-78400000D03*
X160800000Y-62400000D03*
X133600000Y-72900000D03*
X152200000Y-81400000D03*
X150200000Y-81400000D03*
X150400000Y-64600000D03*
X124400000Y-59600000D03*
X151200000Y-82400000D03*
X141370013Y-72396168D03*
X160800000Y-60400000D03*
X164800000Y-63400000D03*
X125400000Y-57600000D03*
X157800000Y-53800000D03*
X158200000Y-51600000D03*
X126400000Y-59600000D03*
X162800000Y-63400000D03*
X123400000Y-57600000D03*
X157815981Y-60400000D03*
D15*
X136800000Y-63400000D03*
D14*
X122400000Y-59600000D03*
X154200000Y-80400000D03*
X148200000Y-82400000D03*
X122400000Y-57600000D03*
X150200000Y-80400000D03*
X157800000Y-53000000D03*
X163800000Y-59400000D03*
X124400000Y-57600000D03*
X147200000Y-81400000D03*
X136600000Y-78400000D03*
X134700000Y-71600000D03*
X152200000Y-82400000D03*
X155200000Y-81400000D03*
X160800000Y-59400000D03*
X157800000Y-62400000D03*
X138600000Y-78400000D03*
X146200000Y-81400000D03*
X162800000Y-58400000D03*
X164800000Y-60400000D03*
X127400000Y-59600000D03*
X155200000Y-80400000D03*
X133600000Y-71600000D03*
X132400000Y-59800000D03*
X159800000Y-63400000D03*
X135400000Y-59800000D03*
X134600000Y-83400000D03*
D15*
X145600000Y-60200000D03*
D14*
X121400000Y-58600000D03*
X162800000Y-61400000D03*
X125300000Y-71200000D03*
X148200000Y-80400000D03*
X150000000Y-63800000D03*
X157800000Y-52200000D03*
X157800000Y-61400000D03*
X121400000Y-56600000D03*
X135600000Y-83400000D03*
X153200000Y-81400000D03*
X159800000Y-58400000D03*
X134600000Y-82400000D03*
X162800000Y-62400000D03*
X150200000Y-82400000D03*
X164800000Y-59400000D03*
X155400000Y-69697045D03*
X146200000Y-82400000D03*
X121400000Y-59600000D03*
X154800000Y-71200000D03*
X135600000Y-78400000D03*
X148200000Y-81400000D03*
X160800000Y-58400000D03*
X126400000Y-58600000D03*
X123400000Y-59600000D03*
X161800000Y-60400000D03*
X160800000Y-61400000D03*
X125400000Y-56600000D03*
X151200000Y-64000000D03*
X133400000Y-59800000D03*
X147200000Y-80400000D03*
X149200000Y-81400000D03*
X134200000Y-72200000D03*
X153200000Y-82400000D03*
X134400000Y-59800000D03*
X164800000Y-62400000D03*
X125400000Y-58600000D03*
X125300000Y-72100000D03*
X163800000Y-58400000D03*
X161800000Y-61400000D03*
X135600000Y-82400000D03*
X121400000Y-57600000D03*
X122400000Y-58600000D03*
D15*
X136200000Y-62600000D03*
D14*
X123500000Y-79000000D03*
X122400000Y-56600000D03*
X164800000Y-61400000D03*
X151200000Y-80400000D03*
X164800000Y-58400000D03*
X135600000Y-81400000D03*
X152200000Y-80400000D03*
X134600000Y-84400000D03*
X155200000Y-82400000D03*
X135600000Y-84400000D03*
X161800000Y-63400000D03*
X123400000Y-58600000D03*
X158800000Y-63400000D03*
X163800000Y-60400000D03*
X146200000Y-80400000D03*
X154200000Y-81400000D03*
X125400000Y-59600000D03*
X134700000Y-72900000D03*
X160800000Y-63400000D03*
X162800000Y-59400000D03*
X140565981Y-62359545D03*
X147200000Y-82400000D03*
X154200000Y-82400000D03*
X149200000Y-80400000D03*
X163800000Y-61400000D03*
X163800000Y-62400000D03*
X162800000Y-60400000D03*
X159800000Y-59400000D03*
X161800000Y-58400000D03*
X163800000Y-63400000D03*
X153200000Y-80400000D03*
D15*
%TO.N,VCC*%
X153600000Y-52400000D03*
D14*
X132600000Y-57600000D03*
X133200000Y-57000000D03*
X150200000Y-68200000D03*
D15*
X151200000Y-52400000D03*
D14*
X145400000Y-68200000D03*
D15*
X150000000Y-52400000D03*
D14*
X132000000Y-58200000D03*
X149000000Y-68200000D03*
X147200000Y-68800000D03*
X146000000Y-68800000D03*
D15*
X152400000Y-52400000D03*
D14*
X148400000Y-68800000D03*
X147800000Y-68200000D03*
X132000000Y-57000000D03*
D15*
X154800000Y-52400000D03*
D14*
X146600000Y-68200000D03*
X149600000Y-68800000D03*
%TO.N,/VCOM*%
X142562500Y-79812500D03*
D15*
X123250000Y-74750000D03*
%TO.N,/VBUS*%
X144065981Y-63059545D03*
D14*
X141200000Y-74800000D03*
D15*
X145200000Y-63059546D03*
X137415982Y-62215982D03*
X138017025Y-62817025D03*
%TO.N,+5V*%
X154200000Y-63200000D03*
X132000000Y-83000000D03*
X154200000Y-62200000D03*
X133400000Y-61600000D03*
D14*
%TO.N,/D-*%
X140116128Y-57216128D03*
X141350000Y-57250000D03*
%TO.N,/Connectors/CC1*%
X141849757Y-56625303D03*
%TO.N,/Connectors/CC2*%
X138815982Y-57059547D03*
%TD*%
D16*
%TO.N,/D-*%
X141316128Y-57216128D02*
X140116128Y-57216128D01*
X141350000Y-57250000D02*
X141316128Y-57216128D01*
D17*
%TO.N,/VCOM*%
X122500000Y-63137499D02*
X122500000Y-74000000D01*
X124037499Y-82800000D02*
X122500000Y-81262501D01*
X122500000Y-81262501D02*
X122500000Y-75500000D01*
X124037499Y-61600000D02*
X122500000Y-63137499D01*
X122500000Y-75500000D02*
X123250000Y-74750000D01*
X122500000Y-74000000D02*
X123250000Y-74750000D01*
%TO.N,+5V*%
X154200000Y-63200000D02*
X154200000Y-62200000D01*
X132000000Y-83000000D02*
X132010050Y-83000000D01*
X133400000Y-61600000D02*
X133400000Y-64150000D01*
X154200000Y-65800000D02*
X154200000Y-63200000D01*
X133400000Y-64150000D02*
X140750000Y-71500000D01*
X132010050Y-83000000D02*
X135260050Y-79750000D01*
X140750000Y-71500000D02*
X148500000Y-71500000D01*
X148750000Y-71250000D02*
X154200000Y-65800000D01*
X140250000Y-79750000D02*
X148750000Y-71250000D01*
X148500000Y-71500000D02*
X148750000Y-71250000D01*
X135260050Y-79750000D02*
X140250000Y-79750000D01*
%TD*%
%TA.AperFunction,Conductor*%
%TO.N,GND*%
G36*
X130186629Y-51279731D02*
G01*
X130232384Y-51332535D01*
X130242328Y-51401693D01*
X130231683Y-51437066D01*
X130214871Y-51472608D01*
X130214853Y-51472649D01*
X130205573Y-51495050D01*
X130205558Y-51495087D01*
X130188842Y-51541805D01*
X130144164Y-51689093D01*
X130139023Y-51706042D01*
X130126971Y-51754157D01*
X130126970Y-51754159D01*
X130122228Y-51777993D01*
X130114954Y-51827036D01*
X130114949Y-51827080D01*
X130097530Y-52003944D01*
X130095706Y-52028671D01*
X130095109Y-52040830D01*
X130094500Y-52065654D01*
X130094500Y-56980254D01*
X130074815Y-57047293D01*
X130022011Y-57093048D01*
X129952853Y-57102992D01*
X129889297Y-57073967D01*
X129882819Y-57067935D01*
X128954655Y-56139771D01*
X128954647Y-56139763D01*
X128954644Y-56139760D01*
X128936684Y-56122659D01*
X128932309Y-56118694D01*
X128927652Y-56114472D01*
X128908877Y-56098277D01*
X128771492Y-55985527D01*
X128771476Y-55985515D01*
X128731645Y-55955975D01*
X128731642Y-55955973D01*
X128731634Y-55955967D01*
X128711422Y-55942462D01*
X128711411Y-55942455D01*
X128711406Y-55942452D01*
X128711402Y-55942449D01*
X128668909Y-55916979D01*
X128668866Y-55916955D01*
X128517557Y-55836079D01*
X128517545Y-55836072D01*
X128507069Y-55831117D01*
X128472706Y-55814864D01*
X128472699Y-55814861D01*
X128450260Y-55805565D01*
X128403523Y-55788841D01*
X128239291Y-55739022D01*
X128215138Y-55732972D01*
X128191160Y-55726967D01*
X128167332Y-55722228D01*
X128167327Y-55722227D01*
X128167330Y-55722227D01*
X128118281Y-55714952D01*
X128118261Y-55714950D01*
X127941386Y-55697530D01*
X127916659Y-55695706D01*
X127904500Y-55695109D01*
X127897259Y-55694931D01*
X127879693Y-55694500D01*
X127420307Y-55694500D01*
X127403443Y-55694914D01*
X127395499Y-55695109D01*
X127383340Y-55695706D01*
X127358613Y-55697530D01*
X127181736Y-55714950D01*
X127181716Y-55714952D01*
X127132662Y-55722228D01*
X127116560Y-55725431D01*
X127108825Y-55726970D01*
X127092703Y-55731008D01*
X127060715Y-55739021D01*
X126896472Y-55788842D01*
X126849754Y-55805558D01*
X126849717Y-55805573D01*
X126827316Y-55814853D01*
X126827292Y-55814863D01*
X126782482Y-55836058D01*
X126782477Y-55836060D01*
X126782472Y-55836063D01*
X126631118Y-55916963D01*
X126631110Y-55916967D01*
X126631104Y-55916971D01*
X126588572Y-55942463D01*
X126575228Y-55951379D01*
X126568370Y-55955962D01*
X126568361Y-55955967D01*
X126568343Y-55955981D01*
X126528520Y-55985516D01*
X126391081Y-56098311D01*
X126372346Y-56114473D01*
X126363318Y-56122656D01*
X126345351Y-56139763D01*
X126339763Y-56145351D01*
X126322656Y-56163318D01*
X126314473Y-56172346D01*
X126298311Y-56191081D01*
X126185516Y-56328520D01*
X126155981Y-56368343D01*
X126155959Y-56368375D01*
X126142463Y-56388572D01*
X126116971Y-56431104D01*
X126116963Y-56431118D01*
X126108357Y-56447219D01*
X126036058Y-56582482D01*
X126014863Y-56627292D01*
X126014853Y-56627316D01*
X126005573Y-56649717D01*
X126005558Y-56649754D01*
X125988842Y-56696472D01*
X125955855Y-56805220D01*
X125939023Y-56860709D01*
X125929056Y-56900500D01*
X125926970Y-56908826D01*
X125922228Y-56932662D01*
X125914952Y-56981716D01*
X125914950Y-56981736D01*
X125897530Y-57158612D01*
X125895706Y-57183339D01*
X125895109Y-57195498D01*
X125895109Y-57195506D01*
X125894500Y-57220306D01*
X125894500Y-57683621D01*
X125900126Y-57754645D01*
X125900804Y-57763202D01*
X125900804Y-57763206D01*
X125906952Y-57801769D01*
X125906952Y-57801771D01*
X125925706Y-57879365D01*
X125925707Y-57879366D01*
X125989452Y-58008353D01*
X125989457Y-58008362D01*
X126029006Y-58065948D01*
X126029007Y-58065949D01*
X126029008Y-58065950D01*
X126126512Y-58171754D01*
X126126514Y-58171755D01*
X126126513Y-58171755D01*
X126249868Y-58245799D01*
X126249874Y-58245802D01*
X126314262Y-58272858D01*
X126314299Y-58272873D01*
X126453521Y-58309163D01*
X126457875Y-58309972D01*
X126457814Y-58310300D01*
X126479240Y-58315189D01*
X126515620Y-58327918D01*
X126540636Y-58339964D01*
X126573264Y-58360466D01*
X126594972Y-58377778D01*
X126622219Y-58405025D01*
X126639532Y-58426734D01*
X126649248Y-58442197D01*
X126649247Y-58442197D01*
X126649250Y-58442201D01*
X126660033Y-58459363D01*
X126672079Y-58484376D01*
X126684808Y-58520752D01*
X126690986Y-58547822D01*
X126693920Y-58573860D01*
X126695354Y-58586583D01*
X126695611Y-58611829D01*
X126694076Y-58628500D01*
X126693352Y-58638622D01*
X126692300Y-58659230D01*
X126692300Y-58659236D01*
X126708407Y-58802205D01*
X126726609Y-58872033D01*
X126728977Y-58876825D01*
X126781771Y-59002466D01*
X126872620Y-59114033D01*
X126923999Y-59161382D01*
X127042602Y-59242837D01*
X127042607Y-59242838D01*
X127042608Y-59242839D01*
X127179339Y-59287575D01*
X127179343Y-59287576D01*
X127179349Y-59287578D01*
X127248171Y-59299633D01*
X127362456Y-59303132D01*
X127391975Y-59304036D01*
X127391978Y-59304035D01*
X127391982Y-59304036D01*
X127391985Y-59304035D01*
X127394255Y-59303943D01*
X127413202Y-59304620D01*
X127435706Y-59307155D01*
X127452169Y-59309010D01*
X127479237Y-59315187D01*
X127515620Y-59327918D01*
X127540636Y-59339966D01*
X127573266Y-59360469D01*
X127594975Y-59377781D01*
X127622216Y-59405022D01*
X127639528Y-59426731D01*
X127660031Y-59459361D01*
X127672080Y-59484379D01*
X127684809Y-59520757D01*
X127690987Y-59547829D01*
X127693385Y-59569114D01*
X127681330Y-59637936D01*
X127675166Y-59648957D01*
X127674213Y-59650473D01*
X127674206Y-59650486D01*
X127633766Y-59766060D01*
X127604402Y-59812791D01*
X127594973Y-59822219D01*
X127573270Y-59839525D01*
X127487089Y-59893678D01*
X127377667Y-59986478D01*
X127331466Y-60038625D01*
X127331465Y-60038626D01*
X127252529Y-60158418D01*
X127252528Y-60158420D01*
X127252527Y-60158422D01*
X127235809Y-60212959D01*
X127210357Y-60295986D01*
X127210357Y-60295987D01*
X127199596Y-60365014D01*
X127199595Y-60365030D01*
X127199511Y-60372083D01*
X127198459Y-60386790D01*
X127192940Y-60428710D01*
X127164673Y-60492606D01*
X127106349Y-60531077D01*
X127036484Y-60531908D01*
X126995690Y-60511791D01*
X126954831Y-60481204D01*
X126954828Y-60481202D01*
X126819982Y-60430908D01*
X126819983Y-60430908D01*
X126760383Y-60424501D01*
X126760381Y-60424500D01*
X126760373Y-60424500D01*
X126760364Y-60424500D01*
X125314629Y-60424500D01*
X125314623Y-60424501D01*
X125255016Y-60430908D01*
X125120171Y-60481202D01*
X125120164Y-60481206D01*
X125004955Y-60567452D01*
X124942714Y-60650595D01*
X124886780Y-60692465D01*
X124817088Y-60697449D01*
X124759910Y-60667921D01*
X124748931Y-60657912D01*
X124748928Y-60657910D01*
X124748927Y-60657909D01*
X124563712Y-60543229D01*
X124563706Y-60543226D01*
X124462461Y-60504004D01*
X124360568Y-60464530D01*
X124146425Y-60424500D01*
X123928573Y-60424500D01*
X123714430Y-60464530D01*
X123689348Y-60474247D01*
X123511291Y-60543226D01*
X123511285Y-60543229D01*
X123326075Y-60657906D01*
X123326065Y-60657913D01*
X123165073Y-60804676D01*
X123033787Y-60978527D01*
X122936683Y-61173537D01*
X122936682Y-61173541D01*
X122881640Y-61366996D01*
X122877063Y-61383081D01*
X122856963Y-61599999D01*
X122856963Y-61600000D01*
X122867694Y-61715814D01*
X122854279Y-61784384D01*
X122831904Y-61814936D01*
X121955887Y-62690953D01*
X121879222Y-62805691D01*
X121826421Y-62933166D01*
X121826418Y-62933178D01*
X121803086Y-63050477D01*
X121803085Y-63050482D01*
X121799500Y-63068501D01*
X121799500Y-63068506D01*
X121799500Y-73931006D01*
X121799500Y-74068994D01*
X121799500Y-74068996D01*
X121799499Y-74068996D01*
X121826418Y-74204322D01*
X121826421Y-74204332D01*
X121879222Y-74331807D01*
X121955887Y-74446545D01*
X122171661Y-74662319D01*
X122205146Y-74723642D01*
X122200162Y-74793334D01*
X122171661Y-74837681D01*
X121955888Y-75053453D01*
X121955887Y-75053454D01*
X121879222Y-75168192D01*
X121826421Y-75295667D01*
X121826421Y-75295669D01*
X121826420Y-75295672D01*
X121799610Y-75430456D01*
X121799500Y-75431007D01*
X121799500Y-81193507D01*
X121799500Y-81331495D01*
X121799500Y-81331497D01*
X121799499Y-81331497D01*
X121826418Y-81466823D01*
X121826421Y-81466833D01*
X121879222Y-81594308D01*
X121955887Y-81709046D01*
X121955888Y-81709047D01*
X122831904Y-82585062D01*
X122865389Y-82646385D01*
X122867694Y-82684183D01*
X122856963Y-82799998D01*
X122856963Y-82800000D01*
X122877063Y-83016918D01*
X122877063Y-83016920D01*
X122877064Y-83016923D01*
X122925813Y-83188259D01*
X122936683Y-83226462D01*
X123019095Y-83391966D01*
X123033787Y-83421472D01*
X123165072Y-83595322D01*
X123326067Y-83742088D01*
X123326074Y-83742092D01*
X123326075Y-83742093D01*
X123511285Y-83856770D01*
X123511291Y-83856773D01*
X123522569Y-83861142D01*
X123714430Y-83935470D01*
X123928573Y-83975500D01*
X123928575Y-83975500D01*
X124146423Y-83975500D01*
X124146425Y-83975500D01*
X124360568Y-83935470D01*
X124563709Y-83856772D01*
X124748931Y-83742088D01*
X124759909Y-83732079D01*
X124822711Y-83701462D01*
X124892098Y-83709658D01*
X124942714Y-83749405D01*
X125004952Y-83832544D01*
X125004955Y-83832547D01*
X125120164Y-83918793D01*
X125120171Y-83918797D01*
X125255017Y-83969091D01*
X125255016Y-83969091D01*
X125261944Y-83969835D01*
X125314627Y-83975500D01*
X126760372Y-83975499D01*
X126819983Y-83969091D01*
X126954831Y-83918796D01*
X127070046Y-83832546D01*
X127156296Y-83717331D01*
X127206591Y-83582483D01*
X127213000Y-83522873D01*
X127212999Y-82077128D01*
X127206591Y-82017517D01*
X127163051Y-81900781D01*
X127156297Y-81882671D01*
X127156293Y-81882664D01*
X127070047Y-81767455D01*
X127070044Y-81767452D01*
X126954835Y-81681206D01*
X126954828Y-81681202D01*
X126819982Y-81630908D01*
X126819983Y-81630908D01*
X126760383Y-81624501D01*
X126760381Y-81624500D01*
X126760373Y-81624500D01*
X126760364Y-81624500D01*
X125314629Y-81624500D01*
X125314623Y-81624501D01*
X125255016Y-81630908D01*
X125120171Y-81681202D01*
X125120164Y-81681206D01*
X125004955Y-81767452D01*
X124942714Y-81850595D01*
X124886780Y-81892465D01*
X124817088Y-81897449D01*
X124759910Y-81867921D01*
X124748931Y-81857912D01*
X124748928Y-81857910D01*
X124748927Y-81857909D01*
X124563712Y-81743229D01*
X124563706Y-81743226D01*
X124478612Y-81710260D01*
X124360568Y-81664530D01*
X124146425Y-81624500D01*
X123928573Y-81624500D01*
X123928571Y-81624500D01*
X123922867Y-81625029D01*
X123922756Y-81623832D01*
X123859326Y-81617407D01*
X123818394Y-81590238D01*
X123236819Y-81008663D01*
X123203334Y-80947340D01*
X123200500Y-80920982D01*
X123200500Y-75841519D01*
X123220185Y-75774480D01*
X123236813Y-75753843D01*
X123312976Y-75677680D01*
X123374295Y-75644198D01*
X123374305Y-75644195D01*
X123529803Y-75611144D01*
X123529807Y-75611142D01*
X123529808Y-75611142D01*
X123588058Y-75585206D01*
X123702730Y-75534151D01*
X123855871Y-75422888D01*
X123982533Y-75282216D01*
X124077179Y-75118284D01*
X124135674Y-74938256D01*
X124155460Y-74750000D01*
X124135674Y-74561744D01*
X124077179Y-74381716D01*
X123982533Y-74217784D01*
X123855871Y-74077112D01*
X123851878Y-74074211D01*
X123702734Y-73965851D01*
X123702729Y-73965848D01*
X123529807Y-73888857D01*
X123529802Y-73888855D01*
X123393490Y-73859882D01*
X123374872Y-73855924D01*
X123313391Y-73822733D01*
X123312973Y-73822316D01*
X123236819Y-73746162D01*
X123203334Y-73684839D01*
X123200500Y-73658481D01*
X123200500Y-72314746D01*
X123220185Y-72247707D01*
X123272989Y-72201952D01*
X123342147Y-72192008D01*
X123405703Y-72221033D01*
X123412181Y-72227065D01*
X123953553Y-72768437D01*
X124033373Y-72833436D01*
X124075358Y-72861028D01*
X124150320Y-72899998D01*
X124166695Y-72908511D01*
X124306632Y-72941958D01*
X124318274Y-72943029D01*
X124343882Y-72945387D01*
X124408834Y-72971134D01*
X124449555Y-73027910D01*
X124456198Y-73060017D01*
X124461571Y-73135133D01*
X124511853Y-73269942D01*
X124545338Y-73331265D01*
X124631562Y-73446446D01*
X124631566Y-73446450D01*
X124631571Y-73446456D01*
X125902650Y-74717534D01*
X127145355Y-75960239D01*
X127163315Y-75977340D01*
X127168564Y-75982097D01*
X127172346Y-75985526D01*
X127189126Y-76000000D01*
X127191126Y-76001725D01*
X127328515Y-76114478D01*
X127368365Y-76144032D01*
X127388577Y-76157537D01*
X127388582Y-76157540D01*
X127388588Y-76157544D01*
X127431120Y-76183036D01*
X127431128Y-76183041D01*
X127582442Y-76263920D01*
X127582446Y-76263922D01*
X127582465Y-76263932D01*
X127627299Y-76285138D01*
X127649757Y-76294441D01*
X127696476Y-76311158D01*
X127860699Y-76360974D01*
X127908824Y-76373028D01*
X127932665Y-76377770D01*
X127981729Y-76385048D01*
X128158604Y-76402469D01*
X128183353Y-76404294D01*
X128195507Y-76404891D01*
X128220307Y-76405500D01*
X128220324Y-76405500D01*
X130979676Y-76405500D01*
X130979693Y-76405500D01*
X131004493Y-76404891D01*
X131016647Y-76404294D01*
X131041396Y-76402469D01*
X131218270Y-76385048D01*
X131267334Y-76377770D01*
X131291175Y-76373028D01*
X131339300Y-76360974D01*
X131503523Y-76311158D01*
X131550242Y-76294441D01*
X131572700Y-76285138D01*
X131617534Y-76263932D01*
X131768876Y-76183038D01*
X131811422Y-76157537D01*
X131831634Y-76144032D01*
X131871484Y-76114478D01*
X132008873Y-76001725D01*
X132027668Y-75985512D01*
X132036684Y-75977340D01*
X132054644Y-75960239D01*
X132860239Y-75154644D01*
X132877340Y-75136684D01*
X132885512Y-75127668D01*
X132901725Y-75108873D01*
X133014478Y-74971484D01*
X133044032Y-74931634D01*
X133057537Y-74911422D01*
X133083038Y-74868876D01*
X133119855Y-74799996D01*
X140394435Y-74799996D01*
X140394435Y-74800003D01*
X140414630Y-74979249D01*
X140414631Y-74979254D01*
X140474211Y-75149523D01*
X140477429Y-75154644D01*
X140570184Y-75302262D01*
X140697738Y-75429816D01*
X140850478Y-75525789D01*
X141020745Y-75585368D01*
X141020750Y-75585369D01*
X141199996Y-75605565D01*
X141200000Y-75605565D01*
X141200004Y-75605565D01*
X141379249Y-75585369D01*
X141379252Y-75585368D01*
X141379255Y-75585368D01*
X141549522Y-75525789D01*
X141702262Y-75429816D01*
X141829816Y-75302262D01*
X141925789Y-75149522D01*
X141985368Y-74979255D01*
X141986244Y-74971484D01*
X142005565Y-74800003D01*
X142005565Y-74799996D01*
X141985369Y-74620750D01*
X141985368Y-74620745D01*
X141925788Y-74450476D01*
X141871251Y-74363681D01*
X141829816Y-74297738D01*
X141702262Y-74170184D01*
X141549523Y-74074211D01*
X141379254Y-74014631D01*
X141379249Y-74014630D01*
X141200004Y-73994435D01*
X141199996Y-73994435D01*
X141020750Y-74014630D01*
X141020745Y-74014631D01*
X140850476Y-74074211D01*
X140697737Y-74170184D01*
X140570184Y-74297737D01*
X140474211Y-74450476D01*
X140414631Y-74620745D01*
X140414630Y-74620750D01*
X140394435Y-74799996D01*
X133119855Y-74799996D01*
X133163932Y-74717534D01*
X133185138Y-74672700D01*
X133194441Y-74650242D01*
X133211158Y-74603523D01*
X133260974Y-74439300D01*
X133273028Y-74391175D01*
X133277770Y-74367334D01*
X133285048Y-74318270D01*
X133302469Y-74141396D01*
X133304294Y-74116647D01*
X133304891Y-74104493D01*
X133305500Y-74079693D01*
X133305500Y-72956352D01*
X133304704Y-72927998D01*
X133303924Y-72914114D01*
X133303613Y-72910427D01*
X133303613Y-72889570D01*
X133303924Y-72885885D01*
X133304704Y-72872001D01*
X133305500Y-72843647D01*
X133305500Y-71656352D01*
X133304704Y-71627998D01*
X133303924Y-71614114D01*
X133303613Y-71610427D01*
X133303613Y-71589570D01*
X133303924Y-71585885D01*
X133304704Y-71572001D01*
X133305500Y-71543647D01*
X133305500Y-65345519D01*
X133325185Y-65278480D01*
X133377989Y-65232725D01*
X133447147Y-65222781D01*
X133510703Y-65251806D01*
X133517181Y-65257838D01*
X140303453Y-72044111D01*
X140303454Y-72044112D01*
X140418192Y-72120777D01*
X140545667Y-72173578D01*
X140545672Y-72173580D01*
X140545676Y-72173580D01*
X140545677Y-72173581D01*
X140681003Y-72200500D01*
X140681006Y-72200500D01*
X140681007Y-72200500D01*
X146509481Y-72200500D01*
X146576520Y-72220185D01*
X146622275Y-72272989D01*
X146632219Y-72342147D01*
X146603194Y-72405703D01*
X146597162Y-72412181D01*
X139996162Y-79013181D01*
X139934839Y-79046666D01*
X139908481Y-79049500D01*
X135191054Y-79049500D01*
X135055727Y-79076418D01*
X135055717Y-79076421D01*
X134928242Y-79129222D01*
X134813504Y-79205887D01*
X134813503Y-79205888D01*
X131949789Y-82069603D01*
X131888466Y-82103088D01*
X131887889Y-82103212D01*
X131720197Y-82138855D01*
X131720192Y-82138857D01*
X131547270Y-82215848D01*
X131547265Y-82215851D01*
X131394129Y-82327111D01*
X131267466Y-82467785D01*
X131172821Y-82631715D01*
X131172818Y-82631722D01*
X131118142Y-82800000D01*
X131114326Y-82811744D01*
X131094540Y-83000000D01*
X131114326Y-83188256D01*
X131114327Y-83188259D01*
X131172818Y-83368277D01*
X131172821Y-83368284D01*
X131267467Y-83532216D01*
X131346786Y-83620308D01*
X131394129Y-83672888D01*
X131547265Y-83784148D01*
X131547270Y-83784151D01*
X131720192Y-83861142D01*
X131720197Y-83861144D01*
X131905354Y-83900500D01*
X131905355Y-83900500D01*
X132094644Y-83900500D01*
X132094646Y-83900500D01*
X132279803Y-83861144D01*
X132452730Y-83784151D01*
X132605871Y-83672888D01*
X132732533Y-83532216D01*
X132827179Y-83368284D01*
X132885674Y-83188256D01*
X132889683Y-83150103D01*
X132916265Y-83085490D01*
X132925314Y-83075391D01*
X133703058Y-82297648D01*
X137099500Y-82297648D01*
X137099500Y-82502351D01*
X137131522Y-82704534D01*
X137194781Y-82899223D01*
X137254751Y-83016918D01*
X137266019Y-83039034D01*
X137287715Y-83081613D01*
X137408028Y-83247213D01*
X137552786Y-83391971D01*
X137663612Y-83472489D01*
X137718390Y-83512287D01*
X137834607Y-83571503D01*
X137900776Y-83605218D01*
X137900778Y-83605218D01*
X137900781Y-83605220D01*
X138005137Y-83639127D01*
X138095465Y-83668477D01*
X138196557Y-83684488D01*
X138297648Y-83700500D01*
X138297649Y-83700500D01*
X138502351Y-83700500D01*
X138502352Y-83700500D01*
X138704534Y-83668477D01*
X138899219Y-83605220D01*
X139081610Y-83512287D01*
X139202851Y-83424201D01*
X139247213Y-83391971D01*
X139247215Y-83391968D01*
X139247219Y-83391966D01*
X139391966Y-83247219D01*
X139391968Y-83247215D01*
X139391971Y-83247213D01*
X139469438Y-83140587D01*
X139512287Y-83081610D01*
X139605220Y-82899219D01*
X139668477Y-82704534D01*
X139700500Y-82502352D01*
X139700500Y-82297648D01*
X139686546Y-82209548D01*
X139668477Y-82095465D01*
X139605218Y-81900776D01*
X139571503Y-81834607D01*
X139512287Y-81718390D01*
X139504556Y-81707749D01*
X139391971Y-81552786D01*
X139247213Y-81408028D01*
X139081613Y-81287715D01*
X139081612Y-81287714D01*
X139081610Y-81287713D01*
X139024653Y-81258691D01*
X138899223Y-81194781D01*
X138704534Y-81131522D01*
X138529995Y-81103878D01*
X138502352Y-81099500D01*
X138297648Y-81099500D01*
X138273329Y-81103351D01*
X138095465Y-81131522D01*
X137900776Y-81194781D01*
X137718386Y-81287715D01*
X137552786Y-81408028D01*
X137408028Y-81552786D01*
X137287715Y-81718386D01*
X137194781Y-81900776D01*
X137131522Y-82095465D01*
X137099500Y-82297648D01*
X133703058Y-82297648D01*
X135513888Y-80486819D01*
X135575211Y-80453334D01*
X135601569Y-80450500D01*
X140318996Y-80450500D01*
X140410040Y-80432389D01*
X140454328Y-80423580D01*
X140518069Y-80397177D01*
X140581807Y-80370777D01*
X140581808Y-80370776D01*
X140581811Y-80370775D01*
X140696543Y-80294114D01*
X141618893Y-79371764D01*
X141680216Y-79338279D01*
X141749907Y-79343263D01*
X141805841Y-79385135D01*
X141830258Y-79450599D01*
X141823616Y-79500399D01*
X141777132Y-79633242D01*
X141777130Y-79633250D01*
X141756935Y-79812496D01*
X141756935Y-79812503D01*
X141777130Y-79991749D01*
X141777131Y-79991754D01*
X141836711Y-80162023D01*
X141919709Y-80294112D01*
X141932684Y-80314762D01*
X142060238Y-80442316D01*
X142212978Y-80538289D01*
X142383245Y-80597868D01*
X142383250Y-80597869D01*
X142562496Y-80618065D01*
X142562500Y-80618065D01*
X142562504Y-80618065D01*
X142741749Y-80597869D01*
X142741752Y-80597868D01*
X142741755Y-80597868D01*
X142912022Y-80538289D01*
X143064762Y-80442316D01*
X143192316Y-80314762D01*
X143288289Y-80162022D01*
X143347868Y-79991755D01*
X143368065Y-79812500D01*
X143347868Y-79633245D01*
X143288289Y-79462978D01*
X143192316Y-79310238D01*
X143064762Y-79182684D01*
X142979678Y-79129222D01*
X142912023Y-79086711D01*
X142741754Y-79027131D01*
X142741749Y-79027130D01*
X142562504Y-79006935D01*
X142562496Y-79006935D01*
X142383250Y-79027130D01*
X142383242Y-79027132D01*
X142250399Y-79073616D01*
X142180620Y-79077177D01*
X142119993Y-79042448D01*
X142087766Y-78980455D01*
X142094171Y-78910879D01*
X142121764Y-78868893D01*
X154744112Y-66246545D01*
X154744114Y-66246543D01*
X154820775Y-66131811D01*
X154873580Y-66004328D01*
X154895892Y-65892162D01*
X154900500Y-65868996D01*
X154900500Y-63815391D01*
X154920185Y-63748352D01*
X154932352Y-63732417D01*
X154932533Y-63732216D01*
X155027179Y-63568284D01*
X155085674Y-63388256D01*
X155105460Y-63200000D01*
X155085674Y-63011744D01*
X155027179Y-62831716D01*
X154986927Y-62761999D01*
X154970454Y-62694101D01*
X154986927Y-62638001D01*
X155027179Y-62568284D01*
X155085674Y-62388256D01*
X155105460Y-62200000D01*
X155085674Y-62011744D01*
X155027179Y-61831716D01*
X154932533Y-61667784D01*
X154805871Y-61527112D01*
X154772429Y-61502815D01*
X154652734Y-61415851D01*
X154652729Y-61415848D01*
X154479807Y-61338857D01*
X154479802Y-61338855D01*
X154334001Y-61307865D01*
X154294646Y-61299500D01*
X154105354Y-61299500D01*
X154072897Y-61306398D01*
X153920197Y-61338855D01*
X153920192Y-61338857D01*
X153747270Y-61415848D01*
X153747265Y-61415851D01*
X153594129Y-61527111D01*
X153467466Y-61667785D01*
X153372821Y-61831715D01*
X153372818Y-61831722D01*
X153328449Y-61968277D01*
X153314326Y-62011744D01*
X153294540Y-62200000D01*
X153314326Y-62388256D01*
X153314327Y-62388259D01*
X153372818Y-62568277D01*
X153372820Y-62568281D01*
X153372821Y-62568284D01*
X153390598Y-62599074D01*
X153413072Y-62638001D01*
X153429543Y-62705901D01*
X153413072Y-62761998D01*
X153387847Y-62805691D01*
X153372820Y-62831718D01*
X153372818Y-62831722D01*
X153314327Y-63011740D01*
X153314326Y-63011744D01*
X153294540Y-63200000D01*
X153314326Y-63388256D01*
X153314327Y-63388259D01*
X153372818Y-63568277D01*
X153372821Y-63568284D01*
X153467466Y-63732215D01*
X153467648Y-63732417D01*
X153467716Y-63732559D01*
X153471285Y-63737471D01*
X153470386Y-63738123D01*
X153497879Y-63795408D01*
X153499500Y-63815391D01*
X153499500Y-65458481D01*
X153479815Y-65525520D01*
X153463181Y-65546162D01*
X153117181Y-65892162D01*
X153055858Y-65925647D01*
X152986166Y-65920663D01*
X152930233Y-65878791D01*
X152905816Y-65813327D01*
X152905500Y-65804481D01*
X152905500Y-61145137D01*
X152906097Y-61132985D01*
X152912518Y-61067784D01*
X152916202Y-61030372D01*
X152920942Y-61006538D01*
X152941862Y-60937575D01*
X152951152Y-60915146D01*
X152985114Y-60851608D01*
X152998616Y-60831403D01*
X153064043Y-60751680D01*
X153072197Y-60742684D01*
X156060239Y-57754645D01*
X156077340Y-57736684D01*
X156080896Y-57732759D01*
X156085508Y-57727673D01*
X156091393Y-57720850D01*
X156101725Y-57708873D01*
X156214478Y-57571484D01*
X156244032Y-57531634D01*
X156257537Y-57511422D01*
X156283038Y-57468876D01*
X156363932Y-57317534D01*
X156385138Y-57272700D01*
X156394441Y-57250242D01*
X156411158Y-57203523D01*
X156460974Y-57039300D01*
X156473028Y-56991175D01*
X156477770Y-56967334D01*
X156485048Y-56918270D01*
X156502469Y-56741396D01*
X156504294Y-56716647D01*
X156504891Y-56704493D01*
X156505500Y-56679693D01*
X156505500Y-55497648D01*
X161299500Y-55497648D01*
X161299500Y-55702351D01*
X161331522Y-55904534D01*
X161394781Y-56099223D01*
X161487715Y-56281613D01*
X161608028Y-56447213D01*
X161752786Y-56591971D01*
X161896621Y-56696471D01*
X161918390Y-56712287D01*
X162034607Y-56771503D01*
X162100776Y-56805218D01*
X162100778Y-56805218D01*
X162100781Y-56805220D01*
X162205137Y-56839127D01*
X162295465Y-56868477D01*
X162396557Y-56884488D01*
X162497648Y-56900500D01*
X162497649Y-56900500D01*
X162702351Y-56900500D01*
X162702352Y-56900500D01*
X162904534Y-56868477D01*
X163099219Y-56805220D01*
X163281610Y-56712287D01*
X163398564Y-56627316D01*
X163447213Y-56591971D01*
X163447215Y-56591968D01*
X163447219Y-56591966D01*
X163591966Y-56447219D01*
X163591968Y-56447215D01*
X163591971Y-56447213D01*
X163678205Y-56328520D01*
X163712287Y-56281610D01*
X163805220Y-56099219D01*
X163868477Y-55904534D01*
X163900500Y-55702352D01*
X163900500Y-55497648D01*
X163868477Y-55295466D01*
X163805220Y-55100781D01*
X163805218Y-55100778D01*
X163805218Y-55100776D01*
X163748534Y-54989529D01*
X163712287Y-54918390D01*
X163692124Y-54890638D01*
X163591971Y-54752786D01*
X163447213Y-54608028D01*
X163281613Y-54487715D01*
X163281612Y-54487714D01*
X163281610Y-54487713D01*
X163224653Y-54458691D01*
X163099223Y-54394781D01*
X162904534Y-54331522D01*
X162729995Y-54303878D01*
X162702352Y-54299500D01*
X162497648Y-54299500D01*
X162473329Y-54303351D01*
X162295465Y-54331522D01*
X162100776Y-54394781D01*
X161918386Y-54487715D01*
X161752786Y-54608028D01*
X161608028Y-54752786D01*
X161487715Y-54918386D01*
X161394781Y-55100776D01*
X161331522Y-55295465D01*
X161299500Y-55497648D01*
X156505500Y-55497648D01*
X156505500Y-52065638D01*
X156504891Y-52040838D01*
X156504294Y-52028684D01*
X156502469Y-52003935D01*
X156485048Y-51827062D01*
X156477770Y-51777998D01*
X156473028Y-51754157D01*
X156460974Y-51706032D01*
X156411158Y-51541809D01*
X156394441Y-51495090D01*
X156385138Y-51472632D01*
X156368316Y-51437066D01*
X156368315Y-51437063D01*
X156357446Y-51368044D01*
X156385617Y-51304106D01*
X156443884Y-51265547D01*
X156480409Y-51260046D01*
X162776100Y-51260046D01*
X162812503Y-51260046D01*
X162819454Y-51260240D01*
X163122484Y-51277257D01*
X163136282Y-51278811D01*
X163432061Y-51329065D01*
X163445616Y-51332158D01*
X163733717Y-51415158D01*
X163733905Y-51415212D01*
X163747030Y-51419804D01*
X164024209Y-51534616D01*
X164036723Y-51540642D01*
X164279740Y-51674953D01*
X164299309Y-51685769D01*
X164311083Y-51693168D01*
X164555760Y-51866776D01*
X164566626Y-51875441D01*
X164710410Y-52003935D01*
X164790324Y-52075351D01*
X164800157Y-52085183D01*
X165000075Y-52308893D01*
X165008745Y-52319766D01*
X165182347Y-52564439D01*
X165189745Y-52576213D01*
X165334859Y-52838783D01*
X165340893Y-52851311D01*
X165455705Y-53128499D01*
X165460297Y-53141625D01*
X165543345Y-53429905D01*
X165546439Y-53443462D01*
X165596689Y-53739231D01*
X165598246Y-53753049D01*
X165615285Y-54056544D01*
X165615480Y-54063495D01*
X165615480Y-54113855D01*
X165615481Y-54113864D01*
X165615481Y-82206061D01*
X165615286Y-82213016D01*
X165598264Y-82516036D01*
X165596707Y-82529853D01*
X165546449Y-82825631D01*
X165543354Y-82839188D01*
X165460300Y-83127465D01*
X165455709Y-83140587D01*
X165438562Y-83181985D01*
X165394721Y-83236389D01*
X165328427Y-83258455D01*
X165260728Y-83241177D01*
X165213117Y-83190040D01*
X165200000Y-83134534D01*
X165200000Y-66200000D01*
X158600000Y-66200000D01*
X158599999Y-66200000D01*
X156000000Y-68799999D01*
X156000000Y-73948638D01*
X155980315Y-74015677D01*
X155963681Y-74036319D01*
X155636319Y-74363681D01*
X155574996Y-74397166D01*
X155548638Y-74400000D01*
X149000000Y-74400000D01*
X149000000Y-75600000D01*
X155548638Y-75600000D01*
X155615677Y-75619685D01*
X155636319Y-75636319D01*
X155963681Y-75963681D01*
X155997166Y-76025004D01*
X156000000Y-76051362D01*
X156000000Y-81000000D01*
X158400000Y-83400000D01*
X165141395Y-83400000D01*
X165208434Y-83419685D01*
X165254189Y-83472489D01*
X165264133Y-83541647D01*
X165249922Y-83583982D01*
X165189739Y-83692873D01*
X165182342Y-83704646D01*
X165008735Y-83949324D01*
X165000065Y-83960196D01*
X164800153Y-84183899D01*
X164790320Y-84193731D01*
X164566618Y-84393645D01*
X164555748Y-84402315D01*
X164311076Y-84575924D01*
X164299302Y-84583322D01*
X164036721Y-84728450D01*
X164024192Y-84734483D01*
X163747023Y-84849295D01*
X163733899Y-84853888D01*
X163445617Y-84936948D01*
X163432060Y-84940043D01*
X163136283Y-84990303D01*
X163122465Y-84991860D01*
X162820050Y-85008850D01*
X162813095Y-85009045D01*
X123819463Y-85009045D01*
X123812510Y-85008850D01*
X123509489Y-84991831D01*
X123495671Y-84990274D01*
X123233763Y-84945773D01*
X123199901Y-84940019D01*
X123186345Y-84936926D01*
X123049139Y-84897397D01*
X122898048Y-84853867D01*
X122884931Y-84849277D01*
X122607756Y-84734468D01*
X122595227Y-84728434D01*
X122332649Y-84583311D01*
X122320876Y-84575914D01*
X122179697Y-84475743D01*
X122076190Y-84402301D01*
X122065332Y-84393642D01*
X121914900Y-84259209D01*
X121841618Y-84193721D01*
X121831791Y-84183894D01*
X121631867Y-83960181D01*
X121623215Y-83949331D01*
X121449595Y-83704640D01*
X121442198Y-83692868D01*
X121428717Y-83668477D01*
X121297079Y-83430299D01*
X121291045Y-83417771D01*
X121196713Y-83190040D01*
X121176226Y-83140582D01*
X121171636Y-83127461D01*
X121088582Y-82839186D01*
X121085487Y-82825631D01*
X121035227Y-82529845D01*
X121033671Y-82516041D01*
X121016675Y-82213475D01*
X121016480Y-82206520D01*
X121016480Y-54099427D01*
X121016481Y-54099425D01*
X121016481Y-54097648D01*
X122299500Y-54097648D01*
X122299500Y-54302351D01*
X122331522Y-54504534D01*
X122394781Y-54699223D01*
X122458691Y-54824653D01*
X122486285Y-54878808D01*
X122487715Y-54881613D01*
X122608028Y-55047213D01*
X122752786Y-55191971D01*
X122895236Y-55295465D01*
X122918390Y-55312287D01*
X123034607Y-55371503D01*
X123100776Y-55405218D01*
X123100778Y-55405218D01*
X123100781Y-55405220D01*
X123205137Y-55439127D01*
X123295465Y-55468477D01*
X123396557Y-55484488D01*
X123497648Y-55500500D01*
X123497649Y-55500500D01*
X123702351Y-55500500D01*
X123702352Y-55500500D01*
X123904534Y-55468477D01*
X124099219Y-55405220D01*
X124281610Y-55312287D01*
X124374590Y-55244732D01*
X124447213Y-55191971D01*
X124447215Y-55191968D01*
X124447219Y-55191966D01*
X124591966Y-55047219D01*
X124591968Y-55047215D01*
X124591971Y-55047213D01*
X124646458Y-54972217D01*
X124712287Y-54881610D01*
X124805220Y-54699219D01*
X124868477Y-54504534D01*
X124900500Y-54302352D01*
X124900500Y-54097648D01*
X124878854Y-53960985D01*
X124868477Y-53895465D01*
X124817713Y-53739231D01*
X124805220Y-53700781D01*
X124805218Y-53700778D01*
X124805218Y-53700776D01*
X124760816Y-53613633D01*
X124712287Y-53518390D01*
X124689882Y-53487552D01*
X124591971Y-53352786D01*
X124447213Y-53208028D01*
X124281613Y-53087715D01*
X124281612Y-53087714D01*
X124281610Y-53087713D01*
X124191813Y-53041959D01*
X124099223Y-52994781D01*
X123904534Y-52931522D01*
X123718843Y-52902112D01*
X123702352Y-52899500D01*
X123497648Y-52899500D01*
X123481157Y-52902112D01*
X123295465Y-52931522D01*
X123100776Y-52994781D01*
X122918386Y-53087715D01*
X122752786Y-53208028D01*
X122608028Y-53352786D01*
X122487715Y-53518386D01*
X122394781Y-53700776D01*
X122331522Y-53895465D01*
X122299500Y-54097648D01*
X121016481Y-54097648D01*
X121016480Y-54063017D01*
X121016675Y-54056068D01*
X121018719Y-54019664D01*
X121033688Y-53753029D01*
X121035242Y-53739240D01*
X121085496Y-53443444D01*
X121088585Y-53429904D01*
X121171641Y-53141597D01*
X121176226Y-53128493D01*
X121291047Y-52851278D01*
X121297065Y-52838783D01*
X121442192Y-52576188D01*
X121449580Y-52564428D01*
X121623210Y-52319713D01*
X121631852Y-52308877D01*
X121831789Y-52085142D01*
X121841601Y-52075330D01*
X122065325Y-51875394D01*
X122076174Y-51866742D01*
X122320874Y-51693114D01*
X122332627Y-51685729D01*
X122595216Y-51540599D01*
X122607733Y-51534570D01*
X122884936Y-51419746D01*
X122898042Y-51415161D01*
X123186337Y-51332102D01*
X123199880Y-51329010D01*
X123495678Y-51278749D01*
X123509477Y-51277194D01*
X123783299Y-51261815D01*
X123811335Y-51260241D01*
X123818288Y-51260046D01*
X123855863Y-51260046D01*
X130119590Y-51260046D01*
X130186629Y-51279731D01*
G37*
%TD.AperFunction*%
%TA.AperFunction,Conductor*%
G36*
X125352173Y-70909010D02*
G01*
X125379237Y-70915187D01*
X125415620Y-70927918D01*
X125440636Y-70939966D01*
X125473266Y-70960469D01*
X125494975Y-70977781D01*
X125522217Y-71005023D01*
X125539530Y-71026733D01*
X125560033Y-71059364D01*
X125572080Y-71084380D01*
X125584808Y-71120754D01*
X125590987Y-71147826D01*
X125595301Y-71186116D01*
X125595301Y-71213882D01*
X125590987Y-71252172D01*
X125584809Y-71279243D01*
X125560756Y-71347983D01*
X125556770Y-71357964D01*
X125519085Y-71441608D01*
X125519081Y-71441617D01*
X125500086Y-71506311D01*
X125500082Y-71506329D01*
X125479632Y-71643589D01*
X125498660Y-71786214D01*
X125517658Y-71853440D01*
X125517662Y-71853449D01*
X125556064Y-71939856D01*
X125559792Y-71949261D01*
X125584808Y-72020751D01*
X125590986Y-72047819D01*
X125594859Y-72082191D01*
X125595302Y-72086121D01*
X125595302Y-72113883D01*
X125590989Y-72152170D01*
X125584810Y-72179242D01*
X125572605Y-72214124D01*
X125572083Y-72215615D01*
X125560034Y-72240634D01*
X125539529Y-72273267D01*
X125522217Y-72294975D01*
X125494975Y-72322217D01*
X125473266Y-72339529D01*
X125440636Y-72360032D01*
X125415618Y-72372081D01*
X125379243Y-72384809D01*
X125352172Y-72390987D01*
X125313882Y-72395301D01*
X125286115Y-72395301D01*
X125197008Y-72385261D01*
X125187624Y-72383619D01*
X125187591Y-72383798D01*
X125184483Y-72383221D01*
X125131535Y-72376158D01*
X125131649Y-72375302D01*
X125069831Y-72351518D01*
X125028537Y-72295157D01*
X125021938Y-72266908D01*
X125020807Y-72256873D01*
X125020188Y-72249305D01*
X125019268Y-72231294D01*
X125015991Y-72214124D01*
X125004697Y-72113877D01*
X125004696Y-72086121D01*
X125009011Y-72047813D01*
X125015185Y-72020763D01*
X125039245Y-71952003D01*
X125043206Y-71942085D01*
X125080916Y-71858389D01*
X125099915Y-71793686D01*
X125120366Y-71656429D01*
X125101345Y-71513811D01*
X125082346Y-71446574D01*
X125043916Y-71360100D01*
X125040208Y-71350745D01*
X125015188Y-71279243D01*
X125009011Y-71252177D01*
X125004696Y-71213870D01*
X125004697Y-71186111D01*
X125009010Y-71147829D01*
X125015186Y-71120761D01*
X125027919Y-71084373D01*
X125039966Y-71059361D01*
X125060469Y-71026731D01*
X125077777Y-71005026D01*
X125105026Y-70977777D01*
X125126731Y-70960469D01*
X125159361Y-70939966D01*
X125184373Y-70927919D01*
X125220761Y-70915186D01*
X125247822Y-70909010D01*
X125286118Y-70904696D01*
X125313880Y-70904696D01*
X125352173Y-70909010D01*
G37*
%TD.AperFunction*%
%TA.AperFunction,Conductor*%
G36*
X135755867Y-59341515D02*
G01*
X135769243Y-59349291D01*
X135772067Y-59351178D01*
X135772072Y-59351180D01*
X135772074Y-59351181D01*
X135959773Y-59428928D01*
X135958830Y-59431202D01*
X136008222Y-59463565D01*
X136036684Y-59527375D01*
X136037790Y-59545041D01*
X136037356Y-59593716D01*
X136037356Y-59593720D01*
X136076654Y-59732118D01*
X136076657Y-59732124D01*
X136105113Y-59795936D01*
X136181816Y-59917666D01*
X136181818Y-59917668D01*
X136181821Y-59917671D01*
X136226237Y-59956857D01*
X136289708Y-60012855D01*
X136347860Y-60050965D01*
X136348123Y-60051139D01*
X136348143Y-60051151D01*
X136348145Y-60051152D01*
X136348148Y-60051154D01*
X136348150Y-60051155D01*
X136348152Y-60051156D01*
X136400283Y-60075528D01*
X136478487Y-60112089D01*
X136576621Y-60141857D01*
X136599070Y-60151156D01*
X136662592Y-60185109D01*
X136682801Y-60198613D01*
X136738493Y-60244317D01*
X136755683Y-60261506D01*
X136801169Y-60316931D01*
X136801187Y-60316956D01*
X136801189Y-60316955D01*
X136801399Y-60317211D01*
X136801605Y-60317520D01*
X136808490Y-60326813D01*
X136808492Y-60326816D01*
X136808023Y-60327128D01*
X136814886Y-60337402D01*
X136848839Y-60400924D01*
X136858142Y-60423382D01*
X136861196Y-60433450D01*
X136876057Y-60482442D01*
X136879053Y-60492316D01*
X136883794Y-60516155D01*
X136893809Y-60617824D01*
X136893810Y-60617827D01*
X136893903Y-60618771D01*
X136894500Y-60630928D01*
X136894500Y-61192205D01*
X136895131Y-61200000D01*
X136895132Y-61200000D01*
X136901099Y-61273616D01*
X136907532Y-61313038D01*
X136919539Y-61361546D01*
X136920888Y-61366996D01*
X136917887Y-61436801D01*
X136877623Y-61493903D01*
X136873406Y-61497106D01*
X136810114Y-61543091D01*
X136810105Y-61543098D01*
X136683448Y-61683767D01*
X136588803Y-61847697D01*
X136588800Y-61847704D01*
X136535502Y-62011740D01*
X136530308Y-62027726D01*
X136510522Y-62215982D01*
X136530308Y-62404238D01*
X136530309Y-62404241D01*
X136588800Y-62584259D01*
X136588803Y-62584266D01*
X136683449Y-62748198D01*
X136810111Y-62888870D01*
X136963252Y-63000133D01*
X137107394Y-63064310D01*
X137160628Y-63109558D01*
X137174886Y-63139268D01*
X137189844Y-63185305D01*
X137189845Y-63185306D01*
X137189846Y-63185309D01*
X137198328Y-63200000D01*
X137253186Y-63295018D01*
X137269658Y-63362918D01*
X137248167Y-63426993D01*
X137213163Y-63478201D01*
X137208983Y-63481619D01*
X137201319Y-63494894D01*
X137196305Y-63502864D01*
X137194174Y-63505981D01*
X137190075Y-63514370D01*
X137127834Y-63622171D01*
X137112599Y-63643140D01*
X137096945Y-63660526D01*
X137096930Y-63660543D01*
X137056197Y-63705781D01*
X137030065Y-63737277D01*
X137017908Y-63753200D01*
X136994430Y-63786675D01*
X136934664Y-63917541D01*
X136914977Y-63984585D01*
X136914974Y-63984599D01*
X136912761Y-63999996D01*
X136894500Y-64127006D01*
X136894500Y-64979676D01*
X136895109Y-65004500D01*
X136895706Y-65016659D01*
X136897530Y-65041386D01*
X136914950Y-65218261D01*
X136914952Y-65218281D01*
X136922227Y-65267328D01*
X136926964Y-65291145D01*
X136926969Y-65291167D01*
X136939022Y-65339291D01*
X136988838Y-65503516D01*
X137005560Y-65550246D01*
X137014864Y-65572706D01*
X137014868Y-65572716D01*
X137036059Y-65617518D01*
X137036075Y-65617551D01*
X137116955Y-65768866D01*
X137116979Y-65768909D01*
X137142449Y-65811402D01*
X137142452Y-65811406D01*
X137142462Y-65811422D01*
X137155967Y-65831634D01*
X137155973Y-65831642D01*
X137155975Y-65831645D01*
X137185515Y-65871476D01*
X137185527Y-65871492D01*
X137298277Y-66008877D01*
X137314472Y-66027652D01*
X137314487Y-66027668D01*
X137322659Y-66036684D01*
X137339760Y-66054644D01*
X137845355Y-66560239D01*
X137863315Y-66577340D01*
X137868564Y-66582097D01*
X137872346Y-66585526D01*
X137891121Y-66601721D01*
X137891126Y-66601725D01*
X138028515Y-66714478D01*
X138068365Y-66744032D01*
X138088577Y-66757537D01*
X138088582Y-66757540D01*
X138088588Y-66757544D01*
X138131120Y-66783036D01*
X138131128Y-66783041D01*
X138282442Y-66863920D01*
X138282446Y-66863922D01*
X138282465Y-66863932D01*
X138327299Y-66885138D01*
X138349757Y-66894441D01*
X138396476Y-66911158D01*
X138560699Y-66960974D01*
X138608824Y-66973028D01*
X138632665Y-66977770D01*
X138681729Y-66985048D01*
X138858604Y-67002469D01*
X138883353Y-67004294D01*
X138895507Y-67004891D01*
X138920307Y-67005500D01*
X143615521Y-67005500D01*
X143627674Y-67006097D01*
X143701716Y-67013389D01*
X143725554Y-67018130D01*
X143767021Y-67030709D01*
X143789473Y-67040009D01*
X143827685Y-67060434D01*
X143847893Y-67073937D01*
X143881384Y-67101421D01*
X143898575Y-67118611D01*
X143926060Y-67152103D01*
X143939561Y-67172310D01*
X143959988Y-67210525D01*
X143969292Y-67232985D01*
X143981867Y-67274439D01*
X143986609Y-67298279D01*
X143993903Y-67372329D01*
X143994500Y-67384484D01*
X143994500Y-68344099D01*
X143995072Y-68368166D01*
X143995632Y-68379917D01*
X143997347Y-68403904D01*
X144013705Y-68575334D01*
X144013710Y-68575375D01*
X144020535Y-68622893D01*
X144020539Y-68622913D01*
X144024993Y-68646043D01*
X144024995Y-68646053D01*
X144024997Y-68646061D01*
X144036313Y-68692749D01*
X144036317Y-68692761D01*
X144083132Y-68852335D01*
X144098850Y-68897785D01*
X144107593Y-68919641D01*
X144107600Y-68919658D01*
X144127536Y-68963350D01*
X144127545Y-68963369D01*
X144127551Y-68963381D01*
X144127556Y-68963390D01*
X144203692Y-69111206D01*
X144203703Y-69111227D01*
X144227707Y-69152843D01*
X144227722Y-69152867D01*
X144240427Y-69172655D01*
X144240433Y-69172665D01*
X144268297Y-69211836D01*
X144268299Y-69211839D01*
X144268305Y-69211847D01*
X144268306Y-69211848D01*
X144374709Y-69347293D01*
X144390020Y-69365856D01*
X144397737Y-69374771D01*
X144413887Y-69392557D01*
X144641464Y-69631514D01*
X144641471Y-69631520D01*
X144834053Y-69833731D01*
X144852146Y-69851792D01*
X144861234Y-69860416D01*
X144880245Y-69877562D01*
X145019377Y-69996801D01*
X145059834Y-70028067D01*
X145059847Y-70028077D01*
X145080406Y-70042365D01*
X145080436Y-70042385D01*
X145123840Y-70069400D01*
X145278579Y-70155168D01*
X145278614Y-70155185D01*
X145324509Y-70177667D01*
X145324515Y-70177669D01*
X145324520Y-70177672D01*
X145347537Y-70187536D01*
X145347546Y-70187540D01*
X145388987Y-70202868D01*
X145395504Y-70205279D01*
X145564332Y-70258184D01*
X145613869Y-70270993D01*
X145638413Y-70276030D01*
X145688953Y-70283762D01*
X145688957Y-70283762D01*
X145688961Y-70283763D01*
X145871212Y-70302275D01*
X145871233Y-70302276D01*
X145871237Y-70302277D01*
X145896734Y-70304217D01*
X145896745Y-70304217D01*
X145896751Y-70304218D01*
X145909274Y-70304853D01*
X145934836Y-70305500D01*
X145934849Y-70305500D01*
X148404481Y-70305500D01*
X148471520Y-70325185D01*
X148517275Y-70377989D01*
X148527219Y-70447147D01*
X148498194Y-70510703D01*
X148492162Y-70517181D01*
X148246162Y-70763181D01*
X148184839Y-70796666D01*
X148158481Y-70799500D01*
X141091519Y-70799500D01*
X141024480Y-70779815D01*
X141003838Y-70763181D01*
X134136819Y-63896162D01*
X134103334Y-63834839D01*
X134100500Y-63808481D01*
X134100500Y-62215391D01*
X134120185Y-62148352D01*
X134132352Y-62132417D01*
X134132533Y-62132216D01*
X134227179Y-61968284D01*
X134285674Y-61788256D01*
X134305460Y-61600000D01*
X134285674Y-61411744D01*
X134227179Y-61231716D01*
X134132533Y-61067784D01*
X134005871Y-60927112D01*
X134005860Y-60927104D01*
X133852734Y-60815851D01*
X133852729Y-60815848D01*
X133679807Y-60738857D01*
X133679802Y-60738855D01*
X133534001Y-60707865D01*
X133494646Y-60699500D01*
X133334375Y-60699500D01*
X133267336Y-60679815D01*
X133221581Y-60627011D01*
X133215715Y-60611497D01*
X133213484Y-60604145D01*
X133211159Y-60596479D01*
X133194445Y-60549766D01*
X133185142Y-60527307D01*
X133163931Y-60482462D01*
X133127438Y-60414190D01*
X133121391Y-60403207D01*
X133118351Y-60397844D01*
X133112003Y-60386964D01*
X133021152Y-60275395D01*
X132995837Y-60252066D01*
X132969774Y-60228047D01*
X132962942Y-60223332D01*
X132962696Y-60223187D01*
X132851168Y-60146593D01*
X132851166Y-60146592D01*
X132761991Y-60117417D01*
X132714419Y-60101853D01*
X132714416Y-60101852D01*
X132714417Y-60101852D01*
X132645600Y-60089799D01*
X132573693Y-60087598D01*
X132501790Y-60085397D01*
X132501789Y-60085397D01*
X132501787Y-60085397D01*
X132501783Y-60085397D01*
X132432412Y-60093214D01*
X132432398Y-60093215D01*
X132413882Y-60095302D01*
X132386119Y-60095301D01*
X132347827Y-60090987D01*
X132320755Y-60084809D01*
X132284380Y-60072081D01*
X132260132Y-60060513D01*
X132260077Y-60060479D01*
X132213404Y-60008484D01*
X132202059Y-59968887D01*
X132185369Y-59820750D01*
X132185366Y-59820737D01*
X132145836Y-59707768D01*
X132142274Y-59637989D01*
X132177002Y-59577362D01*
X132221917Y-59549774D01*
X132320757Y-59515187D01*
X132347821Y-59509010D01*
X132386117Y-59504695D01*
X132413871Y-59504695D01*
X132452186Y-59509011D01*
X132479244Y-59515188D01*
X132515619Y-59527916D01*
X132540633Y-59539963D01*
X132558637Y-59551275D01*
X132565089Y-59555329D01*
X132691607Y-59612331D01*
X132756312Y-59631331D01*
X132893579Y-59651783D01*
X133014827Y-59635610D01*
X133036190Y-59632761D01*
X133036191Y-59632760D01*
X133036196Y-59632760D01*
X133103433Y-59613760D01*
X133234914Y-59555328D01*
X133259371Y-59539959D01*
X133284379Y-59527916D01*
X133320758Y-59515186D01*
X133347809Y-59509011D01*
X133386126Y-59504695D01*
X133413872Y-59504695D01*
X133452186Y-59509011D01*
X133479244Y-59515188D01*
X133515619Y-59527916D01*
X133540633Y-59539963D01*
X133558637Y-59551275D01*
X133565089Y-59555329D01*
X133691607Y-59612331D01*
X133756312Y-59631331D01*
X133893579Y-59651783D01*
X134014827Y-59635610D01*
X134036190Y-59632761D01*
X134036191Y-59632760D01*
X134036196Y-59632760D01*
X134103433Y-59613760D01*
X134234914Y-59555328D01*
X134259371Y-59539959D01*
X134284379Y-59527916D01*
X134320758Y-59515186D01*
X134347809Y-59509011D01*
X134386126Y-59504695D01*
X134413872Y-59504695D01*
X134452186Y-59509011D01*
X134479244Y-59515188D01*
X134515619Y-59527916D01*
X134540633Y-59539963D01*
X134558637Y-59551275D01*
X134565089Y-59555329D01*
X134691607Y-59612331D01*
X134756312Y-59631331D01*
X134893579Y-59651783D01*
X135014827Y-59635610D01*
X135036190Y-59632761D01*
X135036191Y-59632760D01*
X135036196Y-59632760D01*
X135103433Y-59613760D01*
X135234913Y-59555328D01*
X135259367Y-59539961D01*
X135284374Y-59527919D01*
X135350347Y-59504833D01*
X135356131Y-59503197D01*
X135356114Y-59503140D01*
X135361360Y-59501493D01*
X135361374Y-59501490D01*
X135366145Y-59499513D01*
X135372633Y-59497036D01*
X135387708Y-59491762D01*
X135387707Y-59491761D01*
X135413058Y-59482891D01*
X135414693Y-59481081D01*
X135432150Y-59472173D01*
X135494302Y-59446430D01*
X135554391Y-59410778D01*
X135622559Y-59355845D01*
X135687107Y-59329109D01*
X135755867Y-59341515D01*
G37*
%TD.AperFunction*%
%TA.AperFunction,Conductor*%
G36*
X150052173Y-63509010D02*
G01*
X150079237Y-63515187D01*
X150115620Y-63527918D01*
X150140636Y-63539966D01*
X150173266Y-63560469D01*
X150194971Y-63577777D01*
X150273150Y-63655956D01*
X150279566Y-63661749D01*
X150311386Y-63690480D01*
X150311391Y-63690484D01*
X150330971Y-63706429D01*
X150372551Y-63736900D01*
X150502812Y-63798003D01*
X150559869Y-63815391D01*
X150568095Y-63817898D01*
X150569369Y-63818304D01*
X150569645Y-63818370D01*
X150569647Y-63818371D01*
X150569653Y-63818373D01*
X150588498Y-63821279D01*
X150711845Y-63840300D01*
X150711846Y-63840300D01*
X150711852Y-63840301D01*
X150783160Y-63830789D01*
X150854463Y-63821279D01*
X150854464Y-63821278D01*
X150854469Y-63821278D01*
X150921706Y-63802278D01*
X151053186Y-63743846D01*
X151059362Y-63739965D01*
X151084376Y-63727918D01*
X151120757Y-63715187D01*
X151147820Y-63709011D01*
X151186118Y-63704696D01*
X151213880Y-63704696D01*
X151252173Y-63709010D01*
X151279237Y-63715187D01*
X151315620Y-63727918D01*
X151340636Y-63739966D01*
X151373266Y-63760469D01*
X151394975Y-63777781D01*
X151422216Y-63805022D01*
X151439529Y-63826731D01*
X151460033Y-63859363D01*
X151472080Y-63884380D01*
X151484808Y-63920754D01*
X151490987Y-63947827D01*
X151495301Y-63986118D01*
X151495306Y-64013845D01*
X151495035Y-64016257D01*
X151495030Y-64016294D01*
X151490988Y-64052172D01*
X151484809Y-64079245D01*
X151472082Y-64115616D01*
X151460034Y-64140634D01*
X151439529Y-64173267D01*
X151422217Y-64194975D01*
X151394975Y-64222217D01*
X151373266Y-64239529D01*
X151340636Y-64260032D01*
X151315617Y-64272081D01*
X151279244Y-64284808D01*
X151252176Y-64290986D01*
X151196016Y-64297314D01*
X151196005Y-64297316D01*
X151061542Y-64331636D01*
X151061537Y-64331637D01*
X150999110Y-64357124D01*
X150999105Y-64357126D01*
X150999102Y-64357128D01*
X150936234Y-64393568D01*
X150879032Y-64426725D01*
X150779393Y-64530519D01*
X150779384Y-64530529D01*
X150738681Y-64587284D01*
X150738674Y-64587294D01*
X150672311Y-64714959D01*
X150672074Y-64715638D01*
X150671528Y-64716770D01*
X150670556Y-64719020D01*
X150670464Y-64718980D01*
X150660033Y-64740636D01*
X150639531Y-64773265D01*
X150622218Y-64794974D01*
X150594975Y-64822217D01*
X150573266Y-64839529D01*
X150540636Y-64860032D01*
X150515618Y-64872081D01*
X150479243Y-64884809D01*
X150452172Y-64890987D01*
X150413882Y-64895301D01*
X150386116Y-64895301D01*
X150347826Y-64890987D01*
X150320755Y-64884809D01*
X150284380Y-64872081D01*
X150259362Y-64860032D01*
X150226732Y-64839529D01*
X150205023Y-64822217D01*
X150177780Y-64794974D01*
X150160470Y-64773269D01*
X150151100Y-64758356D01*
X150151098Y-64758353D01*
X150139964Y-64740634D01*
X150127915Y-64715613D01*
X150108950Y-64661412D01*
X150108946Y-64661403D01*
X150073721Y-64587295D01*
X150062550Y-64563792D01*
X150034958Y-64518871D01*
X149968878Y-64433360D01*
X149968876Y-64433358D01*
X149968875Y-64433357D01*
X149855481Y-64344808D01*
X149837991Y-64334790D01*
X149794849Y-64310078D01*
X149661098Y-64257061D01*
X149517820Y-64243871D01*
X149451203Y-64247273D01*
X149449177Y-64247324D01*
X149448053Y-64247433D01*
X149448049Y-64247434D01*
X149448047Y-64247434D01*
X149386256Y-64259562D01*
X149306862Y-64275144D01*
X149306858Y-64275146D01*
X149279237Y-64284810D01*
X149252170Y-64290987D01*
X149213881Y-64295301D01*
X149186116Y-64295301D01*
X149147825Y-64290987D01*
X149120751Y-64284808D01*
X149084381Y-64272081D01*
X149059366Y-64260034D01*
X149026732Y-64239529D01*
X149005022Y-64222216D01*
X148977781Y-64194975D01*
X148960469Y-64173266D01*
X148939966Y-64140636D01*
X148927918Y-64115619D01*
X148915190Y-64079245D01*
X148909011Y-64052175D01*
X148904696Y-64013870D01*
X148904697Y-63986111D01*
X148909010Y-63947825D01*
X148915186Y-63920761D01*
X148927919Y-63884373D01*
X148939966Y-63859361D01*
X148960469Y-63826731D01*
X148977777Y-63805026D01*
X149005026Y-63777777D01*
X149026731Y-63760469D01*
X149059361Y-63739966D01*
X149084373Y-63727919D01*
X149120761Y-63715186D01*
X149147816Y-63709011D01*
X149186123Y-63704696D01*
X149213878Y-63704696D01*
X149229268Y-63706431D01*
X149329565Y-63717732D01*
X149329574Y-63717732D01*
X149329578Y-63717733D01*
X149401805Y-63720669D01*
X149401806Y-63720668D01*
X149401811Y-63720669D01*
X149404668Y-63720478D01*
X149423178Y-63718905D01*
X149424566Y-63718911D01*
X149534101Y-63707366D01*
X149668911Y-63657089D01*
X149730235Y-63623606D01*
X149730271Y-63623586D01*
X149750131Y-63608716D01*
X149763688Y-63599885D01*
X149766678Y-63598204D01*
X149859361Y-63539965D01*
X149884373Y-63527919D01*
X149920761Y-63515186D01*
X149947822Y-63509010D01*
X149986118Y-63504696D01*
X150013880Y-63504696D01*
X150052173Y-63509010D01*
G37*
%TD.AperFunction*%
%TA.AperFunction,Conductor*%
G36*
X140618154Y-62068555D02*
G01*
X140645222Y-62074734D01*
X140681602Y-62087464D01*
X140706618Y-62099511D01*
X140714619Y-62104538D01*
X140726150Y-62111784D01*
X140726153Y-62111786D01*
X140739251Y-62120016D01*
X140760955Y-62137325D01*
X140788198Y-62164568D01*
X140805510Y-62186277D01*
X140826013Y-62218907D01*
X140838062Y-62243925D01*
X140850790Y-62280300D01*
X140856968Y-62307371D01*
X140861282Y-62345661D01*
X140861282Y-62373427D01*
X140856968Y-62411717D01*
X140850790Y-62438788D01*
X140838062Y-62475163D01*
X140826013Y-62500181D01*
X140805510Y-62532811D01*
X140788198Y-62554520D01*
X140760956Y-62581762D01*
X140739247Y-62599074D01*
X140706617Y-62619577D01*
X140681599Y-62631626D01*
X140645224Y-62644354D01*
X140618153Y-62650532D01*
X140579863Y-62654846D01*
X140552097Y-62654846D01*
X140513807Y-62650532D01*
X140486736Y-62644354D01*
X140450361Y-62631626D01*
X140425343Y-62619577D01*
X140392713Y-62599074D01*
X140371004Y-62581762D01*
X140343762Y-62554520D01*
X140326450Y-62532811D01*
X140305947Y-62500181D01*
X140293899Y-62475164D01*
X140281171Y-62438790D01*
X140274992Y-62411720D01*
X140270677Y-62373415D01*
X140270678Y-62345656D01*
X140274991Y-62307374D01*
X140281167Y-62280306D01*
X140293900Y-62243918D01*
X140305947Y-62218906D01*
X140326450Y-62186276D01*
X140343758Y-62164571D01*
X140371007Y-62137322D01*
X140392712Y-62120014D01*
X140425342Y-62099511D01*
X140450354Y-62087464D01*
X140486742Y-62074731D01*
X140513803Y-62068555D01*
X140552099Y-62064241D01*
X140579861Y-62064241D01*
X140618154Y-62068555D01*
G37*
%TD.AperFunction*%
%TA.AperFunction,Conductor*%
G36*
X145507172Y-59758286D02*
G01*
X145624314Y-59801343D01*
X145709991Y-59819553D01*
X145734631Y-59827559D01*
X145786685Y-59850735D01*
X145809128Y-59863693D01*
X145855221Y-59897182D01*
X145874480Y-59914522D01*
X145912599Y-59956857D01*
X145927836Y-59977829D01*
X145956320Y-60027165D01*
X145966864Y-60050847D01*
X145984468Y-60105027D01*
X145989858Y-60130385D01*
X145995812Y-60187039D01*
X145995812Y-60212959D01*
X145989858Y-60269613D01*
X145984468Y-60294972D01*
X145966863Y-60349153D01*
X145956319Y-60372835D01*
X145927838Y-60422165D01*
X145912624Y-60443111D01*
X145910319Y-60445672D01*
X145909654Y-60446411D01*
X145909618Y-60446451D01*
X145903572Y-60453167D01*
X145903570Y-60453169D01*
X145903568Y-60453172D01*
X145834442Y-60551240D01*
X145806678Y-60602666D01*
X145806670Y-60602685D01*
X145762596Y-60714309D01*
X145759779Y-60738856D01*
X145746193Y-60857254D01*
X145746193Y-60857258D01*
X145746193Y-60857260D01*
X145746192Y-60857266D01*
X145748136Y-60925307D01*
X145748156Y-60926752D01*
X145748187Y-60927104D01*
X145772722Y-61068877D01*
X145784468Y-61105026D01*
X145789858Y-61130385D01*
X145795812Y-61187040D01*
X145795812Y-61212961D01*
X145789858Y-61269614D01*
X145784468Y-61294971D01*
X145766864Y-61349151D01*
X145756320Y-61372833D01*
X145727836Y-61422169D01*
X145712599Y-61443141D01*
X145674488Y-61485468D01*
X145655222Y-61502815D01*
X145609123Y-61536307D01*
X145586677Y-61549266D01*
X145549593Y-61565778D01*
X145549591Y-61565779D01*
X145470774Y-61600870D01*
X145424939Y-61626754D01*
X145356885Y-61642578D01*
X145291079Y-61619097D01*
X145277552Y-61607710D01*
X145243194Y-61574320D01*
X145144771Y-61502812D01*
X145125518Y-61485475D01*
X145087395Y-61443135D01*
X145072163Y-61422169D01*
X145043673Y-61372823D01*
X145033133Y-61349151D01*
X145015528Y-61294969D01*
X145010141Y-61269622D01*
X145004186Y-61212958D01*
X145004186Y-61187040D01*
X145010141Y-61130371D01*
X145015529Y-61105026D01*
X145033134Y-61050842D01*
X145043673Y-61027172D01*
X145072161Y-60977831D01*
X145087400Y-60956857D01*
X145096399Y-60946863D01*
X145165552Y-60848765D01*
X145193327Y-60797318D01*
X145237404Y-60685682D01*
X145253806Y-60542739D01*
X145251811Y-60472898D01*
X145248397Y-60453172D01*
X145227277Y-60331126D01*
X145227276Y-60331125D01*
X145215530Y-60294974D01*
X145210141Y-60269622D01*
X145204186Y-60212959D01*
X145204186Y-60187039D01*
X145207194Y-60158420D01*
X145210142Y-60130369D01*
X145215530Y-60105027D01*
X145233134Y-60050843D01*
X145243671Y-60027178D01*
X145305243Y-59920533D01*
X145305242Y-59920532D01*
X145312248Y-59908399D01*
X145314375Y-59904853D01*
X145318305Y-59898545D01*
X145318305Y-59898542D01*
X145318368Y-59898443D01*
X145319220Y-59896832D01*
X145319224Y-59896691D01*
X145327740Y-59876429D01*
X145339528Y-59854156D01*
X145348510Y-59830560D01*
X145390754Y-59774911D01*
X145456381Y-59750933D01*
X145507172Y-59758286D01*
G37*
%TD.AperFunction*%
%TA.AperFunction,Conductor*%
G36*
X137380446Y-54345950D02*
G01*
X137402349Y-54359848D01*
X137402594Y-54359507D01*
X137406193Y-54362088D01*
X137462969Y-54402810D01*
X137462974Y-54402812D01*
X137463055Y-54402862D01*
X137463835Y-54403260D01*
X137590625Y-54469172D01*
X137590628Y-54469173D01*
X137590634Y-54469176D01*
X137615622Y-54477919D01*
X137640633Y-54489964D01*
X137673268Y-54510469D01*
X137694975Y-54527781D01*
X137722217Y-54555023D01*
X137739529Y-54576732D01*
X137760032Y-54609362D01*
X137772081Y-54634380D01*
X137784809Y-54670755D01*
X137790987Y-54697827D01*
X137795301Y-54736118D01*
X137795301Y-54763884D01*
X137790987Y-54802172D01*
X137784809Y-54829241D01*
X137772081Y-54865617D01*
X137760032Y-54890636D01*
X137739529Y-54923266D01*
X137722217Y-54944975D01*
X137694975Y-54972217D01*
X137673266Y-54989529D01*
X137640636Y-55010032D01*
X137615618Y-55022081D01*
X137579243Y-55034809D01*
X137552172Y-55040987D01*
X137513882Y-55045301D01*
X137486116Y-55045301D01*
X137447826Y-55040987D01*
X137420755Y-55034809D01*
X137384380Y-55022081D01*
X137359362Y-55010032D01*
X137326732Y-54989529D01*
X137305023Y-54972217D01*
X137277783Y-54944977D01*
X137260470Y-54923268D01*
X137257402Y-54918386D01*
X137207660Y-54839221D01*
X137169168Y-54785986D01*
X137148670Y-54761203D01*
X137147290Y-54759740D01*
X137115619Y-54697462D01*
X137122645Y-54627946D01*
X137130049Y-54613990D01*
X137129744Y-54613827D01*
X137132609Y-54608465D01*
X137132613Y-54608460D01*
X137208032Y-54426381D01*
X137208034Y-54426369D01*
X137209272Y-54422291D01*
X137247567Y-54363851D01*
X137311378Y-54335392D01*
X137380446Y-54345950D01*
G37*
%TD.AperFunction*%
%TA.AperFunction,Conductor*%
G36*
X143302171Y-52709010D02*
G01*
X143329237Y-52715187D01*
X143365620Y-52727918D01*
X143390638Y-52739967D01*
X143409186Y-52751622D01*
X143409187Y-52751623D01*
X143409188Y-52751623D01*
X143415083Y-52755327D01*
X143415084Y-52755328D01*
X143423270Y-52760471D01*
X143444977Y-52777783D01*
X143472216Y-52805022D01*
X143489529Y-52826731D01*
X143534254Y-52897910D01*
X143545574Y-52915136D01*
X143545586Y-52915153D01*
X143551313Y-52923491D01*
X143563315Y-52940223D01*
X143665052Y-53041963D01*
X143666058Y-53042716D01*
X143704558Y-53071538D01*
X143720985Y-53083835D01*
X143720992Y-53083840D01*
X143820908Y-53138397D01*
X143870313Y-53187801D01*
X143885481Y-53247229D01*
X143885481Y-54233087D01*
X143885481Y-54233089D01*
X143885480Y-54233089D01*
X143901013Y-54311172D01*
X143894786Y-54380764D01*
X143851923Y-54435941D01*
X143841031Y-54442961D01*
X143759515Y-54489655D01*
X143759513Y-54489657D01*
X143659867Y-54593449D01*
X143659867Y-54593450D01*
X143619144Y-54650226D01*
X143619138Y-54650235D01*
X143552778Y-54777891D01*
X143552772Y-54777903D01*
X143522079Y-54865621D01*
X143510032Y-54890638D01*
X143489531Y-54923265D01*
X143472218Y-54944974D01*
X143444975Y-54972217D01*
X143423266Y-54989529D01*
X143390636Y-55010032D01*
X143365618Y-55022081D01*
X143329243Y-55034809D01*
X143302172Y-55040987D01*
X143263882Y-55045301D01*
X143236116Y-55045301D01*
X143197826Y-55040987D01*
X143170755Y-55034809D01*
X143134380Y-55022081D01*
X143109362Y-55010032D01*
X143076732Y-54989529D01*
X143055023Y-54972217D01*
X143027782Y-54944976D01*
X143010471Y-54923269D01*
X142989966Y-54890637D01*
X142977917Y-54865619D01*
X142965188Y-54829241D01*
X142959011Y-54802175D01*
X142954696Y-54763870D01*
X142954697Y-54736111D01*
X142958853Y-54699223D01*
X142959010Y-54697825D01*
X142965186Y-54670761D01*
X142977919Y-54634373D01*
X142989966Y-54609361D01*
X143010469Y-54576731D01*
X143027777Y-54555026D01*
X143055025Y-54527778D01*
X143076725Y-54510472D01*
X143109369Y-54489960D01*
X143134375Y-54477918D01*
X143159367Y-54469174D01*
X143202407Y-54451858D01*
X143223086Y-54442414D01*
X143264343Y-54421234D01*
X143377744Y-54332680D01*
X143426132Y-54282278D01*
X143426138Y-54282271D01*
X143509995Y-54165354D01*
X143557515Y-54029547D01*
X143570971Y-53960985D01*
X143578306Y-53817296D01*
X143544861Y-53677357D01*
X143544859Y-53677353D01*
X143544858Y-53677348D01*
X143520386Y-53615613D01*
X143519664Y-53613633D01*
X143519114Y-53612404D01*
X143519112Y-53612398D01*
X143492491Y-53565925D01*
X143447597Y-53487552D01*
X143447596Y-53487551D01*
X143343802Y-53387910D01*
X143343794Y-53387904D01*
X143287032Y-53347192D01*
X143287021Y-53347186D01*
X143210852Y-53307590D01*
X143159370Y-53280827D01*
X143159369Y-53280826D01*
X143159361Y-53280823D01*
X143134381Y-53272082D01*
X143109367Y-53260036D01*
X143109362Y-53260033D01*
X143088985Y-53247229D01*
X143084916Y-53244672D01*
X142958400Y-53187671D01*
X142958387Y-53187667D01*
X142896552Y-53169510D01*
X142893685Y-53168668D01*
X142893683Y-53168667D01*
X142893681Y-53168667D01*
X142893679Y-53168666D01*
X142756411Y-53148215D01*
X142613802Y-53167239D01*
X142546550Y-53186244D01*
X142415090Y-53244669D01*
X142415085Y-53244671D01*
X142415085Y-53244672D01*
X142411015Y-53247229D01*
X142390630Y-53260037D01*
X142365618Y-53272081D01*
X142329243Y-53284809D01*
X142302172Y-53290987D01*
X142263882Y-53295301D01*
X142236116Y-53295301D01*
X142197826Y-53290987D01*
X142170755Y-53284809D01*
X142134380Y-53272081D01*
X142109362Y-53260033D01*
X142065362Y-53232386D01*
X142053526Y-53223942D01*
X141985983Y-53169510D01*
X141975552Y-53162806D01*
X141941634Y-53141008D01*
X141879818Y-53110065D01*
X141828681Y-53062454D01*
X141811402Y-52994754D01*
X141833467Y-52928460D01*
X141887871Y-52884620D01*
X141891985Y-52883001D01*
X141893619Y-52882392D01*
X141952998Y-52849968D01*
X141954463Y-52849202D01*
X141954928Y-52848914D01*
X141954942Y-52848907D01*
X141954948Y-52848904D01*
X142049941Y-52777789D01*
X142058279Y-52772063D01*
X142076735Y-52760466D01*
X142109366Y-52739963D01*
X142134373Y-52727919D01*
X142170761Y-52715186D01*
X142197824Y-52709010D01*
X142236118Y-52704696D01*
X142263881Y-52704696D01*
X142302177Y-52709010D01*
X142329244Y-52715188D01*
X142365619Y-52727916D01*
X142390633Y-52739963D01*
X142408637Y-52751275D01*
X142415089Y-52755329D01*
X142415091Y-52755330D01*
X142415093Y-52755331D01*
X142442356Y-52767614D01*
X142541607Y-52812331D01*
X142606312Y-52831331D01*
X142743579Y-52851783D01*
X142864827Y-52835610D01*
X142886190Y-52832761D01*
X142886191Y-52832760D01*
X142886196Y-52832760D01*
X142953433Y-52813760D01*
X143084914Y-52755328D01*
X143109371Y-52739959D01*
X143134379Y-52727916D01*
X143170758Y-52715186D01*
X143197807Y-52709012D01*
X143236126Y-52704695D01*
X143263879Y-52704695D01*
X143302171Y-52709010D01*
G37*
%TD.AperFunction*%
%TA.AperFunction,Conductor*%
G36*
X141052171Y-52709010D02*
G01*
X141079237Y-52715187D01*
X141115620Y-52727918D01*
X141140637Y-52739966D01*
X141184638Y-52767614D01*
X141196473Y-52776057D01*
X141264016Y-52830489D01*
X141264018Y-52830490D01*
X141264019Y-52830491D01*
X141297147Y-52851782D01*
X141308371Y-52858995D01*
X141370180Y-52889934D01*
X141421318Y-52937544D01*
X141438597Y-53005244D01*
X141416532Y-53071538D01*
X141362129Y-53115379D01*
X141358019Y-53116996D01*
X141356391Y-53117603D01*
X141356383Y-53117607D01*
X141356381Y-53117608D01*
X141336467Y-53128482D01*
X141295061Y-53151091D01*
X141295059Y-53151092D01*
X141295058Y-53151093D01*
X141246022Y-53187801D01*
X141200062Y-53222206D01*
X141191724Y-53227932D01*
X141084039Y-53295595D01*
X141083955Y-53295645D01*
X141075605Y-53300895D01*
X141075583Y-53300909D01*
X141059391Y-53311082D01*
X141056426Y-53316557D01*
X141048228Y-53324099D01*
X140970387Y-53389506D01*
X140970386Y-53389507D01*
X140925190Y-53439566D01*
X140925189Y-53439568D01*
X140847221Y-53554345D01*
X140847216Y-53554355D01*
X140802480Y-53691087D01*
X140802477Y-53691098D01*
X140790423Y-53759912D01*
X140790387Y-53760329D01*
X140790365Y-53761814D01*
X140786020Y-53903734D01*
X140786020Y-53903740D01*
X140795301Y-53986112D01*
X140795301Y-54013879D01*
X140790986Y-54052175D01*
X140784808Y-54079244D01*
X140772081Y-54115617D01*
X140760032Y-54140636D01*
X140739529Y-54173266D01*
X140722217Y-54194975D01*
X140694975Y-54222217D01*
X140673266Y-54239529D01*
X140640636Y-54260032D01*
X140615618Y-54272081D01*
X140579243Y-54284809D01*
X140552172Y-54290987D01*
X140513882Y-54295301D01*
X140486116Y-54295301D01*
X140447826Y-54290987D01*
X140420755Y-54284809D01*
X140384380Y-54272081D01*
X140359362Y-54260032D01*
X140326732Y-54239529D01*
X140305023Y-54222217D01*
X140277782Y-54194976D01*
X140260469Y-54173266D01*
X140250527Y-54157443D01*
X140250527Y-54157444D01*
X140239967Y-54140639D01*
X140227918Y-54115619D01*
X140215190Y-54079245D01*
X140209011Y-54052175D01*
X140204696Y-54013870D01*
X140204697Y-53986112D01*
X140213979Y-53903731D01*
X140210440Y-53765005D01*
X140199483Y-53698463D01*
X140158354Y-53565925D01*
X140158352Y-53565922D01*
X140158352Y-53565921D01*
X140079338Y-53445687D01*
X140079337Y-53445685D01*
X140038648Y-53399683D01*
X140038401Y-53399363D01*
X140033046Y-53393349D01*
X140028518Y-53389506D01*
X139923351Y-53300240D01*
X139923349Y-53300239D01*
X139923346Y-53300236D01*
X139913933Y-53294322D01*
X139913932Y-53294321D01*
X139821117Y-53236002D01*
X139815360Y-53232384D01*
X139803525Y-53223941D01*
X139735983Y-53169510D01*
X139725552Y-53162806D01*
X139691634Y-53141008D01*
X139629818Y-53110065D01*
X139578681Y-53062454D01*
X139561402Y-52994754D01*
X139583467Y-52928460D01*
X139637871Y-52884620D01*
X139641985Y-52883001D01*
X139643619Y-52882392D01*
X139702998Y-52849968D01*
X139704463Y-52849202D01*
X139704928Y-52848914D01*
X139704942Y-52848907D01*
X139704948Y-52848904D01*
X139799941Y-52777789D01*
X139808279Y-52772063D01*
X139826735Y-52760466D01*
X139859366Y-52739963D01*
X139884373Y-52727919D01*
X139920761Y-52715186D01*
X139947824Y-52709010D01*
X139986118Y-52704696D01*
X140013881Y-52704696D01*
X140052177Y-52709010D01*
X140079244Y-52715188D01*
X140115619Y-52727916D01*
X140140633Y-52739963D01*
X140158637Y-52751275D01*
X140165089Y-52755329D01*
X140165091Y-52755330D01*
X140165093Y-52755331D01*
X140192356Y-52767614D01*
X140291607Y-52812331D01*
X140356312Y-52831331D01*
X140493579Y-52851783D01*
X140614827Y-52835610D01*
X140636190Y-52832761D01*
X140636191Y-52832760D01*
X140636196Y-52832760D01*
X140703433Y-52813760D01*
X140834914Y-52755328D01*
X140859371Y-52739959D01*
X140884379Y-52727916D01*
X140920758Y-52715186D01*
X140947807Y-52709012D01*
X140986126Y-52704695D01*
X141013879Y-52704695D01*
X141052171Y-52709010D01*
G37*
%TD.AperFunction*%
%TA.AperFunction,Conductor*%
G36*
X137552173Y-52709010D02*
G01*
X137579237Y-52715187D01*
X137615620Y-52727918D01*
X137640637Y-52739966D01*
X137684638Y-52767614D01*
X137696473Y-52776057D01*
X137764016Y-52830489D01*
X137764018Y-52830490D01*
X137764019Y-52830491D01*
X137797147Y-52851782D01*
X137808371Y-52858995D01*
X137870180Y-52889934D01*
X137921318Y-52937544D01*
X137938597Y-53005244D01*
X137916532Y-53071538D01*
X137862129Y-53115379D01*
X137858019Y-53116996D01*
X137856391Y-53117603D01*
X137856383Y-53117607D01*
X137856381Y-53117608D01*
X137836467Y-53128482D01*
X137795061Y-53151091D01*
X137795059Y-53151092D01*
X137795058Y-53151093D01*
X137746022Y-53187801D01*
X137700062Y-53222206D01*
X137691724Y-53227932D01*
X137640634Y-53260034D01*
X137615621Y-53272080D01*
X137590628Y-53280826D01*
X137569261Y-53289423D01*
X137547582Y-53298145D01*
X137541561Y-53300895D01*
X137526897Y-53307592D01*
X137526883Y-53307599D01*
X137485650Y-53328768D01*
X137446801Y-53359106D01*
X137381848Y-53384853D01*
X137313286Y-53371397D01*
X137262883Y-53323009D01*
X137246481Y-53261375D01*
X137246481Y-53236002D01*
X137208033Y-53042716D01*
X137208032Y-53042715D01*
X137208032Y-53042711D01*
X137186929Y-52991765D01*
X137179461Y-52922299D01*
X137210735Y-52859820D01*
X137227181Y-52845048D01*
X137246629Y-52830489D01*
X137269254Y-52813552D01*
X137305032Y-52777772D01*
X137326726Y-52760471D01*
X137359367Y-52739961D01*
X137384373Y-52727919D01*
X137420760Y-52715187D01*
X137447822Y-52709010D01*
X137486118Y-52704696D01*
X137513880Y-52704696D01*
X137552173Y-52709010D01*
G37*
%TD.AperFunction*%
%TA.AperFunction,Conductor*%
G36*
X138802173Y-52709010D02*
G01*
X138829237Y-52715187D01*
X138865620Y-52727918D01*
X138890637Y-52739966D01*
X138934638Y-52767614D01*
X138946473Y-52776057D01*
X139014016Y-52830489D01*
X139014018Y-52830490D01*
X139014019Y-52830491D01*
X139047147Y-52851782D01*
X139058371Y-52858995D01*
X139120180Y-52889934D01*
X139171318Y-52937544D01*
X139188597Y-53005244D01*
X139166532Y-53071538D01*
X139112129Y-53115379D01*
X139108019Y-53116996D01*
X139106391Y-53117603D01*
X139106383Y-53117607D01*
X139106381Y-53117608D01*
X139086467Y-53128482D01*
X139045061Y-53151091D01*
X139045059Y-53151092D01*
X139045058Y-53151093D01*
X138996022Y-53187801D01*
X138950062Y-53222206D01*
X138941724Y-53227932D01*
X138890636Y-53260033D01*
X138865618Y-53272081D01*
X138829243Y-53284809D01*
X138802172Y-53290987D01*
X138763882Y-53295301D01*
X138736116Y-53295301D01*
X138697826Y-53290987D01*
X138670755Y-53284809D01*
X138634380Y-53272081D01*
X138609362Y-53260033D01*
X138565362Y-53232386D01*
X138553526Y-53223942D01*
X138485983Y-53169510D01*
X138475552Y-53162806D01*
X138441634Y-53141008D01*
X138379818Y-53110065D01*
X138328681Y-53062454D01*
X138311402Y-52994754D01*
X138333467Y-52928460D01*
X138387871Y-52884620D01*
X138391985Y-52883001D01*
X138393619Y-52882392D01*
X138452998Y-52849968D01*
X138454463Y-52849202D01*
X138454928Y-52848914D01*
X138454942Y-52848907D01*
X138454948Y-52848904D01*
X138549941Y-52777789D01*
X138558279Y-52772063D01*
X138576735Y-52760466D01*
X138609366Y-52739963D01*
X138634373Y-52727919D01*
X138670761Y-52715186D01*
X138697822Y-52709010D01*
X138736118Y-52704696D01*
X138763880Y-52704696D01*
X138802173Y-52709010D01*
G37*
%TD.AperFunction*%
%TD*%
%TA.AperFunction,Conductor*%
%TO.N,+3.3VA*%
G36*
X127891847Y-56200597D02*
G01*
X128068728Y-56218018D01*
X128092556Y-56222757D01*
X128256788Y-56272576D01*
X128279240Y-56281877D01*
X128430585Y-56362772D01*
X128450797Y-56376277D01*
X128588186Y-56489030D01*
X128597202Y-56497202D01*
X131587043Y-59487043D01*
X131620528Y-59548366D01*
X131616407Y-59615670D01*
X131614631Y-59620746D01*
X131594435Y-59799996D01*
X131594435Y-59800003D01*
X131614630Y-59979249D01*
X131614631Y-59979254D01*
X131674211Y-60149523D01*
X131724663Y-60229816D01*
X131770184Y-60302262D01*
X131897738Y-60429816D01*
X132050478Y-60525789D01*
X132100316Y-60543228D01*
X132220745Y-60585368D01*
X132220750Y-60585369D01*
X132399996Y-60605565D01*
X132400000Y-60605565D01*
X132400003Y-60605565D01*
X132493100Y-60595075D01*
X132558387Y-60587719D01*
X132627209Y-60599773D01*
X132678589Y-60647122D01*
X132681629Y-60652485D01*
X132718122Y-60720757D01*
X132727425Y-60743216D01*
X132765647Y-60869219D01*
X132766270Y-60939086D01*
X132739136Y-60988186D01*
X132667470Y-61067778D01*
X132667465Y-61067785D01*
X132572821Y-61231715D01*
X132572818Y-61231722D01*
X132514327Y-61411740D01*
X132514326Y-61411744D01*
X132494540Y-61600000D01*
X132514326Y-61788256D01*
X132514327Y-61788259D01*
X132572818Y-61968277D01*
X132572821Y-61968284D01*
X132667466Y-62132215D01*
X132667648Y-62132417D01*
X132667716Y-62132559D01*
X132671285Y-62137471D01*
X132670386Y-62138123D01*
X132697879Y-62195408D01*
X132699500Y-62215391D01*
X132699500Y-64081006D01*
X132699500Y-64218994D01*
X132699500Y-64218996D01*
X132699499Y-64218996D01*
X132726418Y-64354322D01*
X132726421Y-64354332D01*
X132779221Y-64481804D01*
X132782098Y-64487186D01*
X132781020Y-64487761D01*
X132799980Y-64548294D01*
X132800000Y-64550518D01*
X132800000Y-71543647D01*
X132799220Y-71557531D01*
X132794435Y-71599998D01*
X132794435Y-71600002D01*
X132799220Y-71642468D01*
X132800000Y-71656352D01*
X132800000Y-72843647D01*
X132799220Y-72857531D01*
X132794435Y-72899998D01*
X132794435Y-72900002D01*
X132799220Y-72942468D01*
X132800000Y-72956352D01*
X132800000Y-74079693D01*
X132799403Y-74091847D01*
X132781982Y-74268721D01*
X132777240Y-74292562D01*
X132727424Y-74456785D01*
X132718121Y-74479243D01*
X132637227Y-74630585D01*
X132623722Y-74650797D01*
X132510969Y-74788186D01*
X132502797Y-74797202D01*
X131697202Y-75602797D01*
X131688186Y-75610969D01*
X131550797Y-75723722D01*
X131530585Y-75737227D01*
X131379243Y-75818121D01*
X131356785Y-75827424D01*
X131192562Y-75877240D01*
X131168721Y-75881982D01*
X130991847Y-75899403D01*
X130979693Y-75900000D01*
X128220307Y-75900000D01*
X128208153Y-75899403D01*
X128031278Y-75881982D01*
X128007437Y-75877240D01*
X127843214Y-75827424D01*
X127820756Y-75818121D01*
X127669414Y-75737227D01*
X127649202Y-75723722D01*
X127511813Y-75610969D01*
X127502797Y-75602797D01*
X124989004Y-73089004D01*
X124955519Y-73027681D01*
X124960503Y-72957989D01*
X125002375Y-72902056D01*
X125067839Y-72877639D01*
X125117643Y-72884282D01*
X125120745Y-72885368D01*
X125120746Y-72885368D01*
X125120750Y-72885369D01*
X125299996Y-72905565D01*
X125300000Y-72905565D01*
X125300004Y-72905565D01*
X125479249Y-72885369D01*
X125479252Y-72885368D01*
X125479255Y-72885368D01*
X125649522Y-72825789D01*
X125802262Y-72729816D01*
X125929816Y-72602262D01*
X126025789Y-72449522D01*
X126085368Y-72279255D01*
X126086390Y-72270184D01*
X126105565Y-72100003D01*
X126105565Y-72099996D01*
X126085369Y-71920750D01*
X126085368Y-71920745D01*
X126025788Y-71750475D01*
X126004108Y-71715973D01*
X125985107Y-71648737D01*
X126004108Y-71584027D01*
X126025788Y-71549524D01*
X126025790Y-71549519D01*
X126085368Y-71379255D01*
X126085369Y-71379249D01*
X126105565Y-71200003D01*
X126105565Y-71199996D01*
X126085369Y-71020750D01*
X126085368Y-71020745D01*
X126037788Y-70884769D01*
X126025789Y-70850478D01*
X126003265Y-70814632D01*
X125929815Y-70697737D01*
X125802262Y-70570184D01*
X125649523Y-70474211D01*
X125479254Y-70414631D01*
X125479249Y-70414630D01*
X125300004Y-70394435D01*
X125299996Y-70394435D01*
X125120750Y-70414630D01*
X125120745Y-70414631D01*
X124950476Y-70474211D01*
X124797737Y-70570184D01*
X124670184Y-70697737D01*
X124574211Y-70850476D01*
X124514631Y-71020745D01*
X124514630Y-71020750D01*
X124494435Y-71199996D01*
X124494435Y-71200003D01*
X124514630Y-71379249D01*
X124514633Y-71379262D01*
X124574209Y-71549519D01*
X124595893Y-71584030D01*
X124614892Y-71651267D01*
X124595893Y-71715970D01*
X124574209Y-71750480D01*
X124514633Y-71920737D01*
X124514630Y-71920750D01*
X124494435Y-72099996D01*
X124494435Y-72100003D01*
X124514630Y-72279249D01*
X124514633Y-72279260D01*
X124515718Y-72282361D01*
X124515826Y-72284489D01*
X124516182Y-72286047D01*
X124515909Y-72286109D01*
X124519279Y-72352140D01*
X124484549Y-72412767D01*
X124422556Y-72444993D01*
X124352980Y-72438587D01*
X124310995Y-72410995D01*
X123497202Y-71597202D01*
X123489030Y-71588186D01*
X123376277Y-71450797D01*
X123362772Y-71430585D01*
X123281877Y-71279240D01*
X123272575Y-71256785D01*
X123255351Y-71200003D01*
X123222757Y-71092556D01*
X123218018Y-71068728D01*
X123201097Y-70896923D01*
X123200500Y-70884769D01*
X123200500Y-65615229D01*
X123201097Y-65603075D01*
X123218018Y-65431269D01*
X123222757Y-65407445D01*
X123272577Y-65243207D01*
X123281875Y-65220762D01*
X123362775Y-65069408D01*
X123376272Y-65049208D01*
X123489039Y-64911802D01*
X123497192Y-64902807D01*
X125588183Y-62811816D01*
X125649504Y-62778333D01*
X125675855Y-62775499D01*
X126760372Y-62775499D01*
X126819983Y-62769091D01*
X126954831Y-62718796D01*
X127070046Y-62632546D01*
X127156296Y-62517331D01*
X127206591Y-62382483D01*
X127213000Y-62322873D01*
X127212999Y-61238361D01*
X127232684Y-61171323D01*
X127249309Y-61150690D01*
X127523223Y-60876777D01*
X127619139Y-60751777D01*
X127679434Y-60606211D01*
X127700000Y-60450000D01*
X127699063Y-60442882D01*
X127709825Y-60373848D01*
X127756028Y-60321700D01*
X127882786Y-60242053D01*
X127902259Y-60229818D01*
X127902259Y-60229817D01*
X127902262Y-60229816D01*
X128029816Y-60102262D01*
X128125789Y-59949522D01*
X128185368Y-59779255D01*
X128203228Y-59620745D01*
X128205565Y-59600003D01*
X128205565Y-59599996D01*
X128185369Y-59420750D01*
X128185368Y-59420745D01*
X128125788Y-59250476D01*
X128029815Y-59097737D01*
X127902262Y-58970184D01*
X127749523Y-58874211D01*
X127579254Y-58814631D01*
X127579249Y-58814630D01*
X127400004Y-58794435D01*
X127399996Y-58794435D01*
X127335388Y-58801714D01*
X127266566Y-58789659D01*
X127215187Y-58742310D01*
X127197563Y-58674699D01*
X127198285Y-58664610D01*
X127205565Y-58600002D01*
X127205565Y-58599996D01*
X127185369Y-58420750D01*
X127185368Y-58420745D01*
X127125788Y-58250476D01*
X127086582Y-58188080D01*
X127029816Y-58097738D01*
X126902262Y-57970184D01*
X126869379Y-57949522D01*
X126749523Y-57874211D01*
X126579254Y-57814631D01*
X126579250Y-57814630D01*
X126510116Y-57806841D01*
X126445702Y-57779774D01*
X126406147Y-57722179D01*
X126400000Y-57683621D01*
X126400000Y-57220306D01*
X126400597Y-57208152D01*
X126418018Y-57031269D01*
X126422757Y-57007445D01*
X126472577Y-56843207D01*
X126481875Y-56820762D01*
X126562775Y-56669408D01*
X126576272Y-56649208D01*
X126689039Y-56511802D01*
X126697192Y-56502807D01*
X126702807Y-56497192D01*
X126711802Y-56489039D01*
X126849208Y-56376272D01*
X126869408Y-56362775D01*
X127020762Y-56281875D01*
X127043207Y-56272577D01*
X127207445Y-56222757D01*
X127231269Y-56218018D01*
X127408153Y-56200597D01*
X127420307Y-56200000D01*
X127879693Y-56200000D01*
X127891847Y-56200597D01*
G37*
%TD.AperFunction*%
%TD*%
%TA.AperFunction,Conductor*%
%TO.N,VCC*%
G36*
X155617197Y-51279731D02*
G01*
X155628823Y-51288193D01*
X155697666Y-51344691D01*
X155714854Y-51361879D01*
X155823722Y-51494535D01*
X155837227Y-51514747D01*
X155918121Y-51666089D01*
X155927424Y-51688547D01*
X155977240Y-51852770D01*
X155981982Y-51876611D01*
X155999403Y-52053484D01*
X156000000Y-52065638D01*
X156000000Y-56679693D01*
X155999403Y-56691847D01*
X155981982Y-56868721D01*
X155977240Y-56892562D01*
X155927424Y-57056785D01*
X155918121Y-57079243D01*
X155837227Y-57230585D01*
X155823722Y-57250797D01*
X155710969Y-57388186D01*
X155702797Y-57397202D01*
X152692897Y-60407101D01*
X152568530Y-60558641D01*
X152568526Y-60558648D01*
X152476123Y-60731522D01*
X152476122Y-60731525D01*
X152419214Y-60919124D01*
X152400000Y-61114217D01*
X152400000Y-66320091D01*
X152399378Y-66332494D01*
X152381238Y-66512944D01*
X152376300Y-66537254D01*
X152342349Y-66646783D01*
X152311590Y-66697751D01*
X149363453Y-69645888D01*
X149333121Y-69668148D01*
X149231028Y-69721403D01*
X149208956Y-69730338D01*
X149047802Y-69778161D01*
X149024431Y-69782712D01*
X148895966Y-69795103D01*
X148851142Y-69799427D01*
X148839239Y-69800000D01*
X145934849Y-69800000D01*
X145922319Y-69799365D01*
X145740035Y-69780850D01*
X145715491Y-69775813D01*
X145546663Y-69722908D01*
X145523639Y-69713041D01*
X145368900Y-69627273D01*
X145348325Y-69612974D01*
X145209193Y-69493735D01*
X145200105Y-69485111D01*
X144989976Y-69264475D01*
X144779936Y-69043932D01*
X144772219Y-69035017D01*
X144665816Y-68899572D01*
X144653090Y-68879750D01*
X144576941Y-68731910D01*
X144568192Y-68710038D01*
X144521374Y-68550458D01*
X144516920Y-68527328D01*
X144500561Y-68355879D01*
X144500000Y-68344101D01*
X144500000Y-67353556D01*
X144483599Y-67187036D01*
X144483599Y-67187033D01*
X144435027Y-67026913D01*
X144356150Y-66879345D01*
X144337113Y-66856149D01*
X144250000Y-66749999D01*
X144120655Y-66643850D01*
X144120649Y-66643846D01*
X143973092Y-66564975D01*
X143973089Y-66564974D01*
X143973087Y-66564973D01*
X143812967Y-66516401D01*
X143812965Y-66516400D01*
X143812963Y-66516400D01*
X143701022Y-66505375D01*
X143646447Y-66500000D01*
X143646444Y-66500000D01*
X138920307Y-66500000D01*
X138908153Y-66499403D01*
X138731278Y-66481982D01*
X138707437Y-66477240D01*
X138543214Y-66427424D01*
X138520756Y-66418121D01*
X138369414Y-66337227D01*
X138349202Y-66323722D01*
X138211813Y-66210969D01*
X138202797Y-66202797D01*
X137697202Y-65697202D01*
X137689030Y-65688186D01*
X137576277Y-65550797D01*
X137562772Y-65530585D01*
X137481877Y-65379240D01*
X137472575Y-65356785D01*
X137422757Y-65192556D01*
X137418018Y-65168728D01*
X137400597Y-64991847D01*
X137400000Y-64979693D01*
X137400000Y-64127007D01*
X137419685Y-64059968D01*
X137431850Y-64044035D01*
X137471503Y-63999996D01*
X148394435Y-63999996D01*
X148394435Y-64000003D01*
X148414630Y-64179249D01*
X148414631Y-64179254D01*
X148474211Y-64349523D01*
X148570184Y-64502262D01*
X148697738Y-64629816D01*
X148850478Y-64725789D01*
X148972168Y-64768370D01*
X149020745Y-64785368D01*
X149020750Y-64785369D01*
X149199996Y-64805565D01*
X149200000Y-64805565D01*
X149200004Y-64805565D01*
X149379249Y-64785369D01*
X149379251Y-64785368D01*
X149379255Y-64785368D01*
X149473821Y-64752277D01*
X149543596Y-64748715D01*
X149604224Y-64783443D01*
X149631816Y-64828364D01*
X149674211Y-64949523D01*
X149723081Y-65027298D01*
X149770184Y-65102262D01*
X149897738Y-65229816D01*
X150050478Y-65325789D01*
X150203232Y-65379240D01*
X150220745Y-65385368D01*
X150220750Y-65385369D01*
X150399996Y-65405565D01*
X150400000Y-65405565D01*
X150400004Y-65405565D01*
X150579249Y-65385369D01*
X150579252Y-65385368D01*
X150579255Y-65385368D01*
X150749522Y-65325789D01*
X150902262Y-65229816D01*
X151029816Y-65102262D01*
X151125789Y-64949522D01*
X151149449Y-64881903D01*
X151190168Y-64825128D01*
X151252606Y-64799637D01*
X151332683Y-64790615D01*
X151379249Y-64785369D01*
X151379252Y-64785368D01*
X151379255Y-64785368D01*
X151549522Y-64725789D01*
X151702262Y-64629816D01*
X151829816Y-64502262D01*
X151925789Y-64349522D01*
X151985368Y-64179255D01*
X151997353Y-64072888D01*
X152005565Y-64000003D01*
X152005565Y-63999996D01*
X151985369Y-63820750D01*
X151985368Y-63820745D01*
X151964346Y-63760667D01*
X151925789Y-63650478D01*
X151894810Y-63601176D01*
X151829815Y-63497737D01*
X151702262Y-63370184D01*
X151549523Y-63274211D01*
X151379254Y-63214631D01*
X151379249Y-63214630D01*
X151200004Y-63194435D01*
X151199996Y-63194435D01*
X151020750Y-63214630D01*
X151020745Y-63214631D01*
X150850474Y-63274212D01*
X150784244Y-63315827D01*
X150717007Y-63334827D01*
X150650172Y-63314459D01*
X150630592Y-63298514D01*
X150502262Y-63170184D01*
X150349523Y-63074211D01*
X150179254Y-63014631D01*
X150179249Y-63014630D01*
X150000004Y-62994435D01*
X149999996Y-62994435D01*
X149820750Y-63014630D01*
X149820745Y-63014631D01*
X149650476Y-63074211D01*
X149497734Y-63170186D01*
X149497732Y-63170187D01*
X149487988Y-63179932D01*
X149426664Y-63213415D01*
X149386418Y-63213248D01*
X149386175Y-63215411D01*
X149200004Y-63194435D01*
X149199996Y-63194435D01*
X149020750Y-63214630D01*
X149020745Y-63214631D01*
X148850476Y-63274211D01*
X148697737Y-63370184D01*
X148570184Y-63497737D01*
X148474211Y-63650476D01*
X148414631Y-63820745D01*
X148414630Y-63820750D01*
X148394435Y-63999996D01*
X137471503Y-63999996D01*
X137532533Y-63932216D01*
X137627179Y-63768284D01*
X137627181Y-63768277D01*
X137629824Y-63762344D01*
X137630916Y-63762830D01*
X137666596Y-63710633D01*
X137730950Y-63683425D01*
X137770883Y-63685323D01*
X137922379Y-63717525D01*
X137922380Y-63717525D01*
X138111669Y-63717525D01*
X138111671Y-63717525D01*
X138296828Y-63678169D01*
X138469755Y-63601176D01*
X138622896Y-63489913D01*
X138749558Y-63349241D01*
X138844204Y-63185309D01*
X138902699Y-63005281D01*
X138922485Y-62817025D01*
X138902699Y-62628769D01*
X138844204Y-62448741D01*
X138792704Y-62359541D01*
X139760416Y-62359541D01*
X139760416Y-62359548D01*
X139780611Y-62538794D01*
X139780612Y-62538799D01*
X139840192Y-62709068D01*
X139936165Y-62861807D01*
X140063719Y-62989361D01*
X140216459Y-63085334D01*
X140350440Y-63132216D01*
X140386726Y-63144913D01*
X140386731Y-63144914D01*
X140565977Y-63165110D01*
X140565981Y-63165110D01*
X140565985Y-63165110D01*
X140745230Y-63144914D01*
X140745233Y-63144913D01*
X140745236Y-63144913D01*
X140915503Y-63085334D01*
X141068243Y-62989361D01*
X141195797Y-62861807D01*
X141291770Y-62709067D01*
X141351349Y-62538800D01*
X141351350Y-62538794D01*
X141371546Y-62359548D01*
X141371546Y-62359541D01*
X141351350Y-62180295D01*
X141351349Y-62180290D01*
X141341213Y-62151323D01*
X141291770Y-62010023D01*
X141195797Y-61857283D01*
X141068243Y-61729729D01*
X140995095Y-61683767D01*
X140915504Y-61633756D01*
X140745235Y-61574176D01*
X140745230Y-61574175D01*
X140565985Y-61553980D01*
X140565977Y-61553980D01*
X140386731Y-61574175D01*
X140386726Y-61574176D01*
X140216457Y-61633756D01*
X140063718Y-61729729D01*
X139936165Y-61857282D01*
X139840192Y-62010021D01*
X139780612Y-62180290D01*
X139780611Y-62180295D01*
X139760416Y-62359541D01*
X138792704Y-62359541D01*
X138749558Y-62284809D01*
X138622896Y-62144137D01*
X138622895Y-62144136D01*
X138469759Y-62032876D01*
X138469754Y-62032873D01*
X138325614Y-61968697D01*
X138272377Y-61923447D01*
X138258121Y-61893740D01*
X138243161Y-61847698D01*
X138148515Y-61683766D01*
X138021853Y-61543094D01*
X137999856Y-61527112D01*
X137868716Y-61431833D01*
X137868711Y-61431830D01*
X137695789Y-61354839D01*
X137695784Y-61354837D01*
X137544675Y-61322718D01*
X137510628Y-61315482D01*
X137510627Y-61315482D01*
X137504271Y-61314131D01*
X137504541Y-61312856D01*
X137446409Y-61288929D01*
X137406433Y-61231626D01*
X137400000Y-61192204D01*
X137400000Y-60600003D01*
X137396875Y-60568277D01*
X137380785Y-60404910D01*
X137323880Y-60217317D01*
X137231470Y-60044430D01*
X137193648Y-59998344D01*
X137107107Y-59892892D01*
X136955571Y-59768531D01*
X136955564Y-59768526D01*
X136782690Y-59676123D01*
X136782686Y-59676122D01*
X136782683Y-59676120D01*
X136625226Y-59628356D01*
X136566789Y-59590059D01*
X136538333Y-59526247D01*
X136548893Y-59457180D01*
X136595117Y-59404786D01*
X136613759Y-59395140D01*
X136719895Y-59351178D01*
X136883763Y-59241685D01*
X137023120Y-59102328D01*
X137132613Y-58938460D01*
X137208032Y-58756381D01*
X137233464Y-58628527D01*
X137246481Y-58563089D01*
X137246481Y-57988143D01*
X137266166Y-57921104D01*
X137318970Y-57875349D01*
X137388128Y-57865405D01*
X137432476Y-57880754D01*
X137473145Y-57904234D01*
X137606798Y-57940046D01*
X137606800Y-57940046D01*
X137745162Y-57940046D01*
X137745164Y-57940046D01*
X137878817Y-57904234D01*
X137998646Y-57835051D01*
X138096486Y-57737211D01*
X138112712Y-57709105D01*
X138163279Y-57660890D01*
X138231886Y-57647666D01*
X138296751Y-57673634D01*
X138307781Y-57683424D01*
X138313720Y-57689363D01*
X138466460Y-57785336D01*
X138557731Y-57817273D01*
X138636727Y-57844915D01*
X138636732Y-57844916D01*
X138815978Y-57865112D01*
X138815982Y-57865112D01*
X138815986Y-57865112D01*
X138995231Y-57844916D01*
X138995234Y-57844915D01*
X138995237Y-57844915D01*
X139165504Y-57785336D01*
X139318244Y-57689363D01*
X139318245Y-57689361D01*
X139320958Y-57687657D01*
X139388195Y-57668656D01*
X139455030Y-57689023D01*
X139483879Y-57715338D01*
X139486308Y-57718385D01*
X139486312Y-57718390D01*
X139613866Y-57845944D01*
X139667773Y-57879816D01*
X139763626Y-57940045D01*
X139766606Y-57941917D01*
X139936873Y-58001496D01*
X139936878Y-58001497D01*
X140116124Y-58021693D01*
X140116128Y-58021693D01*
X140116132Y-58021693D01*
X140295377Y-58001497D01*
X140295380Y-58001496D01*
X140295383Y-58001496D01*
X140465650Y-57941917D01*
X140618390Y-57845944D01*
X140618395Y-57845938D01*
X140621225Y-57843683D01*
X140623403Y-57842793D01*
X140624286Y-57842239D01*
X140624383Y-57842393D01*
X140685911Y-57817273D01*
X140698540Y-57816628D01*
X140733188Y-57816628D01*
X140800227Y-57836313D01*
X140820869Y-57852947D01*
X140847738Y-57879816D01*
X141000478Y-57975789D01*
X141131664Y-58021693D01*
X141170745Y-58035368D01*
X141170750Y-58035369D01*
X141349996Y-58055565D01*
X141350000Y-58055565D01*
X141350004Y-58055565D01*
X141529249Y-58035369D01*
X141529252Y-58035368D01*
X141529255Y-58035368D01*
X141699522Y-57975789D01*
X141852262Y-57879816D01*
X141979816Y-57752262D01*
X142075789Y-57599522D01*
X142135368Y-57429255D01*
X142135368Y-57429254D01*
X142137668Y-57422682D01*
X142140206Y-57423570D01*
X142168309Y-57373288D01*
X142193769Y-57355412D01*
X142193383Y-57354797D01*
X142208396Y-57345363D01*
X142930481Y-57345363D01*
X142930481Y-57483729D01*
X142961508Y-57599522D01*
X142966293Y-57617381D01*
X142966294Y-57617384D01*
X143035473Y-57737207D01*
X143035475Y-57737209D01*
X143035476Y-57737211D01*
X143133316Y-57835051D01*
X143133317Y-57835052D01*
X143133319Y-57835053D01*
X143185383Y-57865112D01*
X143253145Y-57904234D01*
X143386798Y-57940046D01*
X143386800Y-57940046D01*
X143525162Y-57940046D01*
X143525164Y-57940046D01*
X143658817Y-57904234D01*
X143699483Y-57880755D01*
X143767380Y-57864283D01*
X143833407Y-57887135D01*
X143876598Y-57942056D01*
X143885481Y-57988143D01*
X143885481Y-58563087D01*
X143885481Y-58563089D01*
X143885480Y-58563089D01*
X143923928Y-58756375D01*
X143923931Y-58756385D01*
X143999345Y-58938453D01*
X143999352Y-58938466D01*
X144108841Y-59102327D01*
X144108844Y-59102331D01*
X144248195Y-59241682D01*
X144248199Y-59241685D01*
X144412060Y-59351174D01*
X144412073Y-59351181D01*
X144594141Y-59426595D01*
X144594146Y-59426597D01*
X144594150Y-59426597D01*
X144594151Y-59426598D01*
X144793415Y-59466235D01*
X144793021Y-59468215D01*
X144849227Y-59490897D01*
X144889598Y-59547923D01*
X144892729Y-59617722D01*
X144869648Y-59661339D01*
X144871285Y-59662529D01*
X144867466Y-59667784D01*
X144772821Y-59831715D01*
X144772818Y-59831722D01*
X144724882Y-59979255D01*
X144714326Y-60011744D01*
X144711501Y-60038624D01*
X144694540Y-60200000D01*
X144714326Y-60388256D01*
X144714328Y-60388262D01*
X144746517Y-60487332D01*
X144748512Y-60557173D01*
X144720737Y-60608620D01*
X144667468Y-60667782D01*
X144667464Y-60667787D01*
X144572821Y-60831715D01*
X144572818Y-60831722D01*
X144514327Y-61011740D01*
X144514326Y-61011744D01*
X144494540Y-61200000D01*
X144514326Y-61388256D01*
X144514327Y-61388259D01*
X144572818Y-61568277D01*
X144572821Y-61568284D01*
X144667467Y-61732216D01*
X144771447Y-61847697D01*
X144794129Y-61872888D01*
X144946070Y-61983279D01*
X144988736Y-62038608D01*
X144994715Y-62108222D01*
X144962110Y-62170017D01*
X144923622Y-62196876D01*
X144747267Y-62275396D01*
X144747266Y-62275397D01*
X144705875Y-62305469D01*
X144640068Y-62328948D01*
X144572015Y-62313122D01*
X144560107Y-62305469D01*
X144518714Y-62275395D01*
X144518710Y-62275393D01*
X144345788Y-62198402D01*
X144345783Y-62198400D01*
X144199982Y-62167410D01*
X144160627Y-62159045D01*
X143971335Y-62159045D01*
X143938878Y-62165943D01*
X143786178Y-62198400D01*
X143786173Y-62198402D01*
X143613251Y-62275393D01*
X143613246Y-62275396D01*
X143460110Y-62386656D01*
X143333447Y-62527330D01*
X143238802Y-62691260D01*
X143238799Y-62691267D01*
X143193165Y-62831716D01*
X143180307Y-62871289D01*
X143160521Y-63059545D01*
X143180307Y-63247801D01*
X143180308Y-63247804D01*
X143238799Y-63427822D01*
X143238802Y-63427829D01*
X143333448Y-63591761D01*
X143415983Y-63683425D01*
X143460110Y-63732433D01*
X143613246Y-63843693D01*
X143613251Y-63843696D01*
X143786173Y-63920687D01*
X143786176Y-63920688D01*
X143786178Y-63920689D01*
X143971335Y-63960045D01*
X143971336Y-63960045D01*
X144160625Y-63960045D01*
X144160627Y-63960045D01*
X144345784Y-63920689D01*
X144518711Y-63843696D01*
X144560106Y-63813620D01*
X144625907Y-63790141D01*
X144693962Y-63805965D01*
X144705875Y-63813622D01*
X144747264Y-63843693D01*
X144747270Y-63843697D01*
X144920192Y-63920688D01*
X144920195Y-63920689D01*
X144920197Y-63920690D01*
X145105354Y-63960046D01*
X145105355Y-63960046D01*
X145294644Y-63960046D01*
X145294646Y-63960046D01*
X145479803Y-63920690D01*
X145652730Y-63843697D01*
X145805871Y-63732434D01*
X145932533Y-63591762D01*
X146027179Y-63427830D01*
X146085674Y-63247802D01*
X146105460Y-63059546D01*
X146085674Y-62871290D01*
X146027179Y-62691262D01*
X145932533Y-62527330D01*
X145805871Y-62386658D01*
X145805868Y-62386656D01*
X145653929Y-62276266D01*
X145611263Y-62220936D01*
X145605284Y-62151323D01*
X145637889Y-62089528D01*
X145676378Y-62062669D01*
X145743293Y-62032876D01*
X145852730Y-61984151D01*
X146005871Y-61872888D01*
X146132533Y-61732216D01*
X146227179Y-61568284D01*
X146285674Y-61388256D01*
X146305460Y-61200000D01*
X146285674Y-61011744D01*
X146253481Y-60912667D01*
X146251487Y-60842827D01*
X146279263Y-60791378D01*
X146285309Y-60784662D01*
X146332533Y-60732216D01*
X146427179Y-60568284D01*
X146485674Y-60388256D01*
X146505460Y-60200000D01*
X146485674Y-60011744D01*
X146427179Y-59831716D01*
X146332533Y-59667784D01*
X146205871Y-59527112D01*
X146205870Y-59527111D01*
X146052734Y-59415851D01*
X146052729Y-59415848D01*
X145879807Y-59338857D01*
X145879802Y-59338855D01*
X145729411Y-59306889D01*
X145667929Y-59273697D01*
X145634153Y-59212534D01*
X145638805Y-59142819D01*
X145659346Y-59106926D01*
X145663116Y-59102331D01*
X145663120Y-59102328D01*
X145772613Y-58938460D01*
X145848032Y-58756381D01*
X145873464Y-58628527D01*
X145886481Y-58563089D01*
X145886481Y-57266002D01*
X145848033Y-57072716D01*
X145848032Y-57072715D01*
X145848032Y-57072711D01*
X145824963Y-57017016D01*
X145772616Y-56890638D01*
X145772609Y-56890625D01*
X145663120Y-56726764D01*
X145663117Y-56726760D01*
X145523766Y-56587409D01*
X145523762Y-56587406D01*
X145359901Y-56477917D01*
X145359888Y-56477910D01*
X145177820Y-56402496D01*
X145177810Y-56402493D01*
X144984524Y-56364046D01*
X144984522Y-56364046D01*
X144787440Y-56364046D01*
X144787438Y-56364046D01*
X144594151Y-56402493D01*
X144594141Y-56402496D01*
X144412073Y-56477910D01*
X144412060Y-56477917D01*
X144248199Y-56587406D01*
X144248195Y-56587409D01*
X144108844Y-56726760D01*
X144108841Y-56726764D01*
X143999352Y-56890625D01*
X143999349Y-56890632D01*
X143975436Y-56948362D01*
X143931594Y-57002765D01*
X143865300Y-57024829D01*
X143797601Y-57007549D01*
X143785646Y-56998262D01*
X143785091Y-56998987D01*
X143778642Y-56994038D01*
X143658819Y-56924859D01*
X143658818Y-56924858D01*
X143658817Y-56924858D01*
X143525164Y-56889046D01*
X143386798Y-56889046D01*
X143253145Y-56924858D01*
X143253142Y-56924859D01*
X143133319Y-56994038D01*
X143133314Y-56994042D01*
X143035477Y-57091879D01*
X143035473Y-57091884D01*
X142966294Y-57211707D01*
X142966293Y-57211710D01*
X142930481Y-57345363D01*
X142208396Y-57345363D01*
X142229417Y-57332154D01*
X142352019Y-57255119D01*
X142479573Y-57127565D01*
X142575546Y-56974825D01*
X142635125Y-56804558D01*
X142635126Y-56804552D01*
X142655322Y-56625306D01*
X142655322Y-56625299D01*
X142635126Y-56446053D01*
X142635125Y-56446048D01*
X142619884Y-56402493D01*
X142575546Y-56275781D01*
X142574539Y-56274179D01*
X142479572Y-56123040D01*
X142352019Y-55995487D01*
X142199280Y-55899514D01*
X142029011Y-55839934D01*
X142029006Y-55839933D01*
X141849761Y-55819738D01*
X141849753Y-55819738D01*
X141670507Y-55839933D01*
X141670502Y-55839934D01*
X141500233Y-55899514D01*
X141347494Y-55995487D01*
X141219941Y-56123040D01*
X141123967Y-56275781D01*
X141105513Y-56328521D01*
X141064389Y-56446048D01*
X141064388Y-56446050D01*
X141062090Y-56452620D01*
X141059562Y-56451735D01*
X141031402Y-56502060D01*
X141005989Y-56519895D01*
X141006374Y-56520507D01*
X141000480Y-56524210D01*
X141000478Y-56524211D01*
X140885237Y-56596622D01*
X140819265Y-56615628D01*
X140698540Y-56615628D01*
X140631501Y-56595943D01*
X140621225Y-56588573D01*
X140618391Y-56586313D01*
X140618390Y-56586312D01*
X140519557Y-56524211D01*
X140465651Y-56490339D01*
X140295382Y-56430759D01*
X140295377Y-56430758D01*
X140116132Y-56410563D01*
X140116124Y-56410563D01*
X139936878Y-56430758D01*
X139936873Y-56430759D01*
X139766604Y-56490339D01*
X139611150Y-56588018D01*
X139543913Y-56607018D01*
X139477078Y-56586650D01*
X139448229Y-56560334D01*
X139445796Y-56557283D01*
X139318244Y-56429731D01*
X139165505Y-56333758D01*
X138995236Y-56274178D01*
X138995231Y-56274177D01*
X138815986Y-56253982D01*
X138815978Y-56253982D01*
X138636732Y-56274177D01*
X138636727Y-56274178D01*
X138466458Y-56333758D01*
X138313719Y-56429731D01*
X138186166Y-56557284D01*
X138090192Y-56710025D01*
X138041097Y-56850333D01*
X138000375Y-56907110D01*
X137935422Y-56932857D01*
X137887052Y-56925527D01*
X137886668Y-56926962D01*
X137878818Y-56924858D01*
X137878817Y-56924858D01*
X137745164Y-56889046D01*
X137606798Y-56889046D01*
X137473145Y-56924858D01*
X137473142Y-56924859D01*
X137353319Y-56994038D01*
X137346871Y-56998987D01*
X137344780Y-56996263D01*
X137297239Y-57022119D01*
X137227556Y-57017016D01*
X137171693Y-56975050D01*
X137156525Y-56948360D01*
X137132616Y-56890638D01*
X137132609Y-56890625D01*
X137023120Y-56726764D01*
X137023117Y-56726760D01*
X136883766Y-56587409D01*
X136883762Y-56587406D01*
X136719901Y-56477917D01*
X136719888Y-56477910D01*
X136537820Y-56402496D01*
X136537810Y-56402493D01*
X136344524Y-56364046D01*
X136344522Y-56364046D01*
X136147440Y-56364046D01*
X136147438Y-56364046D01*
X135954151Y-56402493D01*
X135954141Y-56402496D01*
X135772073Y-56477910D01*
X135772060Y-56477917D01*
X135608199Y-56587406D01*
X135608195Y-56587409D01*
X135468844Y-56726760D01*
X135468841Y-56726764D01*
X135359352Y-56890625D01*
X135359345Y-56890638D01*
X135283931Y-57072706D01*
X135283928Y-57072716D01*
X135245481Y-57266002D01*
X135245481Y-57266005D01*
X135245481Y-58563087D01*
X135245481Y-58563089D01*
X135245480Y-58563089D01*
X135283928Y-58756375D01*
X135283929Y-58756376D01*
X135283930Y-58756381D01*
X135320260Y-58844090D01*
X135327728Y-58913560D01*
X135296452Y-58976039D01*
X135236363Y-59011691D01*
X135222559Y-59014217D01*
X135220753Y-59014629D01*
X135050476Y-59074211D01*
X134965971Y-59127309D01*
X134898734Y-59146309D01*
X134834029Y-59127309D01*
X134749520Y-59074209D01*
X134579262Y-59014633D01*
X134579249Y-59014630D01*
X134400004Y-58994435D01*
X134399996Y-58994435D01*
X134220750Y-59014630D01*
X134220737Y-59014633D01*
X134050479Y-59074209D01*
X133965971Y-59127309D01*
X133898734Y-59146309D01*
X133834029Y-59127309D01*
X133749520Y-59074209D01*
X133579262Y-59014633D01*
X133579249Y-59014630D01*
X133400004Y-58994435D01*
X133399996Y-58994435D01*
X133220750Y-59014630D01*
X133220737Y-59014633D01*
X133050479Y-59074209D01*
X132965971Y-59127309D01*
X132898734Y-59146309D01*
X132834029Y-59127309D01*
X132749520Y-59074209D01*
X132579262Y-59014633D01*
X132579249Y-59014630D01*
X132400004Y-58994435D01*
X132399996Y-58994435D01*
X132220750Y-59014630D01*
X132220737Y-59014633D01*
X132050480Y-59074209D01*
X132035097Y-59083875D01*
X131967860Y-59102874D01*
X131901025Y-59082505D01*
X131881446Y-59066561D01*
X130636319Y-57821434D01*
X130602834Y-57760111D01*
X130600000Y-57733753D01*
X130600000Y-54233089D01*
X135245480Y-54233089D01*
X135283928Y-54426375D01*
X135283931Y-54426385D01*
X135359345Y-54608453D01*
X135359352Y-54608466D01*
X135468841Y-54772327D01*
X135468844Y-54772331D01*
X135608195Y-54911682D01*
X135608199Y-54911685D01*
X135772060Y-55021174D01*
X135772073Y-55021181D01*
X135954141Y-55096595D01*
X135954146Y-55096597D01*
X135954150Y-55096597D01*
X135954151Y-55096598D01*
X136147437Y-55135046D01*
X136147440Y-55135046D01*
X136344524Y-55135046D01*
X136479665Y-55108164D01*
X136537816Y-55096597D01*
X136627196Y-55059574D01*
X136696663Y-55052106D01*
X136759143Y-55083381D01*
X136779641Y-55108164D01*
X136870184Y-55252262D01*
X136997738Y-55379816D01*
X137150478Y-55475789D01*
X137320745Y-55535368D01*
X137320750Y-55535369D01*
X137499996Y-55555565D01*
X137500000Y-55555565D01*
X137500004Y-55555565D01*
X137679249Y-55535369D01*
X137679252Y-55535368D01*
X137679255Y-55535368D01*
X137849522Y-55475789D01*
X138002262Y-55379816D01*
X138129816Y-55252262D01*
X138225789Y-55099522D01*
X138285368Y-54929255D01*
X138291393Y-54875780D01*
X138305565Y-54750003D01*
X138305565Y-54749996D01*
X138285369Y-54570750D01*
X138285368Y-54570745D01*
X138234853Y-54426381D01*
X138225789Y-54400478D01*
X138129816Y-54247738D01*
X138002262Y-54120184D01*
X137849523Y-54024211D01*
X137757588Y-53992042D01*
X137700812Y-53951320D01*
X137675065Y-53886367D01*
X137688521Y-53817806D01*
X137736908Y-53767403D01*
X137757588Y-53757958D01*
X137849522Y-53725789D01*
X138002262Y-53629816D01*
X138037319Y-53594759D01*
X138098642Y-53561274D01*
X138168334Y-53566258D01*
X138212681Y-53594759D01*
X138247738Y-53629816D01*
X138400478Y-53725789D01*
X138519404Y-53767403D01*
X138570745Y-53785368D01*
X138570750Y-53785369D01*
X138749996Y-53805565D01*
X138750000Y-53805565D01*
X138750004Y-53805565D01*
X138929249Y-53785369D01*
X138929252Y-53785368D01*
X138929255Y-53785368D01*
X139099522Y-53725789D01*
X139252262Y-53629816D01*
X139287319Y-53594759D01*
X139348642Y-53561274D01*
X139418334Y-53566258D01*
X139462681Y-53594759D01*
X139497738Y-53629816D01*
X139565973Y-53672691D01*
X139654409Y-53728259D01*
X139700700Y-53780594D01*
X139711657Y-53847136D01*
X139694435Y-53999995D01*
X139694435Y-54000003D01*
X139714630Y-54179249D01*
X139714631Y-54179254D01*
X139774211Y-54349523D01*
X139822507Y-54426385D01*
X139870184Y-54502262D01*
X139997738Y-54629816D01*
X140150478Y-54725789D01*
X140320745Y-54785368D01*
X140320750Y-54785369D01*
X140499996Y-54805565D01*
X140500000Y-54805565D01*
X140500004Y-54805565D01*
X140679249Y-54785369D01*
X140679252Y-54785368D01*
X140679255Y-54785368D01*
X140849522Y-54725789D01*
X141002262Y-54629816D01*
X141129816Y-54502262D01*
X141225789Y-54349522D01*
X141285368Y-54179255D01*
X141302837Y-54024211D01*
X141305565Y-54000003D01*
X141305565Y-53999996D01*
X141288342Y-53847136D01*
X141300397Y-53778315D01*
X141345590Y-53728259D01*
X141349519Y-53725789D01*
X141349522Y-53725789D01*
X141502262Y-53629816D01*
X141537319Y-53594759D01*
X141598642Y-53561274D01*
X141668334Y-53566258D01*
X141712681Y-53594759D01*
X141747738Y-53629816D01*
X141900478Y-53725789D01*
X142019404Y-53767403D01*
X142070745Y-53785368D01*
X142070750Y-53785369D01*
X142249996Y-53805565D01*
X142250000Y-53805565D01*
X142250004Y-53805565D01*
X142429249Y-53785369D01*
X142429252Y-53785368D01*
X142429255Y-53785368D01*
X142599522Y-53725789D01*
X142684027Y-53672691D01*
X142751264Y-53653690D01*
X142815973Y-53672691D01*
X142900479Y-53725790D01*
X142992411Y-53757959D01*
X143049187Y-53798680D01*
X143074934Y-53863633D01*
X143061478Y-53932195D01*
X143013090Y-53982597D01*
X142992411Y-53992041D01*
X142900480Y-54024209D01*
X142747737Y-54120184D01*
X142620184Y-54247737D01*
X142524211Y-54400476D01*
X142464631Y-54570745D01*
X142464630Y-54570750D01*
X142444435Y-54749996D01*
X142444435Y-54750003D01*
X142464630Y-54929249D01*
X142464631Y-54929254D01*
X142524211Y-55099523D01*
X142529641Y-55108164D01*
X142620184Y-55252262D01*
X142747738Y-55379816D01*
X142900478Y-55475789D01*
X143070745Y-55535368D01*
X143070750Y-55535369D01*
X143249996Y-55555565D01*
X143250000Y-55555565D01*
X143250004Y-55555565D01*
X143429249Y-55535369D01*
X143429252Y-55535368D01*
X143429255Y-55535368D01*
X143599522Y-55475789D01*
X143752262Y-55379816D01*
X143879816Y-55252262D01*
X143975789Y-55099522D01*
X144029912Y-54944845D01*
X144070633Y-54888072D01*
X144135585Y-54862324D01*
X144204147Y-54875780D01*
X144234634Y-54898121D01*
X144248195Y-54911682D01*
X144248199Y-54911685D01*
X144412060Y-55021174D01*
X144412073Y-55021181D01*
X144594141Y-55096595D01*
X144594146Y-55096597D01*
X144594150Y-55096597D01*
X144594151Y-55096598D01*
X144787437Y-55135046D01*
X144787440Y-55135046D01*
X144984524Y-55135046D01*
X145119665Y-55108164D01*
X145177816Y-55096597D01*
X145359895Y-55021178D01*
X145523763Y-54911685D01*
X145663120Y-54772328D01*
X145772613Y-54608460D01*
X145848032Y-54426381D01*
X145886481Y-54233087D01*
X145886481Y-53236005D01*
X145886481Y-53236002D01*
X145848033Y-53042716D01*
X145848032Y-53042715D01*
X145848032Y-53042711D01*
X145848030Y-53042706D01*
X145772616Y-52860638D01*
X145772609Y-52860625D01*
X145663120Y-52696764D01*
X145663117Y-52696760D01*
X145523766Y-52557409D01*
X145523762Y-52557406D01*
X145359901Y-52447917D01*
X145359888Y-52447910D01*
X145177820Y-52372496D01*
X145177810Y-52372493D01*
X144984524Y-52334046D01*
X144984522Y-52334046D01*
X144787440Y-52334046D01*
X144787438Y-52334046D01*
X144594151Y-52372493D01*
X144594141Y-52372496D01*
X144412073Y-52447910D01*
X144412060Y-52447917D01*
X144248199Y-52557406D01*
X144154940Y-52650665D01*
X144093616Y-52684149D01*
X144023925Y-52679165D01*
X143967992Y-52637293D01*
X143962265Y-52628955D01*
X143917310Y-52557409D01*
X143879816Y-52497738D01*
X143752262Y-52370184D01*
X143684027Y-52327309D01*
X143599523Y-52274211D01*
X143429254Y-52214631D01*
X143429249Y-52214630D01*
X143250004Y-52194435D01*
X143249996Y-52194435D01*
X143070750Y-52214630D01*
X143070737Y-52214633D01*
X142900479Y-52274209D01*
X142815971Y-52327309D01*
X142748734Y-52346309D01*
X142684029Y-52327309D01*
X142599520Y-52274209D01*
X142429262Y-52214633D01*
X142429249Y-52214630D01*
X142250004Y-52194435D01*
X142249996Y-52194435D01*
X142070750Y-52214630D01*
X142070745Y-52214631D01*
X141900476Y-52274211D01*
X141747737Y-52370184D01*
X141712681Y-52405241D01*
X141651358Y-52438726D01*
X141581666Y-52433742D01*
X141537319Y-52405241D01*
X141502262Y-52370184D01*
X141349523Y-52274211D01*
X141179254Y-52214631D01*
X141179249Y-52214630D01*
X141000004Y-52194435D01*
X140999996Y-52194435D01*
X140820750Y-52214630D01*
X140820737Y-52214633D01*
X140650479Y-52274209D01*
X140565971Y-52327309D01*
X140498734Y-52346309D01*
X140434029Y-52327309D01*
X140349520Y-52274209D01*
X140179262Y-52214633D01*
X140179249Y-52214630D01*
X140000004Y-52194435D01*
X139999996Y-52194435D01*
X139820750Y-52214630D01*
X139820745Y-52214631D01*
X139650476Y-52274211D01*
X139497737Y-52370184D01*
X139462681Y-52405241D01*
X139401358Y-52438726D01*
X139331666Y-52433742D01*
X139287319Y-52405241D01*
X139252262Y-52370184D01*
X139099523Y-52274211D01*
X138929254Y-52214631D01*
X138929249Y-52214630D01*
X138750004Y-52194435D01*
X138749996Y-52194435D01*
X138570750Y-52214630D01*
X138570745Y-52214631D01*
X138400476Y-52274211D01*
X138247737Y-52370184D01*
X138212681Y-52405241D01*
X138151358Y-52438726D01*
X138081666Y-52433742D01*
X138037319Y-52405241D01*
X138002262Y-52370184D01*
X137849523Y-52274211D01*
X137679254Y-52214631D01*
X137679249Y-52214630D01*
X137500004Y-52194435D01*
X137499996Y-52194435D01*
X137320750Y-52214630D01*
X137320745Y-52214631D01*
X137150476Y-52274211D01*
X136997739Y-52370183D01*
X136911812Y-52456110D01*
X136850488Y-52489594D01*
X136780797Y-52484610D01*
X136755242Y-52471531D01*
X136719903Y-52447919D01*
X136719899Y-52447917D01*
X136719895Y-52447914D01*
X136719891Y-52447912D01*
X136719887Y-52447910D01*
X136537820Y-52372496D01*
X136537810Y-52372493D01*
X136344524Y-52334046D01*
X136344522Y-52334046D01*
X136147440Y-52334046D01*
X136147438Y-52334046D01*
X135954151Y-52372493D01*
X135954141Y-52372496D01*
X135772073Y-52447910D01*
X135772060Y-52447917D01*
X135608199Y-52557406D01*
X135608195Y-52557409D01*
X135468844Y-52696760D01*
X135468841Y-52696764D01*
X135359352Y-52860625D01*
X135359345Y-52860638D01*
X135283931Y-53042706D01*
X135283928Y-53042716D01*
X135245481Y-53236002D01*
X135245481Y-53236005D01*
X135245481Y-54233087D01*
X135245481Y-54233089D01*
X135245480Y-54233089D01*
X130600000Y-54233089D01*
X130600000Y-52065638D01*
X130600597Y-52053484D01*
X130618018Y-51876602D01*
X130622757Y-51852778D01*
X130672577Y-51688540D01*
X130681875Y-51666095D01*
X130762775Y-51514741D01*
X130776272Y-51494541D01*
X130885149Y-51361874D01*
X130902328Y-51344695D01*
X130971178Y-51288191D01*
X131035488Y-51260880D01*
X131049842Y-51260046D01*
X155550158Y-51260046D01*
X155617197Y-51279731D01*
G37*
%TD.AperFunction*%
%TD*%
M02*
