M48
; DRILL file {KiCad 8.0.4} date 2024-10-06T13:03:43-0500
; FORMAT={-:-/ absolute / metric / decimal}
; #@! TF.CreationDate,2024-10-06T13:03:43-05:00
; #@! TF.GenerationSoftware,Kicad,Pcbnew,8.0.4
; #@! TF.FileFunction,Plated,1,4,PTH
FMAT,2
METRIC
; #@! TA.AperFunction,Plated,PTH,ViaDrill
T1C0.300
; #@! TA.AperFunction,Plated,PTH,ViaDrill
T2C0.500
; #@! TA.AperFunction,Plated,PTH,ComponentDrill
T3C0.600
; #@! TA.AperFunction,Plated,PTH,ComponentDrill
T4C0.800
%
G90
G05
T1
X121.4Y-56.6
X121.4Y-57.6
X121.4Y-58.6
X121.4Y-59.6
X122.4Y-56.6
X122.4Y-57.6
X122.4Y-58.6
X122.4Y-59.6
X123.4Y-57.6
X123.4Y-58.6
X123.4Y-59.6
X123.5Y-70.5
X123.5Y-79.0
X124.4Y-57.6
X124.4Y-58.6
X124.4Y-59.6
X125.3Y-71.2
X125.3Y-72.1
X125.4Y-56.6
X125.4Y-57.6
X125.4Y-58.6
X125.4Y-59.6
X126.4Y-58.6
X126.4Y-59.6
X127.2Y-57.1
X127.4Y-59.6
X127.8Y-57.7
X128.4Y-60.0
X128.5Y-57.1
X128.5Y-58.4
X129.4Y-60.0
X129.9Y-73.3
X130.4Y-60.0
X130.4Y-74.0
X131.4Y-60.0
X132.0Y-57.0
X132.0Y-58.2
X132.4Y-59.8
X132.6Y-57.6
X133.2Y-57.0
X133.4Y-59.8
X133.6Y-71.6
X133.6Y-72.9
X134.2Y-72.2
X134.4Y-59.8
X134.6Y-82.4
X134.6Y-83.4
X134.6Y-84.4
X134.7Y-71.6
X134.7Y-72.9
X135.4Y-59.8
X135.6Y-78.4
X135.6Y-81.4
X135.6Y-82.4
X135.6Y-83.4
X135.6Y-84.4
X136.6Y-78.4
X137.5Y-53.0
X137.5Y-54.75
X137.6Y-78.4
X138.6Y-78.4
X138.75Y-53.0
X138.816Y-57.06
X139.6Y-78.4
X140.0Y-53.0
X140.116Y-57.216
X140.5Y-54.0
X140.566Y-62.36
X141.0Y-53.0
X141.2Y-74.8
X141.35Y-57.25
X141.37Y-72.396
X141.85Y-56.625
X142.25Y-53.0
X142.562Y-79.812
X143.25Y-53.0
X143.25Y-54.75
X145.4Y-68.2
X146.0Y-68.8
X146.2Y-80.4
X146.2Y-81.4
X146.2Y-82.4
X146.6Y-68.2
X147.2Y-68.8
X147.2Y-80.4
X147.2Y-81.4
X147.2Y-82.4
X147.8Y-68.2
X148.2Y-80.4
X148.2Y-81.4
X148.2Y-82.4
X148.4Y-68.8
X149.0Y-68.2
X149.2Y-64.0
X149.2Y-80.4
X149.2Y-81.4
X149.2Y-82.4
X149.6Y-68.8
X150.0Y-63.8
X150.2Y-68.2
X150.2Y-80.4
X150.2Y-81.4
X150.2Y-82.4
X150.4Y-64.6
X151.2Y-64.0
X151.2Y-80.4
X151.2Y-81.4
X151.2Y-82.4
X152.2Y-80.4
X152.2Y-81.4
X152.2Y-82.4
X153.2Y-80.4
X153.2Y-81.4
X153.2Y-82.4
X154.2Y-71.6
X154.2Y-80.4
X154.2Y-81.4
X154.2Y-82.4
X154.8Y-71.2
X155.2Y-80.4
X155.2Y-81.4
X155.2Y-82.4
X155.4Y-69.697
X157.8Y-52.2
X157.8Y-53.0
X157.8Y-53.8
X157.8Y-61.4
X157.8Y-62.4
X157.816Y-60.4
X158.2Y-51.6
X158.2Y-54.4
X158.8Y-63.4
X159.8Y-58.4
X159.8Y-59.4
X159.8Y-63.4
X160.8Y-58.4
X160.8Y-59.4
X160.8Y-60.4
X160.8Y-61.4
X160.8Y-62.4
X160.8Y-63.4
X161.8Y-58.4
X161.8Y-59.4
X161.8Y-60.4
X161.8Y-61.4
X161.8Y-62.4
X161.8Y-63.4
X162.8Y-58.4
X162.8Y-59.4
X162.8Y-60.4
X162.8Y-61.4
X162.8Y-62.4
X162.8Y-63.4
X163.8Y-58.4
X163.8Y-59.4
X163.8Y-60.4
X163.8Y-61.4
X163.8Y-62.4
X163.8Y-63.4
X164.8Y-58.4
X164.8Y-59.4
X164.8Y-60.4
X164.8Y-61.4
X164.8Y-62.4
X164.8Y-63.4
T2
X123.25Y-74.75
X132.0Y-83.0
X133.4Y-61.6
X136.2Y-62.6
X136.8Y-63.4
X137.416Y-62.216
X138.017Y-62.817
X144.066Y-63.06
X145.2Y-63.06
X145.4Y-61.2
X145.6Y-60.2
X150.0Y-52.4
X151.2Y-52.4
X152.4Y-52.4
X153.6Y-52.4
X154.2Y-62.2
X154.2Y-63.2
X154.8Y-52.4
T4
X124.037Y-61.6
X124.037Y-82.8
X126.037Y-61.6
X126.037Y-82.8
T3
X136.246Y-54.135G85X136.246Y-53.335
G05
X136.246Y-58.465G85X136.246Y-57.365
G05
X144.886Y-54.135G85X144.886Y-53.335
G05
X144.886Y-58.465G85X144.886Y-57.365
G05
M30
